<?xml version="1.0" encoding="utf-8" standalone="no"?>
<!DOCTYPE svg PUBLIC "-//W3C//DTD SVG 1.1//EN"
  "http://www.w3.org/Graphics/SVG/1.1/DTD/svg11.dtd">
<!-- Created with matplotlib (http://matplotlib.org/) -->
<svg height="524pt" version="1.1" viewBox="0 0 839 524" width="839pt" xmlns="http://www.w3.org/2000/svg" xmlns:xlink="http://www.w3.org/1999/xlink">
 <defs>
  <style type="text/css">
*{stroke-linecap:butt;stroke-linejoin:round;}
  </style>
 </defs>
 <g id="figure_1">
  <g id="patch_1">
   <path d="M 0 524.995141 
L 839.356589 524.995141 
L 839.356589 0 
L 0 0 
z
" style="fill:#ffffff;"/>
  </g>
  <g id="axes_1">
   <g id="patch_2">
    <path d="M 233.548464 184.147992 
C 223.873364 184.147992 214.237312 185.37667 204.871782 187.804511 
C 195.506253 190.232352 186.486842 193.839758 178.030212 198.540075 
L 233.548464 298.426392 
L 233.548464 184.147992 
z
" style="fill:#42cfbe;stroke:#ffffff;stroke-linejoin:miter;stroke-width:0.7;"/>
   </g>
   <g id="patch_3">
    <path d="M 178.030212 198.540075 
C 169.258778 203.415364 161.167611 209.424869 153.965704 216.413363 
C 146.763797 223.401858 140.513697 231.30865 135.376841 239.929511 
L 233.548464 298.426392 
L 178.030212 198.540075 
z
" style="fill:#0cc0aa;stroke:#ffffff;stroke-linejoin:miter;stroke-width:0.7;"/>
   </g>
   <g id="patch_4">
    <path d="M 135.376841 239.929511 
C 135.376841 239.929511 135.376841 239.929511 135.376841 239.929511 
L 233.548464 298.426392 
L 135.376841 239.929511 
z
" style="fill:none;stroke:#ffffff;stroke-linejoin:miter;stroke-width:0.7;"/>
   </g>
   <g id="patch_5">
    <path d="M 135.376841 239.929511 
C 135.376841 239.929511 135.376841 239.929511 135.376841 239.929511 
L 233.548464 298.426392 
L 135.376841 239.929511 
z
" style="fill:none;stroke:#ffffff;stroke-linejoin:miter;stroke-width:0.7;"/>
   </g>
   <g id="patch_6">
    <path d="M 135.376841 239.929511 
C 130.765072 247.669151 127.084706 255.927082 124.412476 264.53113 
C 121.740246 273.135178 120.094854 282.025127 119.510605 291.015628 
L 233.548464 298.426392 
L 135.376841 239.929511 
z
" style="fill:#ae603d;stroke:#ffffff;stroke-linejoin:miter;stroke-width:0.7;"/>
   </g>
   <g id="patch_7">
    <path d="M 119.510605 291.015628 
C 118.759227 302.57794 119.770656 314.18757 122.510153 325.445758 
C 125.24965 336.703946 129.685486 347.480302 135.665302 357.404688 
L 233.548464 298.426392 
L 119.510605 291.015628 
z
" style="fill:#943105;stroke:#ffffff;stroke-linejoin:miter;stroke-width:0.7;"/>
   </g>
   <g id="patch_8">
    <path d="M 135.665302 357.404688 
C 135.665302 357.404688 135.665302 357.404688 135.665302 357.404688 
L 233.548464 298.426392 
L 135.665302 357.404688 
z
" style="fill:none;stroke:#ffffff;stroke-linejoin:miter;stroke-width:0.7;"/>
   </g>
   <g id="patch_9">
    <path d="M 135.665302 357.404688 
C 135.665302 357.404688 135.665302 357.404688 135.665302 357.404688 
L 233.548464 298.426392 
L 135.665302 357.404688 
z
" style="fill:none;stroke:#ffffff;stroke-linejoin:miter;stroke-width:0.7;"/>
   </g>
   <g id="patch_10">
    <path d="M 135.665302 357.404688 
C 140.241864 365.000166 145.686996 372.037202 151.890693 378.373632 
C 158.094391 384.710062 165.014594 390.302926 172.511498 395.039236 
L 233.548464 298.426392 
L 135.665302 357.404688 
z
" style="fill:#b9d47a;stroke:#ffffff;stroke-linejoin:miter;stroke-width:0.7;"/>
   </g>
   <g id="patch_11">
    <path d="M 172.511498 395.039236 
C 184.6295 402.695009 198.080404 408.002969 212.160903 410.685579 
C 226.241401 413.368188 240.701732 413.377862 254.785807 410.714094 
L 233.548464 298.426392 
L 172.511498 395.039236 
z
" style="fill:#adcc63;stroke:#ffffff;stroke-linejoin:miter;stroke-width:0.7;"/>
   </g>
   <g id="patch_12">
    <path d="M 254.785807 410.714094 
C 270.242578 407.790704 284.93054 401.707044 297.927577 392.845048 
C 310.924615 383.983052 321.952928 372.532137 330.320156 359.211196 
L 233.548464 298.426392 
L 254.785807 410.714094 
z
" style="fill:#a1c54d;stroke:#ffffff;stroke-linejoin:miter;stroke-width:0.7;"/>
   </g>
   <g id="patch_13">
    <path d="M 330.320156 359.211196 
C 330.320156 359.211196 330.320156 359.211196 330.320156 359.211196 
L 233.548464 298.426392 
L 330.320156 359.211196 
z
" style="fill:none;stroke:#ffffff;stroke-linejoin:miter;stroke-width:0.7;"/>
   </g>
   <g id="patch_14">
    <path d="M 330.320156 359.211196 
C 334.933277 351.866934 338.695377 344.021333 341.533736 335.826042 
C 344.372095 327.630751 346.268308 319.138918 347.18572 310.514683 
L 233.548464 298.426392 
L 330.320156 359.211196 
z
" style="fill:#9bb0be;stroke:#ffffff;stroke-linejoin:miter;stroke-width:0.7;"/>
   </g>
   <g id="patch_15">
    <path d="M 347.18572 310.514683 
C 348.209146 300.893864 348.006656 291.181905 346.583116 281.612104 
C 345.159575 272.042303 342.526475 262.691905 338.747065 253.785524 
L 233.548464 298.426392 
L 347.18572 310.514683 
z
" style="fill:#728ea0;stroke:#ffffff;stroke-linejoin:miter;stroke-width:0.7;"/>
   </g>
   <g id="patch_16">
    <path d="M 338.747065 253.785524 
C 334.814563 244.518372 329.674703 235.811349 323.461081 227.890769 
C 317.247459 219.97019 310.01438 212.905277 301.949849 206.879665 
L 233.548464 298.426392 
L 338.747065 253.785524 
z
" style="fill:#4a6c83;stroke:#ffffff;stroke-linejoin:miter;stroke-width:0.7;"/>
   </g>
   <g id="patch_17">
    <path d="M 301.949849 206.879665 
C 292.138126 199.548596 281.211319 193.842362 269.588308 189.979712 
C 257.965296 186.117063 245.796525 184.147995 233.548486 184.147992 
L 233.548464 298.426392 
L 301.949849 206.879665 
z
" style="fill:#214a65;stroke:#ffffff;stroke-linejoin:miter;stroke-width:0.7;"/>
   </g>
   <g id="patch_18">
    <path d="M 233.548464 198.432792 
C 216.230616 198.432792 199.206198 202.931698 184.149225 211.487131 
C 169.092252 220.042563 156.512969 232.364601 147.648299 247.241613 
L 233.548464 298.426392 
L 233.548464 198.432792 
z
" style="fill:#0cc0aa;stroke:#ffffff;stroke-linejoin:miter;stroke-width:0.7;"/>
   </g>
   <g id="patch_19">
    <path d="M 147.648299 247.241613 
C 138.382428 262.791935 133.510719 280.570345 133.555166 298.671917 
C 133.599613 316.773489 138.558569 334.527761 147.900693 350.032393 
L 233.548464 298.426392 
L 147.648299 247.241613 
z
" style="fill:#943105;stroke:#ffffff;stroke-linejoin:miter;stroke-width:0.7;"/>
   </g>
   <g id="patch_20">
    <path d="M 147.900693 350.032393 
C 156.714266 364.659818 169.129874 376.78841 183.9594 385.25752 
C 198.788926 393.726629 215.543745 398.257203 232.620499 398.415686 
C 249.697254 398.57417 266.533273 394.35534 281.517429 386.162921 
C 296.501584 377.970502 309.140156 366.074429 318.223692 351.6131 
L 233.548464 298.426392 
L 147.900693 350.032393 
z
" style="fill:#a1c54d;stroke:#ffffff;stroke-linejoin:miter;stroke-width:0.7;"/>
   </g>
   <g id="patch_21">
    <path d="M 318.223692 351.6131 
C 327.727141 336.483254 333.004023 319.079227 333.503054 301.219251 
C 334.002085 283.359276 329.705258 265.687747 321.061471 250.050844 
C 312.417685 234.413942 299.738811 221.375851 284.349435 212.298688 
C 268.96006 203.221525 251.415439 198.432797 233.548492 198.432792 
L 233.548464 298.426392 
L 318.223692 351.6131 
z
" style="fill:#214a65;stroke:#ffffff;stroke-linejoin:miter;stroke-width:0.7;"/>
   </g>
   <g id="matplotlib.axis_1"/>
   <g id="matplotlib.axis_2"/>
   <g id="text_1">
    <text style="font-family:DejaVu Sans;font-size:7px;font-style:normal;font-weight:roman;text-anchor:end;" transform="rotate(-284.532968, 201.568189, 182.758117)" x="201.568189" y="182.758117">protein maturation</text>
   </g>
   <g id="text_2">
    <text style="font-family:DejaVu Sans;font-size:7px;font-style:normal;font-weight:roman;text-anchor:end;" transform="rotate(-314.138383, 148.600361, 213.65784)" x="148.600361" y="213.65784">protein processing</text>
   </g>
   <g id="text_3">
    <text style="font-family:DejaVu Sans;font-size:7px;font-style:normal;font-weight:roman;text-anchor:end;" transform="rotate(-342.746343, 118.382771, 264.681011)" x="118.382771" y="264.681011">negative regulation of transport</text>
   </g>
   <g id="text_4">
    <text style="font-family:DejaVu Sans;font-size:7px;font-style:normal;font-weight:roman;text-anchor:end;" transform="rotate(-13.676202, 117.414926, 328.673524)" x="117.414926" y="328.673524">negative regulation of secretion</text>
   </g>
   <g id="text_5">
    <text style="font-family:DejaVu Sans;font-size:7px;font-style:normal;font-weight:roman;text-anchor:end;" transform="rotate(-44.393567, 149.159093, 383.751194)" x="149.159093" y="383.751194">cell morphogenesis</text>
   </g>
   <g id="text_6">
    <text style="font-family:DejaVu Sans;font-size:7px;font-style:normal;font-weight:roman;text-anchor:end;" transform="rotate(-79.213309, 212.988958, 416.660036)" x="212.988958" y="416.660036">epithelial cell morphogenesis</text>
   </g>
   <g id="text_7">
    <text style="font-family:DejaVu Sans;font-size:7px;font-style:normal;font-weight:roman;text-anchor:start;" transform="rotate(-304.288019, 299.550645, 398.654133)" x="299.550645" y="398.654133">camera-type eye morphogenesis</text>
   </g>
   <g id="text_8">
    <text style="font-family:DejaVu Sans;font-size:7px;font-style:normal;font-weight:roman;text-anchor:start;" transform="rotate(-340.896969, 346.300861, 339.521219)" x="346.300861" y="339.521219">cell-cell signaling</text>
   </g>
   <g id="text_9">
    <text style="font-family:DejaVu Sans;font-size:7px;font-style:normal;font-weight:roman;text-anchor:start;" transform="rotate(-8.4609, 352.519048, 282.68193)" x="352.519048" y="282.68193">establishment or maintenance of cell polarity</text>
   </g>
   <g id="text_10">
    <text style="font-family:DejaVu Sans;font-size:7px;font-style:normal;font-weight:roman;text-anchor:start;" transform="rotate(-38.113859, 329.148923, 225.883714)" x="329.148923" y="225.883714">actin filament organization</text>
   </g>
   <g id="text_11">
    <text style="font-family:DejaVu Sans;font-size:7px;font-style:normal;font-weight:roman;text-anchor:start;" transform="rotate(-71.61692, 273.223293, 185.166533)" x="273.223293" y="185.166533">establishment or maintenance of bipolar cell polarity</text>
   </g>
   <g id="text_12">
    <path d="M 187.641417 224.284538 
Q 187.183909 223.970856 186.815899 223.562292 
Q 186.44843 223.154678 186.14638 222.623092 
Q 185.609284 221.677839 185.782065 220.863872 
Q 185.954847 220.049905 186.784083 219.57873 
Q 187.321375 219.273438 187.88828 219.175242 
Q 188.456676 219.077455 189.036358 219.192145 
Q 189.744724 219.331839 190.296249 219.755637 
Q 190.847774 220.179436 191.254649 220.895508 
Q 191.481051 221.29396 191.627011 221.745667 
Q 191.773921 222.196834 191.832976 222.681568 
L 190.815878 223.028018 
Q 190.820171 222.546288 190.726602 222.140291 
Q 190.634524 221.734704 190.43568 221.384752 
Q 189.999626 220.617328 189.214599 220.426845 
Q 188.430522 220.235821 187.627913 220.691867 
Q 187.096327 220.993916 186.960929 221.441954 
Q 186.827023 221.890403 187.117185 222.401068 
Q 187.211745 222.567486 187.328176 222.721476 
Q 187.445558 222.874926 187.589287 223.017179 
L 188.547036 222.696903 
L 188.150427 221.998899 
L 189.000523 221.708343 
L 190.010416 223.485685 
z
M 192.540408 227.579636 
Q 193.063436 227.28245 193.201817 226.890583 
Q 193.341689 226.499128 193.086649 226.050275 
Q 192.748937 225.455926 191.986346 225.355849 
Q 191.224294 225.256724 190.422636 225.712229 
Q 189.91102 226.002932 189.762049 226.398299 
Q 189.613078 226.793667 189.850827 227.212089 
Q 190.045349 227.554434 190.339698 227.73816 
Q 190.635539 227.922297 191.02442 227.949156 
Q 191.396487 227.972988 191.790143 227.877626 
Q 192.183799 227.782263 192.540408 227.579636 
z
M 194.010445 225.745518 
Q 194.5135 226.630861 194.328226 227.44941 
Q 194.142953 228.267959 193.348902 228.719141 
Q 192.808757 229.026054 192.233142 229.13549 
Q 191.658478 229.244385 191.095849 229.146423 
Q 190.403845 229.028882 189.870021 228.634023 
Q 189.337689 228.239575 188.945943 227.55013 
Q 188.444509 226.66764 188.629372 225.850582 
Q 188.814235 225.033525 189.610188 224.581261 
Q 190.154136 224.272187 190.72826 224.162341 
Q 191.303334 224.051954 191.869897 224.150197 
Q 192.555806 224.263653 193.086777 224.660133 
Q 193.618699 225.056073 194.010445 225.745518 
z
M 196.826143 233.156235 
L 194.10429 232.614553 
L 194.796464 233.832732 
z
M 197.783585 232.571957 
L 198.523308 233.87382 
L 195.411369 234.914923 
L 195.771235 235.548262 
L 194.852302 235.861578 
L 194.492437 235.22824 
L 193.594966 235.530619 
L 192.978439 234.445575 
L 193.878072 234.146999 
L 192.74336 232.149985 
L 193.833488 231.785941 
z
" style="fill:#ffffff;stroke:#000000;"/>
    <path d="M 187.641417 224.284538 
Q 187.183909 223.970856 186.815899 223.562292 
Q 186.44843 223.154678 186.14638 222.623092 
Q 185.609284 221.677839 185.782065 220.863872 
Q 185.954847 220.049905 186.784083 219.57873 
Q 187.321375 219.273438 187.88828 219.175242 
Q 188.456676 219.077455 189.036358 219.192145 
Q 189.744724 219.331839 190.296249 219.755637 
Q 190.847774 220.179436 191.254649 220.895508 
Q 191.481051 221.29396 191.627011 221.745667 
Q 191.773921 222.196834 191.832976 222.681568 
L 190.815878 223.028018 
Q 190.820171 222.546288 190.726602 222.140291 
Q 190.634524 221.734704 190.43568 221.384752 
Q 189.999626 220.617328 189.214599 220.426845 
Q 188.430522 220.235821 187.627913 220.691867 
Q 187.096327 220.993916 186.960929 221.441954 
Q 186.827023 221.890403 187.117185 222.401068 
Q 187.211745 222.567486 187.328176 222.721476 
Q 187.445558 222.874926 187.589287 223.017179 
L 188.547036 222.696903 
L 188.150427 221.998899 
L 189.000523 221.708343 
L 190.010416 223.485685 
z
M 192.540408 227.579636 
Q 193.063436 227.28245 193.201817 226.890583 
Q 193.341689 226.499128 193.086649 226.050275 
Q 192.748937 225.455926 191.986346 225.355849 
Q 191.224294 225.256724 190.422636 225.712229 
Q 189.91102 226.002932 189.762049 226.398299 
Q 189.613078 226.793667 189.850827 227.212089 
Q 190.045349 227.554434 190.339698 227.73816 
Q 190.635539 227.922297 191.02442 227.949156 
Q 191.396487 227.972988 191.790143 227.877626 
Q 192.183799 227.782263 192.540408 227.579636 
z
M 194.010445 225.745518 
Q 194.5135 226.630861 194.328226 227.44941 
Q 194.142953 228.267959 193.348902 228.719141 
Q 192.808757 229.026054 192.233142 229.13549 
Q 191.658478 229.244385 191.095849 229.146423 
Q 190.403845 229.028882 189.870021 228.634023 
Q 189.337689 228.239575 188.945943 227.55013 
Q 188.444509 226.66764 188.629372 225.850582 
Q 188.814235 225.033525 189.610188 224.581261 
Q 190.154136 224.272187 190.72826 224.162341 
Q 191.303334 224.051954 191.869897 224.150197 
Q 192.555806 224.263653 193.086777 224.660133 
Q 193.618699 225.056073 194.010445 225.745518 
z
M 196.826143 233.156235 
L 194.10429 232.614553 
L 194.796464 233.832732 
z
M 197.783585 232.571957 
L 198.523308 233.87382 
L 195.411369 234.914923 
L 195.771235 235.548262 
L 194.852302 235.861578 
L 194.492437 235.22824 
L 193.594966 235.530619 
L 192.978439 234.445575 
L 193.878072 234.146999 
L 192.74336 232.149985 
L 193.833488 231.785941 
z
" style="fill:#ffffff;"/>
    <path d="M 189.641417 226.284538 
Q 189.183909 225.970856 188.815899 225.562292 
Q 188.44843 225.154678 188.14638 224.623092 
Q 187.609284 223.677839 187.782065 222.863872 
Q 187.954847 222.049905 188.784083 221.57873 
Q 189.321375 221.273438 189.88828 221.175242 
Q 190.456676 221.077455 191.036358 221.192145 
Q 191.744724 221.331839 192.296249 221.755637 
Q 192.847774 222.179436 193.254649 222.895508 
Q 193.481051 223.29396 193.627011 223.745667 
Q 193.773921 224.196834 193.832976 224.681568 
L 192.815878 225.028018 
Q 192.820171 224.546288 192.726602 224.140291 
Q 192.634524 223.734704 192.43568 223.384752 
Q 191.999626 222.617328 191.214599 222.426845 
Q 190.430522 222.235821 189.627913 222.691867 
Q 189.096327 222.993916 188.960929 223.441954 
Q 188.827023 223.890403 189.117185 224.401068 
Q 189.211745 224.567486 189.328176 224.721476 
Q 189.445558 224.874926 189.589287 225.017179 
L 190.547036 224.696903 
L 190.150427 223.998899 
L 191.000523 223.708343 
L 192.010416 225.485685 
z
M 194.540408 229.579636 
Q 195.063436 229.28245 195.201817 228.890583 
Q 195.341689 228.499128 195.086649 228.050275 
Q 194.748937 227.455926 193.986346 227.355849 
Q 193.224294 227.256724 192.422636 227.712229 
Q 191.91102 228.002932 191.762049 228.398299 
Q 191.613078 228.793667 191.850827 229.212089 
Q 192.045349 229.554434 192.339698 229.73816 
Q 192.635539 229.922297 193.02442 229.949156 
Q 193.396487 229.972988 193.790143 229.877626 
Q 194.183799 229.782263 194.540408 229.579636 
z
M 196.010445 227.745518 
Q 196.5135 228.630861 196.328226 229.44941 
Q 196.142953 230.267959 195.348902 230.719141 
Q 194.808757 231.026054 194.233142 231.13549 
Q 193.658478 231.244385 193.095849 231.146423 
Q 192.403845 231.028882 191.870021 230.634023 
Q 191.337689 230.239575 190.945943 229.55013 
Q 190.444509 228.66764 190.629372 227.850582 
Q 190.814235 227.033525 191.610188 226.581261 
Q 192.154136 226.272187 192.72826 226.162341 
Q 193.303334 226.051954 193.869897 226.150197 
Q 194.555806 226.263653 195.086777 226.660133 
Q 195.618699 227.056073 196.010445 227.745518 
z
M 198.826143 235.156235 
L 196.10429 234.614553 
L 196.796464 235.832732 
z
M 199.783585 234.571957 
L 200.523308 235.87382 
L 197.411369 236.914923 
L 197.771235 237.548262 
L 196.852302 237.861578 
L 196.492437 237.22824 
L 195.594966 237.530619 
L 194.978439 236.445575 
L 195.878072 236.146999 
L 194.74336 234.149985 
L 195.833488 233.785941 
z
" style="fill:#4c4c4c;opacity:0.3;"/>
    <path d="M 187.641417 224.284538 
Q 187.183909 223.970856 186.815899 223.562292 
Q 186.44843 223.154678 186.14638 222.623092 
Q 185.609284 221.677839 185.782065 220.863872 
Q 185.954847 220.049905 186.784083 219.57873 
Q 187.321375 219.273438 187.88828 219.175242 
Q 188.456676 219.077455 189.036358 219.192145 
Q 189.744724 219.331839 190.296249 219.755637 
Q 190.847774 220.179436 191.254649 220.895508 
Q 191.481051 221.29396 191.627011 221.745667 
Q 191.773921 222.196834 191.832976 222.681568 
L 190.815878 223.028018 
Q 190.820171 222.546288 190.726602 222.140291 
Q 190.634524 221.734704 190.43568 221.384752 
Q 189.999626 220.617328 189.214599 220.426845 
Q 188.430522 220.235821 187.627913 220.691867 
Q 187.096327 220.993916 186.960929 221.441954 
Q 186.827023 221.890403 187.117185 222.401068 
Q 187.211745 222.567486 187.328176 222.721476 
Q 187.445558 222.874926 187.589287 223.017179 
L 188.547036 222.696903 
L 188.150427 221.998899 
L 189.000523 221.708343 
L 190.010416 223.485685 
z
M 192.540408 227.579636 
Q 193.063436 227.28245 193.201817 226.890583 
Q 193.341689 226.499128 193.086649 226.050275 
Q 192.748937 225.455926 191.986346 225.355849 
Q 191.224294 225.256724 190.422636 225.712229 
Q 189.91102 226.002932 189.762049 226.398299 
Q 189.613078 226.793667 189.850827 227.212089 
Q 190.045349 227.554434 190.339698 227.73816 
Q 190.635539 227.922297 191.02442 227.949156 
Q 191.396487 227.972988 191.790143 227.877626 
Q 192.183799 227.782263 192.540408 227.579636 
z
M 194.010445 225.745518 
Q 194.5135 226.630861 194.328226 227.44941 
Q 194.142953 228.267959 193.348902 228.719141 
Q 192.808757 229.026054 192.233142 229.13549 
Q 191.658478 229.244385 191.095849 229.146423 
Q 190.403845 229.028882 189.870021 228.634023 
Q 189.337689 228.239575 188.945943 227.55013 
Q 188.444509 226.66764 188.629372 225.850582 
Q 188.814235 225.033525 189.610188 224.581261 
Q 190.154136 224.272187 190.72826 224.162341 
Q 191.303334 224.051954 191.869897 224.150197 
Q 192.555806 224.263653 193.086777 224.660133 
Q 193.618699 225.056073 194.010445 225.745518 
z
M 196.826143 233.156235 
L 194.10429 232.614553 
L 194.796464 233.832732 
z
M 197.783585 232.571957 
L 198.523308 233.87382 
L 195.411369 234.914923 
L 195.771235 235.548262 
L 194.852302 235.861578 
L 194.492437 235.22824 
L 193.594966 235.530619 
L 192.978439 234.445575 
L 193.878072 234.146999 
L 192.74336 232.149985 
L 193.833488 231.785941 
z
" style="fill:#ffffff;"/>
   </g>
   <g id="text_13">
    <path d="M 149.312442 303.572576 
Q 148.81429 303.816612 148.27755 303.936055 
Q 147.741904 304.055496 147.1305 304.056997 
Q 146.043316 304.059667 145.419617 303.508853 
Q 144.795919 302.958039 144.793577 302.004291 
Q 144.79206 301.386325 144.985418 300.844442 
Q 145.179866 300.301463 145.56486 299.853172 
Q 146.034922 299.305142 146.675195 299.033412 
Q 147.315467 298.761683 148.139058 298.759661 
Q 148.597338 298.758536 149.062417 298.853644 
Q 149.527493 298.947659 149.978578 299.134677 
L 149.77992 300.190636 
Q 149.362609 299.949941 148.963099 299.831703 
Q 148.56468 299.712369 148.162181 299.713357 
Q 147.279528 299.715524 146.727537 300.305319 
Q 146.175543 300.89402 146.17781 301.817142 
Q 146.179311 302.428546 146.502799 302.766816 
Q 146.827378 303.103989 147.41472 303.102546 
Q 147.606125 303.102076 147.797469 303.07645 
Q 147.98881 303.04973 148.183363 302.994565 
L 148.375617 302.003152 
L 147.572807 302.005124 
L 147.737983 301.122059 
L 149.782195 301.11704 
z
M 154.591101 300.928044 
Q 154.589624 300.326483 154.31651 300.013247 
Q 154.044488 299.698914 153.528239 299.700181 
Q 152.844648 299.70186 152.382406 300.31659 
Q 151.921257 300.931318 151.923521 301.853347 
Q 151.924966 302.441782 152.195919 302.765962 
Q 152.466872 303.090141 152.948121 303.08896 
Q 153.34187 303.087993 153.646619 302.922088 
Q 153.95246 302.755086 154.167131 302.429714 
Q 154.370896 302.117494 154.481502 301.727847 
Q 154.592108 301.338199 154.591101 300.928044 
z
M 153.717303 298.745964 
Q 154.735581 298.743464 155.357124 299.307408 
Q 155.978667 299.871352 155.980909 300.784631 
Q 155.982435 301.405879 155.794578 301.960873 
Q 155.606719 302.514774 155.244677 302.956445 
Q 154.801951 303.501128 154.195582 303.77168 
Q 153.590304 304.041136 152.797338 304.043083 
Q 151.782341 304.045575 151.161895 303.482722 
Q 150.541448 302.919868 150.539201 302.004402 
Q 150.537664 301.378779 150.72443 300.824882 
Q 150.911193 300.26989 151.275414 299.824932 
Q 151.711586 299.283547 152.317963 299.016276 
Q 152.924337 298.747911 153.717303 298.745964 
z
M 161.977536 301.169127 
Q 162.363848 301.257866 162.57998 301.527492 
Q 162.796109 301.796025 162.797075 302.189774 
Q 162.799157 303.037427 162.128802 303.530169 
Q 161.458445 304.021816 160.282667 304.024703 
Q 159.837512 304.025796 159.435951 303.963344 
Q 159.034391 303.900893 158.678611 303.774891 
L 158.870806 302.759416 
Q 159.175305 302.93695 159.534293 303.033413 
Q 159.894375 303.129873 160.253124 303.128992 
Q 160.830622 303.127574 161.165871 302.910187 
Q 161.50221 302.691705 161.501313 302.326393 
Q 161.500564 302.021238 161.244254 301.869835 
Q 160.987944 301.718433 160.471695 301.719701 
L 159.948885 301.720984 
L 160.114146 300.87292 
L 160.667582 300.871561 
Q 161.204612 300.870242 161.516945 300.674787 
Q 161.829279 300.479332 161.828465 300.147927 
Q 161.827826 299.887615 161.609835 299.751431 
Q 161.392937 299.615245 160.979501 299.61626 
Q 160.688564 299.616974 160.346407 299.693284 
Q 160.005343 299.76959 159.636009 299.913778 
L 159.821767 298.949726 
Q 160.225091 298.83936 160.616518 298.783711 
Q 161.007945 298.728063 161.390757 298.727123 
Q 162.254816 298.725001 162.690834 299.011587 
Q 163.127942 299.297078 163.129336 299.864732 
Q 163.130585 300.373324 162.828452 300.714223 
Q 162.527414 301.05512 161.977536 301.169127 
z
" style="fill:#ffffff;stroke:#000000;"/>
    <path d="M 149.312442 303.572576 
Q 148.81429 303.816612 148.27755 303.936055 
Q 147.741904 304.055496 147.1305 304.056997 
Q 146.043316 304.059667 145.419617 303.508853 
Q 144.795919 302.958039 144.793577 302.004291 
Q 144.79206 301.386325 144.985418 300.844442 
Q 145.179866 300.301463 145.56486 299.853172 
Q 146.034922 299.305142 146.675195 299.033412 
Q 147.315467 298.761683 148.139058 298.759661 
Q 148.597338 298.758536 149.062417 298.853644 
Q 149.527493 298.947659 149.978578 299.134677 
L 149.77992 300.190636 
Q 149.362609 299.949941 148.963099 299.831703 
Q 148.56468 299.712369 148.162181 299.713357 
Q 147.279528 299.715524 146.727537 300.305319 
Q 146.175543 300.89402 146.17781 301.817142 
Q 146.179311 302.428546 146.502799 302.766816 
Q 146.827378 303.103989 147.41472 303.102546 
Q 147.606125 303.102076 147.797469 303.07645 
Q 147.98881 303.04973 148.183363 302.994565 
L 148.375617 302.003152 
L 147.572807 302.005124 
L 147.737983 301.122059 
L 149.782195 301.11704 
z
M 154.591101 300.928044 
Q 154.589624 300.326483 154.31651 300.013247 
Q 154.044488 299.698914 153.528239 299.700181 
Q 152.844648 299.70186 152.382406 300.31659 
Q 151.921257 300.931318 151.923521 301.853347 
Q 151.924966 302.441782 152.195919 302.765962 
Q 152.466872 303.090141 152.948121 303.08896 
Q 153.34187 303.087993 153.646619 302.922088 
Q 153.95246 302.755086 154.167131 302.429714 
Q 154.370896 302.117494 154.481502 301.727847 
Q 154.592108 301.338199 154.591101 300.928044 
z
M 153.717303 298.745964 
Q 154.735581 298.743464 155.357124 299.307408 
Q 155.978667 299.871352 155.980909 300.784631 
Q 155.982435 301.405879 155.794578 301.960873 
Q 155.606719 302.514774 155.244677 302.956445 
Q 154.801951 303.501128 154.195582 303.77168 
Q 153.590304 304.041136 152.797338 304.043083 
Q 151.782341 304.045575 151.161895 303.482722 
Q 150.541448 302.919868 150.539201 302.004402 
Q 150.537664 301.378779 150.72443 300.824882 
Q 150.911193 300.26989 151.275414 299.824932 
Q 151.711586 299.283547 152.317963 299.016276 
Q 152.924337 298.747911 153.717303 298.745964 
z
M 161.977536 301.169127 
Q 162.363848 301.257866 162.57998 301.527492 
Q 162.796109 301.796025 162.797075 302.189774 
Q 162.799157 303.037427 162.128802 303.530169 
Q 161.458445 304.021816 160.282667 304.024703 
Q 159.837512 304.025796 159.435951 303.963344 
Q 159.034391 303.900893 158.678611 303.774891 
L 158.870806 302.759416 
Q 159.175305 302.93695 159.534293 303.033413 
Q 159.894375 303.129873 160.253124 303.128992 
Q 160.830622 303.127574 161.165871 302.910187 
Q 161.50221 302.691705 161.501313 302.326393 
Q 161.500564 302.021238 161.244254 301.869835 
Q 160.987944 301.718433 160.471695 301.719701 
L 159.948885 301.720984 
L 160.114146 300.87292 
L 160.667582 300.871561 
Q 161.204612 300.870242 161.516945 300.674787 
Q 161.829279 300.479332 161.828465 300.147927 
Q 161.827826 299.887615 161.609835 299.751431 
Q 161.392937 299.615245 160.979501 299.61626 
Q 160.688564 299.616974 160.346407 299.693284 
Q 160.005343 299.76959 159.636009 299.913778 
L 159.821767 298.949726 
Q 160.225091 298.83936 160.616518 298.783711 
Q 161.007945 298.728063 161.390757 298.727123 
Q 162.254816 298.725001 162.690834 299.011587 
Q 163.127942 299.297078 163.129336 299.864732 
Q 163.130585 300.373324 162.828452 300.714223 
Q 162.527414 301.05512 161.977536 301.169127 
z
" style="fill:#ffffff;"/>
    <path d="M 151.312442 305.572576 
Q 150.81429 305.816612 150.27755 305.936055 
Q 149.741904 306.055496 149.1305 306.056997 
Q 148.043316 306.059667 147.419617 305.508853 
Q 146.795919 304.958039 146.793577 304.004291 
Q 146.79206 303.386325 146.985418 302.844442 
Q 147.179866 302.301463 147.56486 301.853172 
Q 148.034922 301.305142 148.675195 301.033412 
Q 149.315467 300.761683 150.139058 300.759661 
Q 150.597338 300.758536 151.062417 300.853644 
Q 151.527493 300.947659 151.978578 301.134677 
L 151.77992 302.190636 
Q 151.362609 301.949941 150.963099 301.831703 
Q 150.56468 301.712369 150.162181 301.713357 
Q 149.279528 301.715524 148.727537 302.305319 
Q 148.175543 302.89402 148.17781 303.817142 
Q 148.179311 304.428546 148.502799 304.766816 
Q 148.827378 305.103989 149.41472 305.102546 
Q 149.606125 305.102076 149.797469 305.07645 
Q 149.98881 305.04973 150.183363 304.994565 
L 150.375617 304.003152 
L 149.572807 304.005124 
L 149.737983 303.122059 
L 151.782195 303.11704 
z
M 156.591101 302.928044 
Q 156.589624 302.326483 156.31651 302.013247 
Q 156.044488 301.698914 155.528239 301.700181 
Q 154.844648 301.70186 154.382406 302.31659 
Q 153.921257 302.931318 153.923521 303.853347 
Q 153.924966 304.441782 154.195919 304.765962 
Q 154.466872 305.090141 154.948121 305.08896 
Q 155.34187 305.087993 155.646619 304.922088 
Q 155.95246 304.755086 156.167131 304.429714 
Q 156.370896 304.117494 156.481502 303.727847 
Q 156.592108 303.338199 156.591101 302.928044 
z
M 155.717303 300.745964 
Q 156.735581 300.743464 157.357124 301.307408 
Q 157.978667 301.871352 157.980909 302.784631 
Q 157.982435 303.405879 157.794578 303.960873 
Q 157.606719 304.514774 157.244677 304.956445 
Q 156.801951 305.501128 156.195582 305.77168 
Q 155.590304 306.041136 154.797338 306.043083 
Q 153.782341 306.045575 153.161895 305.482722 
Q 152.541448 304.919868 152.539201 304.004402 
Q 152.537664 303.378779 152.72443 302.824882 
Q 152.911193 302.26989 153.275414 301.824932 
Q 153.711586 301.283547 154.317963 301.016276 
Q 154.924337 300.747911 155.717303 300.745964 
z
M 163.977536 303.169127 
Q 164.363848 303.257866 164.57998 303.527492 
Q 164.796109 303.796025 164.797075 304.189774 
Q 164.799157 305.037427 164.128802 305.530169 
Q 163.458445 306.021816 162.282667 306.024703 
Q 161.837512 306.025796 161.435951 305.963344 
Q 161.034391 305.900893 160.678611 305.774891 
L 160.870806 304.759416 
Q 161.175305 304.93695 161.534293 305.033413 
Q 161.894375 305.129873 162.253124 305.128992 
Q 162.830622 305.127574 163.165871 304.910187 
Q 163.50221 304.691705 163.501313 304.326393 
Q 163.500564 304.021238 163.244254 303.869835 
Q 162.987944 303.718433 162.471695 303.719701 
L 161.948885 303.720984 
L 162.114146 302.87292 
L 162.667582 302.871561 
Q 163.204612 302.870242 163.516945 302.674787 
Q 163.829279 302.479332 163.828465 302.147927 
Q 163.827826 301.887615 163.609835 301.751431 
Q 163.392937 301.615245 162.979501 301.61626 
Q 162.688564 301.616974 162.346407 301.693284 
Q 162.005343 301.76959 161.636009 301.913778 
L 161.821767 300.949726 
Q 162.225091 300.83936 162.616518 300.783711 
Q 163.007945 300.728063 163.390757 300.727123 
Q 164.254816 300.725001 164.690834 301.011587 
Q 165.127942 301.297078 165.129336 301.864732 
Q 165.130585 302.373324 164.828452 302.714223 
Q 164.527414 303.05512 163.977536 303.169127 
z
" style="fill:#4c4c4c;opacity:0.3;"/>
    <path d="M 149.312442 303.572576 
Q 148.81429 303.816612 148.27755 303.936055 
Q 147.741904 304.055496 147.1305 304.056997 
Q 146.043316 304.059667 145.419617 303.508853 
Q 144.795919 302.958039 144.793577 302.004291 
Q 144.79206 301.386325 144.985418 300.844442 
Q 145.179866 300.301463 145.56486 299.853172 
Q 146.034922 299.305142 146.675195 299.033412 
Q 147.315467 298.761683 148.139058 298.759661 
Q 148.597338 298.758536 149.062417 298.853644 
Q 149.527493 298.947659 149.978578 299.134677 
L 149.77992 300.190636 
Q 149.362609 299.949941 148.963099 299.831703 
Q 148.56468 299.712369 148.162181 299.713357 
Q 147.279528 299.715524 146.727537 300.305319 
Q 146.175543 300.89402 146.17781 301.817142 
Q 146.179311 302.428546 146.502799 302.766816 
Q 146.827378 303.103989 147.41472 303.102546 
Q 147.606125 303.102076 147.797469 303.07645 
Q 147.98881 303.04973 148.183363 302.994565 
L 148.375617 302.003152 
L 147.572807 302.005124 
L 147.737983 301.122059 
L 149.782195 301.11704 
z
M 154.591101 300.928044 
Q 154.589624 300.326483 154.31651 300.013247 
Q 154.044488 299.698914 153.528239 299.700181 
Q 152.844648 299.70186 152.382406 300.31659 
Q 151.921257 300.931318 151.923521 301.853347 
Q 151.924966 302.441782 152.195919 302.765962 
Q 152.466872 303.090141 152.948121 303.08896 
Q 153.34187 303.087993 153.646619 302.922088 
Q 153.95246 302.755086 154.167131 302.429714 
Q 154.370896 302.117494 154.481502 301.727847 
Q 154.592108 301.338199 154.591101 300.928044 
z
M 153.717303 298.745964 
Q 154.735581 298.743464 155.357124 299.307408 
Q 155.978667 299.871352 155.980909 300.784631 
Q 155.982435 301.405879 155.794578 301.960873 
Q 155.606719 302.514774 155.244677 302.956445 
Q 154.801951 303.501128 154.195582 303.77168 
Q 153.590304 304.041136 152.797338 304.043083 
Q 151.782341 304.045575 151.161895 303.482722 
Q 150.541448 302.919868 150.539201 302.004402 
Q 150.537664 301.378779 150.72443 300.824882 
Q 150.911193 300.26989 151.275414 299.824932 
Q 151.711586 299.283547 152.317963 299.016276 
Q 152.924337 298.747911 153.717303 298.745964 
z
M 161.977536 301.169127 
Q 162.363848 301.257866 162.57998 301.527492 
Q 162.796109 301.796025 162.797075 302.189774 
Q 162.799157 303.037427 162.128802 303.530169 
Q 161.458445 304.021816 160.282667 304.024703 
Q 159.837512 304.025796 159.435951 303.963344 
Q 159.034391 303.900893 158.678611 303.774891 
L 158.870806 302.759416 
Q 159.175305 302.93695 159.534293 303.033413 
Q 159.894375 303.129873 160.253124 303.128992 
Q 160.830622 303.127574 161.165871 302.910187 
Q 161.50221 302.691705 161.501313 302.326393 
Q 161.500564 302.021238 161.244254 301.869835 
Q 160.987944 301.718433 160.471695 301.719701 
L 159.948885 301.720984 
L 160.114146 300.87292 
L 160.667582 300.871561 
Q 161.204612 300.870242 161.516945 300.674787 
Q 161.829279 300.479332 161.828465 300.147927 
Q 161.827826 299.887615 161.609835 299.751431 
Q 161.392937 299.615245 160.979501 299.61626 
Q 160.688564 299.616974 160.346407 299.693284 
Q 160.005343 299.76959 159.636009 299.913778 
L 159.821767 298.949726 
Q 160.225091 298.83936 160.616518 298.783711 
Q 161.007945 298.728063 161.390757 298.727123 
Q 162.254816 298.725001 162.690834 299.011587 
Q 163.127942 299.297078 163.129336 299.864732 
Q 163.130585 300.373324 162.828452 300.714223 
Q 162.527414 301.05512 161.977536 301.169127 
z
" style="fill:#ffffff;"/>
   </g>
   <g id="text_14">
    <path d="M 230.931539 382.700374 
Q 231.169713 383.201356 231.282849 383.73946 
Q 231.395995 384.276471 231.390321 384.88785 
Q 231.380232 385.974991 230.822137 386.592182 
Q 230.264041 387.209373 229.310332 387.200522 
Q 228.69239 387.194787 228.152814 386.995084 
Q 227.612154 386.794276 227.168413 386.404048 
Q 226.625936 385.927587 226.361739 385.28417 
Q 226.097543 384.640753 226.105186 383.817195 
Q 226.109439 383.358933 226.209999 382.895002 
Q 226.309465 382.431062 226.501764 381.982202 
L 227.555319 382.193238 
Q 227.309744 382.607696 227.186825 383.005791 
Q 227.062823 383.402783 227.059088 383.805265 
Q 227.050897 384.687883 227.634173 385.246758 
Q 228.216355 385.805622 229.13944 385.814189 
Q 229.75082 385.819863 230.092863 385.500367 
Q 230.433821 385.179768 230.439272 384.592449 
Q 230.441048 384.401051 230.417669 384.20942 
Q 230.393197 384.017778 230.340318 383.822592 
L 229.35123 383.618716 
L 229.34378 384.421494 
L 228.462715 384.245966 
L 228.481686 382.201836 
z
M 228.349138 377.391043 
Q 227.747601 377.38546 227.431181 377.654879 
Q 227.113677 377.923194 227.108886 378.439422 
Q 227.102542 379.122986 227.711806 379.592411 
Q 228.32108 380.060741 229.243071 380.069298 
Q 229.831483 380.074759 230.15882 379.807629 
Q 230.486157 379.540499 230.490623 379.05927 
Q 230.494277 378.665537 230.33196 378.358861 
Q 230.168559 378.051081 229.845729 377.832607 
Q 229.535922 377.625192 229.147599 377.510021 
Q 228.759276 377.394849 228.349138 377.391043 
z
M 226.156954 378.239173 
Q 226.166404 377.220936 226.737603 376.606054 
Q 227.308803 375.991172 228.222045 375.999647 
Q 228.843268 376.005413 229.396019 376.199769 
Q 229.947677 376.394116 230.385069 376.761316 
Q 230.924519 377.210404 231.187936 377.819906 
Q 231.45027 378.428304 231.442911 379.221239 
Q 231.433492 380.236195 230.863396 380.849994 
Q 230.2933 381.463792 229.377871 381.455296 
Q 228.752273 381.44949 228.200605 381.256237 
Q 227.647844 381.062974 227.20719 380.693556 
Q 226.670961 380.251061 226.410825 379.641589 
Q 226.149595 379.032108 226.156954 378.239173 
z
M 230.447184 371.600537 
L 230.467769 369.382508 
L 231.432866 369.578504 
L 231.398477 373.283969 
L 230.425764 373.083528 
L 228.808629 370.898426 
Q 228.538502 370.540435 228.26024 370.351907 
Q 227.981988 370.162285 227.718405 370.159839 
Q 227.438417 370.157241 227.283523 370.347218 
Q 227.127534 370.537184 227.124327 370.882795 
Q 227.121322 371.206531 227.245571 371.608014 
Q 227.369819 372.009496 227.632023 372.513983 
L 226.550194 372.285183 
Q 226.38389 371.818776 226.30492 371.37068 
Q 226.224867 370.92148 226.228927 370.483999 
Q 226.236154 369.705283 226.577166 369.261084 
Q 226.918188 368.815793 227.498944 368.821182 
Q 227.997672 368.825811 228.405274 369.103043 
Q 228.812875 369.380275 229.502029 370.316398 
z
" style="fill:#ffffff;stroke:#000000;"/>
    <path d="M 230.931539 382.700374 
Q 231.169713 383.201356 231.282849 383.73946 
Q 231.395995 384.276471 231.390321 384.88785 
Q 231.380232 385.974991 230.822137 386.592182 
Q 230.264041 387.209373 229.310332 387.200522 
Q 228.69239 387.194787 228.152814 386.995084 
Q 227.612154 386.794276 227.168413 386.404048 
Q 226.625936 385.927587 226.361739 385.28417 
Q 226.097543 384.640753 226.105186 383.817195 
Q 226.109439 383.358933 226.209999 382.895002 
Q 226.309465 382.431062 226.501764 381.982202 
L 227.555319 382.193238 
Q 227.309744 382.607696 227.186825 383.005791 
Q 227.062823 383.402783 227.059088 383.805265 
Q 227.050897 384.687883 227.634173 385.246758 
Q 228.216355 385.805622 229.13944 385.814189 
Q 229.75082 385.819863 230.092863 385.500367 
Q 230.433821 385.179768 230.439272 384.592449 
Q 230.441048 384.401051 230.417669 384.20942 
Q 230.393197 384.017778 230.340318 383.822592 
L 229.35123 383.618716 
L 229.34378 384.421494 
L 228.462715 384.245966 
L 228.481686 382.201836 
z
M 228.349138 377.391043 
Q 227.747601 377.38546 227.431181 377.654879 
Q 227.113677 377.923194 227.108886 378.439422 
Q 227.102542 379.122986 227.711806 379.592411 
Q 228.32108 380.060741 229.243071 380.069298 
Q 229.831483 380.074759 230.15882 379.807629 
Q 230.486157 379.540499 230.490623 379.05927 
Q 230.494277 378.665537 230.33196 378.358861 
Q 230.168559 378.051081 229.845729 377.832607 
Q 229.535922 377.625192 229.147599 377.510021 
Q 228.759276 377.394849 228.349138 377.391043 
z
M 226.156954 378.239173 
Q 226.166404 377.220936 226.737603 376.606054 
Q 227.308803 375.991172 228.222045 375.999647 
Q 228.843268 376.005413 229.396019 376.199769 
Q 229.947677 376.394116 230.385069 376.761316 
Q 230.924519 377.210404 231.187936 377.819906 
Q 231.45027 378.428304 231.442911 379.221239 
Q 231.433492 380.236195 230.863396 380.849994 
Q 230.2933 381.463792 229.377871 381.455296 
Q 228.752273 381.44949 228.200605 381.256237 
Q 227.647844 381.062974 227.20719 380.693556 
Q 226.670961 380.251061 226.410825 379.641589 
Q 226.149595 379.032108 226.156954 378.239173 
z
M 230.447184 371.600537 
L 230.467769 369.382508 
L 231.432866 369.578504 
L 231.398477 373.283969 
L 230.425764 373.083528 
L 228.808629 370.898426 
Q 228.538502 370.540435 228.26024 370.351907 
Q 227.981988 370.162285 227.718405 370.159839 
Q 227.438417 370.157241 227.283523 370.347218 
Q 227.127534 370.537184 227.124327 370.882795 
Q 227.121322 371.206531 227.245571 371.608014 
Q 227.369819 372.009496 227.632023 372.513983 
L 226.550194 372.285183 
Q 226.38389 371.818776 226.30492 371.37068 
Q 226.224867 370.92148 226.228927 370.483999 
Q 226.236154 369.705283 226.577166 369.261084 
Q 226.918188 368.815793 227.498944 368.821182 
Q 227.997672 368.825811 228.405274 369.103043 
Q 228.812875 369.380275 229.502029 370.316398 
z
" style="fill:#ffffff;"/>
    <path d="M 232.931539 384.700374 
Q 233.169713 385.201356 233.282849 385.73946 
Q 233.395995 386.276471 233.390321 386.88785 
Q 233.380232 387.974991 232.822137 388.592182 
Q 232.264041 389.209373 231.310332 389.200522 
Q 230.69239 389.194787 230.152814 388.995084 
Q 229.612154 388.794276 229.168413 388.404048 
Q 228.625936 387.927587 228.361739 387.28417 
Q 228.097543 386.640753 228.105186 385.817195 
Q 228.109439 385.358933 228.209999 384.895002 
Q 228.309465 384.431062 228.501764 383.982202 
L 229.555319 384.193238 
Q 229.309744 384.607696 229.186825 385.005791 
Q 229.062823 385.402783 229.059088 385.805265 
Q 229.050897 386.687883 229.634173 387.246758 
Q 230.216355 387.805622 231.13944 387.814189 
Q 231.75082 387.819863 232.092863 387.500367 
Q 232.433821 387.179768 232.439272 386.592449 
Q 232.441048 386.401051 232.417669 386.20942 
Q 232.393197 386.017778 232.340318 385.822592 
L 231.35123 385.618716 
L 231.34378 386.421494 
L 230.462715 386.245966 
L 230.481686 384.201836 
z
M 230.349138 379.391043 
Q 229.747601 379.38546 229.431181 379.654879 
Q 229.113677 379.923194 229.108886 380.439422 
Q 229.102542 381.122986 229.711806 381.592411 
Q 230.32108 382.060741 231.243071 382.069298 
Q 231.831483 382.074759 232.15882 381.807629 
Q 232.486157 381.540499 232.490623 381.05927 
Q 232.494277 380.665537 232.33196 380.358861 
Q 232.168559 380.051081 231.845729 379.832607 
Q 231.535922 379.625192 231.147599 379.510021 
Q 230.759276 379.394849 230.349138 379.391043 
z
M 228.156954 380.239173 
Q 228.166404 379.220936 228.737603 378.606054 
Q 229.308803 377.991172 230.222045 377.999647 
Q 230.843268 378.005413 231.396019 378.199769 
Q 231.947677 378.394116 232.385069 378.761316 
Q 232.924519 379.210404 233.187936 379.819906 
Q 233.45027 380.428304 233.442911 381.221239 
Q 233.433492 382.236195 232.863396 382.849994 
Q 232.2933 383.463792 231.377871 383.455296 
Q 230.752273 383.44949 230.200605 383.256237 
Q 229.647844 383.062974 229.20719 382.693556 
Q 228.670961 382.251061 228.410825 381.641589 
Q 228.149595 381.032108 228.156954 380.239173 
z
M 232.447184 373.600537 
L 232.467769 371.382508 
L 233.432866 371.578504 
L 233.398477 375.283969 
L 232.425764 375.083528 
L 230.808629 372.898426 
Q 230.538502 372.540435 230.26024 372.351907 
Q 229.981988 372.162285 229.718405 372.159839 
Q 229.438417 372.157241 229.283523 372.347218 
Q 229.127534 372.537184 229.124327 372.882795 
Q 229.121322 373.206531 229.245571 373.608014 
Q 229.369819 374.009496 229.632023 374.513983 
L 228.550194 374.285183 
Q 228.38389 373.818776 228.30492 373.37068 
Q 228.224867 372.92148 228.228927 372.483999 
Q 228.236154 371.705283 228.577166 371.261084 
Q 228.918188 370.815793 229.498944 370.821182 
Q 229.997672 370.825811 230.405274 371.103043 
Q 230.812875 371.380275 231.502029 372.316398 
z
" style="fill:#4c4c4c;opacity:0.3;"/>
    <path d="M 230.931539 382.700374 
Q 231.169713 383.201356 231.282849 383.73946 
Q 231.395995 384.276471 231.390321 384.88785 
Q 231.380232 385.974991 230.822137 386.592182 
Q 230.264041 387.209373 229.310332 387.200522 
Q 228.69239 387.194787 228.152814 386.995084 
Q 227.612154 386.794276 227.168413 386.404048 
Q 226.625936 385.927587 226.361739 385.28417 
Q 226.097543 384.640753 226.105186 383.817195 
Q 226.109439 383.358933 226.209999 382.895002 
Q 226.309465 382.431062 226.501764 381.982202 
L 227.555319 382.193238 
Q 227.309744 382.607696 227.186825 383.005791 
Q 227.062823 383.402783 227.059088 383.805265 
Q 227.050897 384.687883 227.634173 385.246758 
Q 228.216355 385.805622 229.13944 385.814189 
Q 229.75082 385.819863 230.092863 385.500367 
Q 230.433821 385.179768 230.439272 384.592449 
Q 230.441048 384.401051 230.417669 384.20942 
Q 230.393197 384.017778 230.340318 383.822592 
L 229.35123 383.618716 
L 229.34378 384.421494 
L 228.462715 384.245966 
L 228.481686 382.201836 
z
M 228.349138 377.391043 
Q 227.747601 377.38546 227.431181 377.654879 
Q 227.113677 377.923194 227.108886 378.439422 
Q 227.102542 379.122986 227.711806 379.592411 
Q 228.32108 380.060741 229.243071 380.069298 
Q 229.831483 380.074759 230.15882 379.807629 
Q 230.486157 379.540499 230.490623 379.05927 
Q 230.494277 378.665537 230.33196 378.358861 
Q 230.168559 378.051081 229.845729 377.832607 
Q 229.535922 377.625192 229.147599 377.510021 
Q 228.759276 377.394849 228.349138 377.391043 
z
M 226.156954 378.239173 
Q 226.166404 377.220936 226.737603 376.606054 
Q 227.308803 375.991172 228.222045 375.999647 
Q 228.843268 376.005413 229.396019 376.199769 
Q 229.947677 376.394116 230.385069 376.761316 
Q 230.924519 377.210404 231.187936 377.819906 
Q 231.45027 378.428304 231.442911 379.221239 
Q 231.433492 380.236195 230.863396 380.849994 
Q 230.2933 381.463792 229.377871 381.455296 
Q 228.752273 381.44949 228.200605 381.256237 
Q 227.647844 381.062974 227.20719 380.693556 
Q 226.670961 380.251061 226.410825 379.641589 
Q 226.149595 379.032108 226.156954 378.239173 
z
M 230.447184 371.600537 
L 230.467769 369.382508 
L 231.432866 369.578504 
L 231.398477 373.283969 
L 230.425764 373.083528 
L 228.808629 370.898426 
Q 228.538502 370.540435 228.26024 370.351907 
Q 227.981988 370.162285 227.718405 370.159839 
Q 227.438417 370.157241 227.283523 370.347218 
Q 227.127534 370.537184 227.124327 370.882795 
Q 227.121322 371.206531 227.245571 371.608014 
Q 227.369819 372.009496 227.632023 372.513983 
L 226.550194 372.285183 
Q 226.38389 371.818776 226.30492 371.37068 
Q 226.224867 370.92148 226.228927 370.483999 
Q 226.236154 369.705283 226.577166 369.261084 
Q 226.918188 368.815793 227.498944 368.821182 
Q 227.997672 368.825811 228.405274 369.103043 
Q 228.812875 369.380275 229.502029 370.316398 
z
" style="fill:#ffffff;"/>
   </g>
   <g id="text_15">
    <path d="M 301.369758 260.650741 
Q 301.050729 261.104536 300.637874 261.467726 
Q 300.225976 261.830386 299.690882 262.126176 
Q 298.73939 262.652143 297.927507 262.469821 
Q 297.115624 262.287499 296.654213 261.45279 
Q 296.355248 260.911952 296.263711 260.343934 
Q 296.172602 259.774429 296.294087 259.196133 
Q 296.442084 258.489456 296.872326 257.942942 
Q 297.302568 257.396428 298.023365 256.997985 
Q 298.424447 256.776274 298.877836 256.635626 
Q 299.330696 256.49402 299.816089 256.440658 
L 300.150579 257.461752 
Q 299.668933 257.451806 299.261866 257.540604 
Q 298.855226 257.627916 298.502964 257.82264 
Q 297.730476 258.249657 297.530793 259.032395 
Q 297.330581 259.814175 297.777176 260.622081 
Q 298.072966 261.157176 298.519385 261.297822 
Q 298.966231 261.436981 299.480266 261.152833 
Q 299.647782 261.060233 299.803128 260.945617 
Q 299.957944 260.830043 300.101875 260.687994 
L 299.792861 259.726552 
L 299.090251 260.114942 
L 298.80969 259.261495 
L 300.598762 258.27253 
z
M 304.722122 255.790757 
Q 304.431094 255.264278 304.040879 255.121308 
Q 303.651092 254.976851 303.199278 255.226606 
Q 302.601006 255.557319 302.491987 256.318684 
Q 302.383925 257.079519 302.829991 257.886468 
Q 303.114669 258.401461 303.508261 258.555061 
Q 303.901853 258.708662 304.323036 258.47584 
Q 304.667641 258.285349 304.854809 257.993176 
Q 305.042405 257.699517 305.073825 257.310977 
Q 305.102023 256.939216 305.011287 256.544468 
Q 304.92055 256.14972 304.722122 255.790757 
z
M 302.905382 254.299297 
Q 303.796568 253.806667 304.612886 254.001534 
Q 305.429204 254.196401 305.871037 254.995692 
Q 306.17159 255.539401 306.274263 256.116261 
Q 306.376407 256.692163 306.271849 257.253604 
Q 306.146195 257.944181 305.745098 258.473334 
Q 305.34443 259.001001 304.650435 259.384628 
Q 303.762121 259.875672 302.947289 259.681233 
Q 302.132457 259.486794 301.689566 258.685588 
Q 301.386897 258.13805 301.283796 257.562677 
Q 301.180165 256.986346 301.28505 256.420976 
Q 301.406548 255.736445 301.809232 255.210164 
Q 302.211387 254.682925 302.905382 254.299297 
z
M 309.732476 255.423116 
L 310.749059 254.861168 
L 309.713151 251.6646 
L 308.745747 252.480554 
L 308.465537 251.611916 
L 309.426241 250.799666 
L 310.520361 250.194858 
L 311.841264 254.257418 
L 312.852104 253.698644 
L 313.13962 254.57824 
L 310.013292 256.306416 
z
" style="fill:#ffffff;stroke:#000000;"/>
    <path d="M 301.369758 260.650741 
Q 301.050729 261.104536 300.637874 261.467726 
Q 300.225976 261.830386 299.690882 262.126176 
Q 298.73939 262.652143 297.927507 262.469821 
Q 297.115624 262.287499 296.654213 261.45279 
Q 296.355248 260.911952 296.263711 260.343934 
Q 296.172602 259.774429 296.294087 259.196133 
Q 296.442084 258.489456 296.872326 257.942942 
Q 297.302568 257.396428 298.023365 256.997985 
Q 298.424447 256.776274 298.877836 256.635626 
Q 299.330696 256.49402 299.816089 256.440658 
L 300.150579 257.461752 
Q 299.668933 257.451806 299.261866 257.540604 
Q 298.855226 257.627916 298.502964 257.82264 
Q 297.730476 258.249657 297.530793 259.032395 
Q 297.330581 259.814175 297.777176 260.622081 
Q 298.072966 261.157176 298.519385 261.297822 
Q 298.966231 261.436981 299.480266 261.152833 
Q 299.647782 261.060233 299.803128 260.945617 
Q 299.957944 260.830043 300.101875 260.687994 
L 299.792861 259.726552 
L 299.090251 260.114942 
L 298.80969 259.261495 
L 300.598762 258.27253 
z
M 304.722122 255.790757 
Q 304.431094 255.264278 304.040879 255.121308 
Q 303.651092 254.976851 303.199278 255.226606 
Q 302.601006 255.557319 302.491987 256.318684 
Q 302.383925 257.079519 302.829991 257.886468 
Q 303.114669 258.401461 303.508261 258.555061 
Q 303.901853 258.708662 304.323036 258.47584 
Q 304.667641 258.285349 304.854809 257.993176 
Q 305.042405 257.699517 305.073825 257.310977 
Q 305.102023 256.939216 305.011287 256.544468 
Q 304.92055 256.14972 304.722122 255.790757 
z
M 302.905382 254.299297 
Q 303.796568 253.806667 304.612886 254.001534 
Q 305.429204 254.196401 305.871037 254.995692 
Q 306.17159 255.539401 306.274263 256.116261 
Q 306.376407 256.692163 306.271849 257.253604 
Q 306.146195 257.944181 305.745098 258.473334 
Q 305.34443 259.001001 304.650435 259.384628 
Q 303.762121 259.875672 302.947289 259.681233 
Q 302.132457 259.486794 301.689566 258.685588 
Q 301.386897 258.13805 301.283796 257.562677 
Q 301.180165 256.986346 301.28505 256.420976 
Q 301.406548 255.736445 301.809232 255.210164 
Q 302.211387 254.682925 302.905382 254.299297 
z
M 309.732476 255.423116 
L 310.749059 254.861168 
L 309.713151 251.6646 
L 308.745747 252.480554 
L 308.465537 251.611916 
L 309.426241 250.799666 
L 310.520361 250.194858 
L 311.841264 254.257418 
L 312.852104 253.698644 
L 313.13962 254.57824 
L 310.013292 256.306416 
z
" style="fill:#ffffff;"/>
    <path d="M 303.369758 262.650741 
Q 303.050729 263.104536 302.637874 263.467726 
Q 302.225976 263.830386 301.690882 264.126176 
Q 300.73939 264.652143 299.927507 264.469821 
Q 299.115624 264.287499 298.654213 263.45279 
Q 298.355248 262.911952 298.263711 262.343934 
Q 298.172602 261.774429 298.294087 261.196133 
Q 298.442084 260.489456 298.872326 259.942942 
Q 299.302568 259.396428 300.023365 258.997985 
Q 300.424447 258.776274 300.877836 258.635626 
Q 301.330696 258.49402 301.816089 258.440658 
L 302.150579 259.461752 
Q 301.668933 259.451806 301.261866 259.540604 
Q 300.855226 259.627916 300.502964 259.82264 
Q 299.730476 260.249657 299.530793 261.032395 
Q 299.330581 261.814175 299.777176 262.622081 
Q 300.072966 263.157176 300.519385 263.297822 
Q 300.966231 263.436981 301.480266 263.152833 
Q 301.647782 263.060233 301.803128 262.945617 
Q 301.957944 262.830043 302.101875 262.687994 
L 301.792861 261.726552 
L 301.090251 262.114942 
L 300.80969 261.261495 
L 302.598762 260.27253 
z
M 306.722122 257.790757 
Q 306.431094 257.264278 306.040879 257.121308 
Q 305.651092 256.976851 305.199278 257.226606 
Q 304.601006 257.557319 304.491987 258.318684 
Q 304.383925 259.079519 304.829991 259.886468 
Q 305.114669 260.401461 305.508261 260.555061 
Q 305.901853 260.708662 306.323036 260.47584 
Q 306.667641 260.285349 306.854809 259.993176 
Q 307.042405 259.699517 307.073825 259.310977 
Q 307.102023 258.939216 307.011287 258.544468 
Q 306.92055 258.14972 306.722122 257.790757 
z
M 304.905382 256.299297 
Q 305.796568 255.806667 306.612886 256.001534 
Q 307.429204 256.196401 307.871037 256.995692 
Q 308.17159 257.539401 308.274263 258.116261 
Q 308.376407 258.692163 308.271849 259.253604 
Q 308.146195 259.944181 307.745098 260.473334 
Q 307.34443 261.001001 306.650435 261.384628 
Q 305.762121 261.875672 304.947289 261.681233 
Q 304.132457 261.486794 303.689566 260.685588 
Q 303.386897 260.13805 303.283796 259.562677 
Q 303.180165 258.986346 303.28505 258.420976 
Q 303.406548 257.736445 303.809232 257.210164 
Q 304.211387 256.682925 304.905382 256.299297 
z
M 311.732476 257.423116 
L 312.749059 256.861168 
L 311.713151 253.6646 
L 310.745747 254.480554 
L 310.465537 253.611916 
L 311.426241 252.799666 
L 312.520361 252.194858 
L 313.841264 256.257418 
L 314.852104 255.698644 
L 315.13962 256.57824 
L 312.013292 258.306416 
z
" style="fill:#4c4c4c;opacity:0.3;"/>
    <path d="M 301.369758 260.650741 
Q 301.050729 261.104536 300.637874 261.467726 
Q 300.225976 261.830386 299.690882 262.126176 
Q 298.73939 262.652143 297.927507 262.469821 
Q 297.115624 262.287499 296.654213 261.45279 
Q 296.355248 260.911952 296.263711 260.343934 
Q 296.172602 259.774429 296.294087 259.196133 
Q 296.442084 258.489456 296.872326 257.942942 
Q 297.302568 257.396428 298.023365 256.997985 
Q 298.424447 256.776274 298.877836 256.635626 
Q 299.330696 256.49402 299.816089 256.440658 
L 300.150579 257.461752 
Q 299.668933 257.451806 299.261866 257.540604 
Q 298.855226 257.627916 298.502964 257.82264 
Q 297.730476 258.249657 297.530793 259.032395 
Q 297.330581 259.814175 297.777176 260.622081 
Q 298.072966 261.157176 298.519385 261.297822 
Q 298.966231 261.436981 299.480266 261.152833 
Q 299.647782 261.060233 299.803128 260.945617 
Q 299.957944 260.830043 300.101875 260.687994 
L 299.792861 259.726552 
L 299.090251 260.114942 
L 298.80969 259.261495 
L 300.598762 258.27253 
z
M 304.722122 255.790757 
Q 304.431094 255.264278 304.040879 255.121308 
Q 303.651092 254.976851 303.199278 255.226606 
Q 302.601006 255.557319 302.491987 256.318684 
Q 302.383925 257.079519 302.829991 257.886468 
Q 303.114669 258.401461 303.508261 258.555061 
Q 303.901853 258.708662 304.323036 258.47584 
Q 304.667641 258.285349 304.854809 257.993176 
Q 305.042405 257.699517 305.073825 257.310977 
Q 305.102023 256.939216 305.011287 256.544468 
Q 304.92055 256.14972 304.722122 255.790757 
z
M 302.905382 254.299297 
Q 303.796568 253.806667 304.612886 254.001534 
Q 305.429204 254.196401 305.871037 254.995692 
Q 306.17159 255.539401 306.274263 256.116261 
Q 306.376407 256.692163 306.271849 257.253604 
Q 306.146195 257.944181 305.745098 258.473334 
Q 305.34443 259.001001 304.650435 259.384628 
Q 303.762121 259.875672 302.947289 259.681233 
Q 302.132457 259.486794 301.689566 258.685588 
Q 301.386897 258.13805 301.283796 257.562677 
Q 301.180165 256.986346 301.28505 256.420976 
Q 301.406548 255.736445 301.809232 255.210164 
Q 302.211387 254.682925 302.905382 254.299297 
z
M 309.732476 255.423116 
L 310.749059 254.861168 
L 309.713151 251.6646 
L 308.745747 252.480554 
L 308.465537 251.611916 
L 309.426241 250.799666 
L 310.520361 250.194858 
L 311.841264 254.257418 
L 312.852104 253.698644 
L 313.13962 254.57824 
L 310.013292 256.306416 
z
" style="fill:#ffffff;"/>
   </g>
   <g id="text_16">
    <text style="font-family:DejaVu Sans;font-size:12px;font-style:normal;font-weight:normal;text-anchor:middle;" transform="rotate(-0, 233.548464, 26.314392)" x="233.548464" y="26.314392">CirGO Visualisation Plot</text>
   </g>
   <g id="legend_1">
    <g id="text_17">
     <text style="font-family:DejaVu Sans;font-size:7px;font-style:normal;font-weight:normal;text-anchor:start;" transform="rotate(-0, 601.484168, 49.117299)" x="601.484168" y="49.117299">Name and Proportion of the Biological Process (Inner Ring)</text>
    </g>
    <g id="patch_22">
     <path d="M 579.688464 59.391986 
L 593.688464 59.391986 
L 593.688464 54.491986 
L 579.688464 54.491986 
z
" style="fill:#214a65;stroke:#ffffff;stroke-linejoin:miter;stroke-width:0.7;"/>
    </g>
    <g id="text_18">
     <text style="font-family:DejaVu Sans;font-size:7px;font-style:normal;font-weight:normal;text-anchor:start;" transform="rotate(-0, 599.288464, 59.391986)" x="599.288464" y="59.391986">GO1 establishment or maintenance of bipolar cell polarity, 33.9%</text>
    </g>
    <g id="patch_23">
     <path d="M 579.688464 69.666674 
L 593.688464 69.666674 
L 593.688464 64.766674 
L 579.688464 64.766674 
z
" style="fill:#a1c54d;stroke:#ffffff;stroke-linejoin:miter;stroke-width:0.7;"/>
    </g>
    <g id="text_19">
     <text style="font-family:DejaVu Sans;font-size:7px;font-style:normal;font-weight:normal;text-anchor:start;" transform="rotate(-0, 599.288464, 69.666674)" x="599.288464" y="69.666674">GO2 camera-type eye morphogenesis, 32.4%</text>
    </g>
    <g id="patch_24">
     <path d="M 579.688464 79.941361 
L 593.688464 79.941361 
L 593.688464 75.041361 
L 579.688464 75.041361 
z
" style="fill:#943105;stroke:#ffffff;stroke-linejoin:miter;stroke-width:0.7;"/>
    </g>
    <g id="text_20">
     <text style="font-family:DejaVu Sans;font-size:7px;font-style:normal;font-weight:normal;text-anchor:start;" transform="rotate(-0, 599.288464, 79.941361)" x="599.288464" y="79.941361">GO3 negative regulation of secretion, 17.2%</text>
    </g>
    <g id="patch_25">
     <path d="M 579.688464 90.216049 
L 593.688464 90.216049 
L 593.688464 85.316049 
L 579.688464 85.316049 
z
" style="fill:#0cc0aa;stroke:#ffffff;stroke-linejoin:miter;stroke-width:0.7;"/>
    </g>
    <g id="text_21">
     <text style="font-family:DejaVu Sans;font-size:7px;font-style:normal;font-weight:normal;text-anchor:start;" transform="rotate(-0, 599.288464, 90.216049)" x="599.288464" y="90.216049">GO4 protein maturation, 16.4%</text>
    </g>
   </g>
  </g>
 </g>
</svg>
