<?xml version="1.0" encoding="utf-8" standalone="no"?>
<!DOCTYPE svg PUBLIC "-//W3C//DTD SVG 1.1//EN"
  "http://www.w3.org/Graphics/SVG/1.1/DTD/svg11.dtd">
<!-- Created with matplotlib (http://matplotlib.org/) -->
<svg height="562pt" version="1.1" viewBox="0 0 804 562" width="804pt" xmlns="http://www.w3.org/2000/svg" xmlns:xlink="http://www.w3.org/1999/xlink">
 <defs>
  <style type="text/css">
*{stroke-linecap:butt;stroke-linejoin:round;}
  </style>
 </defs>
 <g id="figure_1">
  <g id="patch_1">
   <path d="M 0 562.750881 
L 804.777381 562.750881 
L 804.777381 0 
L 0 0 
z
" style="fill:#ffffff;"/>
  </g>
  <g id="axes_1">
   <g id="patch_2">
    <path d="M 242.560662 174.151725 
C 234.733758 174.151725 226.92752 174.95582 219.264965 176.551337 
C 211.60241 178.146855 204.124002 180.52537 196.947591 183.649399 
L 242.560662 288.430125 
L 242.560662 174.151725 
z
" style="fill:#4bd2c1;stroke:#ffffff;stroke-linejoin:miter;stroke-width:0.7;"/>
   </g>
   <g id="patch_3">
    <path d="M 196.947591 183.649399 
C 188.254557 187.433645 180.066146 192.285039 172.571298 198.091641 
C 165.076451 203.898243 158.333258 210.615047 152.497312 218.087068 
L 242.560662 288.430125 
L 196.947591 183.649399 
z
" style="fill:#2bc9b5;stroke:#ffffff;stroke-linejoin:miter;stroke-width:0.7;"/>
   </g>
   <g id="patch_4">
    <path d="M 152.497312 218.087068 
C 143.062078 230.167419 136.153109 244.02355 132.182626 258.828745 
C 128.212142 273.633939 127.260711 289.087773 129.3851 304.268205 
L 242.560662 288.430125 
L 152.497312 218.087068 
z
" style="fill:#0cc0aa;stroke:#ffffff;stroke-linejoin:miter;stroke-width:0.7;"/>
   </g>
   <g id="patch_5">
    <path d="M 129.3851 304.268205 
C 129.3851 304.268205 129.3851 304.268205 129.3851 304.268205 
L 242.560662 288.430125 
L 129.3851 304.268205 
z
" style="fill:none;stroke:#ffffff;stroke-linejoin:miter;stroke-width:0.7;"/>
   </g>
   <g id="patch_6">
    <path d="M 129.3851 304.268205 
C 129.3851 304.268205 129.3851 304.268205 129.3851 304.268205 
L 242.560662 288.430125 
L 129.3851 304.268205 
z
" style="fill:none;stroke:#ffffff;stroke-linejoin:miter;stroke-width:0.7;"/>
   </g>
   <g id="patch_7">
    <path d="M 129.3851 304.268205 
C 130.586559 312.853577 132.761041 321.274424 135.866552 329.368121 
C 138.972063 337.461817 142.988481 345.175923 147.838241 352.36146 
L 242.560662 288.430125 
L 129.3851 304.268205 
z
" style="fill:#dbaf9b;stroke:#ffffff;stroke-linejoin:miter;stroke-width:0.7;"/>
   </g>
   <g id="patch_8">
    <path d="M 147.838241 352.36146 
C 153.161353 360.248329 159.448712 367.439585 166.554205 373.768107 
C 173.659698 380.096629 181.527851 385.513012 189.975816 389.891382 
L 242.560662 288.430125 
L 147.838241 352.36146 
z
" style="fill:#c98f75;stroke:#ffffff;stroke-linejoin:miter;stroke-width:0.7;"/>
   </g>
   <g id="patch_9">
    <path d="M 189.975816 389.891382 
C 200.919295 395.563115 212.708663 399.427148 224.886273 401.333485 
C 237.063883 403.239822 249.470096 403.163471 261.62332 401.107398 
L 242.560662 288.430125 
L 189.975816 389.891382 
z
" style="fill:#b77050;stroke:#ffffff;stroke-linejoin:miter;stroke-width:0.7;"/>
   </g>
   <g id="patch_10">
    <path d="M 261.62332 401.107398 
C 279.945141 398.007726 297.237418 390.485513 311.996185 379.194991 
C 326.754952 367.904469 338.539563 353.182735 346.325071 336.310185 
L 242.560662 288.430125 
L 261.62332 401.107398 
z
" style="fill:#a5502a;stroke:#ffffff;stroke-linejoin:miter;stroke-width:0.7;"/>
   </g>
   <g id="patch_11">
    <path d="M 346.325071 336.310185 
C 354.359031 318.899198 357.883076 299.742981 356.571368 280.612733 
C 355.259661 261.482485 349.153915 242.986555 338.818673 226.835092 
C 328.483431 210.68363 314.247357 197.390258 297.426731 188.184091 
C 280.606104 178.977925 261.735828 174.151725 242.560662 174.151725 
L 242.560662 288.430125 
L 346.325071 336.310185 
z
" style="fill:#943105;stroke:#ffffff;stroke-linejoin:miter;stroke-width:0.7;"/>
   </g>
   <g id="patch_12">
    <path d="M 242.560662 188.436525 
C 228.258926 188.436525 214.122234 191.504816 201.107338 197.433741 
C 188.092442 203.362665 176.49973 212.015382 167.113781 222.806287 
C 157.727832 233.597191 150.765277 246.277227 146.697331 259.988225 
C 142.629385 273.699223 141.549938 288.124731 143.532046 302.288449 
L 242.560662 288.430125 
L 242.560662 188.436525 
z
" style="fill:#0cc0aa;stroke:#ffffff;stroke-linejoin:miter;stroke-width:0.7;"/>
   </g>
   <g id="patch_13">
    <path d="M 143.532046 302.288449 
C 146.190682 321.286491 154.260979 339.124107 166.775517 353.663029 
C 179.290056 368.201952 195.727966 378.837052 214.118767 384.293458 
C 232.509568 389.749864 252.087814 389.800473 270.506578 384.439218 
C 288.925342 379.077963 305.418014 368.527986 318.00755 354.053956 
C 330.597085 339.579927 338.759493 321.784271 341.51631 302.800228 
C 344.273127 283.816185 341.509613 264.433893 333.557041 246.976788 
C 325.604469 229.519683 312.793834 214.714349 296.660801 204.335565 
C 280.527768 193.95678 261.743811 188.436521 242.560644 188.436525 
L 242.560662 288.430125 
L 143.532046 302.288449 
z
" style="fill:#943105;stroke:#ffffff;stroke-linejoin:miter;stroke-width:0.7;"/>
   </g>
   <g id="matplotlib.axis_1"/>
   <g id="matplotlib.axis_2"/>
   <g id="text_1">
    <text style="font-family:DejaVu Sans;font-size:7px;font-style:normal;font-weight:roman;text-anchor:end;" transform="rotate(-281.762211, 216.209177, 171.351147)" x="216.209177" y="171.351147">mRNA metabolic process</text>
   </g>
   <g id="text_2">
    <text style="font-family:DejaVu Sans;font-size:7px;font-style:normal;font-weight:roman;text-anchor:end;" transform="rotate(-307.766585, 167.544906, 194.757695)" x="167.544906" y="194.757695">RNA splicing</text>
   </g>
   <g id="text_3">
    <text style="font-family:DejaVu Sans;font-size:7px;font-style:normal;font-weight:roman;text-anchor:end;" transform="rotate(-344.987566, 126.163394, 259.214313)" x="126.163394" y="259.214313">mRNA cis splicing, via spliceosome</text>
   </g>
   <g id="text_4">
    <text style="font-family:DejaVu Sans;font-size:7px;font-style:normal;font-weight:roman;text-anchor:end;" transform="rotate(-20.991558, 131.223791, 333.218391)" x="131.223791" y="333.218391">regulation of metabolic process</text>
   </g>
   <g id="text_5">
    <text style="font-family:DejaVu Sans;font-size:7px;font-style:normal;font-weight:roman;text-anchor:end;" transform="rotate(-48.310074, 164.196286, 379.319686)" x="164.196286" y="379.319686">negative regulation of biological process</text>
   </g>
   <g id="text_6">
    <text style="font-family:DejaVu Sans;font-size:7px;font-style:normal;font-weight:roman;text-anchor:end;" transform="rotate(-81.102875, 225.910875, 407.27739)" x="225.910875" y="407.27739">regulation of transcription, DNA-templated</text>
   </g>
   <g id="text_7">
    <text style="font-family:DejaVu Sans;font-size:7px;font-style:normal;font-weight:roman;text-anchor:start;" transform="rotate(-307.416148, 313.93383, 384.906851)" x="313.93383" y="384.906851">negative regulation of transcription, DNA-templated</text>
   </g>
   <g id="text_8">
    <text style="font-family:DejaVu Sans;font-size:7px;font-style:normal;font-weight:roman;text-anchor:start;" transform="rotate(-32.61498, 344.672669, 225.382318)" x="344.672669" y="225.382318">negative regulation of circadian rhythm</text>
   </g>
   <g id="text_9">
    <path d="M 175.764737 231.765692 
Q 175.229068 231.621578 174.746346 231.358262 
Q 174.264449 231.095665 173.803132 230.694411 
Q 172.98283 229.980911 172.875754 229.155726 
Q 172.768677 228.330541 173.394605 227.610921 
Q 173.800165 227.144653 174.302375 226.863922 
Q 174.806127 226.583084 175.391024 226.498941 
Q 176.105612 226.395689 176.766508 226.612486 
Q 177.427405 226.829283 178.048821 227.369792 
Q 178.394602 227.670553 178.682167 228.048243 
Q 178.970451 228.425108 179.186992 228.862788 
L 178.342462 229.527081 
Q 178.186676 229.071215 177.963699 228.719263 
Q 177.742266 228.367204 177.438573 228.103051 
Q 176.772594 227.523781 175.968836 227.604557 
Q 175.165795 227.684508 174.559967 228.381021 
Q 174.158713 228.842338 174.179642 229.309919 
Q 174.202115 229.777393 174.645276 230.162855 
Q 174.789695 230.288471 174.950624 230.395107 
Q 175.112271 230.500917 175.295056 230.587424 
L 176.092284 229.967514 
L 175.486548 229.440644 
L 176.192082 228.884489 
L 177.73448 230.22607 
z
M 181.479505 233.248665 
Q 181.874299 232.794775 181.874822 232.379194 
Q 181.876887 231.963505 181.487368 231.6247 
Q 180.971585 231.176071 180.218988 231.334688 
Q 179.467216 231.494023 178.862105 232.189711 
Q 178.475925 232.633697 178.466574 233.056096 
Q 178.457223 233.478494 178.820334 233.794329 
Q 179.117425 234.052739 179.45606 234.128394 
Q 179.796237 234.203942 180.172001 234.100249 
Q 180.530898 233.999282 180.870613 233.778708 
Q 181.210328 233.558134 181.479505 233.248665 
z
M 182.257714 231.030696 
Q 183.026025 231.698974 183.122837 232.532626 
Q 183.21965 233.366278 182.620281 234.055364 
Q 182.212567 234.524108 181.70587 234.818331 
Q 181.199891 235.111728 180.636631 235.205994 
Q 179.944829 235.324715 179.310233 235.129344 
Q 178.67718 234.933867 178.078871 234.413457 
Q 177.313037 233.747332 177.216332 232.915223 
Q 177.119627 232.083114 177.720431 231.392377 
Q 178.131016 230.920332 178.63617 230.626217 
Q 179.142041 230.331276 179.709105 230.235971 
Q 180.393803 230.115419 181.026246 230.313265 
Q 181.659406 230.510286 182.257714 231.030696 
z
M 184.521463 238.603872 
L 186.195076 240.059584 
L 185.419417 240.666363 
L 182.623459 238.234434 
L 183.407444 237.62475 
L 186.119303 237.813474 
Q 186.566962 237.840448 186.891013 237.75121 
Q 187.21589 237.66269 187.388882 237.463805 
Q 187.57264 237.25254 187.528714 237.011388 
Q 187.485505 236.769411 187.224725 236.542584 
Q 186.98045 236.330114 186.594424 236.163951 
Q 186.208398 235.997788 185.654462 235.869677 
L 186.530859 235.195412 
Q 186.99357 235.371741 187.385652 235.602604 
Q 187.779276 235.833361 188.109378 236.120483 
Q 188.696958 236.631562 188.813402 237.179323 
Q 188.930671 237.727801 188.549516 238.166011 
Q 188.222196 238.542326 187.746705 238.672344 
Q 187.271214 238.802362 186.111789 238.718738 
z
" style="fill:#ffffff;stroke:#000000;"/>
    <path d="M 175.764737 231.765692 
Q 175.229068 231.621578 174.746346 231.358262 
Q 174.264449 231.095665 173.803132 230.694411 
Q 172.98283 229.980911 172.875754 229.155726 
Q 172.768677 228.330541 173.394605 227.610921 
Q 173.800165 227.144653 174.302375 226.863922 
Q 174.806127 226.583084 175.391024 226.498941 
Q 176.105612 226.395689 176.766508 226.612486 
Q 177.427405 226.829283 178.048821 227.369792 
Q 178.394602 227.670553 178.682167 228.048243 
Q 178.970451 228.425108 179.186992 228.862788 
L 178.342462 229.527081 
Q 178.186676 229.071215 177.963699 228.719263 
Q 177.742266 228.367204 177.438573 228.103051 
Q 176.772594 227.523781 175.968836 227.604557 
Q 175.165795 227.684508 174.559967 228.381021 
Q 174.158713 228.842338 174.179642 229.309919 
Q 174.202115 229.777393 174.645276 230.162855 
Q 174.789695 230.288471 174.950624 230.395107 
Q 175.112271 230.500917 175.295056 230.587424 
L 176.092284 229.967514 
L 175.486548 229.440644 
L 176.192082 228.884489 
L 177.73448 230.22607 
z
M 181.479505 233.248665 
Q 181.874299 232.794775 181.874822 232.379194 
Q 181.876887 231.963505 181.487368 231.6247 
Q 180.971585 231.176071 180.218988 231.334688 
Q 179.467216 231.494023 178.862105 232.189711 
Q 178.475925 232.633697 178.466574 233.056096 
Q 178.457223 233.478494 178.820334 233.794329 
Q 179.117425 234.052739 179.45606 234.128394 
Q 179.796237 234.203942 180.172001 234.100249 
Q 180.530898 233.999282 180.870613 233.778708 
Q 181.210328 233.558134 181.479505 233.248665 
z
M 182.257714 231.030696 
Q 183.026025 231.698974 183.122837 232.532626 
Q 183.21965 233.366278 182.620281 234.055364 
Q 182.212567 234.524108 181.70587 234.818331 
Q 181.199891 235.111728 180.636631 235.205994 
Q 179.944829 235.324715 179.310233 235.129344 
Q 178.67718 234.933867 178.078871 234.413457 
Q 177.313037 233.747332 177.216332 232.915223 
Q 177.119627 232.083114 177.720431 231.392377 
Q 178.131016 230.920332 178.63617 230.626217 
Q 179.142041 230.331276 179.709105 230.235971 
Q 180.393803 230.115419 181.026246 230.313265 
Q 181.659406 230.510286 182.257714 231.030696 
z
M 184.521463 238.603872 
L 186.195076 240.059584 
L 185.419417 240.666363 
L 182.623459 238.234434 
L 183.407444 237.62475 
L 186.119303 237.813474 
Q 186.566962 237.840448 186.891013 237.75121 
Q 187.21589 237.66269 187.388882 237.463805 
Q 187.57264 237.25254 187.528714 237.011388 
Q 187.485505 236.769411 187.224725 236.542584 
Q 186.98045 236.330114 186.594424 236.163951 
Q 186.208398 235.997788 185.654462 235.869677 
L 186.530859 235.195412 
Q 186.99357 235.371741 187.385652 235.602604 
Q 187.779276 235.833361 188.109378 236.120483 
Q 188.696958 236.631562 188.813402 237.179323 
Q 188.930671 237.727801 188.549516 238.166011 
Q 188.222196 238.542326 187.746705 238.672344 
Q 187.271214 238.802362 186.111789 238.718738 
z
" style="fill:#ffffff;"/>
    <path d="M 177.764737 233.765692 
Q 177.229068 233.621578 176.746346 233.358262 
Q 176.264449 233.095665 175.803132 232.694411 
Q 174.98283 231.980911 174.875754 231.155726 
Q 174.768677 230.330541 175.394605 229.610921 
Q 175.800165 229.144653 176.302375 228.863922 
Q 176.806127 228.583084 177.391024 228.498941 
Q 178.105612 228.395689 178.766508 228.612486 
Q 179.427405 228.829283 180.048821 229.369792 
Q 180.394602 229.670553 180.682167 230.048243 
Q 180.970451 230.425108 181.186992 230.862788 
L 180.342462 231.527081 
Q 180.186676 231.071215 179.963699 230.719263 
Q 179.742266 230.367204 179.438573 230.103051 
Q 178.772594 229.523781 177.968836 229.604557 
Q 177.165795 229.684508 176.559967 230.381021 
Q 176.158713 230.842338 176.179642 231.309919 
Q 176.202115 231.777393 176.645276 232.162855 
Q 176.789695 232.288471 176.950624 232.395107 
Q 177.112271 232.500917 177.295056 232.587424 
L 178.092284 231.967514 
L 177.486548 231.440644 
L 178.192082 230.884489 
L 179.73448 232.22607 
z
M 183.479505 235.248665 
Q 183.874299 234.794775 183.874822 234.379194 
Q 183.876887 233.963505 183.487368 233.6247 
Q 182.971585 233.176071 182.218988 233.334688 
Q 181.467216 233.494023 180.862105 234.189711 
Q 180.475925 234.633697 180.466574 235.056096 
Q 180.457223 235.478494 180.820334 235.794329 
Q 181.117425 236.052739 181.45606 236.128394 
Q 181.796237 236.203942 182.172001 236.100249 
Q 182.530898 235.999282 182.870613 235.778708 
Q 183.210328 235.558134 183.479505 235.248665 
z
M 184.257714 233.030696 
Q 185.026025 233.698974 185.122837 234.532626 
Q 185.21965 235.366278 184.620281 236.055364 
Q 184.212567 236.524108 183.70587 236.818331 
Q 183.199891 237.111728 182.636631 237.205994 
Q 181.944829 237.324715 181.310233 237.129344 
Q 180.67718 236.933867 180.078871 236.413457 
Q 179.313037 235.747332 179.216332 234.915223 
Q 179.119627 234.083114 179.720431 233.392377 
Q 180.131016 232.920332 180.63617 232.626217 
Q 181.142041 232.331276 181.709105 232.235971 
Q 182.393803 232.115419 183.026246 232.313265 
Q 183.659406 232.510286 184.257714 233.030696 
z
M 186.521463 240.603872 
L 188.195076 242.059584 
L 187.419417 242.666363 
L 184.623459 240.234434 
L 185.407444 239.62475 
L 188.119303 239.813474 
Q 188.566962 239.840448 188.891013 239.75121 
Q 189.21589 239.66269 189.388882 239.463805 
Q 189.57264 239.25254 189.528714 239.011388 
Q 189.485505 238.769411 189.224725 238.542584 
Q 188.98045 238.330114 188.594424 238.163951 
Q 188.208398 237.997788 187.654462 237.869677 
L 188.530859 237.195412 
Q 188.99357 237.371741 189.385652 237.602604 
Q 189.779276 237.833361 190.109378 238.120483 
Q 190.696958 238.631562 190.813402 239.179323 
Q 190.930671 239.727801 190.549516 240.166011 
Q 190.222196 240.542326 189.746705 240.672344 
Q 189.271214 240.802362 188.111789 240.718738 
z
" style="fill:#4c4c4c;opacity:0.3;"/>
    <path d="M 175.764737 231.765692 
Q 175.229068 231.621578 174.746346 231.358262 
Q 174.264449 231.095665 173.803132 230.694411 
Q 172.98283 229.980911 172.875754 229.155726 
Q 172.768677 228.330541 173.394605 227.610921 
Q 173.800165 227.144653 174.302375 226.863922 
Q 174.806127 226.583084 175.391024 226.498941 
Q 176.105612 226.395689 176.766508 226.612486 
Q 177.427405 226.829283 178.048821 227.369792 
Q 178.394602 227.670553 178.682167 228.048243 
Q 178.970451 228.425108 179.186992 228.862788 
L 178.342462 229.527081 
Q 178.186676 229.071215 177.963699 228.719263 
Q 177.742266 228.367204 177.438573 228.103051 
Q 176.772594 227.523781 175.968836 227.604557 
Q 175.165795 227.684508 174.559967 228.381021 
Q 174.158713 228.842338 174.179642 229.309919 
Q 174.202115 229.777393 174.645276 230.162855 
Q 174.789695 230.288471 174.950624 230.395107 
Q 175.112271 230.500917 175.295056 230.587424 
L 176.092284 229.967514 
L 175.486548 229.440644 
L 176.192082 228.884489 
L 177.73448 230.22607 
z
M 181.479505 233.248665 
Q 181.874299 232.794775 181.874822 232.379194 
Q 181.876887 231.963505 181.487368 231.6247 
Q 180.971585 231.176071 180.218988 231.334688 
Q 179.467216 231.494023 178.862105 232.189711 
Q 178.475925 232.633697 178.466574 233.056096 
Q 178.457223 233.478494 178.820334 233.794329 
Q 179.117425 234.052739 179.45606 234.128394 
Q 179.796237 234.203942 180.172001 234.100249 
Q 180.530898 233.999282 180.870613 233.778708 
Q 181.210328 233.558134 181.479505 233.248665 
z
M 182.257714 231.030696 
Q 183.026025 231.698974 183.122837 232.532626 
Q 183.21965 233.366278 182.620281 234.055364 
Q 182.212567 234.524108 181.70587 234.818331 
Q 181.199891 235.111728 180.636631 235.205994 
Q 179.944829 235.324715 179.310233 235.129344 
Q 178.67718 234.933867 178.078871 234.413457 
Q 177.313037 233.747332 177.216332 232.915223 
Q 177.119627 232.083114 177.720431 231.392377 
Q 178.131016 230.920332 178.63617 230.626217 
Q 179.142041 230.331276 179.709105 230.235971 
Q 180.393803 230.115419 181.026246 230.313265 
Q 181.659406 230.510286 182.257714 231.030696 
z
M 184.521463 238.603872 
L 186.195076 240.059584 
L 185.419417 240.666363 
L 182.623459 238.234434 
L 183.407444 237.62475 
L 186.119303 237.813474 
Q 186.566962 237.840448 186.891013 237.75121 
Q 187.21589 237.66269 187.388882 237.463805 
Q 187.57264 237.25254 187.528714 237.011388 
Q 187.485505 236.769411 187.224725 236.542584 
Q 186.98045 236.330114 186.594424 236.163951 
Q 186.208398 235.997788 185.654462 235.869677 
L 186.530859 235.195412 
Q 186.99357 235.371741 187.385652 235.602604 
Q 187.779276 235.833361 188.109378 236.120483 
Q 188.696958 236.631562 188.813402 237.179323 
Q 188.930671 237.727801 188.549516 238.166011 
Q 188.222196 238.542326 187.746705 238.672344 
Q 187.271214 238.802362 186.111789 238.718738 
z
" style="fill:#ffffff;"/>
   </g>
   <g id="text_10">
    <path d="M 300.175242 341.222569 
Q 299.639573 341.078455 299.156851 340.81514 
Q 298.674953 340.552542 298.213637 340.151288 
Q 297.393335 339.437788 297.286259 338.612603 
Q 297.179182 337.787419 297.805109 337.067798 
Q 298.21067 336.60153 298.712879 336.320799 
Q 299.216632 336.039961 299.801529 335.955818 
Q 300.516116 335.852566 301.177013 336.069363 
Q 301.837909 336.28616 302.459325 336.826669 
Q 302.805106 337.12743 303.092672 337.50512 
Q 303.380955 337.881985 303.597497 338.319665 
L 302.752967 338.983957 
Q 302.597181 338.528092 302.374204 338.17614 
Q 302.152771 337.824081 301.849078 337.559928 
Q 301.183098 336.980658 300.37934 337.061434 
Q 299.5763 337.141385 298.970471 337.837898 
Q 298.569217 338.299215 298.590147 338.766796 
Q 298.61262 339.23427 299.055781 339.619733 
Q 299.2002 339.745349 299.361129 339.851984 
Q 299.522775 339.957794 299.705561 340.044301 
L 300.502789 339.424391 
L 299.897053 338.897521 
L 300.602586 338.341366 
L 302.144985 339.682947 
z
M 305.890011 342.705541 
Q 306.284804 342.251652 306.285327 341.83607 
Q 306.287392 341.420381 305.897873 341.081577 
Q 305.382089 340.632948 304.629493 340.791565 
Q 303.877721 340.950899 303.27261 341.646588 
Q 302.88643 342.090574 302.877079 342.512972 
Q 302.867728 342.935371 303.230839 343.251206 
Q 303.527931 343.509616 303.866565 343.585271 
Q 304.206742 343.660818 304.582506 343.557126 
Q 304.941403 343.456159 305.281118 343.235585 
Q 305.620833 343.015011 305.890011 342.705541 
z
M 306.668219 340.487572 
Q 307.43653 341.15585 307.533343 341.989502 
Q 307.630155 342.823155 307.030787 343.512241 
Q 306.623072 343.980985 306.116376 344.275207 
Q 305.610397 344.568605 305.047137 344.66287 
Q 304.355334 344.781592 303.720738 344.586221 
Q 303.087685 344.390743 302.489377 343.870334 
Q 301.723542 343.204209 301.626837 342.3721 
Q 301.530132 341.539991 302.130936 340.849254 
Q 302.541521 340.377209 303.046675 340.083094 
Q 303.552546 339.788153 304.11961 339.692848 
Q 304.804308 339.572295 305.43675 339.770141 
Q 306.069911 339.967162 306.668219 340.487572 
z
M 307.953136 347.286187 
L 308.829555 348.048498 
L 311.477233 345.979451 
L 310.379064 345.350423 
L 311.098988 344.78939 
L 312.19138 345.413393 
L 313.134644 346.233846 
L 309.771169 348.867515 
L 310.642636 349.625519 
L 309.914924 350.197173 
L 307.219647 347.852817 
z
" style="fill:#ffffff;stroke:#000000;"/>
    <path d="M 300.175242 341.222569 
Q 299.639573 341.078455 299.156851 340.81514 
Q 298.674953 340.552542 298.213637 340.151288 
Q 297.393335 339.437788 297.286259 338.612603 
Q 297.179182 337.787419 297.805109 337.067798 
Q 298.21067 336.60153 298.712879 336.320799 
Q 299.216632 336.039961 299.801529 335.955818 
Q 300.516116 335.852566 301.177013 336.069363 
Q 301.837909 336.28616 302.459325 336.826669 
Q 302.805106 337.12743 303.092672 337.50512 
Q 303.380955 337.881985 303.597497 338.319665 
L 302.752967 338.983957 
Q 302.597181 338.528092 302.374204 338.17614 
Q 302.152771 337.824081 301.849078 337.559928 
Q 301.183098 336.980658 300.37934 337.061434 
Q 299.5763 337.141385 298.970471 337.837898 
Q 298.569217 338.299215 298.590147 338.766796 
Q 298.61262 339.23427 299.055781 339.619733 
Q 299.2002 339.745349 299.361129 339.851984 
Q 299.522775 339.957794 299.705561 340.044301 
L 300.502789 339.424391 
L 299.897053 338.897521 
L 300.602586 338.341366 
L 302.144985 339.682947 
z
M 305.890011 342.705541 
Q 306.284804 342.251652 306.285327 341.83607 
Q 306.287392 341.420381 305.897873 341.081577 
Q 305.382089 340.632948 304.629493 340.791565 
Q 303.877721 340.950899 303.27261 341.646588 
Q 302.88643 342.090574 302.877079 342.512972 
Q 302.867728 342.935371 303.230839 343.251206 
Q 303.527931 343.509616 303.866565 343.585271 
Q 304.206742 343.660818 304.582506 343.557126 
Q 304.941403 343.456159 305.281118 343.235585 
Q 305.620833 343.015011 305.890011 342.705541 
z
M 306.668219 340.487572 
Q 307.43653 341.15585 307.533343 341.989502 
Q 307.630155 342.823155 307.030787 343.512241 
Q 306.623072 343.980985 306.116376 344.275207 
Q 305.610397 344.568605 305.047137 344.66287 
Q 304.355334 344.781592 303.720738 344.586221 
Q 303.087685 344.390743 302.489377 343.870334 
Q 301.723542 343.204209 301.626837 342.3721 
Q 301.530132 341.539991 302.130936 340.849254 
Q 302.541521 340.377209 303.046675 340.083094 
Q 303.552546 339.788153 304.11961 339.692848 
Q 304.804308 339.572295 305.43675 339.770141 
Q 306.069911 339.967162 306.668219 340.487572 
z
M 307.953136 347.286187 
L 308.829555 348.048498 
L 311.477233 345.979451 
L 310.379064 345.350423 
L 311.098988 344.78939 
L 312.19138 345.413393 
L 313.134644 346.233846 
L 309.771169 348.867515 
L 310.642636 349.625519 
L 309.914924 350.197173 
L 307.219647 347.852817 
z
" style="fill:#ffffff;"/>
    <path d="M 302.175242 343.222569 
Q 301.639573 343.078455 301.156851 342.81514 
Q 300.674953 342.552542 300.213637 342.151288 
Q 299.393335 341.437788 299.286259 340.612603 
Q 299.179182 339.787419 299.805109 339.067798 
Q 300.21067 338.60153 300.712879 338.320799 
Q 301.216632 338.039961 301.801529 337.955818 
Q 302.516116 337.852566 303.177013 338.069363 
Q 303.837909 338.28616 304.459325 338.826669 
Q 304.805106 339.12743 305.092672 339.50512 
Q 305.380955 339.881985 305.597497 340.319665 
L 304.752967 340.983957 
Q 304.597181 340.528092 304.374204 340.17614 
Q 304.152771 339.824081 303.849078 339.559928 
Q 303.183098 338.980658 302.37934 339.061434 
Q 301.5763 339.141385 300.970471 339.837898 
Q 300.569217 340.299215 300.590147 340.766796 
Q 300.61262 341.23427 301.055781 341.619733 
Q 301.2002 341.745349 301.361129 341.851984 
Q 301.522775 341.957794 301.705561 342.044301 
L 302.502789 341.424391 
L 301.897053 340.897521 
L 302.602586 340.341366 
L 304.144985 341.682947 
z
M 307.890011 344.705541 
Q 308.284804 344.251652 308.285327 343.83607 
Q 308.287392 343.420381 307.897873 343.081577 
Q 307.382089 342.632948 306.629493 342.791565 
Q 305.877721 342.950899 305.27261 343.646588 
Q 304.88643 344.090574 304.877079 344.512972 
Q 304.867728 344.935371 305.230839 345.251206 
Q 305.527931 345.509616 305.866565 345.585271 
Q 306.206742 345.660818 306.582506 345.557126 
Q 306.941403 345.456159 307.281118 345.235585 
Q 307.620833 345.015011 307.890011 344.705541 
z
M 308.668219 342.487572 
Q 309.43653 343.15585 309.533343 343.989502 
Q 309.630155 344.823155 309.030787 345.512241 
Q 308.623072 345.980985 308.116376 346.275207 
Q 307.610397 346.568605 307.047137 346.66287 
Q 306.355334 346.781592 305.720738 346.586221 
Q 305.087685 346.390743 304.489377 345.870334 
Q 303.723542 345.204209 303.626837 344.3721 
Q 303.530132 343.539991 304.130936 342.849254 
Q 304.541521 342.377209 305.046675 342.083094 
Q 305.552546 341.788153 306.11961 341.692848 
Q 306.804308 341.572295 307.43675 341.770141 
Q 308.069911 341.967162 308.668219 342.487572 
z
M 309.953136 349.286187 
L 310.829555 350.048498 
L 313.477233 347.979451 
L 312.379064 347.350423 
L 313.098988 346.78939 
L 314.19138 347.413393 
L 315.134644 348.233846 
L 311.771169 350.867515 
L 312.642636 351.625519 
L 311.914924 352.197173 
L 309.219647 349.852817 
z
" style="fill:#4c4c4c;opacity:0.3;"/>
    <path d="M 300.175242 341.222569 
Q 299.639573 341.078455 299.156851 340.81514 
Q 298.674953 340.552542 298.213637 340.151288 
Q 297.393335 339.437788 297.286259 338.612603 
Q 297.179182 337.787419 297.805109 337.067798 
Q 298.21067 336.60153 298.712879 336.320799 
Q 299.216632 336.039961 299.801529 335.955818 
Q 300.516116 335.852566 301.177013 336.069363 
Q 301.837909 336.28616 302.459325 336.826669 
Q 302.805106 337.12743 303.092672 337.50512 
Q 303.380955 337.881985 303.597497 338.319665 
L 302.752967 338.983957 
Q 302.597181 338.528092 302.374204 338.17614 
Q 302.152771 337.824081 301.849078 337.559928 
Q 301.183098 336.980658 300.37934 337.061434 
Q 299.5763 337.141385 298.970471 337.837898 
Q 298.569217 338.299215 298.590147 338.766796 
Q 298.61262 339.23427 299.055781 339.619733 
Q 299.2002 339.745349 299.361129 339.851984 
Q 299.522775 339.957794 299.705561 340.044301 
L 300.502789 339.424391 
L 299.897053 338.897521 
L 300.602586 338.341366 
L 302.144985 339.682947 
z
M 305.890011 342.705541 
Q 306.284804 342.251652 306.285327 341.83607 
Q 306.287392 341.420381 305.897873 341.081577 
Q 305.382089 340.632948 304.629493 340.791565 
Q 303.877721 340.950899 303.27261 341.646588 
Q 302.88643 342.090574 302.877079 342.512972 
Q 302.867728 342.935371 303.230839 343.251206 
Q 303.527931 343.509616 303.866565 343.585271 
Q 304.206742 343.660818 304.582506 343.557126 
Q 304.941403 343.456159 305.281118 343.235585 
Q 305.620833 343.015011 305.890011 342.705541 
z
M 306.668219 340.487572 
Q 307.43653 341.15585 307.533343 341.989502 
Q 307.630155 342.823155 307.030787 343.512241 
Q 306.623072 343.980985 306.116376 344.275207 
Q 305.610397 344.568605 305.047137 344.66287 
Q 304.355334 344.781592 303.720738 344.586221 
Q 303.087685 344.390743 302.489377 343.870334 
Q 301.723542 343.204209 301.626837 342.3721 
Q 301.530132 341.539991 302.130936 340.849254 
Q 302.541521 340.377209 303.046675 340.083094 
Q 303.552546 339.788153 304.11961 339.692848 
Q 304.804308 339.572295 305.43675 339.770141 
Q 306.069911 339.967162 306.668219 340.487572 
z
M 307.953136 347.286187 
L 308.829555 348.048498 
L 311.477233 345.979451 
L 310.379064 345.350423 
L 311.098988 344.78939 
L 312.19138 345.413393 
L 313.134644 346.233846 
L 309.771169 348.867515 
L 310.642636 349.625519 
L 309.914924 350.197173 
L 307.219647 347.852817 
z
" style="fill:#ffffff;"/>
   </g>
   <g id="text_11">
    <text style="font-family:DejaVu Sans;font-size:12px;font-style:normal;font-weight:normal;text-anchor:middle;" transform="rotate(-0, 242.560662, 16.318125)" x="242.560662" y="16.318125">CirGO Visualisation Plot</text>
   </g>
   <g id="legend_1">
    <g id="text_12">
     <text style="font-family:DejaVu Sans;font-size:7px;font-style:normal;font-weight:normal;text-anchor:start;" transform="rotate(-0, 588.700662, 39.121031)" x="588.700662" y="39.121031">Name and Proportion of the Biological Process (Inner Ring)</text>
    </g>
    <g id="patch_14">
     <path d="M 590.117069 49.395719 
L 604.117069 49.395719 
L 604.117069 44.495719 
L 590.117069 44.495719 
z
" style="fill:#943105;stroke:#ffffff;stroke-linejoin:miter;stroke-width:0.7;"/>
    </g>
    <g id="text_13">
     <text style="font-family:DejaVu Sans;font-size:7px;font-style:normal;font-weight:normal;text-anchor:start;" transform="rotate(-0, 609.717069, 49.395719)" x="609.717069" y="49.395719">GO1 negative regulation of circadian rhythm, 72.8%</text>
    </g>
    <g id="patch_15">
     <path d="M 590.117069 59.670406 
L 604.117069 59.670406 
L 604.117069 54.770406 
L 590.117069 54.770406 
z
" style="fill:#0cc0aa;stroke:#ffffff;stroke-linejoin:miter;stroke-width:0.7;"/>
    </g>
    <g id="text_14">
     <text style="font-family:DejaVu Sans;font-size:7px;font-style:normal;font-weight:normal;text-anchor:start;" transform="rotate(-0, 609.717069, 59.670406)" x="609.717069" y="59.670406">GO2 mRNA cis splicing, via spliceosome, 27.2%</text>
    </g>
   </g>
  </g>
 </g>
</svg>
