<?xml version="1.0" encoding="utf-8" standalone="no"?>
<!DOCTYPE svg PUBLIC "-//W3C//DTD SVG 1.1//EN"
  "http://www.w3.org/Graphics/SVG/1.1/DTD/svg11.dtd">
<!-- Created with matplotlib (http://matplotlib.org/) -->
<svg height="588pt" version="1.1" viewBox="0 0 838 588" width="838pt" xmlns="http://www.w3.org/2000/svg" xmlns:xlink="http://www.w3.org/1999/xlink">
 <defs>
  <style type="text/css">
*{stroke-linecap:butt;stroke-linejoin:round;}
  </style>
 </defs>
 <g id="figure_1">
  <g id="patch_1">
   <path d="M 0 588.4778 
L 838.000528 588.4778 
L 838.000528 0 
L 0 0 
z
" style="fill:#ffffff;"/>
  </g>
  <g id="axes_1">
   <g id="patch_2">
    <path d="M 275.670059 174.151725 
C 258.63511 174.151725 241.813751 177.960706 226.440494 185.299128 
C 211.067236 192.63755 197.52759 203.32139 186.815224 216.566567 
C 176.102858 229.811743 168.486403 245.286111 164.524826 261.854013 
C 160.563248 278.421916 160.355893 295.667885 163.917976 312.326248 
L 275.670059 288.430125 
L 275.670059 174.151725 
z
" style="fill:#4bd2c1;stroke:#ffffff;stroke-linejoin:miter;stroke-width:0.7;"/>
   </g>
   <g id="patch_3">
    <path d="M 163.917976 312.326248 
C 167.870964 330.812704 176.350019 348.032621 188.592571 362.437312 
C 200.835123 376.842003 216.462815 387.986291 234.070159 394.867905 
C 251.677504 401.74952 270.720345 404.155784 289.48605 401.87029 
C 308.251756 399.584796 326.160372 392.678177 341.601273 381.771583 
L 275.670059 288.430125 
L 163.917976 312.326248 
z
" style="fill:#2bc9b5;stroke:#ffffff;stroke-linejoin:miter;stroke-width:0.7;"/>
   </g>
   <g id="patch_4">
    <path d="M 341.601273 381.771583 
C 361.416348 367.775316 376.269088 347.826429 383.996329 324.830289 
C 391.723571 301.834149 391.931041 276.964109 384.588524 253.842254 
C 377.246006 230.7204 362.728145 210.526498 343.14933 196.2016 
C 323.570514 181.876702 299.929731 174.15172 275.670038 174.151725 
L 275.670059 288.430125 
L 341.601273 381.771583 
z
" style="fill:#0cc0aa;stroke:#ffffff;stroke-linejoin:miter;stroke-width:0.7;"/>
   </g>
   <g id="patch_5">
    <path d="M 375.663659 288.430125 
C 375.663659 275.299086 373.077131 262.295729 368.0521 250.164231 
C 363.027069 238.032733 355.661259 227.009019 346.376212 217.723972 
C 337.091165 208.438925 326.067452 201.073116 313.935953 196.048085 
C 301.804455 191.023053 288.801099 188.436525 275.670059 188.436525 
C 262.53902 188.436525 249.535664 191.023053 237.404165 196.048085 
C 225.272667 201.073116 214.248954 208.438925 204.963907 217.723972 
C 195.67886 227.009019 188.31305 238.032733 183.288019 250.164231 
C 178.262988 262.295729 175.676459 275.299086 175.676459 288.430125 
C 175.676459 301.561164 178.262988 314.564521 183.288019 326.696019 
C 188.31305 338.827517 195.67886 349.851231 204.963907 359.136278 
C 214.248954 368.421325 225.272667 375.787134 237.404165 380.812165 
C 249.535664 385.837197 262.53902 388.423725 275.670059 388.423725 
C 288.801099 388.423725 301.804455 385.837197 313.935953 380.812165 
C 326.067452 375.787134 337.091165 368.421325 346.376212 359.136278 
C 355.661259 349.851231 363.027069 338.827517 368.0521 326.696019 
C 373.077131 314.564521 375.663659 301.561164 375.663659 288.430125 
M 275.670059 288.430125 
M 375.663659 288.430125 
z
" style="fill:#0cc0aa;stroke:#ffffff;stroke-linejoin:miter;stroke-width:0.7;"/>
   </g>
   <g id="matplotlib.axis_1"/>
   <g id="matplotlib.axis_2"/>
   <g id="text_1">
    <text style="font-family:DejaVu Sans;font-size:7px;font-style:normal;font-weight:roman;text-anchor:end;" transform="rotate(-321.034938, 181.157827, 214.475236)" x="181.157827" y="214.475236">transferase activity, transferring phosphorus-containing groups</text>
   </g>
   <g id="text_2">
    <text style="font-family:DejaVu Sans;font-size:7px;font-style:normal;font-weight:roman;text-anchor:end;" transform="rotate(-68.652567, 233.789203, 400.892926)" x="233.789203" y="400.892926">phosphotransferase activity, alcohol group as acceptor</text>
   </g>
   <g id="text_3">
    <text style="font-family:DejaVu Sans;font-size:7px;font-style:normal;font-weight:roman;text-anchor:start;" transform="rotate(-17.617634, 390.61906, 253.953828)" x="390.61906" y="253.953828">protein serine/threonine kinase activity</text>
   </g>
   <g id="text_4">
    <path d="M 273.834747 372.661895 
Q 274.077559 373.160645 274.195684 373.697676 
Q 274.313809 374.233614 274.313809 374.84502 
Q 274.313809 375.932207 273.761466 376.554551 
Q 273.209122 377.176895 272.255372 377.176895 
Q 271.637403 377.176895 271.095997 376.982207 
Q 270.553497 376.786426 270.106153 376.400332 
Q 269.559278 375.928926 269.289122 375.287989 
Q 269.018966 374.647051 269.018966 373.823457 
Q 269.018966 373.365176 269.115216 372.900332 
Q 269.210372 372.435489 269.398497 371.984864 
L 270.453966 372.186114 
Q 270.212247 372.602832 270.093028 373.002051 
Q 269.972716 373.400176 269.972716 373.802676 
Q 269.972716 374.685332 270.561153 375.23877 
Q 271.148497 375.792207 272.071622 375.792207 
Q 272.683028 375.792207 273.022091 375.469551 
Q 273.360059 375.145801 273.360059 374.558457 
Q 273.360059 374.367051 273.334903 374.175645 
Q 273.308653 373.984239 273.253966 373.789551 
L 272.263028 373.594864 
L 272.263028 374.397676 
L 271.380372 374.230332 
L 271.380372 372.186114 
z
M 271.203184 367.376758 
Q 270.601622 367.376758 270.287716 367.649102 
Q 269.972716 367.920352 269.972716 368.436602 
Q 269.972716 369.120196 270.586309 369.583946 
Q 271.199903 370.046602 272.121934 370.046602 
Q 272.710372 370.046602 273.035216 369.776446 
Q 273.360059 369.50629 273.360059 369.02504 
Q 273.360059 368.63129 273.194903 368.326133 
Q 273.028653 368.019883 272.703809 367.804415 
Q 272.392091 367.599883 272.002716 367.488321 
Q 271.613341 367.376758 271.203184 367.376758 
z
M 269.018966 368.245196 
Q 269.018966 367.226915 269.584434 366.606758 
Q 270.149903 365.986602 271.063184 365.986602 
Q 271.684434 365.986602 272.238966 366.175821 
Q 272.792403 366.36504 273.233184 366.728165 
Q 273.776778 367.172227 274.045841 367.779258 
Q 274.313809 368.385196 274.313809 369.178165 
Q 274.313809 370.193165 273.749434 370.812227 
Q 273.185059 371.43129 272.269591 371.43129 
Q 271.643966 371.43129 271.090528 371.243165 
Q 270.535997 371.05504 270.091934 370.689727 
Q 269.551622 370.252227 269.285841 369.645196 
Q 269.018966 369.038165 269.018966 368.245196 
z
M 273.305372 362.813907 
L 273.305372 361.652344 
L 270.006622 361.0125 
L 270.252716 362.253907 
L 269.356934 362.078907 
L 269.110841 360.845157 
L 269.110841 359.595 
L 273.305372 360.404375 
L 273.305372 359.249375 
L 274.214278 359.423282 
L 274.214278 362.995469 
z
" style="fill:#ffffff;stroke:#000000;"/>
    <path d="M 273.834747 372.661895 
Q 274.077559 373.160645 274.195684 373.697676 
Q 274.313809 374.233614 274.313809 374.84502 
Q 274.313809 375.932207 273.761466 376.554551 
Q 273.209122 377.176895 272.255372 377.176895 
Q 271.637403 377.176895 271.095997 376.982207 
Q 270.553497 376.786426 270.106153 376.400332 
Q 269.559278 375.928926 269.289122 375.287989 
Q 269.018966 374.647051 269.018966 373.823457 
Q 269.018966 373.365176 269.115216 372.900332 
Q 269.210372 372.435489 269.398497 371.984864 
L 270.453966 372.186114 
Q 270.212247 372.602832 270.093028 373.002051 
Q 269.972716 373.400176 269.972716 373.802676 
Q 269.972716 374.685332 270.561153 375.23877 
Q 271.148497 375.792207 272.071622 375.792207 
Q 272.683028 375.792207 273.022091 375.469551 
Q 273.360059 375.145801 273.360059 374.558457 
Q 273.360059 374.367051 273.334903 374.175645 
Q 273.308653 373.984239 273.253966 373.789551 
L 272.263028 373.594864 
L 272.263028 374.397676 
L 271.380372 374.230332 
L 271.380372 372.186114 
z
M 271.203184 367.376758 
Q 270.601622 367.376758 270.287716 367.649102 
Q 269.972716 367.920352 269.972716 368.436602 
Q 269.972716 369.120196 270.586309 369.583946 
Q 271.199903 370.046602 272.121934 370.046602 
Q 272.710372 370.046602 273.035216 369.776446 
Q 273.360059 369.50629 273.360059 369.02504 
Q 273.360059 368.63129 273.194903 368.326133 
Q 273.028653 368.019883 272.703809 367.804415 
Q 272.392091 367.599883 272.002716 367.488321 
Q 271.613341 367.376758 271.203184 367.376758 
z
M 269.018966 368.245196 
Q 269.018966 367.226915 269.584434 366.606758 
Q 270.149903 365.986602 271.063184 365.986602 
Q 271.684434 365.986602 272.238966 366.175821 
Q 272.792403 366.36504 273.233184 366.728165 
Q 273.776778 367.172227 274.045841 367.779258 
Q 274.313809 368.385196 274.313809 369.178165 
Q 274.313809 370.193165 273.749434 370.812227 
Q 273.185059 371.43129 272.269591 371.43129 
Q 271.643966 371.43129 271.090528 371.243165 
Q 270.535997 371.05504 270.091934 370.689727 
Q 269.551622 370.252227 269.285841 369.645196 
Q 269.018966 369.038165 269.018966 368.245196 
z
M 273.305372 362.813907 
L 273.305372 361.652344 
L 270.006622 361.0125 
L 270.252716 362.253907 
L 269.356934 362.078907 
L 269.110841 360.845157 
L 269.110841 359.595 
L 273.305372 360.404375 
L 273.305372 359.249375 
L 274.214278 359.423282 
L 274.214278 362.995469 
z
" style="fill:#ffffff;"/>
    <path d="M 275.834747 374.661895 
Q 276.077559 375.160645 276.195684 375.697676 
Q 276.313809 376.233614 276.313809 376.84502 
Q 276.313809 377.932207 275.761466 378.554551 
Q 275.209122 379.176895 274.255372 379.176895 
Q 273.637403 379.176895 273.095997 378.982207 
Q 272.553497 378.786426 272.106153 378.400332 
Q 271.559278 377.928926 271.289122 377.287989 
Q 271.018966 376.647051 271.018966 375.823457 
Q 271.018966 375.365176 271.115216 374.900332 
Q 271.210372 374.435489 271.398497 373.984864 
L 272.453966 374.186114 
Q 272.212247 374.602832 272.093028 375.002051 
Q 271.972716 375.400176 271.972716 375.802676 
Q 271.972716 376.685332 272.561153 377.23877 
Q 273.148497 377.792207 274.071622 377.792207 
Q 274.683028 377.792207 275.022091 377.469551 
Q 275.360059 377.145801 275.360059 376.558457 
Q 275.360059 376.367051 275.334903 376.175645 
Q 275.308653 375.984239 275.253966 375.789551 
L 274.263028 375.594864 
L 274.263028 376.397676 
L 273.380372 376.230332 
L 273.380372 374.186114 
z
M 273.203184 369.376758 
Q 272.601622 369.376758 272.287716 369.649102 
Q 271.972716 369.920352 271.972716 370.436602 
Q 271.972716 371.120196 272.586309 371.583946 
Q 273.199903 372.046602 274.121934 372.046602 
Q 274.710372 372.046602 275.035216 371.776446 
Q 275.360059 371.50629 275.360059 371.02504 
Q 275.360059 370.63129 275.194903 370.326133 
Q 275.028653 370.019883 274.703809 369.804415 
Q 274.392091 369.599883 274.002716 369.488321 
Q 273.613341 369.376758 273.203184 369.376758 
z
M 271.018966 370.245196 
Q 271.018966 369.226915 271.584434 368.606758 
Q 272.149903 367.986602 273.063184 367.986602 
Q 273.684434 367.986602 274.238966 368.175821 
Q 274.792403 368.36504 275.233184 368.728165 
Q 275.776778 369.172227 276.045841 369.779258 
Q 276.313809 370.385196 276.313809 371.178165 
Q 276.313809 372.193165 275.749434 372.812227 
Q 275.185059 373.43129 274.269591 373.43129 
Q 273.643966 373.43129 273.090528 373.243165 
Q 272.535997 373.05504 272.091934 372.689727 
Q 271.551622 372.252227 271.285841 371.645196 
Q 271.018966 371.038165 271.018966 370.245196 
z
M 275.305372 364.813907 
L 275.305372 363.652344 
L 272.006622 363.0125 
L 272.252716 364.253907 
L 271.356934 364.078907 
L 271.110841 362.845157 
L 271.110841 361.595 
L 275.305372 362.404375 
L 275.305372 361.249375 
L 276.214278 361.423282 
L 276.214278 364.995469 
z
" style="fill:#4c4c4c;opacity:0.3;"/>
    <path d="M 273.834747 372.661895 
Q 274.077559 373.160645 274.195684 373.697676 
Q 274.313809 374.233614 274.313809 374.84502 
Q 274.313809 375.932207 273.761466 376.554551 
Q 273.209122 377.176895 272.255372 377.176895 
Q 271.637403 377.176895 271.095997 376.982207 
Q 270.553497 376.786426 270.106153 376.400332 
Q 269.559278 375.928926 269.289122 375.287989 
Q 269.018966 374.647051 269.018966 373.823457 
Q 269.018966 373.365176 269.115216 372.900332 
Q 269.210372 372.435489 269.398497 371.984864 
L 270.453966 372.186114 
Q 270.212247 372.602832 270.093028 373.002051 
Q 269.972716 373.400176 269.972716 373.802676 
Q 269.972716 374.685332 270.561153 375.23877 
Q 271.148497 375.792207 272.071622 375.792207 
Q 272.683028 375.792207 273.022091 375.469551 
Q 273.360059 375.145801 273.360059 374.558457 
Q 273.360059 374.367051 273.334903 374.175645 
Q 273.308653 373.984239 273.253966 373.789551 
L 272.263028 373.594864 
L 272.263028 374.397676 
L 271.380372 374.230332 
L 271.380372 372.186114 
z
M 271.203184 367.376758 
Q 270.601622 367.376758 270.287716 367.649102 
Q 269.972716 367.920352 269.972716 368.436602 
Q 269.972716 369.120196 270.586309 369.583946 
Q 271.199903 370.046602 272.121934 370.046602 
Q 272.710372 370.046602 273.035216 369.776446 
Q 273.360059 369.50629 273.360059 369.02504 
Q 273.360059 368.63129 273.194903 368.326133 
Q 273.028653 368.019883 272.703809 367.804415 
Q 272.392091 367.599883 272.002716 367.488321 
Q 271.613341 367.376758 271.203184 367.376758 
z
M 269.018966 368.245196 
Q 269.018966 367.226915 269.584434 366.606758 
Q 270.149903 365.986602 271.063184 365.986602 
Q 271.684434 365.986602 272.238966 366.175821 
Q 272.792403 366.36504 273.233184 366.728165 
Q 273.776778 367.172227 274.045841 367.779258 
Q 274.313809 368.385196 274.313809 369.178165 
Q 274.313809 370.193165 273.749434 370.812227 
Q 273.185059 371.43129 272.269591 371.43129 
Q 271.643966 371.43129 271.090528 371.243165 
Q 270.535997 371.05504 270.091934 370.689727 
Q 269.551622 370.252227 269.285841 369.645196 
Q 269.018966 369.038165 269.018966 368.245196 
z
M 273.305372 362.813907 
L 273.305372 361.652344 
L 270.006622 361.0125 
L 270.252716 362.253907 
L 269.356934 362.078907 
L 269.110841 360.845157 
L 269.110841 359.595 
L 273.305372 360.404375 
L 273.305372 359.249375 
L 274.214278 359.423282 
L 274.214278 362.995469 
z
" style="fill:#ffffff;"/>
   </g>
   <g id="text_5">
    <text style="font-family:DejaVu Sans;font-size:12px;font-style:normal;font-weight:normal;text-anchor:middle;" transform="rotate(-0, 275.670059, 16.318125)" x="275.670059" y="16.318125">CirGO Visualisation Plot</text>
   </g>
   <g id="legend_1">
    <g id="text_6">
     <text style="font-family:DejaVu Sans;font-size:7px;font-style:normal;font-weight:normal;text-anchor:start;" transform="rotate(-0, 621.866934, 39.121031)" x="621.866934" y="39.121031">Name and Proportion of the Biological Process (Inner Ring)</text>
    </g>
    <g id="patch_6">
     <path d="M 621.810059 49.395719 
L 635.810059 49.395719 
L 635.810059 44.495719 
L 621.810059 44.495719 
z
" style="fill:#0cc0aa;stroke:#ffffff;stroke-linejoin:miter;stroke-width:0.7;"/>
    </g>
    <g id="text_7">
     <text style="font-family:DejaVu Sans;font-size:7px;font-style:normal;font-weight:normal;text-anchor:start;" transform="rotate(-0, 641.410059, 49.395719)" x="641.410059" y="49.395719">GO1 protein serine/threonine kinase activity, 100.0%</text>
    </g>
   </g>
  </g>
 </g>
</svg>
