<?xml version="1.0" encoding="utf-8" standalone="no"?>
<!DOCTYPE svg PUBLIC "-//W3C//DTD SVG 1.1//EN"
  "http://www.w3.org/Graphics/SVG/1.1/DTD/svg11.dtd">
<!-- Created with matplotlib (http://matplotlib.org/) -->
<svg height="564pt" version="1.1" viewBox="0 0 935 564" width="935pt" xmlns="http://www.w3.org/2000/svg" xmlns:xlink="http://www.w3.org/1999/xlink">
 <defs>
  <style type="text/css">
*{stroke-linecap:butt;stroke-linejoin:round;}
  </style>
 </defs>
 <g id="figure_1">
  <g id="patch_1">
   <path d="M -0 564.863896 
L 935.031438 564.863896 
L 935.031438 -0 
L -0 -0 
z
" style="fill:#ffffff;"/>
  </g>
  <g id="axes_1">
   <g id="patch_2">
    <path d="M 319.528313 174.151725 
C 317.069637 174.151725 314.6116 174.231072 312.158043 174.389642 
C 309.704485 174.548212 307.256683 174.785922 304.81846 175.102401 
L 319.528313 288.430125 
L 319.528313 174.151725 
z
" style="fill:#0cc0aa;stroke:#ffffff;stroke-linejoin:miter;stroke-width:0.7;"/>
   </g>
   <g id="patch_3">
    <path d="M 304.81846 175.102401 
C 304.81846 175.102401 304.81846 175.102401 304.81846 175.102401 
L 319.528313 288.430125 
L 304.81846 175.102401 
z
" style="fill:none;stroke:#ffffff;stroke-linejoin:miter;stroke-width:0.7;"/>
   </g>
   <g id="patch_4">
    <path d="M 304.81846 175.102401 
C 304.81846 175.102401 304.81846 175.102401 304.81846 175.102401 
L 319.528313 288.430125 
L 304.81846 175.102401 
z
" style="fill:none;stroke:#ffffff;stroke-linejoin:miter;stroke-width:0.7;"/>
   </g>
   <g id="patch_5">
    <path d="M 304.81846 175.102401 
C 304.81846 175.102401 304.81846 175.102401 304.81846 175.102401 
L 319.528313 288.430125 
L 304.81846 175.102401 
z
" style="fill:none;stroke:#ffffff;stroke-linejoin:miter;stroke-width:0.7;"/>
   </g>
   <g id="patch_6">
    <path d="M 304.81846 175.102401 
C 304.81846 175.102401 304.81846 175.102401 304.81846 175.102401 
L 319.528313 288.430125 
L 304.81846 175.102401 
z
" style="fill:none;stroke:#ffffff;stroke-linejoin:miter;stroke-width:0.7;"/>
   </g>
   <g id="patch_7">
    <path d="M 304.81846 175.102401 
C 304.81846 175.102401 304.81846 175.102401 304.81846 175.102401 
L 319.528313 288.430125 
L 304.81846 175.102401 
z
" style="fill:none;stroke:#ffffff;stroke-linejoin:miter;stroke-width:0.7;"/>
   </g>
   <g id="patch_8">
    <path d="M 304.81846 175.102401 
C 304.81846 175.102401 304.81846 175.102401 304.81846 175.102401 
L 319.528313 288.430125 
L 304.81846 175.102401 
z
" style="fill:none;stroke:#ffffff;stroke-linejoin:miter;stroke-width:0.7;"/>
   </g>
   <g id="patch_9">
    <path d="M 304.81846 175.102401 
C 304.81846 175.102401 304.81846 175.102401 304.81846 175.102401 
L 319.528313 288.430125 
L 304.81846 175.102401 
z
" style="fill:none;stroke:#ffffff;stroke-linejoin:miter;stroke-width:0.7;"/>
   </g>
   <g id="patch_10">
    <path d="M 304.81846 175.102401 
C 304.81846 175.102401 304.81846 175.102401 304.81846 175.102401 
L 319.528313 288.430125 
L 304.81846 175.102401 
z
" style="fill:none;stroke:#ffffff;stroke-linejoin:miter;stroke-width:0.7;"/>
   </g>
   <g id="patch_11">
    <path d="M 304.81846 175.102401 
C 304.81846 175.102401 304.81846 175.102401 304.81846 175.102401 
L 319.528313 288.430125 
L 304.81846 175.102401 
z
" style="fill:none;stroke:#ffffff;stroke-linejoin:miter;stroke-width:0.7;"/>
   </g>
   <g id="patch_12">
    <path d="M 304.81846 175.102401 
C 304.81846 175.102401 304.81846 175.102401 304.81846 175.102401 
L 319.528313 288.430125 
L 304.81846 175.102401 
z
" style="fill:none;stroke:#ffffff;stroke-linejoin:miter;stroke-width:0.7;"/>
   </g>
   <g id="patch_13">
    <path d="M 304.81846 175.102401 
C 304.81846 175.102401 304.81846 175.102401 304.81846 175.102401 
L 319.528313 288.430125 
L 304.81846 175.102401 
z
" style="fill:none;stroke:#ffffff;stroke-linejoin:miter;stroke-width:0.7;"/>
   </g>
   <g id="patch_14">
    <path d="M 304.81846 175.102401 
C 304.81846 175.102401 304.81846 175.102401 304.81846 175.102401 
L 319.528313 288.430125 
L 304.81846 175.102401 
z
" style="fill:none;stroke:#ffffff;stroke-linejoin:miter;stroke-width:0.7;"/>
   </g>
   <g id="patch_15">
    <path d="M 304.81846 175.102401 
C 304.81846 175.102401 304.81846 175.102401 304.81846 175.102401 
L 319.528313 288.430125 
L 304.81846 175.102401 
z
" style="fill:none;stroke:#ffffff;stroke-linejoin:miter;stroke-width:0.7;"/>
   </g>
   <g id="patch_16">
    <path d="M 304.81846 175.102401 
C 304.81846 175.102401 304.81846 175.102401 304.81846 175.102401 
L 319.528313 288.430125 
L 304.81846 175.102401 
z
" style="fill:none;stroke:#ffffff;stroke-linejoin:miter;stroke-width:0.7;"/>
   </g>
   <g id="patch_17">
    <path d="M 304.81846 175.102401 
C 304.81846 175.102401 304.81846 175.102401 304.81846 175.102401 
L 319.528313 288.430125 
L 304.81846 175.102401 
z
" style="fill:none;stroke:#ffffff;stroke-linejoin:miter;stroke-width:0.7;"/>
   </g>
   <g id="patch_18">
    <path d="M 304.81846 175.102401 
C 304.81846 175.102401 304.81846 175.102401 304.81846 175.102401 
L 319.528313 288.430125 
L 304.81846 175.102401 
z
" style="fill:none;stroke:#ffffff;stroke-linejoin:miter;stroke-width:0.7;"/>
   </g>
   <g id="patch_19">
    <path d="M 304.81846 175.102401 
C 304.81846 175.102401 304.81846 175.102401 304.81846 175.102401 
L 319.528313 288.430125 
L 304.81846 175.102401 
z
" style="fill:none;stroke:#ffffff;stroke-linejoin:miter;stroke-width:0.7;"/>
   </g>
   <g id="patch_20">
    <path d="M 304.81846 175.102401 
C 304.81846 175.102401 304.81846 175.102401 304.81846 175.102401 
L 319.528313 288.430125 
L 304.81846 175.102401 
z
" style="fill:none;stroke:#ffffff;stroke-linejoin:miter;stroke-width:0.7;"/>
   </g>
   <g id="patch_21">
    <path d="M 304.81846 175.102401 
C 304.81846 175.102401 304.81846 175.102401 304.81846 175.102401 
L 319.528313 288.430125 
L 304.81846 175.102401 
z
" style="fill:none;stroke:#ffffff;stroke-linejoin:miter;stroke-width:0.7;"/>
   </g>
   <g id="patch_22">
    <path d="M 304.81846 175.102401 
C 304.81846 175.102401 304.81846 175.102401 304.81846 175.102401 
L 319.528313 288.430125 
L 304.81846 175.102401 
z
" style="fill:none;stroke:#ffffff;stroke-linejoin:miter;stroke-width:0.7;"/>
   </g>
   <g id="patch_23">
    <path d="M 304.81846 175.102401 
C 304.81846 175.102401 304.81846 175.102401 304.81846 175.102401 
L 319.528313 288.430125 
L 304.81846 175.102401 
z
" style="fill:none;stroke:#ffffff;stroke-linejoin:miter;stroke-width:0.7;"/>
   </g>
   <g id="patch_24">
    <path d="M 304.81846 175.102401 
C 304.81846 175.102401 304.81846 175.102401 304.81846 175.102401 
L 319.528313 288.430125 
L 304.81846 175.102401 
z
" style="fill:none;stroke:#ffffff;stroke-linejoin:miter;stroke-width:0.7;"/>
   </g>
   <g id="patch_25">
    <path d="M 304.81846 175.102401 
C 304.81846 175.102401 304.81846 175.102401 304.81846 175.102401 
L 319.528313 288.430125 
L 304.81846 175.102401 
z
" style="fill:none;stroke:#ffffff;stroke-linejoin:miter;stroke-width:0.7;"/>
   </g>
   <g id="patch_26">
    <path d="M 304.81846 175.102401 
C 304.81846 175.102401 304.81846 175.102401 304.81846 175.102401 
L 319.528313 288.430125 
L 304.81846 175.102401 
z
" style="fill:none;stroke:#ffffff;stroke-linejoin:miter;stroke-width:0.7;"/>
   </g>
   <g id="patch_27">
    <path d="M 304.81846 175.102401 
C 304.81846 175.102401 304.81846 175.102401 304.81846 175.102401 
L 319.528313 288.430125 
L 304.81846 175.102401 
z
" style="fill:none;stroke:#ffffff;stroke-linejoin:miter;stroke-width:0.7;"/>
   </g>
   <g id="patch_28">
    <path d="M 304.81846 175.102401 
C 304.81846 175.102401 304.81846 175.102401 304.81846 175.102401 
L 319.528313 288.430125 
L 304.81846 175.102401 
z
" style="fill:none;stroke:#ffffff;stroke-linejoin:miter;stroke-width:0.7;"/>
   </g>
   <g id="patch_29">
    <path d="M 304.81846 175.102401 
C 302.399116 175.416431 299.990447 175.807852 297.596158 176.276065 
C 295.201869 176.744277 292.823187 177.28904 290.46377 177.909516 
L 319.528313 288.430125 
L 304.81846 175.102401 
z
" style="fill:#ae603d;stroke:#ffffff;stroke-linejoin:miter;stroke-width:0.7;"/>
   </g>
   <g id="patch_30">
    <path d="M 290.46377 177.909516 
C 288.050003 178.544285 285.657679 179.257958 283.290647 180.049388 
C 280.923615 180.840817 278.583146 181.709578 276.273004 182.654273 
L 319.528313 288.430125 
L 290.46377 177.909516 
z
" style="fill:#943105;stroke:#ffffff;stroke-linejoin:miter;stroke-width:0.7;"/>
   </g>
   <g id="patch_31">
    <path d="M 276.273004 182.654273 
C 276.273004 182.654273 276.273004 182.654273 276.273004 182.654273 
L 319.528313 288.430125 
L 276.273004 182.654273 
z
" style="fill:none;stroke:#ffffff;stroke-linejoin:miter;stroke-width:0.7;"/>
   </g>
   <g id="patch_32">
    <path d="M 276.273004 182.654273 
C 276.273004 182.654273 276.273004 182.654273 276.273004 182.654273 
L 319.528313 288.430125 
L 276.273004 182.654273 
z
" style="fill:none;stroke:#ffffff;stroke-linejoin:miter;stroke-width:0.7;"/>
   </g>
   <g id="patch_33">
    <path d="M 276.273004 182.654273 
C 276.273004 182.654273 276.273004 182.654273 276.273004 182.654273 
L 319.528313 288.430125 
L 276.273004 182.654273 
z
" style="fill:none;stroke:#ffffff;stroke-linejoin:miter;stroke-width:0.7;"/>
   </g>
   <g id="patch_34">
    <path d="M 276.273004 182.654273 
C 276.273004 182.654273 276.273004 182.654273 276.273004 182.654273 
L 319.528313 288.430125 
L 276.273004 182.654273 
z
" style="fill:none;stroke:#ffffff;stroke-linejoin:miter;stroke-width:0.7;"/>
   </g>
   <g id="patch_35">
    <path d="M 276.273004 182.654273 
C 276.273004 182.654273 276.273004 182.654273 276.273004 182.654273 
L 319.528313 288.430125 
L 276.273004 182.654273 
z
" style="fill:none;stroke:#ffffff;stroke-linejoin:miter;stroke-width:0.7;"/>
   </g>
   <g id="patch_36">
    <path d="M 276.273004 182.654273 
C 276.273004 182.654273 276.273004 182.654273 276.273004 182.654273 
L 319.528313 288.430125 
L 276.273004 182.654273 
z
" style="fill:none;stroke:#ffffff;stroke-linejoin:miter;stroke-width:0.7;"/>
   </g>
   <g id="patch_37">
    <path d="M 276.273004 182.654273 
C 276.273004 182.654273 276.273004 182.654273 276.273004 182.654273 
L 319.528313 288.430125 
L 276.273004 182.654273 
z
" style="fill:none;stroke:#ffffff;stroke-linejoin:miter;stroke-width:0.7;"/>
   </g>
   <g id="patch_38">
    <path d="M 276.273004 182.654273 
C 276.273004 182.654273 276.273004 182.654273 276.273004 182.654273 
L 319.528313 288.430125 
L 276.273004 182.654273 
z
" style="fill:none;stroke:#ffffff;stroke-linejoin:miter;stroke-width:0.7;"/>
   </g>
   <g id="patch_39">
    <path d="M 276.273004 182.654273 
C 276.273004 182.654273 276.273004 182.654273 276.273004 182.654273 
L 319.528313 288.430125 
L 276.273004 182.654273 
z
" style="fill:none;stroke:#ffffff;stroke-linejoin:miter;stroke-width:0.7;"/>
   </g>
   <g id="patch_40">
    <path d="M 276.273004 182.654273 
C 276.273004 182.654273 276.273004 182.654273 276.273004 182.654273 
L 319.528313 288.430125 
L 276.273004 182.654273 
z
" style="fill:none;stroke:#ffffff;stroke-linejoin:miter;stroke-width:0.7;"/>
   </g>
   <g id="patch_41">
    <path d="M 276.273004 182.654273 
C 276.273004 182.654273 276.273004 182.654273 276.273004 182.654273 
L 319.528313 288.430125 
L 276.273004 182.654273 
z
" style="fill:none;stroke:#ffffff;stroke-linejoin:miter;stroke-width:0.7;"/>
   </g>
   <g id="patch_42">
    <path d="M 276.273004 182.654273 
C 276.273004 182.654273 276.273004 182.654273 276.273004 182.654273 
L 319.528313 288.430125 
L 276.273004 182.654273 
z
" style="fill:none;stroke:#ffffff;stroke-linejoin:miter;stroke-width:0.7;"/>
   </g>
   <g id="patch_43">
    <path d="M 276.273004 182.654273 
C 276.273004 182.654273 276.273004 182.654273 276.273004 182.654273 
L 319.528313 288.430125 
L 276.273004 182.654273 
z
" style="fill:none;stroke:#ffffff;stroke-linejoin:miter;stroke-width:0.7;"/>
   </g>
   <g id="patch_44">
    <path d="M 276.273004 182.654273 
C 276.273004 182.654273 276.273004 182.654273 276.273004 182.654273 
L 319.528313 288.430125 
L 276.273004 182.654273 
z
" style="fill:none;stroke:#ffffff;stroke-linejoin:miter;stroke-width:0.7;"/>
   </g>
   <g id="patch_45">
    <path d="M 276.273004 182.654273 
C 276.273004 182.654273 276.273004 182.654273 276.273004 182.654273 
L 319.528313 288.430125 
L 276.273004 182.654273 
z
" style="fill:none;stroke:#ffffff;stroke-linejoin:miter;stroke-width:0.7;"/>
   </g>
   <g id="patch_46">
    <path d="M 276.273004 182.654273 
C 276.273004 182.654273 276.273004 182.654273 276.273004 182.654273 
L 319.528313 288.430125 
L 276.273004 182.654273 
z
" style="fill:none;stroke:#ffffff;stroke-linejoin:miter;stroke-width:0.7;"/>
   </g>
   <g id="patch_47">
    <path d="M 276.273004 182.654273 
C 276.273004 182.654273 276.273004 182.654273 276.273004 182.654273 
L 319.528313 288.430125 
L 276.273004 182.654273 
z
" style="fill:none;stroke:#ffffff;stroke-linejoin:miter;stroke-width:0.7;"/>
   </g>
   <g id="patch_48">
    <path d="M 276.273004 182.654273 
C 276.273004 182.654273 276.273004 182.654273 276.273004 182.654273 
L 319.528313 288.430125 
L 276.273004 182.654273 
z
" style="fill:none;stroke:#ffffff;stroke-linejoin:miter;stroke-width:0.7;"/>
   </g>
   <g id="patch_49">
    <path d="M 276.273004 182.654273 
C 276.273004 182.654273 276.273004 182.654273 276.273004 182.654273 
L 319.528313 288.430125 
L 276.273004 182.654273 
z
" style="fill:none;stroke:#ffffff;stroke-linejoin:miter;stroke-width:0.7;"/>
   </g>
   <g id="patch_50">
    <path d="M 276.273004 182.654273 
C 276.273004 182.654273 276.273004 182.654273 276.273004 182.654273 
L 319.528313 288.430125 
L 276.273004 182.654273 
z
" style="fill:none;stroke:#ffffff;stroke-linejoin:miter;stroke-width:0.7;"/>
   </g>
   <g id="patch_51">
    <path d="M 276.273004 182.654273 
C 276.273004 182.654273 276.273004 182.654273 276.273004 182.654273 
L 319.528313 288.430125 
L 276.273004 182.654273 
z
" style="fill:none;stroke:#ffffff;stroke-linejoin:miter;stroke-width:0.7;"/>
   </g>
   <g id="patch_52">
    <path d="M 276.273004 182.654273 
C 276.273004 182.654273 276.273004 182.654273 276.273004 182.654273 
L 319.528313 288.430125 
L 276.273004 182.654273 
z
" style="fill:none;stroke:#ffffff;stroke-linejoin:miter;stroke-width:0.7;"/>
   </g>
   <g id="patch_53">
    <path d="M 276.273004 182.654273 
C 276.273004 182.654273 276.273004 182.654273 276.273004 182.654273 
L 319.528313 288.430125 
L 276.273004 182.654273 
z
" style="fill:none;stroke:#ffffff;stroke-linejoin:miter;stroke-width:0.7;"/>
   </g>
   <g id="patch_54">
    <path d="M 276.273004 182.654273 
C 276.273004 182.654273 276.273004 182.654273 276.273004 182.654273 
L 319.528313 288.430125 
L 276.273004 182.654273 
z
" style="fill:none;stroke:#ffffff;stroke-linejoin:miter;stroke-width:0.7;"/>
   </g>
   <g id="patch_55">
    <path d="M 276.273004 182.654273 
C 276.273004 182.654273 276.273004 182.654273 276.273004 182.654273 
L 319.528313 288.430125 
L 276.273004 182.654273 
z
" style="fill:none;stroke:#ffffff;stroke-linejoin:miter;stroke-width:0.7;"/>
   </g>
   <g id="patch_56">
    <path d="M 276.273004 182.654273 
C 273.81809 183.65817 271.398868 184.747226 269.019734 185.919462 
C 266.6406 187.091697 264.302996 188.346403 262.01117 189.681298 
L 319.528313 288.430125 
L 276.273004 182.654273 
z
" style="fill:#b6d274;stroke:#ffffff;stroke-linejoin:miter;stroke-width:0.7;"/>
   </g>
   <g id="patch_57">
    <path d="M 262.01117 189.681298 
C 259.616953 191.075831 257.274245 192.556976 254.98769 194.121797 
C 252.701136 195.686618 250.472248 197.33408 248.305445 199.060915 
L 319.528313 288.430125 
L 262.01117 189.681298 
z
" style="fill:#a1c54d;stroke:#ffffff;stroke-linejoin:miter;stroke-width:0.7;"/>
   </g>
   <g id="patch_58">
    <path d="M 248.305445 199.060915 
C 248.305445 199.060915 248.305445 199.060915 248.305445 199.060915 
L 319.528313 288.430125 
L 248.305445 199.060915 
z
" style="fill:none;stroke:#ffffff;stroke-linejoin:miter;stroke-width:0.7;"/>
   </g>
   <g id="patch_59">
    <path d="M 248.305445 199.060915 
C 248.305445 199.060915 248.305445 199.060915 248.305445 199.060915 
L 319.528313 288.430125 
L 248.305445 199.060915 
z
" style="fill:none;stroke:#ffffff;stroke-linejoin:miter;stroke-width:0.7;"/>
   </g>
   <g id="patch_60">
    <path d="M 248.305445 199.060915 
C 248.305445 199.060915 248.305445 199.060915 248.305445 199.060915 
L 319.528313 288.430125 
L 248.305445 199.060915 
z
" style="fill:none;stroke:#ffffff;stroke-linejoin:miter;stroke-width:0.7;"/>
   </g>
   <g id="patch_61">
    <path d="M 248.305445 199.060915 
C 248.305445 199.060915 248.305445 199.060915 248.305445 199.060915 
L 319.528313 288.430125 
L 248.305445 199.060915 
z
" style="fill:none;stroke:#ffffff;stroke-linejoin:miter;stroke-width:0.7;"/>
   </g>
   <g id="patch_62">
    <path d="M 248.305445 199.060915 
C 248.305445 199.060915 248.305445 199.060915 248.305445 199.060915 
L 319.528313 288.430125 
L 248.305445 199.060915 
z
" style="fill:none;stroke:#ffffff;stroke-linejoin:miter;stroke-width:0.7;"/>
   </g>
   <g id="patch_63">
    <path d="M 248.305445 199.060915 
C 248.305445 199.060915 248.305445 199.060915 248.305445 199.060915 
L 319.528313 288.430125 
L 248.305445 199.060915 
z
" style="fill:none;stroke:#ffffff;stroke-linejoin:miter;stroke-width:0.7;"/>
   </g>
   <g id="patch_64">
    <path d="M 248.305445 199.060915 
C 248.305445 199.060915 248.305445 199.060915 248.305445 199.060915 
L 319.528313 288.430125 
L 248.305445 199.060915 
z
" style="fill:none;stroke:#ffffff;stroke-linejoin:miter;stroke-width:0.7;"/>
   </g>
   <g id="patch_65">
    <path d="M 248.305445 199.060915 
C 248.305445 199.060915 248.305445 199.060915 248.305445 199.060915 
L 319.528313 288.430125 
L 248.305445 199.060915 
z
" style="fill:none;stroke:#ffffff;stroke-linejoin:miter;stroke-width:0.7;"/>
   </g>
   <g id="patch_66">
    <path d="M 248.305445 199.060915 
C 248.305445 199.060915 248.305445 199.060915 248.305445 199.060915 
L 319.528313 288.430125 
L 248.305445 199.060915 
z
" style="fill:none;stroke:#ffffff;stroke-linejoin:miter;stroke-width:0.7;"/>
   </g>
   <g id="patch_67">
    <path d="M 248.305445 199.060915 
C 248.305445 199.060915 248.305445 199.060915 248.305445 199.060915 
L 319.528313 288.430125 
L 248.305445 199.060915 
z
" style="fill:none;stroke:#ffffff;stroke-linejoin:miter;stroke-width:0.7;"/>
   </g>
   <g id="patch_68">
    <path d="M 248.305445 199.060915 
C 248.305445 199.060915 248.305445 199.060915 248.305445 199.060915 
L 319.528313 288.430125 
L 248.305445 199.060915 
z
" style="fill:none;stroke:#ffffff;stroke-linejoin:miter;stroke-width:0.7;"/>
   </g>
   <g id="patch_69">
    <path d="M 248.305445 199.060915 
C 248.305445 199.060915 248.305445 199.060915 248.305445 199.060915 
L 319.528313 288.430125 
L 248.305445 199.060915 
z
" style="fill:none;stroke:#ffffff;stroke-linejoin:miter;stroke-width:0.7;"/>
   </g>
   <g id="patch_70">
    <path d="M 248.305445 199.060915 
C 248.305445 199.060915 248.305445 199.060915 248.305445 199.060915 
L 319.528313 288.430125 
L 248.305445 199.060915 
z
" style="fill:none;stroke:#ffffff;stroke-linejoin:miter;stroke-width:0.7;"/>
   </g>
   <g id="patch_71">
    <path d="M 248.305445 199.060915 
C 248.305445 199.060915 248.305445 199.060915 248.305445 199.060915 
L 319.528313 288.430125 
L 248.305445 199.060915 
z
" style="fill:none;stroke:#ffffff;stroke-linejoin:miter;stroke-width:0.7;"/>
   </g>
   <g id="patch_72">
    <path d="M 248.305445 199.060915 
C 248.305445 199.060915 248.305445 199.060915 248.305445 199.060915 
L 319.528313 288.430125 
L 248.305445 199.060915 
z
" style="fill:none;stroke:#ffffff;stroke-linejoin:miter;stroke-width:0.7;"/>
   </g>
   <g id="patch_73">
    <path d="M 248.305445 199.060915 
C 248.305445 199.060915 248.305445 199.060915 248.305445 199.060915 
L 319.528313 288.430125 
L 248.305445 199.060915 
z
" style="fill:none;stroke:#ffffff;stroke-linejoin:miter;stroke-width:0.7;"/>
   </g>
   <g id="patch_74">
    <path d="M 248.305445 199.060915 
C 248.305445 199.060915 248.305445 199.060915 248.305445 199.060915 
L 319.528313 288.430125 
L 248.305445 199.060915 
z
" style="fill:none;stroke:#ffffff;stroke-linejoin:miter;stroke-width:0.7;"/>
   </g>
   <g id="patch_75">
    <path d="M 248.305445 199.060915 
C 248.305445 199.060915 248.305445 199.060915 248.305445 199.060915 
L 319.528313 288.430125 
L 248.305445 199.060915 
z
" style="fill:none;stroke:#ffffff;stroke-linejoin:miter;stroke-width:0.7;"/>
   </g>
   <g id="patch_76">
    <path d="M 248.305445 199.060915 
C 248.305445 199.060915 248.305445 199.060915 248.305445 199.060915 
L 319.528313 288.430125 
L 248.305445 199.060915 
z
" style="fill:none;stroke:#ffffff;stroke-linejoin:miter;stroke-width:0.7;"/>
   </g>
   <g id="patch_77">
    <path d="M 248.305445 199.060915 
C 248.305445 199.060915 248.305445 199.060915 248.305445 199.060915 
L 319.528313 288.430125 
L 248.305445 199.060915 
z
" style="fill:none;stroke:#ffffff;stroke-linejoin:miter;stroke-width:0.7;"/>
   </g>
   <g id="patch_78">
    <path d="M 248.305445 199.060915 
C 248.305445 199.060915 248.305445 199.060915 248.305445 199.060915 
L 319.528313 288.430125 
L 248.305445 199.060915 
z
" style="fill:none;stroke:#ffffff;stroke-linejoin:miter;stroke-width:0.7;"/>
   </g>
   <g id="patch_79">
    <path d="M 248.305445 199.060915 
C 248.305445 199.060915 248.305445 199.060915 248.305445 199.060915 
L 319.528313 288.430125 
L 248.305445 199.060915 
z
" style="fill:none;stroke:#ffffff;stroke-linejoin:miter;stroke-width:0.7;"/>
   </g>
   <g id="patch_80">
    <path d="M 248.305445 199.060915 
C 248.305445 199.060915 248.305445 199.060915 248.305445 199.060915 
L 319.528313 288.430125 
L 248.305445 199.060915 
z
" style="fill:none;stroke:#ffffff;stroke-linejoin:miter;stroke-width:0.7;"/>
   </g>
   <g id="patch_81">
    <path d="M 248.305445 199.060915 
C 248.305445 199.060915 248.305445 199.060915 248.305445 199.060915 
L 319.528313 288.430125 
L 248.305445 199.060915 
z
" style="fill:none;stroke:#ffffff;stroke-linejoin:miter;stroke-width:0.7;"/>
   </g>
   <g id="patch_82">
    <path d="M 248.305445 199.060915 
C 248.305445 199.060915 248.305445 199.060915 248.305445 199.060915 
L 319.528313 288.430125 
L 248.305445 199.060915 
z
" style="fill:none;stroke:#ffffff;stroke-linejoin:miter;stroke-width:0.7;"/>
   </g>
   <g id="patch_83">
    <path d="M 248.305445 199.060915 
C 245.853604 201.014911 243.483214 203.068979 241.200291 205.217905 
C 238.917367 207.366831 236.723844 209.608794 234.625289 211.938105 
L 319.528313 288.430125 
L 248.305445 199.060915 
z
" style="fill:#9bb0be;stroke:#ffffff;stroke-linejoin:miter;stroke-width:0.7;"/>
   </g>
   <g id="patch_84">
    <path d="M 234.625289 211.938105 
C 231.99355 214.859228 229.514317 217.914224 227.197485 221.090903 
C 224.880652 224.267583 222.729304 227.561714 220.752026 230.960152 
L 319.528313 288.430125 
L 234.625289 211.938105 
z
" style="fill:#728ea0;stroke:#ffffff;stroke-linejoin:miter;stroke-width:0.7;"/>
   </g>
   <g id="patch_85">
    <path d="M 220.752026 230.960152 
C 218.4992 234.832189 216.475997 238.833345 214.692894 242.9429 
C 212.909792 247.052456 211.369874 251.263305 210.081113 255.553642 
L 319.528313 288.430125 
L 220.752026 230.960152 
z
" style="fill:#4a6c83;stroke:#ffffff;stroke-linejoin:miter;stroke-width:0.7;"/>
   </g>
   <g id="patch_86">
    <path d="M 210.081113 255.553642 
C 208.549264 260.653235 207.375701 265.853661 206.569007 271.116897 
C 205.762313 276.380132 205.324458 281.69332 205.258643 287.017611 
L 319.528313 288.430125 
L 210.081113 255.553642 
z
" style="fill:#214a65;stroke:#ffffff;stroke-linejoin:miter;stroke-width:0.7;"/>
   </g>
   <g id="patch_87">
    <path d="M 205.258643 287.017611 
C 205.258643 287.017611 205.258643 287.017611 205.258643 287.017611 
L 319.528313 288.430125 
L 205.258643 287.017611 
z
" style="fill:none;stroke:#ffffff;stroke-linejoin:miter;stroke-width:0.7;"/>
   </g>
   <g id="patch_88">
    <path d="M 205.258643 287.017611 
C 205.258643 287.017611 205.258643 287.017611 205.258643 287.017611 
L 319.528313 288.430125 
L 205.258643 287.017611 
z
" style="fill:none;stroke:#ffffff;stroke-linejoin:miter;stroke-width:0.7;"/>
   </g>
   <g id="patch_89">
    <path d="M 205.258643 287.017611 
C 205.258643 287.017611 205.258643 287.017611 205.258643 287.017611 
L 319.528313 288.430125 
L 205.258643 287.017611 
z
" style="fill:none;stroke:#ffffff;stroke-linejoin:miter;stroke-width:0.7;"/>
   </g>
   <g id="patch_90">
    <path d="M 205.258643 287.017611 
C 205.258643 287.017611 205.258643 287.017611 205.258643 287.017611 
L 319.528313 288.430125 
L 205.258643 287.017611 
z
" style="fill:none;stroke:#ffffff;stroke-linejoin:miter;stroke-width:0.7;"/>
   </g>
   <g id="patch_91">
    <path d="M 205.258643 287.017611 
C 205.258643 287.017611 205.258643 287.017611 205.258643 287.017611 
L 319.528313 288.430125 
L 205.258643 287.017611 
z
" style="fill:none;stroke:#ffffff;stroke-linejoin:miter;stroke-width:0.7;"/>
   </g>
   <g id="patch_92">
    <path d="M 205.258643 287.017611 
C 205.258643 287.017611 205.258643 287.017611 205.258643 287.017611 
L 319.528313 288.430125 
L 205.258643 287.017611 
z
" style="fill:none;stroke:#ffffff;stroke-linejoin:miter;stroke-width:0.7;"/>
   </g>
   <g id="patch_93">
    <path d="M 205.258643 287.017611 
C 205.258643 287.017611 205.258643 287.017611 205.258643 287.017611 
L 319.528313 288.430125 
L 205.258643 287.017611 
z
" style="fill:none;stroke:#ffffff;stroke-linejoin:miter;stroke-width:0.7;"/>
   </g>
   <g id="patch_94">
    <path d="M 205.258643 287.017611 
C 205.258643 287.017611 205.258643 287.017611 205.258643 287.017611 
L 319.528313 288.430125 
L 205.258643 287.017611 
z
" style="fill:none;stroke:#ffffff;stroke-linejoin:miter;stroke-width:0.7;"/>
   </g>
   <g id="patch_95">
    <path d="M 205.258643 287.017611 
C 205.258643 287.017611 205.258643 287.017611 205.258643 287.017611 
L 319.528313 288.430125 
L 205.258643 287.017611 
z
" style="fill:none;stroke:#ffffff;stroke-linejoin:miter;stroke-width:0.7;"/>
   </g>
   <g id="patch_96">
    <path d="M 205.258643 287.017611 
C 205.258643 287.017611 205.258643 287.017611 205.258643 287.017611 
L 319.528313 288.430125 
L 205.258643 287.017611 
z
" style="fill:none;stroke:#ffffff;stroke-linejoin:miter;stroke-width:0.7;"/>
   </g>
   <g id="patch_97">
    <path d="M 205.258643 287.017611 
C 205.258643 287.017611 205.258643 287.017611 205.258643 287.017611 
L 319.528313 288.430125 
L 205.258643 287.017611 
z
" style="fill:none;stroke:#ffffff;stroke-linejoin:miter;stroke-width:0.7;"/>
   </g>
   <g id="patch_98">
    <path d="M 205.258643 287.017611 
C 205.258643 287.017611 205.258643 287.017611 205.258643 287.017611 
L 319.528313 288.430125 
L 205.258643 287.017611 
z
" style="fill:none;stroke:#ffffff;stroke-linejoin:miter;stroke-width:0.7;"/>
   </g>
   <g id="patch_99">
    <path d="M 205.258643 287.017611 
C 205.258643 287.017611 205.258643 287.017611 205.258643 287.017611 
L 319.528313 288.430125 
L 205.258643 287.017611 
z
" style="fill:none;stroke:#ffffff;stroke-linejoin:miter;stroke-width:0.7;"/>
   </g>
   <g id="patch_100">
    <path d="M 205.258643 287.017611 
C 205.258643 287.017611 205.258643 287.017611 205.258643 287.017611 
L 319.528313 288.430125 
L 205.258643 287.017611 
z
" style="fill:none;stroke:#ffffff;stroke-linejoin:miter;stroke-width:0.7;"/>
   </g>
   <g id="patch_101">
    <path d="M 205.258643 287.017611 
C 205.258643 287.017611 205.258643 287.017611 205.258643 287.017611 
L 319.528313 288.430125 
L 205.258643 287.017611 
z
" style="fill:none;stroke:#ffffff;stroke-linejoin:miter;stroke-width:0.7;"/>
   </g>
   <g id="patch_102">
    <path d="M 205.258643 287.017611 
C 205.258643 287.017611 205.258643 287.017611 205.258643 287.017611 
L 319.528313 288.430125 
L 205.258643 287.017611 
z
" style="fill:none;stroke:#ffffff;stroke-linejoin:miter;stroke-width:0.7;"/>
   </g>
   <g id="patch_103">
    <path d="M 205.258643 287.017611 
C 205.258643 287.017611 205.258643 287.017611 205.258643 287.017611 
L 319.528313 288.430125 
L 205.258643 287.017611 
z
" style="fill:none;stroke:#ffffff;stroke-linejoin:miter;stroke-width:0.7;"/>
   </g>
   <g id="patch_104">
    <path d="M 205.258643 287.017611 
C 205.258643 287.017611 205.258643 287.017611 205.258643 287.017611 
L 319.528313 288.430125 
L 205.258643 287.017611 
z
" style="fill:none;stroke:#ffffff;stroke-linejoin:miter;stroke-width:0.7;"/>
   </g>
   <g id="patch_105">
    <path d="M 205.258643 287.017611 
C 205.258643 287.017611 205.258643 287.017611 205.258643 287.017611 
L 319.528313 288.430125 
L 205.258643 287.017611 
z
" style="fill:none;stroke:#ffffff;stroke-linejoin:miter;stroke-width:0.7;"/>
   </g>
   <g id="patch_106">
    <path d="M 205.258643 287.017611 
C 205.258643 287.017611 205.258643 287.017611 205.258643 287.017611 
L 319.528313 288.430125 
L 205.258643 287.017611 
z
" style="fill:none;stroke:#ffffff;stroke-linejoin:miter;stroke-width:0.7;"/>
   </g>
   <g id="patch_107">
    <path d="M 205.258643 287.017611 
C 205.258643 287.017611 205.258643 287.017611 205.258643 287.017611 
L 319.528313 288.430125 
L 205.258643 287.017611 
z
" style="fill:none;stroke:#ffffff;stroke-linejoin:miter;stroke-width:0.7;"/>
   </g>
   <g id="patch_108">
    <path d="M 205.258643 287.017611 
C 205.258643 287.017611 205.258643 287.017611 205.258643 287.017611 
L 319.528313 288.430125 
L 205.258643 287.017611 
z
" style="fill:none;stroke:#ffffff;stroke-linejoin:miter;stroke-width:0.7;"/>
   </g>
   <g id="patch_109">
    <path d="M 205.258643 287.017611 
C 205.258643 287.017611 205.258643 287.017611 205.258643 287.017611 
L 319.528313 288.430125 
L 205.258643 287.017611 
z
" style="fill:none;stroke:#ffffff;stroke-linejoin:miter;stroke-width:0.7;"/>
   </g>
   <g id="patch_110">
    <path d="M 205.258643 287.017611 
C 205.233509 289.050943 205.262651 291.084584 205.346038 293.116362 
C 205.429426 295.148139 205.567029 297.177328 205.758702 299.201763 
L 319.528313 288.430125 
L 205.258643 287.017611 
z
" style="fill:#f2e4fa;stroke:#ffffff;stroke-linejoin:miter;stroke-width:0.7;"/>
   </g>
   <g id="patch_111">
    <path d="M 205.758702 299.201763 
C 205.953446 301.25864 206.203934 303.309858 206.509891 305.353155 
C 206.815848 307.396451 207.177161 309.431075 207.593431 311.454782 
L 319.528313 288.430125 
L 205.758702 299.201763 
z
" style="fill:#f0e1f9;stroke:#ffffff;stroke-linejoin:miter;stroke-width:0.7;"/>
   </g>
   <g id="patch_112">
    <path d="M 207.593431 311.454782 
C 208.013076 313.494896 208.488417 315.523157 209.018922 317.537291 
C 209.549426 319.551424 210.134896 321.550678 210.774674 323.532812 
L 319.528313 288.430125 
L 207.593431 311.454782 
z
" style="fill:#efdef9;stroke:#ffffff;stroke-linejoin:miter;stroke-width:0.7;"/>
   </g>
   <g id="patch_113">
    <path d="M 210.774674 323.532812 
C 211.442004 325.600305 212.168155 327.648348 212.952242 329.674444 
C 213.73633 331.700539 214.578034 333.703864 215.476329 335.681975 
L 319.528313 288.430125 
L 210.774674 323.532812 
z
" style="fill:#eddbf8;stroke:#ffffff;stroke-linejoin:miter;stroke-width:0.7;"/>
   </g>
   <g id="patch_114">
    <path d="M 215.476329 335.681975 
C 216.426069 337.773371 217.438648 339.835658 218.512684 341.866025 
C 219.586721 343.896392 220.721727 345.893916 221.916157 347.855874 
L 319.528313 288.430125 
L 215.476329 335.681975 
z
" style="fill:#ecd8f8;stroke:#ffffff;stroke-linejoin:miter;stroke-width:0.7;"/>
   </g>
   <g id="patch_115">
    <path d="M 221.916157 347.855874 
C 223.111775 349.819784 224.366389 351.747163 225.678288 353.635381 
C 226.990186 355.523598 228.358771 357.371794 229.782173 359.177443 
L 319.528313 288.430125 
L 221.916157 347.855874 
z
" style="fill:#ead5f7;stroke:#ffffff;stroke-linejoin:miter;stroke-width:0.7;"/>
   </g>
   <g id="patch_116">
    <path d="M 229.782173 359.177443 
C 231.22 361.001391 232.713096 362.781082 234.259381 364.514038 
C 235.805666 366.246994 237.40442 367.932408 239.053418 369.567933 
L 319.528313 288.430125 
L 229.782173 359.177443 
z
" style="fill:#e9d2f6;stroke:#ffffff;stroke-linejoin:miter;stroke-width:0.7;"/>
   </g>
   <g id="patch_117">
    <path d="M 239.053418 369.567933 
C 240.755289 371.2559 242.509847 372.889903 244.314487 374.467519 
C 246.119128 376.045134 247.972958 377.56558 249.873225 379.026601 
L 319.528313 288.430125 
L 239.053418 369.567933 
z
" style="fill:#e8cff6;stroke:#ffffff;stroke-linejoin:miter;stroke-width:0.7;"/>
   </g>
   <g id="patch_118">
    <path d="M 249.873225 379.026601 
C 251.799812 380.507857 253.773159 381.927282 255.790255 383.282709 
C 257.807351 384.638136 259.86717 385.928877 261.966569 387.152961 
L 319.528313 288.430125 
L 249.873225 379.026601 
z
" style="fill:#e6ccf5;stroke:#ffffff;stroke-linejoin:miter;stroke-width:0.7;"/>
   </g>
   <g id="patch_119">
    <path d="M 261.966569 387.152961 
C 264.245557 388.481757 266.569873 389.73124 268.935341 390.899163 
C 271.300808 392.067087 273.706009 393.152752 276.146618 394.154206 
L 319.528313 288.430125 
L 261.966569 387.152961 
z
" style="fill:#e5c9f5;stroke:#ffffff;stroke-linejoin:miter;stroke-width:0.7;"/>
   </g>
   <g id="patch_120">
    <path d="M 276.146618 394.154206 
C 278.68304 395.194974 281.256095 396.144129 283.860787 396.999827 
C 286.465479 397.855526 289.100121 398.617214 291.759599 399.283412 
L 319.528313 288.430125 
L 276.146618 394.154206 
z
" style="fill:#e3c6f4;stroke:#ffffff;stroke-linejoin:miter;stroke-width:0.7;"/>
   </g>
   <g id="patch_121">
    <path d="M 291.759599 399.283412 
C 294.502402 399.970483 297.26976 400.555522 300.05596 401.037319 
C 302.842159 401.519117 305.645281 401.897341 308.459536 402.171212 
L 319.528313 288.430125 
L 291.759599 399.283412 
z
" style="fill:#e2c3f4;stroke:#ffffff;stroke-linejoin:miter;stroke-width:0.7;"/>
   </g>
   <g id="patch_122">
    <path d="M 308.459536 402.171212 
C 311.284402 402.446115 314.11853 402.615686 316.956022 402.679571 
C 319.793514 402.743457 322.632401 402.701612 325.466778 402.554125 
L 319.528313 288.430125 
L 308.459536 402.171212 
z
" style="fill:#e0c0f3;stroke:#ffffff;stroke-linejoin:miter;stroke-width:0.7;"/>
   </g>
   <g id="patch_123">
    <path d="M 325.466778 402.554125 
C 328.310432 402.406155 331.147563 402.151952 333.972229 401.79205 
C 336.796895 401.432147 339.607123 400.966796 342.397027 400.396971 
L 319.528313 288.430125 
L 325.466778 402.554125 
z
" style="fill:#dfbdf2;stroke:#ffffff;stroke-linejoin:miter;stroke-width:0.7;"/>
   </g>
   <g id="patch_124">
    <path d="M 342.397027 400.396971 
C 345.201556 399.824159 347.983573 399.146178 350.737192 398.364463 
C 353.490811 397.582747 356.214087 396.69785 358.901258 395.711642 
L 319.528313 288.430125 
L 342.397027 400.396971 
z
" style="fill:#ddbaf2;stroke:#ffffff;stroke-linejoin:miter;stroke-width:0.7;"/>
   </g>
   <g id="patch_125">
    <path d="M 358.901258 395.711642 
C 361.740853 394.669494 364.537952 393.515017 367.285947 392.250938 
C 370.033941 390.986859 372.730665 389.614174 375.369746 388.136128 
L 319.528313 288.430125 
L 358.901258 395.711642 
z
" style="fill:#dcb7f1;stroke:#ffffff;stroke-linejoin:miter;stroke-width:0.7;"/>
   </g>
   <g id="patch_126">
    <path d="M 375.369746 388.136128 
C 378.339348 386.47297 381.233165 384.677975 384.042543 382.75651 
C 386.85192 380.835046 389.574053 378.78903 392.2008 376.624583 
L 319.528313 288.430125 
L 375.369746 388.136128 
z
" style="fill:#dab4f1;stroke:#ffffff;stroke-linejoin:miter;stroke-width:0.7;"/>
   </g>
   <g id="patch_127">
    <path d="M 392.2008 376.624583 
C 394.828134 374.459652 397.357416 372.178399 399.781076 369.787649 
C 402.204737 367.3969 404.520355 364.899042 406.721003 362.301551 
L 319.528313 288.430125 
L 392.2008 376.624583 
z
" style="fill:#d9b1f0;stroke:#ffffff;stroke-linejoin:miter;stroke-width:0.7;"/>
   </g>
   <g id="patch_128">
    <path d="M 406.721003 362.301551 
C 409.103236 359.489729 411.34806 356.564317 413.447605 353.535574 
C 415.547149 350.50683 417.498957 347.378298 419.296185 344.160947 
L 319.528313 288.430125 
L 406.721003 362.301551 
z
" style="fill:#d8aef0;stroke:#ffffff;stroke-linejoin:miter;stroke-width:0.7;"/>
   </g>
   <g id="patch_129">
    <path d="M 419.296185 344.160947 
C 421.243867 340.674257 423.007431 337.087862 424.579617 333.416527 
C 426.151802 329.745192 427.530449 325.993963 428.70988 322.178283 
L 319.528313 288.430125 
L 419.296185 344.160947 
z
" style="fill:#d6abef;stroke:#ffffff;stroke-linejoin:miter;stroke-width:0.7;"/>
   </g>
   <g id="patch_130">
    <path d="M 428.70988 322.178283 
C 430.014224 317.958486 431.072834 313.666618 431.88038 309.324284 
C 432.687925 304.981949 433.24305 300.596448 433.542958 296.189856 
L 319.528313 288.430125 
L 428.70988 322.178283 
z
" style="fill:#d5a8ee;stroke:#ffffff;stroke-linejoin:miter;stroke-width:0.7;"/>
   </g>
   <g id="patch_131">
    <path d="M 433.542958 296.189856 
C 433.855377 291.599452 433.890286 286.994366 433.647494 282.399754 
C 433.404702 277.805141 432.884652 273.229381 432.090185 268.697468 
L 319.528313 288.430125 
L 433.542958 296.189856 
z
" style="fill:#d3a5ee;stroke:#ffffff;stroke-linejoin:miter;stroke-width:0.7;"/>
   </g>
   <g id="patch_132">
    <path d="M 432.090185 268.697468 
C 431.17076 263.45275 429.885898 258.278699 428.244995 253.213144 
C 426.604092 248.147589 424.611156 243.202907 422.280759 238.415251 
L 319.528313 288.430125 
L 432.090185 268.697468 
z
" style="fill:#d2a2ed;stroke:#ffffff;stroke-linejoin:miter;stroke-width:0.7;"/>
   </g>
   <g id="patch_133">
    <path d="M 422.280759 238.415251 
C 419.950361 233.627594 417.288196 229.00866 414.313727 224.59222 
C 411.339258 220.17578 408.059752 215.972624 404.499189 212.013484 
L 319.528313 288.430125 
L 422.280759 238.415251 
z
" style="fill:#d09fed;stroke:#ffffff;stroke-linejoin:miter;stroke-width:0.7;"/>
   </g>
   <g id="patch_134">
    <path d="M 404.499189 212.013484 
C 400.938625 208.054343 397.105702 204.348891 393.028444 200.924219 
C 388.951186 197.499548 384.639554 194.364024 380.125074 191.540573 
L 319.528313 288.430125 
L 404.499189 212.013484 
z
" style="fill:#cf9cec;stroke:#ffffff;stroke-linejoin:miter;stroke-width:0.7;"/>
   </g>
   <g id="patch_135">
    <path d="M 380.125074 191.540573 
C 375.610594 188.717122 370.904294 186.212642 366.040585 184.045446 
C 361.176876 181.878249 356.16764 180.053629 351.049503 178.584928 
L 319.528313 288.430125 
L 380.125074 191.540573 
z
" style="fill:#cd99ec;stroke:#ffffff;stroke-linejoin:miter;stroke-width:0.7;"/>
   </g>
   <g id="patch_136">
    <path d="M 351.049503 178.584928 
C 345.931367 177.116227 340.716833 176.007032 335.444028 175.265454 
C 330.171223 174.523876 324.85303 174.151726 319.528332 174.151725 
L 319.528313 288.430125 
L 351.049503 178.584928 
z
" style="fill:#cc96eb;stroke:#ffffff;stroke-linejoin:miter;stroke-width:0.7;"/>
   </g>
   <g id="patch_137">
    <path d="M 319.528313 188.436525 
C 317.376971 188.436525 315.22619 188.505954 313.079326 188.644702 
C 310.932463 188.783451 308.790637 188.991447 306.657192 189.268367 
L 319.528313 288.430125 
L 319.528313 188.436525 
z
" style="fill:#0cc0aa;stroke:#ffffff;stroke-linejoin:miter;stroke-width:0.7;"/>
   </g>
   <g id="patch_138">
    <path d="M 306.657192 189.268367 
C 302.373453 189.824393 298.130242 190.657418 293.954236 191.762206 
C 289.77823 192.866993 285.678198 194.241223 281.679917 195.876255 
L 319.528313 288.430125 
L 306.657192 189.268367 
z
" style="fill:#943105;stroke:#ffffff;stroke-linejoin:miter;stroke-width:0.7;"/>
   </g>
   <g id="patch_139">
    <path d="M 281.679917 195.876255 
C 277.286461 197.672887 273.026502 199.780072 268.932366 202.18182 
C 264.83823 204.583567 260.920299 207.273788 257.208301 210.232068 
L 319.528313 288.430125 
L 281.679917 195.876255 
z
" style="fill:#a1c54d;stroke:#ffffff;stroke-linejoin:miter;stroke-width:0.7;"/>
   </g>
   <g id="patch_140">
    <path d="M 257.208301 210.232068 
C 245.619898 219.467456 236.228023 231.164384 229.714067 244.474225 
C 223.200111 257.784066 219.72551 272.376961 219.542352 287.194179 
L 319.528313 288.430125 
L 257.208301 210.232068 
z
" style="fill:#214a65;stroke:#ffffff;stroke-linejoin:miter;stroke-width:0.7;"/>
   </g>
   <g id="patch_141">
    <path d="M 219.542352 287.194179 
C 219.420474 297.05387 220.757672 306.877585 223.510475 316.345976 
C 226.263278 325.814368 230.401531 334.823715 235.79071 343.081143 
C 241.179888 351.338572 247.760955 358.753625 255.319976 365.085258 
C 262.878996 371.416891 271.333165 376.595742 280.407656 380.45346 
C 289.482146 384.311178 299.077552 386.805502 308.881949 387.855348 
C 318.686345 388.905194 328.592329 388.499061 338.277881 386.650152 
C 347.963432 384.801243 357.322449 381.529812 366.050692 376.942205 
C 374.778935 372.354598 382.78079 366.501071 389.796135 359.571907 
C 396.81148 352.642744 402.763465 344.713851 407.458605 336.042979 
C 412.153745 327.372106 415.540605 318.05424 417.509089 308.392281 
C 419.477572 298.730323 420.006114 288.830115 419.077533 279.013491 
C 418.148951 269.196867 415.773419 259.571364 412.028158 250.449884 
C 408.282898 241.328405 403.208938 232.81087 396.97122 225.174167 
C 390.733502 217.537463 383.400358 210.865247 375.210172 205.374417 
C 367.019985 199.883587 358.062477 195.634292 348.628834 192.764668 
C 339.19519 189.895043 329.388754 188.436525 319.52831 188.436525 
L 319.528313 288.430125 
L 219.542352 287.194179 
z
" style="fill:#cc96eb;stroke:#ffffff;stroke-linejoin:miter;stroke-width:0.7;"/>
   </g>
   <g id="matplotlib.axis_1"/>
   <g id="matplotlib.axis_2"/>
   <g id="text_1">
    <text style="font-family:DejaVu Sans;font-size:7px;font-style:normal;font-weight:roman;text-anchor:end;" transform="rotate(-273.6978, 309.861988, 168.812192)" x="309.861988" y="168.812192">protein localization to nucleus</text>
   </g>
   <g id="text_2">
    <text style="font-family:DejaVu Sans;font-size:7px;font-style:normal;font-weight:roman;text-anchor:end;" transform="rotate(-281.064775, 294.603894, 171.039064)" x="294.603894" y="171.039064">negative regulation of cell-cell adhesion</text>
   </g>
   <g id="text_3">
    <text style="font-family:DejaVu Sans;font-size:7px;font-style:normal;font-weight:roman;text-anchor:end;" transform="rotate(-288.487628, 279.646885, 175.242849)" x="279.646885" y="175.242849">neuron cell-cell adhesion</text>
   </g>
   <g id="text_4">
    <text style="font-family:DejaVu Sans;font-size:7px;font-style:normal;font-weight:roman;text-anchor:end;" transform="rotate(-296.230176, 264.761644, 181.647637)" x="264.761644" y="181.647637">exploration behavior</text>
   </g>
   <g id="text_5">
    <text style="font-family:DejaVu Sans;font-size:7px;font-style:normal;font-weight:roman;text-anchor:end;" transform="rotate(-304.386085, 250.166636, 190.497263)" x="250.166636" y="190.497263">locomotory exploration behavior</text>
   </g>
   <g id="text_6">
    <text style="font-family:DejaVu Sans;font-size:7px;font-style:normal;font-weight:roman;text-anchor:end;" transform="rotate(-313.26818, 235.877415, 202.381214)" x="235.877415" y="202.381214">regulation of membrane permeability</text>
   </g>
   <g id="text_7">
    <text style="font-family:DejaVu Sans;font-size:7px;font-style:normal;font-weight:roman;text-anchor:end;" transform="rotate(-323.895778, 221.442758, 219.284541)" x="221.442758" y="219.284541">stabilization of membrane potential</text>
   </g>
   <g id="text_8">
    <text style="font-family:DejaVu Sans;font-size:7px;font-style:normal;font-weight:roman;text-anchor:end;" transform="rotate(-336.544375, 208.682287, 242.440494)" x="208.682287" y="242.440494">oxidative phosphorylation</text>
   </g>
   <g id="text_9">
    <text style="font-family:DejaVu Sans;font-size:7px;font-style:normal;font-weight:roman;text-anchor:end;" transform="rotate(-351.28611, 200.628409, 272.160502)" x="200.628409" y="272.160502">regulation of transcription from mitochondrial promoter</text>
   </g>
   <g id="text_10">
    <text style="font-family:DejaVu Sans;font-size:7px;font-style:normal;font-weight:roman;text-anchor:end;" transform="rotate(-2.350198, 199.716133, 295.280611)" x="199.716133" y="295.280611">neuromuscular process</text>
   </g>
   <g id="text_11">
    <text style="font-family:DejaVu Sans;font-size:7px;font-style:normal;font-weight:roman;text-anchor:end;" transform="rotate(-8.516023, 201.145007, 308.109572)" x="201.145007" y="308.109572">cellular component disassembly</text>
   </g>
   <g id="text_12">
    <text style="font-family:DejaVu Sans;font-size:7px;font-style:normal;font-weight:roman;text-anchor:end;" transform="rotate(-14.756046, 203.985429, 320.860507)" x="203.985429" y="320.860507">positive regulation of signaling</text>
   </g>
   <g id="text_13">
    <text style="font-family:DejaVu Sans;font-size:7px;font-style:normal;font-weight:roman;text-anchor:end;" transform="rotate(-21.156147, 208.320561, 333.538035)" x="208.320561" y="333.538035">neuromuscular process controlling balance</text>
   </g>
   <g id="text_14">
    <text style="font-family:DejaVu Sans;font-size:7px;font-style:normal;font-weight:roman;text-anchor:end;" transform="rotate(-27.878234, 214.36509, 346.245212)" x="214.36509" y="346.245212">regulation of transporter activity</text>
   </g>
   <g id="text_15">
    <text style="font-family:DejaVu Sans;font-size:7px;font-style:normal;font-weight:roman;text-anchor:end;" transform="rotate(-34.790856, 222.087902, 358.481921)" x="222.087902" y="358.481921">negative regulation of cell morphogenesis involved in differentiation</text>
   </g>
   <g id="text_16">
    <text style="font-family:DejaVu Sans;font-size:7px;font-style:normal;font-weight:roman;text-anchor:end;" transform="rotate(-41.741951, 231.281924, 369.759471)" x="231.281924" y="369.759471">macromolecular complex disassembly</text>
   </g>
   <g id="text_17">
    <text style="font-family:DejaVu Sans;font-size:7px;font-style:normal;font-weight:roman;text-anchor:end;" transform="rotate(-48.84007, 242.008022, 380.040671)" x="242.008022" y="380.040671">positive regulation of transmembrane transport</text>
   </g>
   <g id="text_18">
    <text style="font-family:DejaVu Sans;font-size:7px;font-style:normal;font-weight:roman;text-anchor:end;" transform="rotate(-56.100097, 254.206575, 389.102655)" x="254.206575" y="389.102655">regulation of neurological system process</text>
   </g>
   <g id="text_19">
    <text style="font-family:DejaVu Sans;font-size:7px;font-style:normal;font-weight:roman;text-anchor:end;" transform="rotate(-63.722645, 268.13765, 396.877751)" x="268.13765" y="396.877751">telencephalon cell migration</text>
   </g>
   <g id="text_20">
    <text style="font-family:DejaVu Sans;font-size:7px;font-style:normal;font-weight:roman;text-anchor:end;" transform="rotate(-71.813515, 283.912484, 403.031174)" x="283.912484" y="403.031174">regulation of oxidoreductase activity</text>
   </g>
   <g id="text_21">
    <text style="font-family:DejaVu Sans;font-size:7px;font-style:normal;font-weight:roman;text-anchor:end;" transform="rotate(-80.189272, 300.985658, 406.996805)" x="300.985658" y="406.996805">regulation of transmission of nerve impulse</text>
   </g>
   <g id="text_22">
    <text style="font-family:DejaVu Sans;font-size:7px;font-style:normal;font-weight:roman;text-anchor:end;" transform="rotate(-88.710221, 318.75848, 408.435521)" x="318.75848" y="408.435521">mitochondrial membrane organization</text>
   </g>
   <g id="text_23">
    <text style="font-family:DejaVu Sans;font-size:7px;font-style:normal;font-weight:roman;text-anchor:start;" transform="rotate(-277.26117, 332.778353, 407.704281)" x="332.778353" y="407.704281">long-term synaptic potentiation</text>
   </g>
   <g id="text_24">
    <text style="font-family:DejaVu Sans;font-size:7px;font-style:normal;font-weight:roman;text-anchor:start;" transform="rotate(-285.848531, 350.439498, 404.38868)" x="350.439498" y="404.38868">regulation of sprouting of injured axon</text>
   </g>
   <g id="text_25">
    <text style="font-family:DejaVu Sans;font-size:7px;font-style:normal;font-weight:roman;text-anchor:start;" transform="rotate(-294.702457, 367.919023, 398.24919)" x="367.919023" y="398.24919">cellular component maintenance</text>
   </g>
   <g id="text_26">
    <text style="font-family:DejaVu Sans;font-size:7px;font-style:normal;font-weight:roman;text-anchor:start;" transform="rotate(-304.370051, 385.673926, 388.563265)" x="385.673926" y="388.563265">regulation of release of cytochrome c from mitochondria</text>
   </g>
   <g id="text_27">
    <text style="font-family:DejaVu Sans;font-size:7px;font-style:normal;font-weight:roman;text-anchor:start;" transform="rotate(-314.608334, 402.418589, 375.211978)" x="402.418589" y="375.211978">regulation of mitochondrial membrane permeability</text>
   </g>
   <g id="text_28">
    <text style="font-family:DejaVu Sans;font-size:7px;font-style:normal;font-weight:roman;text-anchor:start;" transform="rotate(-325.270055, 417.04314, 358.378294)" x="417.04314" y="358.378294">maintenance of synapse structure</text>
   </g>
   <g id="text_29">
    <text style="font-family:DejaVu Sans;font-size:7px;font-style:normal;font-weight:roman;text-anchor:start;" transform="rotate(-336.817808, 429.07181, 337.441451)" x="429.07181" y="337.441451">synapse organization</text>
   </g>
   <g id="text_30">
    <text style="font-family:DejaVu Sans;font-size:7px;font-style:normal;font-weight:roman;text-anchor:start;" transform="rotate(-349.465031, 437.144825, 312.267995)" x="437.144825" y="312.267995">regulation of proton transport</text>
   </g>
   <g id="text_31">
    <text style="font-family:DejaVu Sans;font-size:7px;font-style:normal;font-weight:roman;text-anchor:start;" transform="rotate(-3.024853, 439.45538, 284.027106)" x="439.45538" y="284.027106">regulation of electron carrier activity</text>
   </g>
   <g id="text_32">
    <text style="font-family:DejaVu Sans;font-size:7px;font-style:normal;font-weight:roman;text-anchor:start;" transform="rotate(-17.948879, 434.276076, 253.289852)" x="434.276076" y="253.289852">regulation of cristae formation</text>
   </g>
   <g id="text_33">
    <text style="font-family:DejaVu Sans;font-size:7px;font-style:normal;font-weight:roman;text-anchor:start;" transform="rotate(-33.960237, 420.132002, 223.002412)" x="420.132002" y="223.002412">positive regulation of cristae formation</text>
   </g>
   <g id="text_34">
    <text style="font-family:DejaVu Sans;font-size:7px;font-style:normal;font-weight:roman;text-anchor:start;" transform="rotate(-49.971595, 398.182497, 197.791242)" x="398.182497" y="197.791242">nucleoid organization</text>
   </g>
   <g id="text_35">
    <text style="font-family:DejaVu Sans;font-size:7px;font-style:normal;font-weight:roman;text-anchor:start;" transform="rotate(-65.982953, 370.130535, 179.612374)" x="370.130535" y="179.612374">positive regulation of cytochrome-c oxidase activity</text>
   </g>
   <g id="text_36">
    <text style="font-family:DejaVu Sans;font-size:7px;font-style:normal;font-weight:roman;text-anchor:start;" transform="rotate(-81.994312, 338.152552, 169.876232)" x="338.152552" y="169.876232">mitochondrial nucleoid organization</text>
   </g>
   <g id="text_37">
    <path d="M 293.21034 206.53042 
Q 292.848044 206.110359 292.596499 205.6214 
Q 292.345232 205.133498 292.188861 204.542427 
Q 291.910805 203.491398 292.28561 202.748487 
Q 292.660414 202.005576 293.582443 201.761647 
Q 294.179859 201.603597 294.753051 201.653341 
Q 295.327581 201.703863 295.858793 201.962704 
Q 296.508045 202.278565 296.93314 202.829091 
Q 297.358236 203.379617 297.568876 204.175819 
Q 297.686084 204.618858 297.711923 205.092859 
Q 297.738818 205.566579 297.672201 206.050331 
L 296.600365 206.125718 
Q 296.727465 205.661038 296.740616 205.244605 
Q 296.755104 204.828951 296.652161 204.439838 
Q 296.426416 203.586538 295.716003 203.202004 
Q 295.006649 202.81719 294.114226 203.053286 
Q 293.523154 203.209658 293.27789 203.6083 
Q 293.033963 204.007721 293.184181 204.57553 
Q 293.233134 204.76057 293.306407 204.939177 
Q 293.380738 205.117503 293.483399 205.291729 
L 294.491172 205.226502 
L 294.285847 204.45039 
L 295.181946 204.386423 
L 295.70477 206.362653 
z
M 297.106091 210.966738 
Q 297.687646 210.812884 297.921459 210.469314 
Q 298.156608 210.126522 298.024573 209.627442 
Q 297.849739 208.966584 297.137946 208.675189 
Q 296.426432 208.384851 295.535066 208.620667 
Q 294.966199 208.771164 294.721254 209.115416 
Q 294.476309 209.459668 294.599392 209.924913 
Q 294.700096 210.305567 294.937805 210.558334 
Q 295.176852 210.811879 295.545999 210.9371 
Q 295.899661 211.055105 296.304619 211.063371 
Q 296.709576 211.071638 297.106091 210.966738 
z
M 298.995556 209.568554 
Q 299.255989 210.552968 298.867936 211.297121 
Q 298.479884 212.041274 297.596977 212.274853 
Q 296.996389 212.433742 296.411907 212.392642 
Q 295.828482 212.351262 295.309489 212.112947 
Q 294.670403 211.822681 294.255036 211.304654 
Q 293.841007 210.787404 293.6382 210.020809 
Q 293.378606 209.039566 293.765881 208.29675 
Q 294.153156 207.553934 295.038177 207.319797 
Q 295.642994 207.159789 296.22614 207.200111 
Q 296.810342 207.240154 297.333067 207.479744 
Q 297.967303 207.764505 298.379497 208.283371 
Q 298.792749 208.801958 298.995556 209.568554 
z
M 299.826597 217.452478 
L 297.333139 216.234049 
L 297.691478 217.588544 
z
M 300.901453 217.131914 
L 301.284409 218.579458 
L 298.009816 218.791834 
L 298.196119 219.496045 
L 297.227654 219.564449 
L 297.041351 218.860239 
L 296.096428 218.923546 
L 295.777251 217.717084 
L 296.723293 217.658006 
L 296.135851 215.437522 
L 297.282789 215.363763 
z
" style="fill:#ffffff;stroke:#000000;"/>
    <path d="M 293.21034 206.53042 
Q 292.848044 206.110359 292.596499 205.6214 
Q 292.345232 205.133498 292.188861 204.542427 
Q 291.910805 203.491398 292.28561 202.748487 
Q 292.660414 202.005576 293.582443 201.761647 
Q 294.179859 201.603597 294.753051 201.653341 
Q 295.327581 201.703863 295.858793 201.962704 
Q 296.508045 202.278565 296.93314 202.829091 
Q 297.358236 203.379617 297.568876 204.175819 
Q 297.686084 204.618858 297.711923 205.092859 
Q 297.738818 205.566579 297.672201 206.050331 
L 296.600365 206.125718 
Q 296.727465 205.661038 296.740616 205.244605 
Q 296.755104 204.828951 296.652161 204.439838 
Q 296.426416 203.586538 295.716003 203.202004 
Q 295.006649 202.81719 294.114226 203.053286 
Q 293.523154 203.209658 293.27789 203.6083 
Q 293.033963 204.007721 293.184181 204.57553 
Q 293.233134 204.76057 293.306407 204.939177 
Q 293.380738 205.117503 293.483399 205.291729 
L 294.491172 205.226502 
L 294.285847 204.45039 
L 295.181946 204.386423 
L 295.70477 206.362653 
z
M 297.106091 210.966738 
Q 297.687646 210.812884 297.921459 210.469314 
Q 298.156608 210.126522 298.024573 209.627442 
Q 297.849739 208.966584 297.137946 208.675189 
Q 296.426432 208.384851 295.535066 208.620667 
Q 294.966199 208.771164 294.721254 209.115416 
Q 294.476309 209.459668 294.599392 209.924913 
Q 294.700096 210.305567 294.937805 210.558334 
Q 295.176852 210.811879 295.545999 210.9371 
Q 295.899661 211.055105 296.304619 211.063371 
Q 296.709576 211.071638 297.106091 210.966738 
z
M 298.995556 209.568554 
Q 299.255989 210.552968 298.867936 211.297121 
Q 298.479884 212.041274 297.596977 212.274853 
Q 296.996389 212.433742 296.411907 212.392642 
Q 295.828482 212.351262 295.309489 212.112947 
Q 294.670403 211.822681 294.255036 211.304654 
Q 293.841007 210.787404 293.6382 210.020809 
Q 293.378606 209.039566 293.765881 208.29675 
Q 294.153156 207.553934 295.038177 207.319797 
Q 295.642994 207.159789 296.22614 207.200111 
Q 296.810342 207.240154 297.333067 207.479744 
Q 297.967303 207.764505 298.379497 208.283371 
Q 298.792749 208.801958 298.995556 209.568554 
z
M 299.826597 217.452478 
L 297.333139 216.234049 
L 297.691478 217.588544 
z
M 300.901453 217.131914 
L 301.284409 218.579458 
L 298.009816 218.791834 
L 298.196119 219.496045 
L 297.227654 219.564449 
L 297.041351 218.860239 
L 296.096428 218.923546 
L 295.777251 217.717084 
L 296.723293 217.658006 
L 296.135851 215.437522 
L 297.282789 215.363763 
z
" style="fill:#ffffff;"/>
    <path d="M 295.21034 208.53042 
Q 294.848044 208.110359 294.596499 207.6214 
Q 294.345232 207.133498 294.188861 206.542427 
Q 293.910805 205.491398 294.28561 204.748487 
Q 294.660414 204.005576 295.582443 203.761647 
Q 296.179859 203.603597 296.753051 203.653341 
Q 297.327581 203.703863 297.858793 203.962704 
Q 298.508045 204.278565 298.93314 204.829091 
Q 299.358236 205.379617 299.568876 206.175819 
Q 299.686084 206.618858 299.711923 207.092859 
Q 299.738818 207.566579 299.672201 208.050331 
L 298.600365 208.125718 
Q 298.727465 207.661038 298.740616 207.244605 
Q 298.755104 206.828951 298.652161 206.439838 
Q 298.426416 205.586538 297.716003 205.202004 
Q 297.006649 204.81719 296.114226 205.053286 
Q 295.523154 205.209658 295.27789 205.6083 
Q 295.033963 206.007721 295.184181 206.57553 
Q 295.233134 206.76057 295.306407 206.939177 
Q 295.380738 207.117503 295.483399 207.291729 
L 296.491172 207.226502 
L 296.285847 206.45039 
L 297.181946 206.386423 
L 297.70477 208.362653 
z
M 299.106091 212.966738 
Q 299.687646 212.812884 299.921459 212.469314 
Q 300.156608 212.126522 300.024573 211.627442 
Q 299.849739 210.966584 299.137946 210.675189 
Q 298.426432 210.384851 297.535066 210.620667 
Q 296.966199 210.771164 296.721254 211.115416 
Q 296.476309 211.459668 296.599392 211.924913 
Q 296.700096 212.305567 296.937805 212.558334 
Q 297.176852 212.811879 297.545999 212.9371 
Q 297.899661 213.055105 298.304619 213.063371 
Q 298.709576 213.071638 299.106091 212.966738 
z
M 300.995556 211.568554 
Q 301.255989 212.552968 300.867936 213.297121 
Q 300.479884 214.041274 299.596977 214.274853 
Q 298.996389 214.433742 298.411907 214.392642 
Q 297.828482 214.351262 297.309489 214.112947 
Q 296.670403 213.822681 296.255036 213.304654 
Q 295.841007 212.787404 295.6382 212.020809 
Q 295.378606 211.039566 295.765881 210.29675 
Q 296.153156 209.553934 297.038177 209.319797 
Q 297.642994 209.159789 298.22614 209.200111 
Q 298.810342 209.240154 299.333067 209.479744 
Q 299.967303 209.764505 300.379497 210.283371 
Q 300.792749 210.801958 300.995556 211.568554 
z
M 301.826597 219.452478 
L 299.333139 218.234049 
L 299.691478 219.588544 
z
M 302.901453 219.131914 
L 303.284409 220.579458 
L 300.009816 220.791834 
L 300.196119 221.496045 
L 299.227654 221.564449 
L 299.041351 220.860239 
L 298.096428 220.923546 
L 297.777251 219.717084 
L 298.723293 219.658006 
L 298.135851 217.437522 
L 299.282789 217.363763 
z
" style="fill:#4c4c4c;opacity:0.3;"/>
    <path d="M 293.21034 206.53042 
Q 292.848044 206.110359 292.596499 205.6214 
Q 292.345232 205.133498 292.188861 204.542427 
Q 291.910805 203.491398 292.28561 202.748487 
Q 292.660414 202.005576 293.582443 201.761647 
Q 294.179859 201.603597 294.753051 201.653341 
Q 295.327581 201.703863 295.858793 201.962704 
Q 296.508045 202.278565 296.93314 202.829091 
Q 297.358236 203.379617 297.568876 204.175819 
Q 297.686084 204.618858 297.711923 205.092859 
Q 297.738818 205.566579 297.672201 206.050331 
L 296.600365 206.125718 
Q 296.727465 205.661038 296.740616 205.244605 
Q 296.755104 204.828951 296.652161 204.439838 
Q 296.426416 203.586538 295.716003 203.202004 
Q 295.006649 202.81719 294.114226 203.053286 
Q 293.523154 203.209658 293.27789 203.6083 
Q 293.033963 204.007721 293.184181 204.57553 
Q 293.233134 204.76057 293.306407 204.939177 
Q 293.380738 205.117503 293.483399 205.291729 
L 294.491172 205.226502 
L 294.285847 204.45039 
L 295.181946 204.386423 
L 295.70477 206.362653 
z
M 297.106091 210.966738 
Q 297.687646 210.812884 297.921459 210.469314 
Q 298.156608 210.126522 298.024573 209.627442 
Q 297.849739 208.966584 297.137946 208.675189 
Q 296.426432 208.384851 295.535066 208.620667 
Q 294.966199 208.771164 294.721254 209.115416 
Q 294.476309 209.459668 294.599392 209.924913 
Q 294.700096 210.305567 294.937805 210.558334 
Q 295.176852 210.811879 295.545999 210.9371 
Q 295.899661 211.055105 296.304619 211.063371 
Q 296.709576 211.071638 297.106091 210.966738 
z
M 298.995556 209.568554 
Q 299.255989 210.552968 298.867936 211.297121 
Q 298.479884 212.041274 297.596977 212.274853 
Q 296.996389 212.433742 296.411907 212.392642 
Q 295.828482 212.351262 295.309489 212.112947 
Q 294.670403 211.822681 294.255036 211.304654 
Q 293.841007 210.787404 293.6382 210.020809 
Q 293.378606 209.039566 293.765881 208.29675 
Q 294.153156 207.553934 295.038177 207.319797 
Q 295.642994 207.159789 296.22614 207.200111 
Q 296.810342 207.240154 297.333067 207.479744 
Q 297.967303 207.764505 298.379497 208.283371 
Q 298.792749 208.801958 298.995556 209.568554 
z
M 299.826597 217.452478 
L 297.333139 216.234049 
L 297.691478 217.588544 
z
M 300.901453 217.131914 
L 301.284409 218.579458 
L 298.009816 218.791834 
L 298.196119 219.496045 
L 297.227654 219.564449 
L 297.041351 218.860239 
L 296.096428 218.923546 
L 295.777251 217.717084 
L 296.723293 217.658006 
L 296.135851 215.437522 
L 297.282789 215.363763 
z
" style="fill:#ffffff;"/>
   </g>
   <g id="text_38">
    <path d="M 272.647324 214.848348 
Q 272.185525 214.541018 271.811905 214.137578 
Q 271.438837 213.735082 271.129471 213.207721 
Q 270.579363 212.26998 270.74088 211.453703 
Q 270.902396 210.637426 271.725042 210.154837 
Q 272.258064 209.842149 272.823558 209.736128 
Q 273.390548 209.630496 273.97176 209.737164 
Q 274.681988 209.867056 275.239317 210.283192 
Q 275.796647 210.699328 276.213378 211.40971 
Q 276.445265 211.804995 276.597453 212.254642 
Q 276.750584 212.703736 276.816332 213.187607 
L 275.804119 213.54808 
Q 275.801754 213.066336 275.702583 212.661671 
Q 275.604909 212.257396 275.401248 211.910224 
Q 274.954631 211.148899 274.167046 210.969283 
Q 273.380405 210.789113 272.584174 211.256207 
Q 272.056813 211.565573 271.92762 212.015439 
Q 271.799924 212.465696 272.097115 212.972302 
Q 272.193965 213.137397 272.312513 213.289764 
Q 272.432005 213.441577 272.577685 213.581831 
L 273.530917 213.24835 
L 273.1247 212.555893 
L 273.9707 212.253617 
L 275.005058 214.016834 
z
M 277.591383 218.075431 
Q 278.110254 217.771045 278.243207 217.377305 
Q 278.377656 216.983954 278.116438 216.538668 
Q 277.770545 215.949042 277.006643 215.859514 
Q 276.243294 215.770929 275.448007 216.237469 
Q 274.940457 216.535213 274.796964 216.932602 
Q 274.653471 217.32999 274.896979 217.745087 
Q 275.096214 218.084711 275.393074 218.264352 
Q 275.691431 218.444384 276.080646 218.465865 
Q 276.453007 218.484554 276.845307 218.383761 
Q 277.237608 218.282967 277.591383 218.075431 
z
M 279.035933 216.221174 
Q 279.551175 217.09948 279.377231 217.920511 
Q 279.203287 218.741542 278.415547 219.203655 
Q 277.879695 219.518003 277.305647 219.635383 
Q 276.732543 219.752209 276.168614 219.662032 
Q 275.475052 219.554065 274.935822 219.16662 
Q 274.398089 218.779566 273.996853 218.0956 
Q 273.483272 217.220124 273.656826 216.40059 
Q 273.830381 215.581055 274.620007 215.117836 
Q 275.159633 214.801275 275.732184 214.683505 
Q 276.305678 214.565181 276.873544 214.655585 
Q 277.560956 214.759552 278.097355 215.148657 
Q 278.634698 215.537208 279.035933 216.221174 
z
M 281.104962 224.577146 
Q 281.222964 224.955548 281.098969 225.278095 
Q 280.975918 225.600088 280.636293 225.799323 
Q 279.905157 226.22823 279.141765 225.897471 
Q 278.379316 225.566159 277.78438 224.552002 
Q 277.559135 224.168038 277.410744 223.789711 
Q 277.262353 223.411384 277.191923 223.040581 
L 278.16591 222.694924 
Q 278.165989 223.047399 278.26355 223.40609 
Q 278.361666 223.765724 278.54319 224.075159 
Q 278.835401 224.573275 279.192097 224.75332 
Q 279.550289 224.933756 279.865385 224.748911 
Q 280.128594 224.594504 280.130225 224.296822 
Q 280.131855 223.999139 279.870637 223.553854 
L 279.606098 223.102908 
L 280.421909 222.818341 
L 280.701944 223.295702 
Q 280.973677 223.758912 281.299883 223.930215 
Q 281.626089 224.101517 281.91194 223.933828 
Q 282.136469 223.802112 282.144262 223.545197 
Q 282.152608 223.289225 281.943412 222.932619 
Q 281.7962 222.681674 281.557882 222.424576 
Q 281.320118 222.168422 281.009474 221.922051 
L 281.9358 221.596746 
Q 282.234355 221.889518 282.479653 222.199584 
Q 282.72495 222.50965 282.91865 222.839841 
Q 283.355859 223.585128 283.328009 224.106153 
Q 283.301656 224.627569 282.81203 224.914798 
Q 282.373349 225.172142 281.926651 225.082936 
Q 281.480507 224.994674 281.104962 224.577146 
z
" style="fill:#ffffff;stroke:#000000;"/>
    <path d="M 272.647324 214.848348 
Q 272.185525 214.541018 271.811905 214.137578 
Q 271.438837 213.735082 271.129471 213.207721 
Q 270.579363 212.26998 270.74088 211.453703 
Q 270.902396 210.637426 271.725042 210.154837 
Q 272.258064 209.842149 272.823558 209.736128 
Q 273.390548 209.630496 273.97176 209.737164 
Q 274.681988 209.867056 275.239317 210.283192 
Q 275.796647 210.699328 276.213378 211.40971 
Q 276.445265 211.804995 276.597453 212.254642 
Q 276.750584 212.703736 276.816332 213.187607 
L 275.804119 213.54808 
Q 275.801754 213.066336 275.702583 212.661671 
Q 275.604909 212.257396 275.401248 211.910224 
Q 274.954631 211.148899 274.167046 210.969283 
Q 273.380405 210.789113 272.584174 211.256207 
Q 272.056813 211.565573 271.92762 212.015439 
Q 271.799924 212.465696 272.097115 212.972302 
Q 272.193965 213.137397 272.312513 213.289764 
Q 272.432005 213.441577 272.577685 213.581831 
L 273.530917 213.24835 
L 273.1247 212.555893 
L 273.9707 212.253617 
L 275.005058 214.016834 
z
M 277.591383 218.075431 
Q 278.110254 217.771045 278.243207 217.377305 
Q 278.377656 216.983954 278.116438 216.538668 
Q 277.770545 215.949042 277.006643 215.859514 
Q 276.243294 215.770929 275.448007 216.237469 
Q 274.940457 216.535213 274.796964 216.932602 
Q 274.653471 217.32999 274.896979 217.745087 
Q 275.096214 218.084711 275.393074 218.264352 
Q 275.691431 218.444384 276.080646 218.465865 
Q 276.453007 218.484554 276.845307 218.383761 
Q 277.237608 218.282967 277.591383 218.075431 
z
M 279.035933 216.221174 
Q 279.551175 217.09948 279.377231 217.920511 
Q 279.203287 218.741542 278.415547 219.203655 
Q 277.879695 219.518003 277.305647 219.635383 
Q 276.732543 219.752209 276.168614 219.662032 
Q 275.475052 219.554065 274.935822 219.16662 
Q 274.398089 218.779566 273.996853 218.0956 
Q 273.483272 217.220124 273.656826 216.40059 
Q 273.830381 215.581055 274.620007 215.117836 
Q 275.159633 214.801275 275.732184 214.683505 
Q 276.305678 214.565181 276.873544 214.655585 
Q 277.560956 214.759552 278.097355 215.148657 
Q 278.634698 215.537208 279.035933 216.221174 
z
M 281.104962 224.577146 
Q 281.222964 224.955548 281.098969 225.278095 
Q 280.975918 225.600088 280.636293 225.799323 
Q 279.905157 226.22823 279.141765 225.897471 
Q 278.379316 225.566159 277.78438 224.552002 
Q 277.559135 224.168038 277.410744 223.789711 
Q 277.262353 223.411384 277.191923 223.040581 
L 278.16591 222.694924 
Q 278.165989 223.047399 278.26355 223.40609 
Q 278.361666 223.765724 278.54319 224.075159 
Q 278.835401 224.573275 279.192097 224.75332 
Q 279.550289 224.933756 279.865385 224.748911 
Q 280.128594 224.594504 280.130225 224.296822 
Q 280.131855 223.999139 279.870637 223.553854 
L 279.606098 223.102908 
L 280.421909 222.818341 
L 280.701944 223.295702 
Q 280.973677 223.758912 281.299883 223.930215 
Q 281.626089 224.101517 281.91194 223.933828 
Q 282.136469 223.802112 282.144262 223.545197 
Q 282.152608 223.289225 281.943412 222.932619 
Q 281.7962 222.681674 281.557882 222.424576 
Q 281.320118 222.168422 281.009474 221.922051 
L 281.9358 221.596746 
Q 282.234355 221.889518 282.479653 222.199584 
Q 282.72495 222.50965 282.91865 222.839841 
Q 283.355859 223.585128 283.328009 224.106153 
Q 283.301656 224.627569 282.81203 224.914798 
Q 282.373349 225.172142 281.926651 225.082936 
Q 281.480507 224.994674 281.104962 224.577146 
z
" style="fill:#ffffff;"/>
    <path d="M 274.647324 216.848348 
Q 274.185525 216.541018 273.811905 216.137578 
Q 273.438837 215.735082 273.129471 215.207721 
Q 272.579363 214.26998 272.74088 213.453703 
Q 272.902396 212.637426 273.725042 212.154837 
Q 274.258064 211.842149 274.823558 211.736128 
Q 275.390548 211.630496 275.97176 211.737164 
Q 276.681988 211.867056 277.239317 212.283192 
Q 277.796647 212.699328 278.213378 213.40971 
Q 278.445265 213.804995 278.597453 214.254642 
Q 278.750584 214.703736 278.816332 215.187607 
L 277.804119 215.54808 
Q 277.801754 215.066336 277.702583 214.661671 
Q 277.604909 214.257396 277.401248 213.910224 
Q 276.954631 213.148899 276.167046 212.969283 
Q 275.380405 212.789113 274.584174 213.256207 
Q 274.056813 213.565573 273.92762 214.015439 
Q 273.799924 214.465696 274.097115 214.972302 
Q 274.193965 215.137397 274.312513 215.289764 
Q 274.432005 215.441577 274.577685 215.581831 
L 275.530917 215.24835 
L 275.1247 214.555893 
L 275.9707 214.253617 
L 277.005058 216.016834 
z
M 279.591383 220.075431 
Q 280.110254 219.771045 280.243207 219.377305 
Q 280.377656 218.983954 280.116438 218.538668 
Q 279.770545 217.949042 279.006643 217.859514 
Q 278.243294 217.770929 277.448007 218.237469 
Q 276.940457 218.535213 276.796964 218.932602 
Q 276.653471 219.32999 276.896979 219.745087 
Q 277.096214 220.084711 277.393074 220.264352 
Q 277.691431 220.444384 278.080646 220.465865 
Q 278.453007 220.484554 278.845307 220.383761 
Q 279.237608 220.282967 279.591383 220.075431 
z
M 281.035933 218.221174 
Q 281.551175 219.09948 281.377231 219.920511 
Q 281.203287 220.741542 280.415547 221.203655 
Q 279.879695 221.518003 279.305647 221.635383 
Q 278.732543 221.752209 278.168614 221.662032 
Q 277.475052 221.554065 276.935822 221.16662 
Q 276.398089 220.779566 275.996853 220.0956 
Q 275.483272 219.220124 275.656826 218.40059 
Q 275.830381 217.581055 276.620007 217.117836 
Q 277.159633 216.801275 277.732184 216.683505 
Q 278.305678 216.565181 278.873544 216.655585 
Q 279.560956 216.759552 280.097355 217.148657 
Q 280.634698 217.537208 281.035933 218.221174 
z
M 283.104962 226.577146 
Q 283.222964 226.955548 283.098969 227.278095 
Q 282.975918 227.600088 282.636293 227.799323 
Q 281.905157 228.22823 281.141765 227.897471 
Q 280.379316 227.566159 279.78438 226.552002 
Q 279.559135 226.168038 279.410744 225.789711 
Q 279.262353 225.411384 279.191923 225.040581 
L 280.16591 224.694924 
Q 280.165989 225.047399 280.26355 225.40609 
Q 280.361666 225.765724 280.54319 226.075159 
Q 280.835401 226.573275 281.192097 226.75332 
Q 281.550289 226.933756 281.865385 226.748911 
Q 282.128594 226.594504 282.130225 226.296822 
Q 282.131855 225.999139 281.870637 225.553854 
L 281.606098 225.102908 
L 282.421909 224.818341 
L 282.701944 225.295702 
Q 282.973677 225.758912 283.299883 225.930215 
Q 283.626089 226.101517 283.91194 225.933828 
Q 284.136469 225.802112 284.144262 225.545197 
Q 284.152608 225.289225 283.943412 224.932619 
Q 283.7962 224.681674 283.557882 224.424576 
Q 283.320118 224.168422 283.009474 223.922051 
L 283.9358 223.596746 
Q 284.234355 223.889518 284.479653 224.199584 
Q 284.72495 224.50965 284.91865 224.839841 
Q 285.355859 225.585128 285.328009 226.106153 
Q 285.301656 226.627569 284.81203 226.914798 
Q 284.373349 227.172142 283.926651 227.082936 
Q 283.480507 226.994674 283.104962 226.577146 
z
" style="fill:#4c4c4c;opacity:0.3;"/>
    <path d="M 272.647324 214.848348 
Q 272.185525 214.541018 271.811905 214.137578 
Q 271.438837 213.735082 271.129471 213.207721 
Q 270.579363 212.26998 270.74088 211.453703 
Q 270.902396 210.637426 271.725042 210.154837 
Q 272.258064 209.842149 272.823558 209.736128 
Q 273.390548 209.630496 273.97176 209.737164 
Q 274.681988 209.867056 275.239317 210.283192 
Q 275.796647 210.699328 276.213378 211.40971 
Q 276.445265 211.804995 276.597453 212.254642 
Q 276.750584 212.703736 276.816332 213.187607 
L 275.804119 213.54808 
Q 275.801754 213.066336 275.702583 212.661671 
Q 275.604909 212.257396 275.401248 211.910224 
Q 274.954631 211.148899 274.167046 210.969283 
Q 273.380405 210.789113 272.584174 211.256207 
Q 272.056813 211.565573 271.92762 212.015439 
Q 271.799924 212.465696 272.097115 212.972302 
Q 272.193965 213.137397 272.312513 213.289764 
Q 272.432005 213.441577 272.577685 213.581831 
L 273.530917 213.24835 
L 273.1247 212.555893 
L 273.9707 212.253617 
L 275.005058 214.016834 
z
M 277.591383 218.075431 
Q 278.110254 217.771045 278.243207 217.377305 
Q 278.377656 216.983954 278.116438 216.538668 
Q 277.770545 215.949042 277.006643 215.859514 
Q 276.243294 215.770929 275.448007 216.237469 
Q 274.940457 216.535213 274.796964 216.932602 
Q 274.653471 217.32999 274.896979 217.745087 
Q 275.096214 218.084711 275.393074 218.264352 
Q 275.691431 218.444384 276.080646 218.465865 
Q 276.453007 218.484554 276.845307 218.383761 
Q 277.237608 218.282967 277.591383 218.075431 
z
M 279.035933 216.221174 
Q 279.551175 217.09948 279.377231 217.920511 
Q 279.203287 218.741542 278.415547 219.203655 
Q 277.879695 219.518003 277.305647 219.635383 
Q 276.732543 219.752209 276.168614 219.662032 
Q 275.475052 219.554065 274.935822 219.16662 
Q 274.398089 218.779566 273.996853 218.0956 
Q 273.483272 217.220124 273.656826 216.40059 
Q 273.830381 215.581055 274.620007 215.117836 
Q 275.159633 214.801275 275.732184 214.683505 
Q 276.305678 214.565181 276.873544 214.655585 
Q 277.560956 214.759552 278.097355 215.148657 
Q 278.634698 215.537208 279.035933 216.221174 
z
M 281.104962 224.577146 
Q 281.222964 224.955548 281.098969 225.278095 
Q 280.975918 225.600088 280.636293 225.799323 
Q 279.905157 226.22823 279.141765 225.897471 
Q 278.379316 225.566159 277.78438 224.552002 
Q 277.559135 224.168038 277.410744 223.789711 
Q 277.262353 223.411384 277.191923 223.040581 
L 278.16591 222.694924 
Q 278.165989 223.047399 278.26355 223.40609 
Q 278.361666 223.765724 278.54319 224.075159 
Q 278.835401 224.573275 279.192097 224.75332 
Q 279.550289 224.933756 279.865385 224.748911 
Q 280.128594 224.594504 280.130225 224.296822 
Q 280.131855 223.999139 279.870637 223.553854 
L 279.606098 223.102908 
L 280.421909 222.818341 
L 280.701944 223.295702 
Q 280.973677 223.758912 281.299883 223.930215 
Q 281.626089 224.101517 281.91194 223.933828 
Q 282.136469 223.802112 282.144262 223.545197 
Q 282.152608 223.289225 281.943412 222.932619 
Q 281.7962 222.681674 281.557882 222.424576 
Q 281.320118 222.168422 281.009474 221.922051 
L 281.9358 221.596746 
Q 282.234355 221.889518 282.479653 222.199584 
Q 282.72495 222.50965 282.91865 222.839841 
Q 283.355859 223.585128 283.328009 224.106153 
Q 283.301656 224.627569 282.81203 224.914798 
Q 282.373349 225.172142 281.926651 225.082936 
Q 281.480507 224.994674 281.104962 224.577146 
z
" style="fill:#ffffff;"/>
   </g>
   <g id="text_39">
    <path d="M 241.700056 249.754445 
Q 241.145342 249.753295 240.611054 249.623323 
Q 240.077749 249.493831 239.528584 249.225065 
Q 238.552072 248.747151 238.235886 247.977462 
Q 237.9197 247.207773 238.338956 246.351114 
Q 238.610607 245.796055 239.023471 245.395346 
Q 239.437798 244.994135 239.981233 244.762053 
Q 240.64505 244.478074 241.339497 244.517168 
Q 242.033944 244.556261 242.773696 244.918302 
Q 243.185324 245.119757 243.560537 245.410548 
Q 243.93623 245.700357 244.258284 246.06742 
L 243.613551 246.926975 
Q 243.34551 246.526679 243.039339 246.244105 
Q 242.734631 245.96103 242.373106 245.784096 
Q 241.580304 245.396091 240.824537 245.681342 
Q 240.06925 245.96561 239.663457 246.794761 
Q 239.39469 247.343926 239.535453 247.790307 
Q 239.677678 248.236187 240.20523 248.494376 
Q 240.377151 248.578516 240.560131 248.64006 
Q 240.743591 248.700622 240.942499 248.737084 
L 241.552971 247.932606 
L 240.831885 247.5797 
L 241.370197 246.86046 
L 243.206314 247.759073 
z
M 247.603967 249.714054 
Q 247.868406 249.17373 247.761776 248.772061 
Q 247.656609 248.36989 247.192913 248.142953 
Q 246.578909 247.842454 245.892641 248.189725 
Q 245.207355 248.537477 244.802042 249.365646 
Q 244.543373 249.89418 244.64323 250.304712 
Q 244.743087 250.715244 245.175346 250.926795 
Q 245.529012 251.099883 245.875704 251.085682 
Q 246.223859 251.07098 246.56019 250.873923 
Q 246.880928 250.683846 247.152297 250.383151 
Q 247.423667 250.082456 247.603967 249.714054 
z
M 247.784091 247.370435 
Q 248.698711 247.818058 249.007162 248.598575 
Q 249.315614 249.379091 248.914147 250.1994 
Q 248.641054 250.757407 248.227332 251.172309 
Q 247.814092 251.586228 247.294172 251.822513 
Q 246.656358 252.115565 245.992846 252.090394 
Q 245.330797 252.064721 244.618553 251.716142 
Q 243.70688 251.269961 243.39893 250.490907 
Q 243.09098 249.711854 243.493408 248.88958 
Q 243.768425 248.327644 244.180683 247.913243 
Q 244.593422 247.497861 245.116749 247.259591 
Q 245.747226 246.966601 246.409296 246.99472 
Q 247.071846 247.021856 247.784091 247.370435 
z
M 251.92365 254.104052 
L 253.91597 255.079111 
L 253.322953 255.865342 
L 249.994561 254.236397 
L 250.594873 253.445212 
L 253.263722 252.928454 
Q 253.703204 252.839112 253.993297 252.669352 
Q 254.284373 252.500073 254.400246 252.263313 
Q 254.52333 252.011817 254.418721 251.79014 
Q 254.314592 251.567481 254.004152 251.415549 
Q 253.71336 251.273233 253.297546 251.212202 
Q 252.881732 251.151171 252.313492 251.170192 
L 252.986445 250.292787 
Q 253.478972 250.343871 253.917317 250.465855 
Q 254.357125 250.587337 254.750087 250.779656 
Q 255.44956 251.121984 255.703279 251.621212 
Q 255.957979 252.120921 255.702675 252.642578 
Q 255.483431 253.090556 255.05753 253.338758 
Q 254.631629 253.586961 253.489835 253.805057 
z
" style="fill:#ffffff;stroke:#000000;"/>
    <path d="M 241.700056 249.754445 
Q 241.145342 249.753295 240.611054 249.623323 
Q 240.077749 249.493831 239.528584 249.225065 
Q 238.552072 248.747151 238.235886 247.977462 
Q 237.9197 247.207773 238.338956 246.351114 
Q 238.610607 245.796055 239.023471 245.395346 
Q 239.437798 244.994135 239.981233 244.762053 
Q 240.64505 244.478074 241.339497 244.517168 
Q 242.033944 244.556261 242.773696 244.918302 
Q 243.185324 245.119757 243.560537 245.410548 
Q 243.93623 245.700357 244.258284 246.06742 
L 243.613551 246.926975 
Q 243.34551 246.526679 243.039339 246.244105 
Q 242.734631 245.96103 242.373106 245.784096 
Q 241.580304 245.396091 240.824537 245.681342 
Q 240.06925 245.96561 239.663457 246.794761 
Q 239.39469 247.343926 239.535453 247.790307 
Q 239.677678 248.236187 240.20523 248.494376 
Q 240.377151 248.578516 240.560131 248.64006 
Q 240.743591 248.700622 240.942499 248.737084 
L 241.552971 247.932606 
L 240.831885 247.5797 
L 241.370197 246.86046 
L 243.206314 247.759073 
z
M 247.603967 249.714054 
Q 247.868406 249.17373 247.761776 248.772061 
Q 247.656609 248.36989 247.192913 248.142953 
Q 246.578909 247.842454 245.892641 248.189725 
Q 245.207355 248.537477 244.802042 249.365646 
Q 244.543373 249.89418 244.64323 250.304712 
Q 244.743087 250.715244 245.175346 250.926795 
Q 245.529012 251.099883 245.875704 251.085682 
Q 246.223859 251.07098 246.56019 250.873923 
Q 246.880928 250.683846 247.152297 250.383151 
Q 247.423667 250.082456 247.603967 249.714054 
z
M 247.784091 247.370435 
Q 248.698711 247.818058 249.007162 248.598575 
Q 249.315614 249.379091 248.914147 250.1994 
Q 248.641054 250.757407 248.227332 251.172309 
Q 247.814092 251.586228 247.294172 251.822513 
Q 246.656358 252.115565 245.992846 252.090394 
Q 245.330797 252.064721 244.618553 251.716142 
Q 243.70688 251.269961 243.39893 250.490907 
Q 243.09098 249.711854 243.493408 248.88958 
Q 243.768425 248.327644 244.180683 247.913243 
Q 244.593422 247.497861 245.116749 247.259591 
Q 245.747226 246.966601 246.409296 246.99472 
Q 247.071846 247.021856 247.784091 247.370435 
z
M 251.92365 254.104052 
L 253.91597 255.079111 
L 253.322953 255.865342 
L 249.994561 254.236397 
L 250.594873 253.445212 
L 253.263722 252.928454 
Q 253.703204 252.839112 253.993297 252.669352 
Q 254.284373 252.500073 254.400246 252.263313 
Q 254.52333 252.011817 254.418721 251.79014 
Q 254.314592 251.567481 254.004152 251.415549 
Q 253.71336 251.273233 253.297546 251.212202 
Q 252.881732 251.151171 252.313492 251.170192 
L 252.986445 250.292787 
Q 253.478972 250.343871 253.917317 250.465855 
Q 254.357125 250.587337 254.750087 250.779656 
Q 255.44956 251.121984 255.703279 251.621212 
Q 255.957979 252.120921 255.702675 252.642578 
Q 255.483431 253.090556 255.05753 253.338758 
Q 254.631629 253.586961 253.489835 253.805057 
z
" style="fill:#ffffff;"/>
    <path d="M 243.700056 251.754445 
Q 243.145342 251.753295 242.611054 251.623323 
Q 242.077749 251.493831 241.528584 251.225065 
Q 240.552072 250.747151 240.235886 249.977462 
Q 239.9197 249.207773 240.338956 248.351114 
Q 240.610607 247.796055 241.023471 247.395346 
Q 241.437798 246.994135 241.981233 246.762053 
Q 242.64505 246.478074 243.339497 246.517168 
Q 244.033944 246.556261 244.773696 246.918302 
Q 245.185324 247.119757 245.560537 247.410548 
Q 245.93623 247.700357 246.258284 248.06742 
L 245.613551 248.926975 
Q 245.34551 248.526679 245.039339 248.244105 
Q 244.734631 247.96103 244.373106 247.784096 
Q 243.580304 247.396091 242.824537 247.681342 
Q 242.06925 247.96561 241.663457 248.794761 
Q 241.39469 249.343926 241.535453 249.790307 
Q 241.677678 250.236187 242.20523 250.494376 
Q 242.377151 250.578516 242.560131 250.64006 
Q 242.743591 250.700622 242.942499 250.737084 
L 243.552971 249.932606 
L 242.831885 249.5797 
L 243.370197 248.86046 
L 245.206314 249.759073 
z
M 249.603967 251.714054 
Q 249.868406 251.17373 249.761776 250.772061 
Q 249.656609 250.36989 249.192913 250.142953 
Q 248.578909 249.842454 247.892641 250.189725 
Q 247.207355 250.537477 246.802042 251.365646 
Q 246.543373 251.89418 246.64323 252.304712 
Q 246.743087 252.715244 247.175346 252.926795 
Q 247.529012 253.099883 247.875704 253.085682 
Q 248.223859 253.07098 248.56019 252.873923 
Q 248.880928 252.683846 249.152297 252.383151 
Q 249.423667 252.082456 249.603967 251.714054 
z
M 249.784091 249.370435 
Q 250.698711 249.818058 251.007162 250.598575 
Q 251.315614 251.379091 250.914147 252.1994 
Q 250.641054 252.757407 250.227332 253.172309 
Q 249.814092 253.586228 249.294172 253.822513 
Q 248.656358 254.115565 247.992846 254.090394 
Q 247.330797 254.064721 246.618553 253.716142 
Q 245.70688 253.269961 245.39893 252.490907 
Q 245.09098 251.711854 245.493408 250.88958 
Q 245.768425 250.327644 246.180683 249.913243 
Q 246.593422 249.497861 247.116749 249.259591 
Q 247.747226 248.966601 248.409296 248.99472 
Q 249.071846 249.021856 249.784091 249.370435 
z
M 253.92365 256.104052 
L 255.91597 257.079111 
L 255.322953 257.865342 
L 251.994561 256.236397 
L 252.594873 255.445212 
L 255.263722 254.928454 
Q 255.703204 254.839112 255.993297 254.669352 
Q 256.284373 254.500073 256.400246 254.263313 
Q 256.52333 254.011817 256.418721 253.79014 
Q 256.314592 253.567481 256.004152 253.415549 
Q 255.71336 253.273233 255.297546 253.212202 
Q 254.881732 253.151171 254.313492 253.170192 
L 254.986445 252.292787 
Q 255.478972 252.343871 255.917317 252.465855 
Q 256.357125 252.587337 256.750087 252.779656 
Q 257.44956 253.121984 257.703279 253.621212 
Q 257.957979 254.120921 257.702675 254.642578 
Q 257.483431 255.090556 257.05753 255.338758 
Q 256.631629 255.586961 255.489835 255.805057 
z
" style="fill:#4c4c4c;opacity:0.3;"/>
    <path d="M 241.700056 249.754445 
Q 241.145342 249.753295 240.611054 249.623323 
Q 240.077749 249.493831 239.528584 249.225065 
Q 238.552072 248.747151 238.235886 247.977462 
Q 237.9197 247.207773 238.338956 246.351114 
Q 238.610607 245.796055 239.023471 245.395346 
Q 239.437798 244.994135 239.981233 244.762053 
Q 240.64505 244.478074 241.339497 244.517168 
Q 242.033944 244.556261 242.773696 244.918302 
Q 243.185324 245.119757 243.560537 245.410548 
Q 243.93623 245.700357 244.258284 246.06742 
L 243.613551 246.926975 
Q 243.34551 246.526679 243.039339 246.244105 
Q 242.734631 245.96103 242.373106 245.784096 
Q 241.580304 245.396091 240.824537 245.681342 
Q 240.06925 245.96561 239.663457 246.794761 
Q 239.39469 247.343926 239.535453 247.790307 
Q 239.677678 248.236187 240.20523 248.494376 
Q 240.377151 248.578516 240.560131 248.64006 
Q 240.743591 248.700622 240.942499 248.737084 
L 241.552971 247.932606 
L 240.831885 247.5797 
L 241.370197 246.86046 
L 243.206314 247.759073 
z
M 247.603967 249.714054 
Q 247.868406 249.17373 247.761776 248.772061 
Q 247.656609 248.36989 247.192913 248.142953 
Q 246.578909 247.842454 245.892641 248.189725 
Q 245.207355 248.537477 244.802042 249.365646 
Q 244.543373 249.89418 244.64323 250.304712 
Q 244.743087 250.715244 245.175346 250.926795 
Q 245.529012 251.099883 245.875704 251.085682 
Q 246.223859 251.07098 246.56019 250.873923 
Q 246.880928 250.683846 247.152297 250.383151 
Q 247.423667 250.082456 247.603967 249.714054 
z
M 247.784091 247.370435 
Q 248.698711 247.818058 249.007162 248.598575 
Q 249.315614 249.379091 248.914147 250.1994 
Q 248.641054 250.757407 248.227332 251.172309 
Q 247.814092 251.586228 247.294172 251.822513 
Q 246.656358 252.115565 245.992846 252.090394 
Q 245.330797 252.064721 244.618553 251.716142 
Q 243.70688 251.269961 243.39893 250.490907 
Q 243.09098 249.711854 243.493408 248.88958 
Q 243.768425 248.327644 244.180683 247.913243 
Q 244.593422 247.497861 245.116749 247.259591 
Q 245.747226 246.966601 246.409296 246.99472 
Q 247.071846 247.021856 247.784091 247.370435 
z
M 251.92365 254.104052 
L 253.91597 255.079111 
L 253.322953 255.865342 
L 249.994561 254.236397 
L 250.594873 253.445212 
L 253.263722 252.928454 
Q 253.703204 252.839112 253.993297 252.669352 
Q 254.284373 252.500073 254.400246 252.263313 
Q 254.52333 252.011817 254.418721 251.79014 
Q 254.314592 251.567481 254.004152 251.415549 
Q 253.71336 251.273233 253.297546 251.212202 
Q 252.881732 251.151171 252.313492 251.170192 
L 252.986445 250.292787 
Q 253.478972 250.343871 253.917317 250.465855 
Q 254.357125 250.587337 254.750087 250.779656 
Q 255.44956 251.121984 255.703279 251.621212 
Q 255.957979 252.120921 255.702675 252.642578 
Q 255.483431 253.090556 255.05753 253.338758 
Q 254.631629 253.586961 253.489835 253.805057 
z
" style="fill:#ffffff;"/>
   </g>
   <g id="text_40">
    <path d="M 373.371889 345.092399 
Q 372.848654 344.908186 372.387228 344.609118 
Q 371.92657 344.310827 371.496921 343.875834 
Q 370.732929 343.10234 370.688566 342.27142 
Q 370.644203 341.440501 371.322761 340.770278 
Q 371.762423 340.336017 372.284426 340.094072 
Q 372.807974 339.852135 373.39756 339.812468 
Q 374.11791 339.763555 374.760518 340.029713 
Q 375.403126 340.295872 375.981884 340.881828 
Q 376.303929 341.207879 376.562107 341.606235 
Q 376.821063 342.003823 377.003884 342.456626 
L 376.111534 343.055146 
Q 375.99067 342.588805 375.794949 342.220998 
Q 375.600775 341.8532 375.317929 341.566836 
Q 374.697666 340.938858 373.890101 340.958616 
Q 373.083314 340.977606 372.426545 341.626307 
Q 371.991552 342.055957 371.977059 342.523782 
Q 371.964113 342.991617 372.376853 343.40949 
Q 372.511359 343.545669 372.663762 343.664169 
Q 372.816944 343.781901 372.992663 343.881984 
L 373.834491 343.324143 
L 373.270336 342.752971 
L 374.01591 342.251767 
L 375.452429 343.706153 
z
M 378.958137 347.00332 
Q 379.386127 346.580588 379.418078 346.166236 
Q 379.451575 345.751894 379.088794 345.384601 
Q 378.608417 344.898249 377.84598 344.999495 
Q 377.084311 345.101518 376.428319 345.749451 
Q 376.009668 346.16296 375.968398 346.583441 
Q 375.927129 347.003923 376.265314 347.346314 
Q 376.542012 347.626453 376.873955 347.727501 
Q 377.207445 347.828559 377.589974 347.753582 
Q 377.955479 347.680047 378.310903 347.485796 
Q 378.666326 347.291546 378.958137 347.00332 
z
M 379.901858 344.850557 
Q 380.617428 345.575027 380.650916 346.413614 
Q 380.684404 347.2522 380.034637 347.893984 
Q 379.592641 348.330551 379.065144 348.58561 
Q 378.538425 348.839902 377.969649 348.891299 
Q 377.270849 348.95736 376.652846 348.714556 
Q 376.036389 348.471762 375.479152 347.907594 
Q 374.765888 347.185458 374.73239 346.348419 
Q 374.698893 345.511379 375.350215 344.868058 
Q 375.795325 344.428417 376.321275 344.173347 
Q 376.848003 343.917509 377.420651 343.865363 
Q 378.112505 343.796938 378.728174 344.042048 
Q 379.34462 344.286389 379.901858 344.850557 
z
M 380.66893 351.726878 
L 381.485187 352.553287 
L 384.281759 350.690404 
L 383.234308 349.980125 
L 383.9946 349.475144 
L 385.036671 350.179977 
L 385.915185 351.069417 
L 382.362163 353.441171 
L 383.173809 354.262911 
L 382.404947 354.777892 
L 379.894688 352.236412 
z
" style="fill:#ffffff;stroke:#000000;"/>
    <path d="M 373.371889 345.092399 
Q 372.848654 344.908186 372.387228 344.609118 
Q 371.92657 344.310827 371.496921 343.875834 
Q 370.732929 343.10234 370.688566 342.27142 
Q 370.644203 341.440501 371.322761 340.770278 
Q 371.762423 340.336017 372.284426 340.094072 
Q 372.807974 339.852135 373.39756 339.812468 
Q 374.11791 339.763555 374.760518 340.029713 
Q 375.403126 340.295872 375.981884 340.881828 
Q 376.303929 341.207879 376.562107 341.606235 
Q 376.821063 342.003823 377.003884 342.456626 
L 376.111534 343.055146 
Q 375.99067 342.588805 375.794949 342.220998 
Q 375.600775 341.8532 375.317929 341.566836 
Q 374.697666 340.938858 373.890101 340.958616 
Q 373.083314 340.977606 372.426545 341.626307 
Q 371.991552 342.055957 371.977059 342.523782 
Q 371.964113 342.991617 372.376853 343.40949 
Q 372.511359 343.545669 372.663762 343.664169 
Q 372.816944 343.781901 372.992663 343.881984 
L 373.834491 343.324143 
L 373.270336 342.752971 
L 374.01591 342.251767 
L 375.452429 343.706153 
z
M 378.958137 347.00332 
Q 379.386127 346.580588 379.418078 346.166236 
Q 379.451575 345.751894 379.088794 345.384601 
Q 378.608417 344.898249 377.84598 344.999495 
Q 377.084311 345.101518 376.428319 345.749451 
Q 376.009668 346.16296 375.968398 346.583441 
Q 375.927129 347.003923 376.265314 347.346314 
Q 376.542012 347.626453 376.873955 347.727501 
Q 377.207445 347.828559 377.589974 347.753582 
Q 377.955479 347.680047 378.310903 347.485796 
Q 378.666326 347.291546 378.958137 347.00332 
z
M 379.901858 344.850557 
Q 380.617428 345.575027 380.650916 346.413614 
Q 380.684404 347.2522 380.034637 347.893984 
Q 379.592641 348.330551 379.065144 348.58561 
Q 378.538425 348.839902 377.969649 348.891299 
Q 377.270849 348.95736 376.652846 348.714556 
Q 376.036389 348.471762 375.479152 347.907594 
Q 374.765888 347.185458 374.73239 346.348419 
Q 374.698893 345.511379 375.350215 344.868058 
Q 375.795325 344.428417 376.321275 344.173347 
Q 376.848003 343.917509 377.420651 343.865363 
Q 378.112505 343.796938 378.728174 344.042048 
Q 379.34462 344.286389 379.901858 344.850557 
z
M 380.66893 351.726878 
L 381.485187 352.553287 
L 384.281759 350.690404 
L 383.234308 349.980125 
L 383.9946 349.475144 
L 385.036671 350.179977 
L 385.915185 351.069417 
L 382.362163 353.441171 
L 383.173809 354.262911 
L 382.404947 354.777892 
L 379.894688 352.236412 
z
" style="fill:#ffffff;"/>
    <path d="M 375.371889 347.092399 
Q 374.848654 346.908186 374.387228 346.609118 
Q 373.92657 346.310827 373.496921 345.875834 
Q 372.732929 345.10234 372.688566 344.27142 
Q 372.644203 343.440501 373.322761 342.770278 
Q 373.762423 342.336017 374.284426 342.094072 
Q 374.807974 341.852135 375.39756 341.812468 
Q 376.11791 341.763555 376.760518 342.029713 
Q 377.403126 342.295872 377.981884 342.881828 
Q 378.303929 343.207879 378.562107 343.606235 
Q 378.821063 344.003823 379.003884 344.456626 
L 378.111534 345.055146 
Q 377.99067 344.588805 377.794949 344.220998 
Q 377.600775 343.8532 377.317929 343.566836 
Q 376.697666 342.938858 375.890101 342.958616 
Q 375.083314 342.977606 374.426545 343.626307 
Q 373.991552 344.055957 373.977059 344.523782 
Q 373.964113 344.991617 374.376853 345.40949 
Q 374.511359 345.545669 374.663762 345.664169 
Q 374.816944 345.781901 374.992663 345.881984 
L 375.834491 345.324143 
L 375.270336 344.752971 
L 376.01591 344.251767 
L 377.452429 345.706153 
z
M 380.958137 349.00332 
Q 381.386127 348.580588 381.418078 348.166236 
Q 381.451575 347.751894 381.088794 347.384601 
Q 380.608417 346.898249 379.84598 346.999495 
Q 379.084311 347.101518 378.428319 347.749451 
Q 378.009668 348.16296 377.968398 348.583441 
Q 377.927129 349.003923 378.265314 349.346314 
Q 378.542012 349.626453 378.873955 349.727501 
Q 379.207445 349.828559 379.589974 349.753582 
Q 379.955479 349.680047 380.310903 349.485796 
Q 380.666326 349.291546 380.958137 349.00332 
z
M 381.901858 346.850557 
Q 382.617428 347.575027 382.650916 348.413614 
Q 382.684404 349.2522 382.034637 349.893984 
Q 381.592641 350.330551 381.065144 350.58561 
Q 380.538425 350.839902 379.969649 350.891299 
Q 379.270849 350.95736 378.652846 350.714556 
Q 378.036389 350.471762 377.479152 349.907594 
Q 376.765888 349.185458 376.73239 348.348419 
Q 376.698893 347.511379 377.350215 346.868058 
Q 377.795325 346.428417 378.321275 346.173347 
Q 378.848003 345.917509 379.420651 345.865363 
Q 380.112505 345.796938 380.728174 346.042048 
Q 381.34462 346.286389 381.901858 346.850557 
z
M 382.66893 353.726878 
L 383.485187 354.553287 
L 386.281759 352.690404 
L 385.234308 351.980125 
L 385.9946 351.475144 
L 387.036671 352.179977 
L 387.915185 353.069417 
L 384.362163 355.441171 
L 385.173809 356.262911 
L 384.404947 356.777892 
L 381.894688 354.236412 
z
" style="fill:#4c4c4c;opacity:0.3;"/>
    <path d="M 373.371889 345.092399 
Q 372.848654 344.908186 372.387228 344.609118 
Q 371.92657 344.310827 371.496921 343.875834 
Q 370.732929 343.10234 370.688566 342.27142 
Q 370.644203 341.440501 371.322761 340.770278 
Q 371.762423 340.336017 372.284426 340.094072 
Q 372.807974 339.852135 373.39756 339.812468 
Q 374.11791 339.763555 374.760518 340.029713 
Q 375.403126 340.295872 375.981884 340.881828 
Q 376.303929 341.207879 376.562107 341.606235 
Q 376.821063 342.003823 377.003884 342.456626 
L 376.111534 343.055146 
Q 375.99067 342.588805 375.794949 342.220998 
Q 375.600775 341.8532 375.317929 341.566836 
Q 374.697666 340.938858 373.890101 340.958616 
Q 373.083314 340.977606 372.426545 341.626307 
Q 371.991552 342.055957 371.977059 342.523782 
Q 371.964113 342.991617 372.376853 343.40949 
Q 372.511359 343.545669 372.663762 343.664169 
Q 372.816944 343.781901 372.992663 343.881984 
L 373.834491 343.324143 
L 373.270336 342.752971 
L 374.01591 342.251767 
L 375.452429 343.706153 
z
M 378.958137 347.00332 
Q 379.386127 346.580588 379.418078 346.166236 
Q 379.451575 345.751894 379.088794 345.384601 
Q 378.608417 344.898249 377.84598 344.999495 
Q 377.084311 345.101518 376.428319 345.749451 
Q 376.009668 346.16296 375.968398 346.583441 
Q 375.927129 347.003923 376.265314 347.346314 
Q 376.542012 347.626453 376.873955 347.727501 
Q 377.207445 347.828559 377.589974 347.753582 
Q 377.955479 347.680047 378.310903 347.485796 
Q 378.666326 347.291546 378.958137 347.00332 
z
M 379.901858 344.850557 
Q 380.617428 345.575027 380.650916 346.413614 
Q 380.684404 347.2522 380.034637 347.893984 
Q 379.592641 348.330551 379.065144 348.58561 
Q 378.538425 348.839902 377.969649 348.891299 
Q 377.270849 348.95736 376.652846 348.714556 
Q 376.036389 348.471762 375.479152 347.907594 
Q 374.765888 347.185458 374.73239 346.348419 
Q 374.698893 345.511379 375.350215 344.868058 
Q 375.795325 344.428417 376.321275 344.173347 
Q 376.848003 343.917509 377.420651 343.865363 
Q 378.112505 343.796938 378.728174 344.042048 
Q 379.34462 344.286389 379.901858 344.850557 
z
M 380.66893 351.726878 
L 381.485187 352.553287 
L 384.281759 350.690404 
L 383.234308 349.980125 
L 383.9946 349.475144 
L 385.036671 350.179977 
L 385.915185 351.069417 
L 382.362163 353.441171 
L 383.173809 354.262911 
L 382.404947 354.777892 
L 379.894688 352.236412 
z
" style="fill:#ffffff;"/>
   </g>
   <g id="text_41">
    <text style="font-family:DejaVu Sans;font-size:12px;font-style:normal;font-weight:normal;text-anchor:middle;" transform="rotate(-0, 319.528313, 16.318125)" x="319.528313" y="16.318125">CirGO Visualisation Plot</text>
   </g>
   <g id="legend_1">
    <g id="text_42">
     <text style="font-family:DejaVu Sans;font-size:7px;font-style:normal;font-weight:normal;text-anchor:start;" transform="rotate(-0, 692.311516, 39.121031)" x="692.311516" y="39.121031">Name and Proportion of the Biological Process (Inner Ring)</text>
    </g>
    <g id="patch_142">
     <path d="M 665.668313 49.395719 
L 679.668313 49.395719 
L 679.668313 44.495719 
L 665.668313 44.495719 
z
" style="fill:#cc96eb;stroke:#ffffff;stroke-linejoin:miter;stroke-width:0.7;"/>
    </g>
    <g id="text_43">
     <text style="font-family:DejaVu Sans;font-size:7px;font-style:normal;font-weight:normal;text-anchor:start;" transform="rotate(-0, 685.268313, 49.395719)" x="685.268313" y="49.395719">GO1 mitochondrial nucleoid organization, 75.2%</text>
    </g>
    <g id="patch_143">
     <path d="M 665.668313 59.670406 
L 679.668313 59.670406 
L 679.668313 54.770406 
L 665.668313 54.770406 
z
" style="fill:#214a65;stroke:#ffffff;stroke-linejoin:miter;stroke-width:0.7;"/>
    </g>
    <g id="text_44">
     <text style="font-family:DejaVu Sans;font-size:7px;font-style:normal;font-weight:normal;text-anchor:start;" transform="rotate(-0, 685.268313, 59.670406)" x="685.268313" y="59.670406">GO2 regulation of transcription from mitochondrial promoter, 14.1%</text>
    </g>
    <g id="patch_144">
     <path d="M 665.668313 69.945094 
L 679.668313 69.945094 
L 679.668313 65.045094 
L 665.668313 65.045094 
z
" style="fill:#a1c54d;stroke:#ffffff;stroke-linejoin:miter;stroke-width:0.7;"/>
    </g>
    <g id="text_45">
     <text style="font-family:DejaVu Sans;font-size:7px;font-style:normal;font-weight:normal;text-anchor:start;" transform="rotate(-0, 685.268313, 69.945094)" x="685.268313" y="69.945094">GO3 exploration behavior, 4.5%</text>
    </g>
    <g id="patch_145">
     <path d="M 665.668313 80.219781 
L 679.668313 80.219781 
L 679.668313 75.319781 
L 665.668313 75.319781 
z
" style="fill:#943105;stroke:#ffffff;stroke-linejoin:miter;stroke-width:0.7;"/>
    </g>
    <g id="text_46">
     <text style="font-family:DejaVu Sans;font-size:7px;font-style:normal;font-weight:normal;text-anchor:start;" transform="rotate(-0, 685.268313, 80.219781)" x="685.268313" y="80.219781">GO4 neuron cell-cell adhesion, 4.1%</text>
    </g>
    <g id="patch_146">
     <path d="M 665.668313 90.494469 
L 679.668313 90.494469 
L 679.668313 85.594469 
L 665.668313 85.594469 
z
" style="fill:#0cc0aa;stroke:#ffffff;stroke-linejoin:miter;stroke-width:0.7;"/>
    </g>
    <g id="text_47">
     <text style="font-family:DejaVu Sans;font-size:7px;font-style:normal;font-weight:normal;text-anchor:start;" transform="rotate(-0, 685.268313, 90.494469)" x="685.268313" y="90.494469">protein localization to nucleus, 2.0%</text>
    </g>
   </g>
  </g>
 </g>
</svg>
