<?xml version="1.0" encoding="utf-8" standalone="no"?>
<!DOCTYPE svg PUBLIC "-//W3C//DTD SVG 1.1//EN"
  "http://www.w3.org/Graphics/SVG/1.1/DTD/svg11.dtd">
<!-- Created with matplotlib (http://matplotlib.org/) -->
<svg height="666pt" version="1.1" viewBox="0 0 909 666" width="909pt" xmlns="http://www.w3.org/2000/svg" xmlns:xlink="http://www.w3.org/1999/xlink">
 <defs>
  <style type="text/css">
*{stroke-linecap:butt;stroke-linejoin:round;}
  </style>
 </defs>
 <g id="figure_1">
  <g id="patch_1">
   <path d="M 0 666.328695 
L 909.147081 666.328695 
L 909.147081 0 
L 0 0 
z
" style="fill:#ffffff;"/>
  </g>
  <g id="axes_1">
   <g id="patch_2">
    <path d="M 293.643956 174.151725 
C 291.149713 174.151725 288.656139 174.233384 286.16724 174.396571 
C 283.678341 174.559758 281.195452 174.804385 278.722562 175.13006 
L 293.643956 288.430125 
L 293.643956 174.151725 
z
" style="fill:#b0eee6;stroke:#ffffff;stroke-linejoin:miter;stroke-width:0.7;"/>
   </g>
   <g id="patch_3">
    <path d="M 278.722562 175.13006 
C 276.105131 175.474771 273.50043 175.910079 270.913149 176.4352 
C 268.325869 176.960322 265.757562 177.574942 263.212852 178.277955 
L 293.643956 288.430125 
L 278.722562 175.13006 
z
" style="fill:#95e6dc;stroke:#ffffff;stroke-linejoin:miter;stroke-width:0.7;"/>
   </g>
   <g id="patch_4">
    <path d="M 263.212852 178.277955 
C 260.610428 178.996911 258.0343 179.807868 255.489318 180.709299 
C 252.944337 181.61073 250.432099 182.602068 247.957337 183.681447 
L 293.643956 288.430125 
L 263.212852 178.277955 
z
" style="fill:#79dfd2;stroke:#ffffff;stroke-linejoin:miter;stroke-width:0.7;"/>
   </g>
   <g id="patch_5">
    <path d="M 247.957337 183.681447 
C 244.953348 184.991651 242.007111 186.430471 239.126796 187.993917 
C 236.246481 189.557363 233.434753 191.243988 230.699412 193.049115 
L 293.643956 288.430125 
L 247.957337 183.681447 
z
" style="fill:#5ed7c8;stroke:#ffffff;stroke-linejoin:miter;stroke-width:0.7;"/>
   </g>
   <g id="patch_6">
    <path d="M 230.699412 193.049115 
C 227.769604 194.982576 224.930436 197.050002 222.190941 199.244817 
C 219.451445 201.439631 216.814531 203.759503 214.288587 206.197053 
L 293.643956 288.430125 
L 230.699412 193.049115 
z
" style="fill:#42cfbe;stroke:#ffffff;stroke-linejoin:miter;stroke-width:0.7;"/>
   </g>
   <g id="patch_7">
    <path d="M 214.288587 206.197053 
C 211.206154 209.171619 208.293406 212.317146 205.564136 215.618739 
C 202.834866 218.920332 200.29339 222.372772 197.951742 225.959709 
L 293.643956 288.430125 
L 214.288587 206.197053 
z
" style="fill:#27c7b4;stroke:#ffffff;stroke-linejoin:miter;stroke-width:0.7;"/>
   </g>
   <g id="patch_8">
    <path d="M 197.951742 225.959709 
C 195.134113 230.275756 192.611711 234.777488 190.401821 239.434062 
C 188.191931 244.090635 186.299612 248.891389 184.737829 253.803427 
L 293.643956 288.430125 
L 197.951742 225.959709 
z
" style="fill:#0cc0aa;stroke:#ffffff;stroke-linejoin:miter;stroke-width:0.7;"/>
   </g>
   <g id="patch_9">
    <path d="M 184.737829 253.803427 
C 184.737829 253.803427 184.737829 253.803427 184.737829 253.803427 
L 293.643956 288.430125 
L 184.737829 253.803427 
z
" style="fill:none;stroke:#ffffff;stroke-linejoin:miter;stroke-width:0.7;"/>
   </g>
   <g id="patch_10">
    <path d="M 184.737829 253.803427 
C 184.737829 253.803427 184.737829 253.803427 184.737829 253.803427 
L 293.643956 288.430125 
L 184.737829 253.803427 
z
" style="fill:none;stroke:#ffffff;stroke-linejoin:miter;stroke-width:0.7;"/>
   </g>
   <g id="patch_11">
    <path d="M 184.737829 253.803427 
C 184.737829 253.803427 184.737829 253.803427 184.737829 253.803427 
L 293.643956 288.430125 
L 184.737829 253.803427 
z
" style="fill:none;stroke:#ffffff;stroke-linejoin:miter;stroke-width:0.7;"/>
   </g>
   <g id="patch_12">
    <path d="M 184.737829 253.803427 
C 184.737829 253.803427 184.737829 253.803427 184.737829 253.803427 
L 293.643956 288.430125 
L 184.737829 253.803427 
z
" style="fill:none;stroke:#ffffff;stroke-linejoin:miter;stroke-width:0.7;"/>
   </g>
   <g id="patch_13">
    <path d="M 184.737829 253.803427 
C 184.737829 253.803427 184.737829 253.803427 184.737829 253.803427 
L 293.643956 288.430125 
L 184.737829 253.803427 
z
" style="fill:none;stroke:#ffffff;stroke-linejoin:miter;stroke-width:0.7;"/>
   </g>
   <g id="patch_14">
    <path d="M 184.737829 253.803427 
C 184.737829 253.803427 184.737829 253.803427 184.737829 253.803427 
L 293.643956 288.430125 
L 184.737829 253.803427 
z
" style="fill:none;stroke:#ffffff;stroke-linejoin:miter;stroke-width:0.7;"/>
   </g>
   <g id="patch_15">
    <path d="M 184.737829 253.803427 
C 184.737829 253.803427 184.737829 253.803427 184.737829 253.803427 
L 293.643956 288.430125 
L 184.737829 253.803427 
z
" style="fill:none;stroke:#ffffff;stroke-linejoin:miter;stroke-width:0.7;"/>
   </g>
   <g id="patch_16">
    <path d="M 184.737829 253.803427 
C 184.737829 253.803427 184.737829 253.803427 184.737829 253.803427 
L 293.643956 288.430125 
L 184.737829 253.803427 
z
" style="fill:none;stroke:#ffffff;stroke-linejoin:miter;stroke-width:0.7;"/>
   </g>
   <g id="patch_17">
    <path d="M 184.737829 253.803427 
C 184.737829 253.803427 184.737829 253.803427 184.737829 253.803427 
L 293.643956 288.430125 
L 184.737829 253.803427 
z
" style="fill:none;stroke:#ffffff;stroke-linejoin:miter;stroke-width:0.7;"/>
   </g>
   <g id="patch_18">
    <path d="M 184.737829 253.803427 
C 184.737829 253.803427 184.737829 253.803427 184.737829 253.803427 
L 293.643956 288.430125 
L 184.737829 253.803427 
z
" style="fill:none;stroke:#ffffff;stroke-linejoin:miter;stroke-width:0.7;"/>
   </g>
   <g id="patch_19">
    <path d="M 184.737829 253.803427 
C 184.737829 253.803427 184.737829 253.803427 184.737829 253.803427 
L 293.643956 288.430125 
L 184.737829 253.803427 
z
" style="fill:none;stroke:#ffffff;stroke-linejoin:miter;stroke-width:0.7;"/>
   </g>
   <g id="patch_20">
    <path d="M 184.737829 253.803427 
C 184.737829 253.803427 184.737829 253.803427 184.737829 253.803427 
L 293.643956 288.430125 
L 184.737829 253.803427 
z
" style="fill:none;stroke:#ffffff;stroke-linejoin:miter;stroke-width:0.7;"/>
   </g>
   <g id="patch_21">
    <path d="M 184.737829 253.803427 
C 184.737829 253.803427 184.737829 253.803427 184.737829 253.803427 
L 293.643956 288.430125 
L 184.737829 253.803427 
z
" style="fill:none;stroke:#ffffff;stroke-linejoin:miter;stroke-width:0.7;"/>
   </g>
   <g id="patch_22">
    <path d="M 184.737829 253.803427 
C 184.016686 256.071531 183.366572 258.361609 182.78844 260.670311 
C 182.210308 262.979013 181.704439 265.305212 181.271574 267.645504 
L 293.643956 288.430125 
L 184.737829 253.803427 
z
" style="fill:#e7c4b5;stroke:#ffffff;stroke-linejoin:miter;stroke-width:0.7;"/>
   </g>
   <g id="patch_23">
    <path d="M 181.271574 267.645504 
C 180.816124 270.107901 180.441735 272.584603 180.149012 275.071598 
C 179.856289 277.558593 179.64539 280.054538 179.516658 282.55539 
L 293.643956 288.430125 
L 181.271574 267.645504 
z
" style="fill:#dbaf9b;stroke:#ffffff;stroke-linejoin:miter;stroke-width:0.7;"/>
   </g>
   <g id="patch_24">
    <path d="M 179.516658 282.55539 
C 179.38646 285.084724 179.340382 287.617687 179.3785 290.150083 
C 179.416619 292.682479 179.538912 295.212907 179.745179 297.737177 
L 293.643956 288.430125 
L 179.516658 282.55539 
z
" style="fill:#cf9a82;stroke:#ffffff;stroke-linejoin:miter;stroke-width:0.7;"/>
   </g>
   <g id="patch_25">
    <path d="M 179.745179 297.737177 
C 179.955038 300.305409 180.251701 302.865808 180.634659 305.413984 
C 181.017617 307.962159 181.486652 310.496653 182.040959 313.013119 
L 293.643956 288.430125 
L 179.745179 297.737177 
z
" style="fill:#c38569;stroke:#ffffff;stroke-linejoin:miter;stroke-width:0.7;"/>
   </g>
   <g id="patch_26">
    <path d="M 182.040959 313.013119 
C 182.828585 316.588823 183.787603 320.124609 184.914692 323.608239 
C 186.041781 327.09187 187.335639 330.519321 188.79179 333.878732 
L 293.643956 288.430125 
L 182.040959 313.013119 
z
" style="fill:#b77050;stroke:#ffffff;stroke-linejoin:miter;stroke-width:0.7;"/>
   </g>
   <g id="patch_27">
    <path d="M 188.79179 333.878732 
C 190.266615 337.281226 191.906185 340.609917 193.704679 343.852987 
C 195.503173 347.096056 197.45846 350.249661 199.563598 353.302606 
L 293.643956 288.430125 
L 188.79179 333.878732 
z
" style="fill:#ab5a36;stroke:#ffffff;stroke-linejoin:miter;stroke-width:0.7;"/>
   </g>
   <g id="patch_28">
    <path d="M 199.563598 353.302606 
C 201.670244 356.35774 203.924458 359.308444 206.318225 362.14423 
C 208.711991 364.980016 211.24247 367.697518 213.900664 370.287074 
L 293.643956 288.430125 
L 199.563598 353.302606 
z
" style="fill:#a0461e;stroke:#ffffff;stroke-linejoin:miter;stroke-width:0.7;"/>
   </g>
   <g id="patch_29">
    <path d="M 213.900664 370.287074 
C 216.685662 373.000159 219.607306 375.569348 222.654196 377.984614 
C 225.701085 380.399881 228.869251 382.658079 232.146331 384.750397 
L 293.643956 288.430125 
L 213.900664 370.287074 
z
" style="fill:#943105;stroke:#ffffff;stroke-linejoin:miter;stroke-width:0.7;"/>
   </g>
   <g id="patch_30">
    <path d="M 232.146331 384.750397 
C 232.146331 384.750397 232.146331 384.750397 232.146331 384.750397 
L 293.643956 288.430125 
L 232.146331 384.750397 
z
" style="fill:none;stroke:#ffffff;stroke-linejoin:miter;stroke-width:0.7;"/>
   </g>
   <g id="patch_31">
    <path d="M 232.146331 384.750397 
C 232.146331 384.750397 232.146331 384.750397 232.146331 384.750397 
L 293.643956 288.430125 
L 232.146331 384.750397 
z
" style="fill:none;stroke:#ffffff;stroke-linejoin:miter;stroke-width:0.7;"/>
   </g>
   <g id="patch_32">
    <path d="M 232.146331 384.750397 
C 232.146331 384.750397 232.146331 384.750397 232.146331 384.750397 
L 293.643956 288.430125 
L 232.146331 384.750397 
z
" style="fill:none;stroke:#ffffff;stroke-linejoin:miter;stroke-width:0.7;"/>
   </g>
   <g id="patch_33">
    <path d="M 232.146331 384.750397 
C 232.146331 384.750397 232.146331 384.750397 232.146331 384.750397 
L 293.643956 288.430125 
L 232.146331 384.750397 
z
" style="fill:none;stroke:#ffffff;stroke-linejoin:miter;stroke-width:0.7;"/>
   </g>
   <g id="patch_34">
    <path d="M 232.146331 384.750397 
C 232.146331 384.750397 232.146331 384.750397 232.146331 384.750397 
L 293.643956 288.430125 
L 232.146331 384.750397 
z
" style="fill:none;stroke:#ffffff;stroke-linejoin:miter;stroke-width:0.7;"/>
   </g>
   <g id="patch_35">
    <path d="M 232.146331 384.750397 
C 232.146331 384.750397 232.146331 384.750397 232.146331 384.750397 
L 293.643956 288.430125 
L 232.146331 384.750397 
z
" style="fill:none;stroke:#ffffff;stroke-linejoin:miter;stroke-width:0.7;"/>
   </g>
   <g id="patch_36">
    <path d="M 232.146331 384.750397 
C 232.146331 384.750397 232.146331 384.750397 232.146331 384.750397 
L 293.643956 288.430125 
L 232.146331 384.750397 
z
" style="fill:none;stroke:#ffffff;stroke-linejoin:miter;stroke-width:0.7;"/>
   </g>
   <g id="patch_37">
    <path d="M 232.146331 384.750397 
C 232.146331 384.750397 232.146331 384.750397 232.146331 384.750397 
L 293.643956 288.430125 
L 232.146331 384.750397 
z
" style="fill:none;stroke:#ffffff;stroke-linejoin:miter;stroke-width:0.7;"/>
   </g>
   <g id="patch_38">
    <path d="M 232.146331 384.750397 
C 232.146331 384.750397 232.146331 384.750397 232.146331 384.750397 
L 293.643956 288.430125 
L 232.146331 384.750397 
z
" style="fill:none;stroke:#ffffff;stroke-linejoin:miter;stroke-width:0.7;"/>
   </g>
   <g id="patch_39">
    <path d="M 232.146331 384.750397 
C 232.146331 384.750397 232.146331 384.750397 232.146331 384.750397 
L 293.643956 288.430125 
L 232.146331 384.750397 
z
" style="fill:none;stroke:#ffffff;stroke-linejoin:miter;stroke-width:0.7;"/>
   </g>
   <g id="patch_40">
    <path d="M 232.146331 384.750397 
C 232.146331 384.750397 232.146331 384.750397 232.146331 384.750397 
L 293.643956 288.430125 
L 232.146331 384.750397 
z
" style="fill:none;stroke:#ffffff;stroke-linejoin:miter;stroke-width:0.7;"/>
   </g>
   <g id="patch_41">
    <path d="M 232.146331 384.750397 
C 232.146331 384.750397 232.146331 384.750397 232.146331 384.750397 
L 293.643956 288.430125 
L 232.146331 384.750397 
z
" style="fill:none;stroke:#ffffff;stroke-linejoin:miter;stroke-width:0.7;"/>
   </g>
   <g id="patch_42">
    <path d="M 232.146331 384.750397 
C 234.135298 386.020293 236.163123 387.228278 238.226887 388.372614 
C 240.290652 389.51695 242.389366 390.597088 244.520011 391.611474 
L 293.643956 288.430125 
L 232.146331 384.750397 
z
" style="fill:#edf4dd;stroke:#ffffff;stroke-linejoin:miter;stroke-width:0.7;"/>
   </g>
   <g id="patch_43">
    <path d="M 244.520011 391.611474 
C 246.677526 392.638652 248.866727 393.597907 251.084386 394.487825 
C 253.302045 395.377742 255.547071 396.197884 257.816152 396.947041 
L 293.643956 288.430125 
L 244.520011 391.611474 
z
" style="fill:#e9f1d5;stroke:#ffffff;stroke-linejoin:miter;stroke-width:0.7;"/>
   </g>
   <g id="patch_44">
    <path d="M 257.816152 396.947041 
C 260.107436 397.703529 262.422105 398.387257 264.756678 398.997199 
C 267.091251 399.607141 269.444556 400.142989 271.813054 400.603938 
L 293.643956 288.430125 
L 257.816152 396.947041 
z
" style="fill:#e5efce;stroke:#ffffff;stroke-linejoin:miter;stroke-width:0.7;"/>
   </g>
   <g id="patch_45">
    <path d="M 271.813054 400.603938 
C 274.194767 401.06746 276.590638 401.455009 278.997024 401.765998 
C 281.40341 402.076987 283.81909 402.311257 286.240391 402.468452 
L 293.643956 288.430125 
L 271.813054 400.603938 
z
" style="fill:#e1edc6;stroke:#ffffff;stroke-linejoin:miter;stroke-width:0.7;"/>
   </g>
   <g id="patch_46">
    <path d="M 286.240391 402.468452 
C 288.707121 402.628596 291.178398 402.708662 293.650321 402.708525 
C 296.122243 402.708387 298.593511 402.628045 301.060223 402.467626 
L 293.643956 288.430125 
L 286.240391 402.468452 
z
" style="fill:#ddeabe;stroke:#ffffff;stroke-linejoin:miter;stroke-width:0.7;"/>
   </g>
   <g id="patch_47">
    <path d="M 301.060223 402.467626 
C 303.650498 402.299171 306.234281 402.042511 308.807076 401.698093 
C 311.379871 401.353674 313.940185 400.921697 316.483561 400.402913 
L 293.643956 288.430125 
L 301.060223 402.467626 
z
" style="fill:#d9e7b7;stroke:#ffffff;stroke-linejoin:miter;stroke-width:0.7;"/>
   </g>
   <g id="patch_48">
    <path d="M 316.483561 400.402913 
C 319.151042 399.858814 321.798229 399.21957 324.420055 398.486404 
C 327.04188 397.753237 329.636669 396.926617 332.199456 396.008125 
L 293.643956 288.430125 
L 316.483561 400.402913 
z
" style="fill:#d5e5af;stroke:#ffffff;stroke-linejoin:miter;stroke-width:0.7;"/>
   </g>
   <g id="patch_49">
    <path d="M 332.199456 396.008125 
C 334.823111 395.067818 337.41149 394.031846 339.9594 392.902286 
C 342.507309 391.772726 345.013044 390.550335 347.471576 389.237565 
L 293.643956 288.430125 
L 332.199456 396.008125 
z
" style="fill:#d1e3a8;stroke:#ffffff;stroke-linejoin:miter;stroke-width:0.7;"/>
   </g>
   <g id="patch_50">
    <path d="M 347.471576 389.237565 
C 350.046376 387.862713 352.567557 386.389717 355.029572 384.82182 
C 357.491586 383.253923 359.892626 381.592275 362.22741 379.840533 
L 293.643956 288.430125 
L 347.471576 389.237565 
z
" style="fill:#cde0a0;stroke:#ffffff;stroke-linejoin:miter;stroke-width:0.7;"/>
   </g>
   <g id="patch_51">
    <path d="M 362.22741 379.840533 
C 364.625537 378.041264 366.951931 376.148321 369.201192 374.166097 
C 371.450452 372.183873 373.620836 370.113904 375.707308 367.960994 
L 293.643956 288.430125 
L 362.22741 379.840533 
z
" style="fill:#c9de98;stroke:#ffffff;stroke-linejoin:miter;stroke-width:0.7;"/>
   </g>
   <g id="patch_52">
    <path d="M 375.707308 367.960994 
C 377.816588 365.784548 379.83845 363.525051 381.768097 361.187863 
C 383.697744 358.850676 385.533649 356.437647 387.271456 353.954502 
L 293.643956 288.430125 
L 375.707308 367.960994 
z
" style="fill:#c5db91;stroke:#ffffff;stroke-linejoin:miter;stroke-width:0.7;"/>
   </g>
   <g id="patch_53">
    <path d="M 387.271456 353.954502 
C 389.10719 351.33143 390.831881 348.632371 392.440964 345.864469 
C 394.050048 343.096568 395.542102 340.262268 396.913178 337.369073 
L 293.643956 288.430125 
L 387.271456 353.954502 
z
" style="fill:#c1d989;stroke:#ffffff;stroke-linejoin:miter;stroke-width:0.7;"/>
   </g>
   <g id="patch_54">
    <path d="M 396.913178 337.369073 
C 398.5534 333.907935 400.018581 330.366525 401.303175 326.758253 
C 402.587768 323.149982 403.690148 319.47941 404.606142 315.760437 
L 293.643956 288.430125 
L 396.913178 337.369073 
z
" style="fill:#bdd682;stroke:#ffffff;stroke-linejoin:miter;stroke-width:0.7;"/>
   </g>
   <g id="patch_55">
    <path d="M 404.606142 315.760437 
C 405.592363 311.756341 406.361128 307.701795 406.909063 303.614597 
C 407.456999 299.527399 407.783301 295.413537 407.886539 291.291067 
L 293.643956 288.430125 
L 404.606142 315.760437 
z
" style="fill:#b9d47a;stroke:#ffffff;stroke-linejoin:miter;stroke-width:0.7;"/>
   </g>
   <g id="patch_56">
    <path d="M 407.886539 291.291067 
C 408.00256 286.658126 407.836651 282.022414 407.389731 277.40962 
C 406.94281 272.796827 406.215706 268.215487 405.212446 263.69099 
L 293.643956 288.430125 
L 407.886539 291.291067 
z
" style="fill:#b5d172;stroke:#ffffff;stroke-linejoin:miter;stroke-width:0.7;"/>
   </g>
   <g id="patch_57">
    <path d="M 405.212446 263.69099 
C 404.096627 258.65887 402.641635 253.708 400.857443 248.872306 
C 399.07325 244.036611 396.963939 239.327161 394.543965 234.776225 
L 293.643956 288.430125 
L 405.212446 263.69099 
z
" style="fill:#b1cf6b;stroke:#ffffff;stroke-linejoin:miter;stroke-width:0.7;"/>
   </g>
   <g id="patch_58">
    <path d="M 394.543965 234.776225 
C 392.123991 230.22529 389.398892 225.843287 386.387342 221.660244 
C 383.375792 217.4772 380.084685 213.502691 376.536572 209.76395 
L 293.643956 288.430125 
L 394.543965 234.776225 
z
" style="fill:#adcc63;stroke:#ffffff;stroke-linejoin:miter;stroke-width:0.7;"/>
   </g>
   <g id="patch_59">
    <path d="M 376.536572 209.76395 
C 372.988458 206.02521 369.191461 202.530797 365.171598 199.304656 
C 361.151734 196.078515 356.918207 193.128031 352.500025 190.473421 
L 293.643956 288.430125 
L 376.536572 209.76395 
z
" style="fill:#a9ca5c;stroke:#ffffff;stroke-linejoin:miter;stroke-width:0.7;"/>
   </g>
   <g id="patch_60">
    <path d="M 352.500025 190.473421 
C 348.081843 187.818811 343.489119 185.466152 338.753325 183.431565 
C 334.017531 181.396979 329.149508 179.685121 324.182611 178.307724 
L 293.643956 288.430125 
L 352.500025 190.473421 
z
" style="fill:#a5c754;stroke:#ffffff;stroke-linejoin:miter;stroke-width:0.7;"/>
   </g>
   <g id="patch_61">
    <path d="M 324.182611 178.307724 
C 319.215714 176.930326 314.161315 175.890541 309.054045 175.195493 
C 303.946776 174.500445 298.79833 174.151726 293.643983 174.151725 
L 293.643956 288.430125 
L 324.182611 178.307724 
z
" style="fill:#a1c54d;stroke:#ffffff;stroke-linejoin:miter;stroke-width:0.7;"/>
   </g>
   <g id="patch_62">
    <path d="M 293.643956 188.436525 
C 272.422814 188.436525 251.742752 195.192011 234.61397 207.71965 
C 217.485189 220.247289 204.781162 237.908242 198.351093 258.13177 
L 293.643956 288.430125 
L 293.643956 188.436525 
z
" style="fill:#0cc0aa;stroke:#ffffff;stroke-linejoin:miter;stroke-width:0.7;"/>
   </g>
   <g id="patch_63">
    <path d="M 198.351093 258.13177 
C 191.67528 279.128203 192.122433 301.753674 199.622625 322.469943 
C 207.122817 343.186212 221.263579 360.854 239.833536 372.710364 
L 293.643956 288.430125 
L 198.351093 258.13177 
z
" style="fill:#943105;stroke:#ffffff;stroke-linejoin:miter;stroke-width:0.7;"/>
   </g>
   <g id="patch_64">
    <path d="M 239.833536 372.710364 
C 252.919305 381.065238 267.77285 386.258787 283.21366 387.878247 
C 298.65447 389.497707 314.262351 387.499006 328.79684 382.040994 
C 343.331329 376.582982 356.396896 367.81419 366.955133 356.431533 
C 377.51337 345.048875 385.276953 331.36211 389.628858 316.459017 
C 393.980763 301.555924 394.802561 285.842063 392.028938 270.566322 
C 389.255315 255.29058 382.96175 240.868659 373.648436 228.446766 
C 364.335121 216.024873 352.255502 205.941047 338.369626 198.996717 
C 324.48375 192.052387 309.169497 188.436531 293.643994 188.436525 
L 293.643956 288.430125 
L 239.833536 372.710364 
z
" style="fill:#a1c54d;stroke:#ffffff;stroke-linejoin:miter;stroke-width:0.7;"/>
   </g>
   <g id="matplotlib.axis_1"/>
   <g id="matplotlib.axis_2"/>
   <g id="text_1">
    <text style="font-family:DejaVu Sans;font-size:7px;font-style:normal;font-weight:roman;text-anchor:end;" transform="rotate(-273.751282, 283.86598, 168.821267)" x="283.86598" y="168.821267">ceramide metabolic process</text>
   </g>
   <g id="text_2">
    <text style="font-family:DejaVu Sans;font-size:7px;font-style:normal;font-weight:roman;text-anchor:end;" transform="rotate(-281.473068, 267.883643, 171.219656)" x="267.883643" y="171.219656">regulation of membrane permeability</text>
   </g>
   <g id="text_3">
    <text style="font-family:DejaVu Sans;font-size:7px;font-style:normal;font-weight:roman;text-anchor:end;" transform="rotate(-289.504108, 251.760862, 175.968157)" x="251.760862" y="175.968157">negative regulation of interleukin-12 production</text>
   </g>
   <g id="text_4">
    <text style="font-family:DejaVu Sans;font-size:7px;font-style:normal;font-weight:roman;text-anchor:end;" transform="rotate(-298.49328, 234.70334, 183.893569)" x="234.70334" y="183.893569">generation of neurons</text>
   </g>
   <g id="text_5">
    <text style="font-family:DejaVu Sans;font-size:7px;font-style:normal;font-weight:roman;text-anchor:end;" transform="rotate(-308.700826, 217.110857, 195.993268)" x="217.110857" y="195.993268">stabilization of membrane potential</text>
   </g>
   <g id="text_6">
    <text style="font-family:DejaVu Sans;font-size:7px;font-style:normal;font-weight:roman;text-anchor:end;" transform="rotate(-320.421084, 199.929468, 213.466917)" x="199.929468" y="213.466917">oxidative phosphorylation</text>
   </g>
   <g id="text_7">
    <text style="font-family:DejaVu Sans;font-size:7px;font-style:normal;font-weight:roman;text-anchor:end;" transform="rotate(-334.612186, 184.41157, 238.729283)" x="184.41157" y="238.729283">regulation of transcription from mitochondrial promoter</text>
   </g>
   <g id="text_8">
    <text style="font-family:DejaVu Sans;font-size:7px;font-style:normal;font-weight:roman;text-anchor:end;" transform="rotate(-345.941414, 176.776461, 261.156028)" x="176.776461" y="261.156028">cellular response to ketone</text>
   </g>
   <g id="text_9">
    <text style="font-family:DejaVu Sans;font-size:7px;font-style:normal;font-weight:roman;text-anchor:end;" transform="rotate(-353.287086, 174.248475, 276.321992)" x="174.248475" y="276.321992">cellular response to reactive nitrogen species</text>
   </g>
   <g id="text_10">
    <text style="font-family:DejaVu Sans;font-size:7px;font-style:normal;font-weight:roman;text-anchor:end;" transform="rotate(-0.862368, 173.694299, 292.167424)" x="173.694299" y="292.167424">response to nitric oxide</text>
   </g>
   <g id="text_11">
    <text style="font-family:DejaVu Sans;font-size:7px;font-style:normal;font-weight:roman;text-anchor:end;" transform="rotate(-8.546862, 175.27126, 308.173288)" x="175.27126" y="308.173288">cellular response to nitric oxide</text>
   </g>
   <g id="text_12">
    <text style="font-family:DejaVu Sans;font-size:7px;font-style:normal;font-weight:roman;text-anchor:end;" transform="rotate(-17.928396, 180.072818, 327.204914)" x="180.072818" y="327.204914">I-kappaB kinase/NF-kappaB signaling</text>
   </g>
   <g id="text_13">
    <text style="font-family:DejaVu Sans;font-size:7px;font-style:normal;font-weight:roman;text-anchor:end;" transform="rotate(-29.011233, 189.644487, 348.313329)" x="189.644487" y="348.313329">response to mineralocorticoid</text>
   </g>
   <g id="text_14">
    <text style="font-family:DejaVu Sans;font-size:7px;font-style:normal;font-weight:roman;text-anchor:end;" transform="rotate(-40.168652, 203.197872, 367.305937)" x="203.197872" y="367.305937">response to cisplatin</text>
   </g>
   <g id="text_15">
    <text style="font-family:DejaVu Sans;font-size:7px;font-style:normal;font-weight:roman;text-anchor:end;" transform="rotate(-51.59617, 220.61838, 383.662226)" x="220.61838" y="383.662226">response to steroid hormone</text>
   </g>
   <g id="text_16">
    <text style="font-family:DejaVu Sans;font-size:7px;font-style:normal;font-weight:roman;text-anchor:end;" transform="rotate(-60.992088, 237.145287, 394.306412)" x="237.145287" y="394.306412">positive regulation of protein homodimerization activity</text>
   </g>
   <g id="text_17">
    <text style="font-family:DejaVu Sans;font-size:7px;font-style:normal;font-weight:roman;text-anchor:end;" transform="rotate(-68.135053, 250.749022, 400.510062)" x="250.749022" y="400.510062">necrotic cell death</text>
   </g>
   <g id="text_18">
    <text style="font-family:DejaVu Sans;font-size:7px;font-style:normal;font-weight:roman;text-anchor:end;" transform="rotate(-75.357929, 265.181147, 405.013813)" x="265.181147" y="405.013813">regulation of immunoglobulin secretion</text>
   </g>
   <g id="text_19">
    <text style="font-family:DejaVu Sans;font-size:7px;font-style:normal;font-weight:roman;text-anchor:end;" transform="rotate(-82.636209, 280.180309, 407.680358)" x="280.180309" y="407.680358">programmed necrotic cell death</text>
   </g>
   <g id="text_20">
    <text style="font-family:DejaVu Sans;font-size:7px;font-style:normal;font-weight:roman;text-anchor:start;" transform="rotate(-270.003191, 291.719076, 408.422552)" x="291.719076" y="408.422552">cellular component maintenance</text>
   </g>
   <g id="text_21">
    <text style="font-family:DejaVu Sans;font-size:7px;font-style:normal;font-weight:roman;text-anchor:start;" transform="rotate(-277.624822, 307.650748, 407.617782)" x="307.650748" y="407.617782">positive regulation of tumor necrosis factor-mediated signaling pathway</text>
   </g>
   <g id="text_22">
    <text style="font-family:DejaVu Sans;font-size:7px;font-style:normal;font-weight:roman;text-anchor:start;" transform="rotate(-285.623099, 324.09866, 404.509403)" x="324.09866" y="404.509403">negative regulation of glial cell apoptotic process</text>
   </g>
   <g id="text_23">
    <text style="font-family:DejaVu Sans;font-size:7px;font-style:normal;font-weight:roman;text-anchor:start;" transform="rotate(-293.909055, 340.509357, 398.908729)" x="340.509357" y="398.908729">death-inducing signaling complex assembly</text>
   </g>
   <g id="text_24">
    <text style="font-family:DejaVu Sans;font-size:7px;font-style:normal;font-weight:roman;text-anchor:start;" transform="rotate(-302.490415, 356.469616, 390.67896)" x="356.469616" y="390.67896">positive regulation of I-kappaB phosphorylation</text>
   </g>
   <g id="text_25">
    <text style="font-family:DejaVu Sans;font-size:7px;font-style:normal;font-weight:roman;text-anchor:start;" transform="rotate(-311.389021, 371.529922, 379.729983)" x="371.529922" y="379.729983">regulation of mitochondrial membrane permeability</text>
   </g>
   <g id="text_26">
    <text style="font-family:DejaVu Sans;font-size:7px;font-style:normal;font-weight:roman;text-anchor:start;" transform="rotate(-320.455973, 384.944534, 366.315247)" x="384.944534" y="366.315247">regulation of NIK/NF-kappaB signaling</text>
   </g>
   <g id="text_27">
    <text style="font-family:DejaVu Sans;font-size:7px;font-style:normal;font-weight:roman;text-anchor:start;" transform="rotate(-329.828984, 396.410045, 350.406079)" x="396.410045" y="350.406079">maintenance of synapse structure</text>
   </g>
   <g id="text_28">
    <text style="font-family:DejaVu Sans;font-size:7px;font-style:normal;font-weight:roman;text-anchor:start;" transform="rotate(-340.403587, 406.038304, 330.494343)" x="406.038304" y="330.494343">positive regulation of apoptotic signaling pathway</text>
   </g>
   <g id="text_29">
    <text style="font-family:DejaVu Sans;font-size:7px;font-style:normal;font-weight:roman;text-anchor:start;" transform="rotate(-352.364377, 412.315667, 306.288257)" x="412.315667" y="306.288257">regulation of proton transport</text>
   </g>
   <g id="text_30">
    <text style="font-family:DejaVu Sans;font-size:7px;font-style:normal;font-weight:roman;text-anchor:start;" transform="rotate(-5.533952, 413.263291, 278.781155)" x="413.263291" y="278.781155">regulation of electron carrier activity</text>
   </g>
   <g id="text_31">
    <text style="font-family:DejaVu Sans;font-size:7px;font-style:normal;font-weight:roman;text-anchor:start;" transform="rotate(-20.2522, 406.886733, 248.706564)" x="406.886733" y="248.706564">regulation of cristae formation</text>
   </g>
   <g id="text_32">
    <text style="font-family:DejaVu Sans;font-size:7px;font-style:normal;font-weight:roman;text-anchor:start;" transform="rotate(-35.751708, 392.153073, 219.889322)" x="392.153073" y="219.889322">positive regulation of cristae formation</text>
   </g>
   <g id="text_33">
    <text style="font-family:DejaVu Sans;font-size:7px;font-style:normal;font-weight:roman;text-anchor:start;" transform="rotate(-51.251216, 370.254401, 196.057361)" x="370.254401" y="196.057361">nucleoid organization</text>
   </g>
   <g id="text_34">
    <text style="font-family:DejaVu Sans;font-size:7px;font-style:normal;font-weight:roman;text-anchor:start;" transform="rotate(-66.750724, 342.783506, 178.944087)" x="342.783506" y="178.944087">positive regulation of cytochrome-c oxidase activity</text>
   </g>
   <g id="text_35">
    <text style="font-family:DejaVu Sans;font-size:7px;font-style:normal;font-weight:roman;text-anchor:start;" transform="rotate(-82.250232, 311.73847, 169.794227)" x="311.73847" y="169.794227">mitochondrial nucleoid organization</text>
   </g>
   <g id="text_36">
    <path d="M 239.931924 219.358458 
Q 239.441505 219.09923 239.02913 218.735495 
Q 238.617401 218.372644 238.256465 217.879143 
Q 237.614657 217.001613 237.693092 216.173215 
Q 237.771527 215.344817 238.541352 214.781782 
Q 239.040149 214.416972 239.59208 214.254503 
Q 240.14554 214.092271 240.734542 214.139825 
Q 241.454244 214.197483 242.050672 214.555336 
Q 242.6471 214.913189 243.133298 215.577958 
Q 243.403839 215.947863 243.600565 216.379885 
Q 243.798174 216.811261 243.912348 217.286043 
L 242.941615 217.746685 
Q 242.890715 217.267632 242.751269 216.875021 
Q 242.613352 216.482647 242.375741 216.157767 
Q 241.854676 215.445325 241.053 215.345991 
Q 240.252206 215.246012 239.5071 215.790967 
Q 239.0136 216.151903 238.930399 216.612499 
Q 238.848727 217.073331 239.195459 217.547409 
Q 239.308453 217.701904 239.441752 217.841548 
Q 239.575934 217.980547 239.735007 218.105406 
L 240.64978 217.677561 
L 240.17585 217.029566 
L 240.987081 216.643574 
L 242.19386 218.293578 
z
M 245.176021 222.070879 
Q 245.661576 221.715754 245.754173 221.31062 
Q 245.848298 220.905722 245.543537 220.489028 
Q 245.139985 219.937261 244.37095 219.925169 
Q 243.602561 219.913961 242.858337 220.458271 
Q 242.383376 220.805647 242.28066 221.215473 
Q 242.177943 221.625299 242.462043 222.013743 
Q 242.694489 222.331561 243.007941 222.480372 
Q 243.322922 222.62942 243.712321 222.611569 
Q 244.084669 222.592639 244.464815 222.452824 
Q 244.844961 222.31301 245.176021 222.070879 
z
M 246.426356 220.080488 
Q 247.027486 220.9024 246.937166 221.736781 
Q 246.846846 222.571161 246.109685 223.110306 
Q 245.608239 223.477053 245.048943 223.651685 
Q 244.490529 223.82567 243.920383 223.792781 
Q 243.219471 223.755257 242.643942 223.424126 
Q 242.069942 223.093232 241.601823 222.453182 
Q 241.00263 221.633918 241.092713 220.801066 
Q 241.182796 219.968214 241.921722 219.427778 
Q 242.4267 219.058448 242.984468 218.88358 
Q 243.543118 218.708065 244.117204 218.740783 
Q 244.811593 218.774947 245.384474 219.108015 
Q 245.958237 219.440438 246.426356 220.080488 
z
M 249.326919 228.185418 
Q 249.482453 228.550002 249.391594 228.883403 
Q 249.301618 229.216157 248.9838 229.448603 
Q 248.299609 229.949006 247.506771 229.696861 
Q 246.714815 229.444071 246.020707 228.495031 
Q 245.757915 228.135721 245.572154 227.774273 
Q 245.386392 227.412826 245.278954 227.051008 
L 246.213149 226.608959 
Q 246.248748 226.959631 246.38196 227.306664 
Q 246.515817 227.65458 246.727601 227.944147 
Q 247.068521 228.41028 247.441545 228.553463 
Q 247.816098 228.696883 248.110962 228.481226 
Q 248.357271 228.30108 248.328894 228.004749 
Q 248.300518 227.708418 247.995756 227.291723 
L 247.68712 226.869732 
L 248.470101 226.504401 
L 248.796816 226.951111 
Q 249.113845 227.38458 249.455654 227.522137 
Q 249.797462 227.659694 250.064958 227.464053 
Q 250.275071 227.31038 250.256934 227.053987 
Q 250.239443 226.798477 249.995375 226.464769 
Q 249.823623 226.229937 249.56061 225.998164 
Q 249.298242 225.767274 248.964351 225.553462 
L 249.853179 225.136463 
Q 250.179719 225.397658 250.455014 225.681426 
Q 250.73031 225.965194 250.956298 226.274184 
Q 251.466387 226.971617 251.491185 227.492797 
Q 251.517511 228.014214 251.059324 228.349323 
Q 250.648809 228.649565 250.195396 228.605828 
Q 249.742628 228.562975 249.326919 228.185418 
z
" style="fill:#ffffff;stroke:#000000;"/>
    <path d="M 239.931924 219.358458 
Q 239.441505 219.09923 239.02913 218.735495 
Q 238.617401 218.372644 238.256465 217.879143 
Q 237.614657 217.001613 237.693092 216.173215 
Q 237.771527 215.344817 238.541352 214.781782 
Q 239.040149 214.416972 239.59208 214.254503 
Q 240.14554 214.092271 240.734542 214.139825 
Q 241.454244 214.197483 242.050672 214.555336 
Q 242.6471 214.913189 243.133298 215.577958 
Q 243.403839 215.947863 243.600565 216.379885 
Q 243.798174 216.811261 243.912348 217.286043 
L 242.941615 217.746685 
Q 242.890715 217.267632 242.751269 216.875021 
Q 242.613352 216.482647 242.375741 216.157767 
Q 241.854676 215.445325 241.053 215.345991 
Q 240.252206 215.246012 239.5071 215.790967 
Q 239.0136 216.151903 238.930399 216.612499 
Q 238.848727 217.073331 239.195459 217.547409 
Q 239.308453 217.701904 239.441752 217.841548 
Q 239.575934 217.980547 239.735007 218.105406 
L 240.64978 217.677561 
L 240.17585 217.029566 
L 240.987081 216.643574 
L 242.19386 218.293578 
z
M 245.176021 222.070879 
Q 245.661576 221.715754 245.754173 221.31062 
Q 245.848298 220.905722 245.543537 220.489028 
Q 245.139985 219.937261 244.37095 219.925169 
Q 243.602561 219.913961 242.858337 220.458271 
Q 242.383376 220.805647 242.28066 221.215473 
Q 242.177943 221.625299 242.462043 222.013743 
Q 242.694489 222.331561 243.007941 222.480372 
Q 243.322922 222.62942 243.712321 222.611569 
Q 244.084669 222.592639 244.464815 222.452824 
Q 244.844961 222.31301 245.176021 222.070879 
z
M 246.426356 220.080488 
Q 247.027486 220.9024 246.937166 221.736781 
Q 246.846846 222.571161 246.109685 223.110306 
Q 245.608239 223.477053 245.048943 223.651685 
Q 244.490529 223.82567 243.920383 223.792781 
Q 243.219471 223.755257 242.643942 223.424126 
Q 242.069942 223.093232 241.601823 222.453182 
Q 241.00263 221.633918 241.092713 220.801066 
Q 241.182796 219.968214 241.921722 219.427778 
Q 242.4267 219.058448 242.984468 218.88358 
Q 243.543118 218.708065 244.117204 218.740783 
Q 244.811593 218.774947 245.384474 219.108015 
Q 245.958237 219.440438 246.426356 220.080488 
z
M 249.326919 228.185418 
Q 249.482453 228.550002 249.391594 228.883403 
Q 249.301618 229.216157 248.9838 229.448603 
Q 248.299609 229.949006 247.506771 229.696861 
Q 246.714815 229.444071 246.020707 228.495031 
Q 245.757915 228.135721 245.572154 227.774273 
Q 245.386392 227.412826 245.278954 227.051008 
L 246.213149 226.608959 
Q 246.248748 226.959631 246.38196 227.306664 
Q 246.515817 227.65458 246.727601 227.944147 
Q 247.068521 228.41028 247.441545 228.553463 
Q 247.816098 228.696883 248.110962 228.481226 
Q 248.357271 228.30108 248.328894 228.004749 
Q 248.300518 227.708418 247.995756 227.291723 
L 247.68712 226.869732 
L 248.470101 226.504401 
L 248.796816 226.951111 
Q 249.113845 227.38458 249.455654 227.522137 
Q 249.797462 227.659694 250.064958 227.464053 
Q 250.275071 227.31038 250.256934 227.053987 
Q 250.239443 226.798477 249.995375 226.464769 
Q 249.823623 226.229937 249.56061 225.998164 
Q 249.298242 225.767274 248.964351 225.553462 
L 249.853179 225.136463 
Q 250.179719 225.397658 250.455014 225.681426 
Q 250.73031 225.965194 250.956298 226.274184 
Q 251.466387 226.971617 251.491185 227.492797 
Q 251.517511 228.014214 251.059324 228.349323 
Q 250.648809 228.649565 250.195396 228.605828 
Q 249.742628 228.562975 249.326919 228.185418 
z
" style="fill:#ffffff;"/>
    <path d="M 241.931924 221.358458 
Q 241.441505 221.09923 241.02913 220.735495 
Q 240.617401 220.372644 240.256465 219.879143 
Q 239.614657 219.001613 239.693092 218.173215 
Q 239.771527 217.344817 240.541352 216.781782 
Q 241.040149 216.416972 241.59208 216.254503 
Q 242.14554 216.092271 242.734542 216.139825 
Q 243.454244 216.197483 244.050672 216.555336 
Q 244.6471 216.913189 245.133298 217.577958 
Q 245.403839 217.947863 245.600565 218.379885 
Q 245.798174 218.811261 245.912348 219.286043 
L 244.941615 219.746685 
Q 244.890715 219.267632 244.751269 218.875021 
Q 244.613352 218.482647 244.375741 218.157767 
Q 243.854676 217.445325 243.053 217.345991 
Q 242.252206 217.246012 241.5071 217.790967 
Q 241.0136 218.151903 240.930399 218.612499 
Q 240.848727 219.073331 241.195459 219.547409 
Q 241.308453 219.701904 241.441752 219.841548 
Q 241.575934 219.980547 241.735007 220.105406 
L 242.64978 219.677561 
L 242.17585 219.029566 
L 242.987081 218.643574 
L 244.19386 220.293578 
z
M 247.176021 224.070879 
Q 247.661576 223.715754 247.754173 223.31062 
Q 247.848298 222.905722 247.543537 222.489028 
Q 247.139985 221.937261 246.37095 221.925169 
Q 245.602561 221.913961 244.858337 222.458271 
Q 244.383376 222.805647 244.28066 223.215473 
Q 244.177943 223.625299 244.462043 224.013743 
Q 244.694489 224.331561 245.007941 224.480372 
Q 245.322922 224.62942 245.712321 224.611569 
Q 246.084669 224.592639 246.464815 224.452824 
Q 246.844961 224.31301 247.176021 224.070879 
z
M 248.426356 222.080488 
Q 249.027486 222.9024 248.937166 223.736781 
Q 248.846846 224.571161 248.109685 225.110306 
Q 247.608239 225.477053 247.048943 225.651685 
Q 246.490529 225.82567 245.920383 225.792781 
Q 245.219471 225.755257 244.643942 225.424126 
Q 244.069942 225.093232 243.601823 224.453182 
Q 243.00263 223.633918 243.092713 222.801066 
Q 243.182796 221.968214 243.921722 221.427778 
Q 244.4267 221.058448 244.984468 220.88358 
Q 245.543118 220.708065 246.117204 220.740783 
Q 246.811593 220.774947 247.384474 221.108015 
Q 247.958237 221.440438 248.426356 222.080488 
z
M 251.326919 230.185418 
Q 251.482453 230.550002 251.391594 230.883403 
Q 251.301618 231.216157 250.9838 231.448603 
Q 250.299609 231.949006 249.506771 231.696861 
Q 248.714815 231.444071 248.020707 230.495031 
Q 247.757915 230.135721 247.572154 229.774273 
Q 247.386392 229.412826 247.278954 229.051008 
L 248.213149 228.608959 
Q 248.248748 228.959631 248.38196 229.306664 
Q 248.515817 229.65458 248.727601 229.944147 
Q 249.068521 230.41028 249.441545 230.553463 
Q 249.816098 230.696883 250.110962 230.481226 
Q 250.357271 230.30108 250.328894 230.004749 
Q 250.300518 229.708418 249.995756 229.291723 
L 249.68712 228.869732 
L 250.470101 228.504401 
L 250.796816 228.951111 
Q 251.113845 229.38458 251.455654 229.522137 
Q 251.797462 229.659694 252.064958 229.464053 
Q 252.275071 229.31038 252.256934 229.053987 
Q 252.239443 228.798477 251.995375 228.464769 
Q 251.823623 228.229937 251.56061 227.998164 
Q 251.298242 227.767274 250.964351 227.553462 
L 251.853179 227.136463 
Q 252.179719 227.397658 252.455014 227.681426 
Q 252.73031 227.965194 252.956298 228.274184 
Q 253.466387 228.971617 253.491185 229.492797 
Q 253.517511 230.014214 253.059324 230.349323 
Q 252.648809 230.649565 252.195396 230.605828 
Q 251.742628 230.562975 251.326919 230.185418 
z
" style="fill:#4c4c4c;opacity:0.3;"/>
    <path d="M 239.931924 219.358458 
Q 239.441505 219.09923 239.02913 218.735495 
Q 238.617401 218.372644 238.256465 217.879143 
Q 237.614657 217.001613 237.693092 216.173215 
Q 237.771527 215.344817 238.541352 214.781782 
Q 239.040149 214.416972 239.59208 214.254503 
Q 240.14554 214.092271 240.734542 214.139825 
Q 241.454244 214.197483 242.050672 214.555336 
Q 242.6471 214.913189 243.133298 215.577958 
Q 243.403839 215.947863 243.600565 216.379885 
Q 243.798174 216.811261 243.912348 217.286043 
L 242.941615 217.746685 
Q 242.890715 217.267632 242.751269 216.875021 
Q 242.613352 216.482647 242.375741 216.157767 
Q 241.854676 215.445325 241.053 215.345991 
Q 240.252206 215.246012 239.5071 215.790967 
Q 239.0136 216.151903 238.930399 216.612499 
Q 238.848727 217.073331 239.195459 217.547409 
Q 239.308453 217.701904 239.441752 217.841548 
Q 239.575934 217.980547 239.735007 218.105406 
L 240.64978 217.677561 
L 240.17585 217.029566 
L 240.987081 216.643574 
L 242.19386 218.293578 
z
M 245.176021 222.070879 
Q 245.661576 221.715754 245.754173 221.31062 
Q 245.848298 220.905722 245.543537 220.489028 
Q 245.139985 219.937261 244.37095 219.925169 
Q 243.602561 219.913961 242.858337 220.458271 
Q 242.383376 220.805647 242.28066 221.215473 
Q 242.177943 221.625299 242.462043 222.013743 
Q 242.694489 222.331561 243.007941 222.480372 
Q 243.322922 222.62942 243.712321 222.611569 
Q 244.084669 222.592639 244.464815 222.452824 
Q 244.844961 222.31301 245.176021 222.070879 
z
M 246.426356 220.080488 
Q 247.027486 220.9024 246.937166 221.736781 
Q 246.846846 222.571161 246.109685 223.110306 
Q 245.608239 223.477053 245.048943 223.651685 
Q 244.490529 223.82567 243.920383 223.792781 
Q 243.219471 223.755257 242.643942 223.424126 
Q 242.069942 223.093232 241.601823 222.453182 
Q 241.00263 221.633918 241.092713 220.801066 
Q 241.182796 219.968214 241.921722 219.427778 
Q 242.4267 219.058448 242.984468 218.88358 
Q 243.543118 218.708065 244.117204 218.740783 
Q 244.811593 218.774947 245.384474 219.108015 
Q 245.958237 219.440438 246.426356 220.080488 
z
M 249.326919 228.185418 
Q 249.482453 228.550002 249.391594 228.883403 
Q 249.301618 229.216157 248.9838 229.448603 
Q 248.299609 229.949006 247.506771 229.696861 
Q 246.714815 229.444071 246.020707 228.495031 
Q 245.757915 228.135721 245.572154 227.774273 
Q 245.386392 227.412826 245.278954 227.051008 
L 246.213149 226.608959 
Q 246.248748 226.959631 246.38196 227.306664 
Q 246.515817 227.65458 246.727601 227.944147 
Q 247.068521 228.41028 247.441545 228.553463 
Q 247.816098 228.696883 248.110962 228.481226 
Q 248.357271 228.30108 248.328894 228.004749 
Q 248.300518 227.708418 247.995756 227.291723 
L 247.68712 226.869732 
L 248.470101 226.504401 
L 248.796816 226.951111 
Q 249.113845 227.38458 249.455654 227.522137 
Q 249.797462 227.659694 250.064958 227.464053 
Q 250.275071 227.31038 250.256934 227.053987 
Q 250.239443 226.798477 249.995375 226.464769 
Q 249.823623 226.229937 249.56061 225.998164 
Q 249.298242 225.767274 248.964351 225.553462 
L 249.853179 225.136463 
Q 250.179719 225.397658 250.455014 225.681426 
Q 250.73031 225.965194 250.956298 226.274184 
Q 251.466387 226.971617 251.491185 227.492797 
Q 251.517511 228.014214 251.059324 228.349323 
Q 250.648809 228.649565 250.195396 228.605828 
Q 249.742628 228.562975 249.326919 228.185418 
z
" style="fill:#ffffff;"/>
   </g>
   <g id="text_37">
    <path d="M 213.818279 321.748665 
Q 213.431975 322.14676 212.967231 322.440646 
Q 212.503516 322.734159 211.928626 322.942294 
Q 210.906373 323.312394 210.133171 323.004898 
Q 209.359969 322.697403 209.035293 321.800617 
Q 208.824924 321.219557 208.823678 320.644212 
Q 208.823088 320.067465 209.033837 319.515406 
Q 209.290921 318.840718 209.801611 318.368509 
Q 210.312301 317.8963 211.086704 317.615933 
Q 211.517614 317.459925 211.987459 317.392184 
Q 212.456933 317.323415 212.944685 317.346902 
L 213.114758 318.407841 
Q 212.640642 318.322418 212.224683 318.346222 
Q 211.80938 318.368625 211.43092 318.505644 
Q 210.600981 318.806118 210.280915 319.547811 
Q 209.960476 320.288476 210.274726 321.156466 
Q 210.482861 321.731355 210.901669 321.940328 
Q 211.321134 322.1479 211.873398 321.947957 
Q 212.053372 321.882798 212.224783 321.793986 
Q 212.395821 321.704145 212.560264 321.586448 
L 212.405988 320.588421 
L 211.651125 320.861714 
L 211.508 319.974809 
L 213.430125 319.278916 
z
M 217.891916 317.47511 
Q 217.687132 316.909477 217.324195 316.707031 
Q 216.961913 316.503183 216.476497 316.678925 
Q 215.833732 316.911634 215.60656 317.64645 
Q 215.380416 318.380893 215.694294 319.247855 
Q 215.89461 319.801147 216.259214 320.014622 
Q 216.623818 320.228098 217.076324 320.064271 
Q 217.446557 319.93023 217.677265 319.671057 
Q 217.908629 319.410483 218.000645 319.031691 
Q 218.086845 318.668964 218.059193 318.264867 
Q 218.031541 317.860769 217.891916 317.47511 
z
M 216.331796 315.716981 
Q 217.289259 315.370338 218.064872 315.690919 
Q 218.840485 316.011501 219.151384 316.870235 
Q 219.36287 317.45438 219.373726 318.040205 
Q 219.38421 318.625001 219.192824 319.163071 
Q 218.960334 319.825366 218.481153 320.285004 
Q 218.002628 320.743241 217.25702 321.013183 
Q 216.302643 321.35871 215.52843 321.038784 
Q 214.754218 320.718858 214.442574 319.858067 
Q 214.229599 319.269809 214.218086 318.685385 
Q 214.206202 318.099932 214.398528 317.558032 
Q 214.625964 316.901057 215.106262 316.444504 
Q 215.586188 315.986923 216.331796 315.716981 
z
M 224.050541 317.419488 
L 226.136185 316.664394 
L 226.289468 317.63719 
L 222.805167 318.898659 
L 222.653391 317.917175 
L 224.1364 315.638912 
Q 224.377555 315.260798 224.457069 314.934224 
Q 224.537612 314.607278 224.44788 314.359428 
Q 224.352562 314.096152 224.120461 314.017331 
Q 223.887988 313.937482 223.563006 314.055139 
Q 223.258592 314.16535 222.925752 314.42195 
Q 222.592912 314.67855 222.211715 315.100387 
L 222.048416 314.006752 
Q 222.427412 313.688076 222.81974 313.457631 
Q 223.212724 313.225785 223.624094 313.076851 
Q 224.356332 312.811749 224.891637 312.976219 
Q 225.427969 313.140317 225.625679 313.68641 
Q 225.795463 314.155371 225.677983 314.634114 
Q 225.560502 315.112856 224.923891 316.085475 
z
" style="fill:#ffffff;stroke:#000000;"/>
    <path d="M 213.818279 321.748665 
Q 213.431975 322.14676 212.967231 322.440646 
Q 212.503516 322.734159 211.928626 322.942294 
Q 210.906373 323.312394 210.133171 323.004898 
Q 209.359969 322.697403 209.035293 321.800617 
Q 208.824924 321.219557 208.823678 320.644212 
Q 208.823088 320.067465 209.033837 319.515406 
Q 209.290921 318.840718 209.801611 318.368509 
Q 210.312301 317.8963 211.086704 317.615933 
Q 211.517614 317.459925 211.987459 317.392184 
Q 212.456933 317.323415 212.944685 317.346902 
L 213.114758 318.407841 
Q 212.640642 318.322418 212.224683 318.346222 
Q 211.80938 318.368625 211.43092 318.505644 
Q 210.600981 318.806118 210.280915 319.547811 
Q 209.960476 320.288476 210.274726 321.156466 
Q 210.482861 321.731355 210.901669 321.940328 
Q 211.321134 322.1479 211.873398 321.947957 
Q 212.053372 321.882798 212.224783 321.793986 
Q 212.395821 321.704145 212.560264 321.586448 
L 212.405988 320.588421 
L 211.651125 320.861714 
L 211.508 319.974809 
L 213.430125 319.278916 
z
M 217.891916 317.47511 
Q 217.687132 316.909477 217.324195 316.707031 
Q 216.961913 316.503183 216.476497 316.678925 
Q 215.833732 316.911634 215.60656 317.64645 
Q 215.380416 318.380893 215.694294 319.247855 
Q 215.89461 319.801147 216.259214 320.014622 
Q 216.623818 320.228098 217.076324 320.064271 
Q 217.446557 319.93023 217.677265 319.671057 
Q 217.908629 319.410483 218.000645 319.031691 
Q 218.086845 318.668964 218.059193 318.264867 
Q 218.031541 317.860769 217.891916 317.47511 
z
M 216.331796 315.716981 
Q 217.289259 315.370338 218.064872 315.690919 
Q 218.840485 316.011501 219.151384 316.870235 
Q 219.36287 317.45438 219.373726 318.040205 
Q 219.38421 318.625001 219.192824 319.163071 
Q 218.960334 319.825366 218.481153 320.285004 
Q 218.002628 320.743241 217.25702 321.013183 
Q 216.302643 321.35871 215.52843 321.038784 
Q 214.754218 320.718858 214.442574 319.858067 
Q 214.229599 319.269809 214.218086 318.685385 
Q 214.206202 318.099932 214.398528 317.558032 
Q 214.625964 316.901057 215.106262 316.444504 
Q 215.586188 315.986923 216.331796 315.716981 
z
M 224.050541 317.419488 
L 226.136185 316.664394 
L 226.289468 317.63719 
L 222.805167 318.898659 
L 222.653391 317.917175 
L 224.1364 315.638912 
Q 224.377555 315.260798 224.457069 314.934224 
Q 224.537612 314.607278 224.44788 314.359428 
Q 224.352562 314.096152 224.120461 314.017331 
Q 223.887988 313.937482 223.563006 314.055139 
Q 223.258592 314.16535 222.925752 314.42195 
Q 222.592912 314.67855 222.211715 315.100387 
L 222.048416 314.006752 
Q 222.427412 313.688076 222.81974 313.457631 
Q 223.212724 313.225785 223.624094 313.076851 
Q 224.356332 312.811749 224.891637 312.976219 
Q 225.427969 313.140317 225.625679 313.68641 
Q 225.795463 314.155371 225.677983 314.634114 
Q 225.560502 315.112856 224.923891 316.085475 
z
" style="fill:#ffffff;"/>
    <path d="M 215.818279 323.748665 
Q 215.431975 324.14676 214.967231 324.440646 
Q 214.503516 324.734159 213.928626 324.942294 
Q 212.906373 325.312394 212.133171 325.004898 
Q 211.359969 324.697403 211.035293 323.800617 
Q 210.824924 323.219557 210.823678 322.644212 
Q 210.823088 322.067465 211.033837 321.515406 
Q 211.290921 320.840718 211.801611 320.368509 
Q 212.312301 319.8963 213.086704 319.615933 
Q 213.517614 319.459925 213.987459 319.392184 
Q 214.456933 319.323415 214.944685 319.346902 
L 215.114758 320.407841 
Q 214.640642 320.322418 214.224683 320.346222 
Q 213.80938 320.368625 213.43092 320.505644 
Q 212.600981 320.806118 212.280915 321.547811 
Q 211.960476 322.288476 212.274726 323.156466 
Q 212.482861 323.731355 212.901669 323.940328 
Q 213.321134 324.1479 213.873398 323.947957 
Q 214.053372 323.882798 214.224783 323.793986 
Q 214.395821 323.704145 214.560264 323.586448 
L 214.405988 322.588421 
L 213.651125 322.861714 
L 213.508 321.974809 
L 215.430125 321.278916 
z
M 219.891916 319.47511 
Q 219.687132 318.909477 219.324195 318.707031 
Q 218.961913 318.503183 218.476497 318.678925 
Q 217.833732 318.911634 217.60656 319.64645 
Q 217.380416 320.380893 217.694294 321.247855 
Q 217.89461 321.801147 218.259214 322.014622 
Q 218.623818 322.228098 219.076324 322.064271 
Q 219.446557 321.93023 219.677265 321.671057 
Q 219.908629 321.410483 220.000645 321.031691 
Q 220.086845 320.668964 220.059193 320.264867 
Q 220.031541 319.860769 219.891916 319.47511 
z
M 218.331796 317.716981 
Q 219.289259 317.370338 220.064872 317.690919 
Q 220.840485 318.011501 221.151384 318.870235 
Q 221.36287 319.45438 221.373726 320.040205 
Q 221.38421 320.625001 221.192824 321.163071 
Q 220.960334 321.825366 220.481153 322.285004 
Q 220.002628 322.743241 219.25702 323.013183 
Q 218.302643 323.35871 217.52843 323.038784 
Q 216.754218 322.718858 216.442574 321.858067 
Q 216.229599 321.269809 216.218086 320.685385 
Q 216.206202 320.099932 216.398528 319.558032 
Q 216.625964 318.901057 217.106262 318.444504 
Q 217.586188 317.986923 218.331796 317.716981 
z
M 226.050541 319.419488 
L 228.136185 318.664394 
L 228.289468 319.63719 
L 224.805167 320.898659 
L 224.653391 319.917175 
L 226.1364 317.638912 
Q 226.377555 317.260798 226.457069 316.934224 
Q 226.537612 316.607278 226.44788 316.359428 
Q 226.352562 316.096152 226.120461 316.017331 
Q 225.887988 315.937482 225.563006 316.055139 
Q 225.258592 316.16535 224.925752 316.42195 
Q 224.592912 316.67855 224.211715 317.100387 
L 224.048416 316.006752 
Q 224.427412 315.688076 224.81974 315.457631 
Q 225.212724 315.225785 225.624094 315.076851 
Q 226.356332 314.811749 226.891637 314.976219 
Q 227.427969 315.140317 227.625679 315.68641 
Q 227.795463 316.155371 227.677983 316.634114 
Q 227.560502 317.112856 226.923891 318.085475 
z
" style="fill:#4c4c4c;opacity:0.3;"/>
    <path d="M 213.818279 321.748665 
Q 213.431975 322.14676 212.967231 322.440646 
Q 212.503516 322.734159 211.928626 322.942294 
Q 210.906373 323.312394 210.133171 323.004898 
Q 209.359969 322.697403 209.035293 321.800617 
Q 208.824924 321.219557 208.823678 320.644212 
Q 208.823088 320.067465 209.033837 319.515406 
Q 209.290921 318.840718 209.801611 318.368509 
Q 210.312301 317.8963 211.086704 317.615933 
Q 211.517614 317.459925 211.987459 317.392184 
Q 212.456933 317.323415 212.944685 317.346902 
L 213.114758 318.407841 
Q 212.640642 318.322418 212.224683 318.346222 
Q 211.80938 318.368625 211.43092 318.505644 
Q 210.600981 318.806118 210.280915 319.547811 
Q 209.960476 320.288476 210.274726 321.156466 
Q 210.482861 321.731355 210.901669 321.940328 
Q 211.321134 322.1479 211.873398 321.947957 
Q 212.053372 321.882798 212.224783 321.793986 
Q 212.395821 321.704145 212.560264 321.586448 
L 212.405988 320.588421 
L 211.651125 320.861714 
L 211.508 319.974809 
L 213.430125 319.278916 
z
M 217.891916 317.47511 
Q 217.687132 316.909477 217.324195 316.707031 
Q 216.961913 316.503183 216.476497 316.678925 
Q 215.833732 316.911634 215.60656 317.64645 
Q 215.380416 318.380893 215.694294 319.247855 
Q 215.89461 319.801147 216.259214 320.014622 
Q 216.623818 320.228098 217.076324 320.064271 
Q 217.446557 319.93023 217.677265 319.671057 
Q 217.908629 319.410483 218.000645 319.031691 
Q 218.086845 318.668964 218.059193 318.264867 
Q 218.031541 317.860769 217.891916 317.47511 
z
M 216.331796 315.716981 
Q 217.289259 315.370338 218.064872 315.690919 
Q 218.840485 316.011501 219.151384 316.870235 
Q 219.36287 317.45438 219.373726 318.040205 
Q 219.38421 318.625001 219.192824 319.163071 
Q 218.960334 319.825366 218.481153 320.285004 
Q 218.002628 320.743241 217.25702 321.013183 
Q 216.302643 321.35871 215.52843 321.038784 
Q 214.754218 320.718858 214.442574 319.858067 
Q 214.229599 319.269809 214.218086 318.685385 
Q 214.206202 318.099932 214.398528 317.558032 
Q 214.625964 316.901057 215.106262 316.444504 
Q 215.586188 315.986923 216.331796 315.716981 
z
M 224.050541 317.419488 
L 226.136185 316.664394 
L 226.289468 317.63719 
L 222.805167 318.898659 
L 222.653391 317.917175 
L 224.1364 315.638912 
Q 224.377555 315.260798 224.457069 314.934224 
Q 224.537612 314.607278 224.44788 314.359428 
Q 224.352562 314.096152 224.120461 314.017331 
Q 223.887988 313.937482 223.563006 314.055139 
Q 223.258592 314.16535 222.925752 314.42195 
Q 222.592912 314.67855 222.211715 315.100387 
L 222.048416 314.006752 
Q 222.427412 313.688076 222.81974 313.457631 
Q 223.212724 313.225785 223.624094 313.076851 
Q 224.356332 312.811749 224.891637 312.976219 
Q 225.427969 313.140317 225.625679 313.68641 
Q 225.795463 314.155371 225.677983 314.634114 
Q 225.560502 315.112856 224.923891 316.085475 
z
" style="fill:#ffffff;"/>
   </g>
   <g id="text_38">
    <path d="M 365.924361 314.128113 
Q 365.377544 314.221389 364.82893 314.184245 
Q 364.281367 314.147407 363.694472 313.976026 
Q 362.650869 313.67128 362.208301 312.966632 
Q 361.765732 312.261984 362.033075 311.346469 
Q 362.206296 310.753275 362.544938 310.288146 
Q 362.884937 309.822273 363.380946 309.501088 
Q 363.986747 309.108275 364.677716 309.028608 
Q 365.368685 308.948942 366.159261 309.179801 
Q 366.59917 309.30826 367.018399 309.53095 
Q 367.437935 309.752591 367.817762 310.059487 
L 367.328724 311.016231 
Q 366.996467 310.667394 366.646671 310.44105 
Q 366.298231 310.213964 365.911867 310.101141 
Q 365.064596 309.853726 364.368402 310.263441 
Q 363.672516 310.672106 363.413757 311.558223 
Q 363.242376 312.145119 363.457055 312.561031 
Q 363.673092 312.9762 364.236889 313.140837 
Q 364.420622 313.194489 364.611406 313.223994 
Q 364.802497 313.252449 365.004709 313.254526 
L 365.469358 312.357887 
L 364.69873 312.132853 
L 365.10678 311.332489 
L 367.069046 311.905498 
z
M 371.735264 313.083509 
Q 371.903886 312.506063 371.73045 312.128401 
Q 371.558371 311.749996 371.062818 311.605288 
Q 370.406629 311.413672 369.789476 311.872675 
Q 369.173373 312.331984 368.914921 313.217051 
Q 368.749978 313.781899 368.918248 314.169446 
Q 369.086518 314.556994 369.548475 314.691892 
Q 369.926439 314.802262 370.265657 314.729265 
Q 370.60623 314.655523 370.904117 314.4041 
Q 371.187825 314.162209 371.40406 313.819716 
Q 371.620294 313.477222 371.735264 313.083509 
z
M 371.513893 310.743426 
Q 372.491352 311.028857 372.928142 311.74549 
Q 373.364931 312.462124 373.108932 313.338792 
Q 372.934792 313.935136 372.59772 314.414397 
Q 372.260954 314.892609 371.788833 315.213933 
Q 371.2102 315.61126 370.552084 315.699381 
Q 369.895325 315.786759 369.134146 315.564484 
Q 368.159837 315.279973 367.72379 314.564696 
Q 367.287744 313.849419 367.544356 312.970651 
Q 367.719723 312.370107 368.055438 311.891589 
Q 368.391461 311.412021 368.866602 311.088161 
Q 369.438016 310.692143 370.095212 310.607172 
Q 370.752714 310.521151 371.513893 310.743426 
z
M 375.525935 316.38042 
L 376.640931 316.706013 
L 378.179786 313.718861 
L 376.919166 313.607115 
L 377.338243 312.796299 
L 378.591515 312.905899 
L 379.791553 313.256327 
L 377.838869 317.055828 
L 378.947566 317.379582 
L 378.525859 318.203304 
L 375.096879 317.201995 
z
" style="fill:#ffffff;stroke:#000000;"/>
    <path d="M 365.924361 314.128113 
Q 365.377544 314.221389 364.82893 314.184245 
Q 364.281367 314.147407 363.694472 313.976026 
Q 362.650869 313.67128 362.208301 312.966632 
Q 361.765732 312.261984 362.033075 311.346469 
Q 362.206296 310.753275 362.544938 310.288146 
Q 362.884937 309.822273 363.380946 309.501088 
Q 363.986747 309.108275 364.677716 309.028608 
Q 365.368685 308.948942 366.159261 309.179801 
Q 366.59917 309.30826 367.018399 309.53095 
Q 367.437935 309.752591 367.817762 310.059487 
L 367.328724 311.016231 
Q 366.996467 310.667394 366.646671 310.44105 
Q 366.298231 310.213964 365.911867 310.101141 
Q 365.064596 309.853726 364.368402 310.263441 
Q 363.672516 310.672106 363.413757 311.558223 
Q 363.242376 312.145119 363.457055 312.561031 
Q 363.673092 312.9762 364.236889 313.140837 
Q 364.420622 313.194489 364.611406 313.223994 
Q 364.802497 313.252449 365.004709 313.254526 
L 365.469358 312.357887 
L 364.69873 312.132853 
L 365.10678 311.332489 
L 367.069046 311.905498 
z
M 371.735264 313.083509 
Q 371.903886 312.506063 371.73045 312.128401 
Q 371.558371 311.749996 371.062818 311.605288 
Q 370.406629 311.413672 369.789476 311.872675 
Q 369.173373 312.331984 368.914921 313.217051 
Q 368.749978 313.781899 368.918248 314.169446 
Q 369.086518 314.556994 369.548475 314.691892 
Q 369.926439 314.802262 370.265657 314.729265 
Q 370.60623 314.655523 370.904117 314.4041 
Q 371.187825 314.162209 371.40406 313.819716 
Q 371.620294 313.477222 371.735264 313.083509 
z
M 371.513893 310.743426 
Q 372.491352 311.028857 372.928142 311.74549 
Q 373.364931 312.462124 373.108932 313.338792 
Q 372.934792 313.935136 372.59772 314.414397 
Q 372.260954 314.892609 371.788833 315.213933 
Q 371.2102 315.61126 370.552084 315.699381 
Q 369.895325 315.786759 369.134146 315.564484 
Q 368.159837 315.279973 367.72379 314.564696 
Q 367.287744 313.849419 367.544356 312.970651 
Q 367.719723 312.370107 368.055438 311.891589 
Q 368.391461 311.412021 368.866602 311.088161 
Q 369.438016 310.692143 370.095212 310.607172 
Q 370.752714 310.521151 371.513893 310.743426 
z
M 375.525935 316.38042 
L 376.640931 316.706013 
L 378.179786 313.718861 
L 376.919166 313.607115 
L 377.338243 312.796299 
L 378.591515 312.905899 
L 379.791553 313.256327 
L 377.838869 317.055828 
L 378.947566 317.379582 
L 378.525859 318.203304 
L 375.096879 317.201995 
z
" style="fill:#ffffff;"/>
    <path d="M 367.924361 316.128113 
Q 367.377544 316.221389 366.82893 316.184245 
Q 366.281367 316.147407 365.694472 315.976026 
Q 364.650869 315.67128 364.208301 314.966632 
Q 363.765732 314.261984 364.033075 313.346469 
Q 364.206296 312.753275 364.544938 312.288146 
Q 364.884937 311.822273 365.380946 311.501088 
Q 365.986747 311.108275 366.677716 311.028608 
Q 367.368685 310.948942 368.159261 311.179801 
Q 368.59917 311.30826 369.018399 311.53095 
Q 369.437935 311.752591 369.817762 312.059487 
L 369.328724 313.016231 
Q 368.996467 312.667394 368.646671 312.44105 
Q 368.298231 312.213964 367.911867 312.101141 
Q 367.064596 311.853726 366.368402 312.263441 
Q 365.672516 312.672106 365.413757 313.558223 
Q 365.242376 314.145119 365.457055 314.561031 
Q 365.673092 314.9762 366.236889 315.140837 
Q 366.420622 315.194489 366.611406 315.223994 
Q 366.802497 315.252449 367.004709 315.254526 
L 367.469358 314.357887 
L 366.69873 314.132853 
L 367.10678 313.332489 
L 369.069046 313.905498 
z
M 373.735264 315.083509 
Q 373.903886 314.506063 373.73045 314.128401 
Q 373.558371 313.749996 373.062818 313.605288 
Q 372.406629 313.413672 371.789476 313.872675 
Q 371.173373 314.331984 370.914921 315.217051 
Q 370.749978 315.781899 370.918248 316.169446 
Q 371.086518 316.556994 371.548475 316.691892 
Q 371.926439 316.802262 372.265657 316.729265 
Q 372.60623 316.655523 372.904117 316.4041 
Q 373.187825 316.162209 373.40406 315.819716 
Q 373.620294 315.477222 373.735264 315.083509 
z
M 373.513893 312.743426 
Q 374.491352 313.028857 374.928142 313.74549 
Q 375.364931 314.462124 375.108932 315.338792 
Q 374.934792 315.935136 374.59772 316.414397 
Q 374.260954 316.892609 373.788833 317.213933 
Q 373.2102 317.61126 372.552084 317.699381 
Q 371.895325 317.786759 371.134146 317.564484 
Q 370.159837 317.279973 369.72379 316.564696 
Q 369.287744 315.849419 369.544356 314.970651 
Q 369.719723 314.370107 370.055438 313.891589 
Q 370.391461 313.412021 370.866602 313.088161 
Q 371.438016 312.692143 372.095212 312.607172 
Q 372.752714 312.521151 373.513893 312.743426 
z
M 377.525935 318.38042 
L 378.640931 318.706013 
L 380.179786 315.718861 
L 378.919166 315.607115 
L 379.338243 314.796299 
L 380.591515 314.905899 
L 381.791553 315.256327 
L 379.838869 319.055828 
L 380.947566 319.379582 
L 380.525859 320.203304 
L 377.096879 319.201995 
z
" style="fill:#4c4c4c;opacity:0.3;"/>
    <path d="M 365.924361 314.128113 
Q 365.377544 314.221389 364.82893 314.184245 
Q 364.281367 314.147407 363.694472 313.976026 
Q 362.650869 313.67128 362.208301 312.966632 
Q 361.765732 312.261984 362.033075 311.346469 
Q 362.206296 310.753275 362.544938 310.288146 
Q 362.884937 309.822273 363.380946 309.501088 
Q 363.986747 309.108275 364.677716 309.028608 
Q 365.368685 308.948942 366.159261 309.179801 
Q 366.59917 309.30826 367.018399 309.53095 
Q 367.437935 309.752591 367.817762 310.059487 
L 367.328724 311.016231 
Q 366.996467 310.667394 366.646671 310.44105 
Q 366.298231 310.213964 365.911867 310.101141 
Q 365.064596 309.853726 364.368402 310.263441 
Q 363.672516 310.672106 363.413757 311.558223 
Q 363.242376 312.145119 363.457055 312.561031 
Q 363.673092 312.9762 364.236889 313.140837 
Q 364.420622 313.194489 364.611406 313.223994 
Q 364.802497 313.252449 365.004709 313.254526 
L 365.469358 312.357887 
L 364.69873 312.132853 
L 365.10678 311.332489 
L 367.069046 311.905498 
z
M 371.735264 313.083509 
Q 371.903886 312.506063 371.73045 312.128401 
Q 371.558371 311.749996 371.062818 311.605288 
Q 370.406629 311.413672 369.789476 311.872675 
Q 369.173373 312.331984 368.914921 313.217051 
Q 368.749978 313.781899 368.918248 314.169446 
Q 369.086518 314.556994 369.548475 314.691892 
Q 369.926439 314.802262 370.265657 314.729265 
Q 370.60623 314.655523 370.904117 314.4041 
Q 371.187825 314.162209 371.40406 313.819716 
Q 371.620294 313.477222 371.735264 313.083509 
z
M 371.513893 310.743426 
Q 372.491352 311.028857 372.928142 311.74549 
Q 373.364931 312.462124 373.108932 313.338792 
Q 372.934792 313.935136 372.59772 314.414397 
Q 372.260954 314.892609 371.788833 315.213933 
Q 371.2102 315.61126 370.552084 315.699381 
Q 369.895325 315.786759 369.134146 315.564484 
Q 368.159837 315.279973 367.72379 314.564696 
Q 367.287744 313.849419 367.544356 312.970651 
Q 367.719723 312.370107 368.055438 311.891589 
Q 368.391461 311.412021 368.866602 311.088161 
Q 369.438016 310.692143 370.095212 310.607172 
Q 370.752714 310.521151 371.513893 310.743426 
z
M 375.525935 316.38042 
L 376.640931 316.706013 
L 378.179786 313.718861 
L 376.919166 313.607115 
L 377.338243 312.796299 
L 378.591515 312.905899 
L 379.791553 313.256327 
L 377.838869 317.055828 
L 378.947566 317.379582 
L 378.525859 318.203304 
L 375.096879 317.201995 
z
" style="fill:#ffffff;"/>
   </g>
   <g id="text_39">
    <text style="font-family:DejaVu Sans;font-size:12px;font-style:normal;font-weight:normal;text-anchor:middle;" transform="rotate(-0, 293.643956, 16.318125)" x="293.643956" y="16.318125">CirGO Visualisation Plot</text>
   </g>
   <g id="legend_1">
    <g id="text_40">
     <text style="font-family:DejaVu Sans;font-size:7px;font-style:normal;font-weight:normal;text-anchor:start;" transform="rotate(-0, 666.427159, 39.121031)" x="666.427159" y="39.121031">Name and Proportion of the Biological Process (Inner Ring)</text>
    </g>
    <g id="patch_65">
     <path d="M 639.783956 49.395719 
L 653.783956 49.395719 
L 653.783956 44.495719 
L 639.783956 44.495719 
z
" style="fill:#a1c54d;stroke:#ffffff;stroke-linejoin:miter;stroke-width:0.7;"/>
    </g>
    <g id="text_41">
     <text style="font-family:DejaVu Sans;font-size:7px;font-style:normal;font-weight:normal;text-anchor:start;" transform="rotate(-0, 659.383956, 49.395719)" x="659.383956" y="49.395719">GO1 mitochondrial nucleoid organization, 59.0%</text>
    </g>
    <g id="patch_66">
     <path d="M 639.783956 59.670406 
L 653.783956 59.670406 
L 653.783956 54.770406 
L 639.783956 54.770406 
z
" style="fill:#943105;stroke:#ffffff;stroke-linejoin:miter;stroke-width:0.7;"/>
    </g>
    <g id="text_42">
     <text style="font-family:DejaVu Sans;font-size:7px;font-style:normal;font-weight:normal;text-anchor:start;" transform="rotate(-0, 659.383956, 59.670406)" x="659.383956" y="59.670406">GO2 response to steroid hormone, 20.9%</text>
    </g>
    <g id="patch_67">
     <path d="M 639.783956 69.945094 
L 653.783956 69.945094 
L 653.783956 65.045094 
L 639.783956 65.045094 
z
" style="fill:#0cc0aa;stroke:#ffffff;stroke-linejoin:miter;stroke-width:0.7;"/>
    </g>
    <g id="text_43">
     <text style="font-family:DejaVu Sans;font-size:7px;font-style:normal;font-weight:normal;text-anchor:start;" transform="rotate(-0, 659.383956, 69.945094)" x="659.383956" y="69.945094">GO3 regulation of transcription from mitochondrial promoter, 20.1%</text>
    </g>
   </g>
  </g>
 </g>
</svg>
