<?xml version="1.0" encoding="utf-8" standalone="no"?>
<!DOCTYPE svg PUBLIC "-//W3C//DTD SVG 1.1//EN"
  "http://www.w3.org/Graphics/SVG/1.1/DTD/svg11.dtd">
<!-- Created with matplotlib (http://matplotlib.org/) -->
<svg height="481pt" version="1.1" viewBox="0 0 989 481" width="989pt" xmlns="http://www.w3.org/2000/svg" xmlns:xlink="http://www.w3.org/1999/xlink">
 <defs>
  <style type="text/css">
*{stroke-linecap:butt;stroke-linejoin:round;}
  </style>
 </defs>
 <g id="figure_1">
  <g id="patch_1">
   <path d="M -0 481.677874 
L 989.83305 481.677874 
L 989.83305 0 
L -0 0 
z
" style="fill:#ffffff;"/>
  </g>
  <g id="axes_1">
   <g id="patch_2">
    <path d="M 298.596488 223.643474 
C 276.654043 223.643474 255.169023 229.963183 236.721195 241.843776 
C 218.273367 253.724369 203.631877 270.670508 194.554771 290.64742 
L 298.596488 337.921874 
L 298.596488 223.643474 
z
" style="fill:#0cc0aa;stroke:#ffffff;stroke-linejoin:miter;stroke-width:0.7;"/>
   </g>
   <g id="patch_3">
    <path d="M 194.554771 290.64742 
C 194.554771 290.64742 194.554771 290.64742 194.554771 290.64742 
L 298.596488 337.921874 
L 194.554771 290.64742 
z
" style="fill:none;stroke:#ffffff;stroke-linejoin:miter;stroke-width:0.7;"/>
   </g>
   <g id="patch_4">
    <path d="M 194.554771 290.64742 
C 183.220054 315.59289 181.226414 343.801574 188.939961 370.093274 
C 196.653508 396.384974 213.571287 419.045362 236.586544 433.913121 
L 298.596488 337.921874 
L 194.554771 290.64742 
z
" style="fill:#ae603d;stroke:#ffffff;stroke-linejoin:miter;stroke-width:0.7;"/>
   </g>
   <g id="patch_5">
    <path d="M 236.586544 433.913121 
C 251.512219 443.555045 268.483048 449.584204 286.146426 451.520064 
C 303.809803 453.455923 321.683653 451.245649 338.343396 445.065404 
C 355.003139 438.885159 369.994091 428.903616 382.121444 415.916325 
C 394.248798 402.929033 403.181569 387.290445 408.2078 370.246987 
C 413.23403 353.203529 414.216542 335.220356 411.077027 317.730762 
C 407.937512 300.241168 400.761655 283.722485 390.121385 269.491283 
C 379.481115 255.26008 365.666831 243.704762 349.779557 235.746309 
C 333.892283 227.787856 316.36562 223.643472 298.596477 223.643474 
L 298.596488 337.921874 
L 236.586544 433.913121 
z
" style="fill:#943105;stroke:#ffffff;stroke-linejoin:miter;stroke-width:0.7;"/>
   </g>
   <g id="patch_6">
    <path d="M 298.596488 237.928274 
C 279.396849 237.928274 260.597456 243.45802 244.455606 253.853539 
C 228.313757 264.249057 215.502453 279.076929 207.559986 296.556727 
L 298.596488 337.921874 
L 298.596488 237.928274 
z
" style="fill:#0cc0aa;stroke:#ffffff;stroke-linejoin:miter;stroke-width:0.7;"/>
   </g>
   <g id="patch_7">
    <path d="M 207.559986 296.556727 
C 203.121938 306.323991 200.284562 316.742144 199.156852 327.410976 
C 198.029143 338.079808 198.625728 348.860935 200.923691 359.340205 
C 203.221654 369.819474 207.191187 379.860959 212.679803 389.07892 
C 218.168419 398.296881 225.104924 406.571753 233.222857 413.58566 
C 241.340789 420.599566 250.534851 426.26153 260.451857 430.35405 
C 270.368862 434.44657 280.880178 436.916561 291.582016 437.669141 
C 302.283854 438.42172 313.037401 437.447126 323.429565 434.782796 
C 333.821728 432.118467 343.717712 427.798962 352.737365 421.990212 
C 361.757018 416.181462 369.783347 408.958814 376.508024 400.599721 
C 383.232701 392.240628 388.568501 382.853517 392.310451 372.798989 
C 396.0524 362.744462 398.151963 352.152934 398.528485 341.431276 
C 398.905007 330.709619 397.553605 319.996901 394.526192 309.704647 
C 391.498779 299.412394 386.834623 289.674105 380.712897 280.863873 
C 374.59117 272.053642 367.091277 264.285745 358.501324 257.858583 
C 349.911371 251.431421 340.342776 246.42836 330.163115 243.041591 
C 319.983453 239.654822 309.324764 237.928275 298.596497 237.928274 
L 298.596488 337.921874 
L 207.559986 296.556727 
z
" style="fill:#943105;stroke:#ffffff;stroke-linejoin:miter;stroke-width:0.7;"/>
   </g>
   <g id="matplotlib.axis_1"/>
   <g id="matplotlib.axis_2"/>
   <g id="text_1">
    <text style="font-family:DejaVu Sans;font-size:7px;font-style:normal;font-weight:roman;text-anchor:end;" transform="rotate(-302.781956, 232.003494, 238.085703)" x="232.003494" y="238.085703">heterophilic cell-cell adhesion via plasma membrane cell adhesion molecules</text>
   </g>
   <g id="text_2">
    <text style="font-family:DejaVu Sans;font-size:7px;font-style:normal;font-weight:roman;text-anchor:end;" transform="rotate(-16.350811, 184.000904, 373.555286)" x="184.000904" y="373.555286">negative regulation of transcription, DNA-templated</text>
   </g>
   <g id="text_3">
    <text style="font-family:DejaVu Sans;font-size:7px;font-style:normal;font-weight:roman;text-anchor:start;" transform="rotate(-343.568857, 413.141998, 373.715921)" x="413.141998" y="373.715921">negative regulation of circadian rhythm</text>
   </g>
   <g id="text_4">
    <path d="M 248.83703 266.111377 
Q 248.362844 265.823528 247.97276 265.435984 
Q 247.583268 265.04936 247.252226 264.535328 
Q 246.663575 263.621289 246.790987 262.798998 
Q 246.918399 261.976708 247.720252 261.460306 
Q 248.239801 261.125711 248.800394 260.996251 
Q 249.362498 260.867119 249.947645 260.949511 
Q 250.662663 261.049738 251.236825 261.442323 
Q 251.810986 261.834909 252.256916 262.527335 
Q 252.505049 262.912629 252.675815 263.355554 
Q 252.8475 263.797887 252.933324 264.278604 
L 251.936987 264.680882 
Q 251.914579 264.199654 251.798657 263.799466 
Q 251.684246 263.399605 251.466315 263.061208 
Q 250.988406 262.319126 250.19403 262.172436 
Q 249.400573 262.025154 248.624468 262.524974 
Q 248.110436 262.856016 248.000073 263.310868 
Q 247.891223 263.766048 248.209236 264.25985 
Q 248.312872 264.420772 248.437657 264.568074 
Q 248.563362 264.714783 248.714752 264.848854 
L 249.653283 264.475998 
L 249.218605 263.801044 
L 250.051294 263.463828 
L 251.158123 265.182478 
z
M 253.911085 269.129945 
Q 254.416841 268.804233 254.533295 268.405301 
Q 254.651261 268.006697 254.371741 267.572666 
Q 254.001613 266.997943 253.234648 266.940278 
Q 252.468274 266.883532 251.693088 267.38276 
Q 251.198367 267.701365 251.071533 268.10438 
Q 250.944699 268.507395 251.205269 268.912 
Q 251.418462 269.24304 251.72254 269.410174 
Q 252.02813 269.577634 252.417902 269.582902 
Q 252.790718 269.586081 253.178485 269.469052 
Q 253.566252 269.352022 253.911085 269.129945 
z
M 255.277229 267.217187 
Q 255.828571 268.073294 255.68894 268.900851 
Q 255.549309 269.728409 254.781479 270.222899 
Q 254.259171 270.559271 253.690505 270.700435 
Q 253.122758 270.841007 252.555566 270.774372 
Q 251.858111 270.695358 251.303227 270.330686 
Q 250.749855 269.966342 250.320508 269.299664 
Q 249.770942 268.446316 249.910246 267.62027 
Q 250.04955 266.794224 250.819218 266.298549 
Q 251.345205 265.959808 251.912359 265.818317 
Q 252.480433 265.676233 253.051569 265.74293 
Q 253.742711 265.818204 254.294837 266.184652 
Q 254.847882 266.550508 255.277229 267.217187 
z
M 255.338073 275.121227 
L 256.539062 276.986087 
L 255.624908 277.352351 
L 253.618521 274.236895 
L 254.541482 273.870164 
L 257.09299 274.808034 
Q 257.515345 274.958839 257.851426 274.963559 
Q 258.188099 274.969199 258.409712 274.826478 
Q 258.645119 274.674874 258.670221 274.431043 
Q 258.696243 274.18662 258.509106 273.89604 
Q 258.333814 273.623852 258.009479 273.356582 
Q 257.685145 273.089312 257.188951 272.811733 
L 258.218672 272.408771 
Q 258.61381 272.707198 258.925907 273.038289 
Q 259.239517 273.369708 259.476398 273.73753 
Q 259.898047 274.392254 259.857035 274.950752 
Q 259.816616 275.510168 259.328331 275.824629 
Q 258.909014 276.094674 258.416129 276.086861 
Q 257.923244 276.079048 256.833194 275.675252 
z
" style="fill:#ffffff;stroke:#000000;"/>
    <path d="M 248.83703 266.111377 
Q 248.362844 265.823528 247.97276 265.435984 
Q 247.583268 265.04936 247.252226 264.535328 
Q 246.663575 263.621289 246.790987 262.798998 
Q 246.918399 261.976708 247.720252 261.460306 
Q 248.239801 261.125711 248.800394 260.996251 
Q 249.362498 260.867119 249.947645 260.949511 
Q 250.662663 261.049738 251.236825 261.442323 
Q 251.810986 261.834909 252.256916 262.527335 
Q 252.505049 262.912629 252.675815 263.355554 
Q 252.8475 263.797887 252.933324 264.278604 
L 251.936987 264.680882 
Q 251.914579 264.199654 251.798657 263.799466 
Q 251.684246 263.399605 251.466315 263.061208 
Q 250.988406 262.319126 250.19403 262.172436 
Q 249.400573 262.025154 248.624468 262.524974 
Q 248.110436 262.856016 248.000073 263.310868 
Q 247.891223 263.766048 248.209236 264.25985 
Q 248.312872 264.420772 248.437657 264.568074 
Q 248.563362 264.714783 248.714752 264.848854 
L 249.653283 264.475998 
L 249.218605 263.801044 
L 250.051294 263.463828 
L 251.158123 265.182478 
z
M 253.911085 269.129945 
Q 254.416841 268.804233 254.533295 268.405301 
Q 254.651261 268.006697 254.371741 267.572666 
Q 254.001613 266.997943 253.234648 266.940278 
Q 252.468274 266.883532 251.693088 267.38276 
Q 251.198367 267.701365 251.071533 268.10438 
Q 250.944699 268.507395 251.205269 268.912 
Q 251.418462 269.24304 251.72254 269.410174 
Q 252.02813 269.577634 252.417902 269.582902 
Q 252.790718 269.586081 253.178485 269.469052 
Q 253.566252 269.352022 253.911085 269.129945 
z
M 255.277229 267.217187 
Q 255.828571 268.073294 255.68894 268.900851 
Q 255.549309 269.728409 254.781479 270.222899 
Q 254.259171 270.559271 253.690505 270.700435 
Q 253.122758 270.841007 252.555566 270.774372 
Q 251.858111 270.695358 251.303227 270.330686 
Q 250.749855 269.966342 250.320508 269.299664 
Q 249.770942 268.446316 249.910246 267.62027 
Q 250.04955 266.794224 250.819218 266.298549 
Q 251.345205 265.959808 251.912359 265.818317 
Q 252.480433 265.676233 253.051569 265.74293 
Q 253.742711 265.818204 254.294837 266.184652 
Q 254.847882 266.550508 255.277229 267.217187 
z
M 255.338073 275.121227 
L 256.539062 276.986087 
L 255.624908 277.352351 
L 253.618521 274.236895 
L 254.541482 273.870164 
L 257.09299 274.808034 
Q 257.515345 274.958839 257.851426 274.963559 
Q 258.188099 274.969199 258.409712 274.826478 
Q 258.645119 274.674874 258.670221 274.431043 
Q 258.696243 274.18662 258.509106 273.89604 
Q 258.333814 273.623852 258.009479 273.356582 
Q 257.685145 273.089312 257.188951 272.811733 
L 258.218672 272.408771 
Q 258.61381 272.707198 258.925907 273.038289 
Q 259.239517 273.369708 259.476398 273.73753 
Q 259.898047 274.392254 259.857035 274.950752 
Q 259.816616 275.510168 259.328331 275.824629 
Q 258.909014 276.094674 258.416129 276.086861 
Q 257.923244 276.079048 256.833194 275.675252 
z
" style="fill:#ffffff;"/>
    <path d="M 250.83703 268.111377 
Q 250.362844 267.823528 249.97276 267.435984 
Q 249.583268 267.04936 249.252226 266.535328 
Q 248.663575 265.621289 248.790987 264.798998 
Q 248.918399 263.976708 249.720252 263.460306 
Q 250.239801 263.125711 250.800394 262.996251 
Q 251.362498 262.867119 251.947645 262.949511 
Q 252.662663 263.049738 253.236825 263.442323 
Q 253.810986 263.834909 254.256916 264.527335 
Q 254.505049 264.912629 254.675815 265.355554 
Q 254.8475 265.797887 254.933324 266.278604 
L 253.936987 266.680882 
Q 253.914579 266.199654 253.798657 265.799466 
Q 253.684246 265.399605 253.466315 265.061208 
Q 252.988406 264.319126 252.19403 264.172436 
Q 251.400573 264.025154 250.624468 264.524974 
Q 250.110436 264.856016 250.000073 265.310868 
Q 249.891223 265.766048 250.209236 266.25985 
Q 250.312872 266.420772 250.437657 266.568074 
Q 250.563362 266.714783 250.714752 266.848854 
L 251.653283 266.475998 
L 251.218605 265.801044 
L 252.051294 265.463828 
L 253.158123 267.182478 
z
M 255.911085 271.129945 
Q 256.416841 270.804233 256.533295 270.405301 
Q 256.651261 270.006697 256.371741 269.572666 
Q 256.001613 268.997943 255.234648 268.940278 
Q 254.468274 268.883532 253.693088 269.38276 
Q 253.198367 269.701365 253.071533 270.10438 
Q 252.944699 270.507395 253.205269 270.912 
Q 253.418462 271.24304 253.72254 271.410174 
Q 254.02813 271.577634 254.417902 271.582902 
Q 254.790718 271.586081 255.178485 271.469052 
Q 255.566252 271.352022 255.911085 271.129945 
z
M 257.277229 269.217187 
Q 257.828571 270.073294 257.68894 270.900851 
Q 257.549309 271.728409 256.781479 272.222899 
Q 256.259171 272.559271 255.690505 272.700435 
Q 255.122758 272.841007 254.555566 272.774372 
Q 253.858111 272.695358 253.303227 272.330686 
Q 252.749855 271.966342 252.320508 271.299664 
Q 251.770942 270.446316 251.910246 269.62027 
Q 252.04955 268.794224 252.819218 268.298549 
Q 253.345205 267.959808 253.912359 267.818317 
Q 254.480433 267.676233 255.051569 267.74293 
Q 255.742711 267.818204 256.294837 268.184652 
Q 256.847882 268.550508 257.277229 269.217187 
z
M 257.338073 277.121227 
L 258.539062 278.986087 
L 257.624908 279.352351 
L 255.618521 276.236895 
L 256.541482 275.870164 
L 259.09299 276.808034 
Q 259.515345 276.958839 259.851426 276.963559 
Q 260.188099 276.969199 260.409712 276.826478 
Q 260.645119 276.674874 260.670221 276.431043 
Q 260.696243 276.18662 260.509106 275.89604 
Q 260.333814 275.623852 260.009479 275.356582 
Q 259.685145 275.089312 259.188951 274.811733 
L 260.218672 274.408771 
Q 260.61381 274.707198 260.925907 275.038289 
Q 261.239517 275.369708 261.476398 275.73753 
Q 261.898047 276.392254 261.857035 276.950752 
Q 261.816616 277.510168 261.328331 277.824629 
Q 260.909014 278.094674 260.416129 278.086861 
Q 259.923244 278.079048 258.833194 277.675252 
z
" style="fill:#4c4c4c;opacity:0.3;"/>
    <path d="M 248.83703 266.111377 
Q 248.362844 265.823528 247.97276 265.435984 
Q 247.583268 265.04936 247.252226 264.535328 
Q 246.663575 263.621289 246.790987 262.798998 
Q 246.918399 261.976708 247.720252 261.460306 
Q 248.239801 261.125711 248.800394 260.996251 
Q 249.362498 260.867119 249.947645 260.949511 
Q 250.662663 261.049738 251.236825 261.442323 
Q 251.810986 261.834909 252.256916 262.527335 
Q 252.505049 262.912629 252.675815 263.355554 
Q 252.8475 263.797887 252.933324 264.278604 
L 251.936987 264.680882 
Q 251.914579 264.199654 251.798657 263.799466 
Q 251.684246 263.399605 251.466315 263.061208 
Q 250.988406 262.319126 250.19403 262.172436 
Q 249.400573 262.025154 248.624468 262.524974 
Q 248.110436 262.856016 248.000073 263.310868 
Q 247.891223 263.766048 248.209236 264.25985 
Q 248.312872 264.420772 248.437657 264.568074 
Q 248.563362 264.714783 248.714752 264.848854 
L 249.653283 264.475998 
L 249.218605 263.801044 
L 250.051294 263.463828 
L 251.158123 265.182478 
z
M 253.911085 269.129945 
Q 254.416841 268.804233 254.533295 268.405301 
Q 254.651261 268.006697 254.371741 267.572666 
Q 254.001613 266.997943 253.234648 266.940278 
Q 252.468274 266.883532 251.693088 267.38276 
Q 251.198367 267.701365 251.071533 268.10438 
Q 250.944699 268.507395 251.205269 268.912 
Q 251.418462 269.24304 251.72254 269.410174 
Q 252.02813 269.577634 252.417902 269.582902 
Q 252.790718 269.586081 253.178485 269.469052 
Q 253.566252 269.352022 253.911085 269.129945 
z
M 255.277229 267.217187 
Q 255.828571 268.073294 255.68894 268.900851 
Q 255.549309 269.728409 254.781479 270.222899 
Q 254.259171 270.559271 253.690505 270.700435 
Q 253.122758 270.841007 252.555566 270.774372 
Q 251.858111 270.695358 251.303227 270.330686 
Q 250.749855 269.966342 250.320508 269.299664 
Q 249.770942 268.446316 249.910246 267.62027 
Q 250.04955 266.794224 250.819218 266.298549 
Q 251.345205 265.959808 251.912359 265.818317 
Q 252.480433 265.676233 253.051569 265.74293 
Q 253.742711 265.818204 254.294837 266.184652 
Q 254.847882 266.550508 255.277229 267.217187 
z
M 255.338073 275.121227 
L 256.539062 276.986087 
L 255.624908 277.352351 
L 253.618521 274.236895 
L 254.541482 273.870164 
L 257.09299 274.808034 
Q 257.515345 274.958839 257.851426 274.963559 
Q 258.188099 274.969199 258.409712 274.826478 
Q 258.645119 274.674874 258.670221 274.431043 
Q 258.696243 274.18662 258.509106 273.89604 
Q 258.333814 273.623852 258.009479 273.356582 
Q 257.685145 273.089312 257.188951 272.811733 
L 258.218672 272.408771 
Q 258.61381 272.707198 258.925907 273.038289 
Q 259.239517 273.369708 259.476398 273.73753 
Q 259.898047 274.392254 259.857035 274.950752 
Q 259.816616 275.510168 259.328331 275.824629 
Q 258.909014 276.094674 258.416129 276.086861 
Q 257.923244 276.079048 256.833194 275.675252 
z
" style="fill:#ffffff;"/>
   </g>
   <g id="text_5">
    <path d="M 340.619533 403.452449 
Q 340.145347 403.1646 339.755263 402.777056 
Q 339.365771 402.390431 339.034729 401.876399 
Q 338.446078 400.96236 338.57349 400.14007 
Q 338.700902 399.31778 339.502756 398.801378 
Q 340.022305 398.466783 340.582897 398.337323 
Q 341.145002 398.208191 341.730148 398.290583 
Q 342.445166 398.390809 343.019328 398.783395 
Q 343.59349 399.175981 344.039419 399.868407 
Q 344.287553 400.253701 344.458318 400.696626 
Q 344.630003 401.138959 344.715828 401.619676 
L 343.71949 402.021954 
Q 343.697083 401.540726 343.58116 401.140538 
Q 343.466749 400.740677 343.248818 400.40228 
Q 342.77091 399.660198 341.976533 399.513508 
Q 341.183076 399.366226 340.406971 399.866046 
Q 339.892939 400.197088 339.782577 400.65194 
Q 339.673726 401.10712 339.991739 401.600922 
Q 340.095375 401.761844 340.220161 401.909146 
Q 340.345866 402.055855 340.497256 402.189926 
L 341.435786 401.81707 
L 341.001108 401.142116 
L 341.833797 400.8049 
L 342.940626 402.52355 
z
M 345.693588 406.471017 
Q 346.199344 406.145305 346.315798 405.746373 
Q 346.433764 405.347769 346.154244 404.913738 
Q 345.784116 404.339015 345.017151 404.28135 
Q 344.250778 404.224604 343.475592 404.723832 
Q 342.98087 405.042437 342.854036 405.445452 
Q 342.727203 405.848467 342.987772 406.253072 
Q 343.200966 406.584112 343.505043 406.751245 
Q 343.810633 406.918706 344.200405 406.923974 
Q 344.573221 406.927153 344.960988 406.810124 
Q 345.348755 406.693094 345.693588 406.471017 
z
M 347.059732 404.558259 
Q 347.611074 405.414366 347.471443 406.241923 
Q 347.331812 407.069481 346.563982 407.563971 
Q 346.041674 407.900343 345.473008 408.041507 
Q 344.905261 408.182079 344.338069 408.115444 
Q 343.640614 408.03643 343.08573 407.671758 
Q 342.532358 407.307414 342.103011 406.640736 
Q 341.553445 405.787387 341.692749 404.961341 
Q 341.832053 404.135295 342.601722 403.639621 
Q 343.127708 403.30088 343.694862 403.159389 
Q 344.262936 403.017305 344.834072 403.084002 
Q 345.525215 403.159276 346.07734 403.525724 
Q 346.630385 403.89158 347.059732 404.558259 
z
M 346.396727 411.445392 
L 347.025647 412.421961 
L 350.145468 411.173815 
L 349.266417 410.263364 
L 350.114286 409.925478 
L 350.989192 410.829492 
L 351.666081 411.880545 
L 347.701352 413.471174 
L 348.326719 414.442226 
L 347.468407 414.788138 
L 345.53427 411.784867 
z
" style="fill:#ffffff;stroke:#000000;"/>
    <path d="M 340.619533 403.452449 
Q 340.145347 403.1646 339.755263 402.777056 
Q 339.365771 402.390431 339.034729 401.876399 
Q 338.446078 400.96236 338.57349 400.14007 
Q 338.700902 399.31778 339.502756 398.801378 
Q 340.022305 398.466783 340.582897 398.337323 
Q 341.145002 398.208191 341.730148 398.290583 
Q 342.445166 398.390809 343.019328 398.783395 
Q 343.59349 399.175981 344.039419 399.868407 
Q 344.287553 400.253701 344.458318 400.696626 
Q 344.630003 401.138959 344.715828 401.619676 
L 343.71949 402.021954 
Q 343.697083 401.540726 343.58116 401.140538 
Q 343.466749 400.740677 343.248818 400.40228 
Q 342.77091 399.660198 341.976533 399.513508 
Q 341.183076 399.366226 340.406971 399.866046 
Q 339.892939 400.197088 339.782577 400.65194 
Q 339.673726 401.10712 339.991739 401.600922 
Q 340.095375 401.761844 340.220161 401.909146 
Q 340.345866 402.055855 340.497256 402.189926 
L 341.435786 401.81707 
L 341.001108 401.142116 
L 341.833797 400.8049 
L 342.940626 402.52355 
z
M 345.693588 406.471017 
Q 346.199344 406.145305 346.315798 405.746373 
Q 346.433764 405.347769 346.154244 404.913738 
Q 345.784116 404.339015 345.017151 404.28135 
Q 344.250778 404.224604 343.475592 404.723832 
Q 342.98087 405.042437 342.854036 405.445452 
Q 342.727203 405.848467 342.987772 406.253072 
Q 343.200966 406.584112 343.505043 406.751245 
Q 343.810633 406.918706 344.200405 406.923974 
Q 344.573221 406.927153 344.960988 406.810124 
Q 345.348755 406.693094 345.693588 406.471017 
z
M 347.059732 404.558259 
Q 347.611074 405.414366 347.471443 406.241923 
Q 347.331812 407.069481 346.563982 407.563971 
Q 346.041674 407.900343 345.473008 408.041507 
Q 344.905261 408.182079 344.338069 408.115444 
Q 343.640614 408.03643 343.08573 407.671758 
Q 342.532358 407.307414 342.103011 406.640736 
Q 341.553445 405.787387 341.692749 404.961341 
Q 341.832053 404.135295 342.601722 403.639621 
Q 343.127708 403.30088 343.694862 403.159389 
Q 344.262936 403.017305 344.834072 403.084002 
Q 345.525215 403.159276 346.07734 403.525724 
Q 346.630385 403.89158 347.059732 404.558259 
z
M 346.396727 411.445392 
L 347.025647 412.421961 
L 350.145468 411.173815 
L 349.266417 410.263364 
L 350.114286 409.925478 
L 350.989192 410.829492 
L 351.666081 411.880545 
L 347.701352 413.471174 
L 348.326719 414.442226 
L 347.468407 414.788138 
L 345.53427 411.784867 
z
" style="fill:#ffffff;"/>
    <path d="M 342.619533 405.452449 
Q 342.145347 405.1646 341.755263 404.777056 
Q 341.365771 404.390431 341.034729 403.876399 
Q 340.446078 402.96236 340.57349 402.14007 
Q 340.700902 401.31778 341.502756 400.801378 
Q 342.022305 400.466783 342.582897 400.337323 
Q 343.145002 400.208191 343.730148 400.290583 
Q 344.445166 400.390809 345.019328 400.783395 
Q 345.59349 401.175981 346.039419 401.868407 
Q 346.287553 402.253701 346.458318 402.696626 
Q 346.630003 403.138959 346.715828 403.619676 
L 345.71949 404.021954 
Q 345.697083 403.540726 345.58116 403.140538 
Q 345.466749 402.740677 345.248818 402.40228 
Q 344.77091 401.660198 343.976533 401.513508 
Q 343.183076 401.366226 342.406971 401.866046 
Q 341.892939 402.197088 341.782577 402.65194 
Q 341.673726 403.10712 341.991739 403.600922 
Q 342.095375 403.761844 342.220161 403.909146 
Q 342.345866 404.055855 342.497256 404.189926 
L 343.435786 403.81707 
L 343.001108 403.142116 
L 343.833797 402.8049 
L 344.940626 404.52355 
z
M 347.693588 408.471017 
Q 348.199344 408.145305 348.315798 407.746373 
Q 348.433764 407.347769 348.154244 406.913738 
Q 347.784116 406.339015 347.017151 406.28135 
Q 346.250778 406.224604 345.475592 406.723832 
Q 344.98087 407.042437 344.854036 407.445452 
Q 344.727203 407.848467 344.987772 408.253072 
Q 345.200966 408.584112 345.505043 408.751245 
Q 345.810633 408.918706 346.200405 408.923974 
Q 346.573221 408.927153 346.960988 408.810124 
Q 347.348755 408.693094 347.693588 408.471017 
z
M 349.059732 406.558259 
Q 349.611074 407.414366 349.471443 408.241923 
Q 349.331812 409.069481 348.563982 409.563971 
Q 348.041674 409.900343 347.473008 410.041507 
Q 346.905261 410.182079 346.338069 410.115444 
Q 345.640614 410.03643 345.08573 409.671758 
Q 344.532358 409.307414 344.103011 408.640736 
Q 343.553445 407.787387 343.692749 406.961341 
Q 343.832053 406.135295 344.601722 405.639621 
Q 345.127708 405.30088 345.694862 405.159389 
Q 346.262936 405.017305 346.834072 405.084002 
Q 347.525215 405.159276 348.07734 405.525724 
Q 348.630385 405.89158 349.059732 406.558259 
z
M 348.396727 413.445392 
L 349.025647 414.421961 
L 352.145468 413.173815 
L 351.266417 412.263364 
L 352.114286 411.925478 
L 352.989192 412.829492 
L 353.666081 413.880545 
L 349.701352 415.471174 
L 350.326719 416.442226 
L 349.468407 416.788138 
L 347.53427 413.784867 
z
" style="fill:#4c4c4c;opacity:0.3;"/>
    <path d="M 340.619533 403.452449 
Q 340.145347 403.1646 339.755263 402.777056 
Q 339.365771 402.390431 339.034729 401.876399 
Q 338.446078 400.96236 338.57349 400.14007 
Q 338.700902 399.31778 339.502756 398.801378 
Q 340.022305 398.466783 340.582897 398.337323 
Q 341.145002 398.208191 341.730148 398.290583 
Q 342.445166 398.390809 343.019328 398.783395 
Q 343.59349 399.175981 344.039419 399.868407 
Q 344.287553 400.253701 344.458318 400.696626 
Q 344.630003 401.138959 344.715828 401.619676 
L 343.71949 402.021954 
Q 343.697083 401.540726 343.58116 401.140538 
Q 343.466749 400.740677 343.248818 400.40228 
Q 342.77091 399.660198 341.976533 399.513508 
Q 341.183076 399.366226 340.406971 399.866046 
Q 339.892939 400.197088 339.782577 400.65194 
Q 339.673726 401.10712 339.991739 401.600922 
Q 340.095375 401.761844 340.220161 401.909146 
Q 340.345866 402.055855 340.497256 402.189926 
L 341.435786 401.81707 
L 341.001108 401.142116 
L 341.833797 400.8049 
L 342.940626 402.52355 
z
M 345.693588 406.471017 
Q 346.199344 406.145305 346.315798 405.746373 
Q 346.433764 405.347769 346.154244 404.913738 
Q 345.784116 404.339015 345.017151 404.28135 
Q 344.250778 404.224604 343.475592 404.723832 
Q 342.98087 405.042437 342.854036 405.445452 
Q 342.727203 405.848467 342.987772 406.253072 
Q 343.200966 406.584112 343.505043 406.751245 
Q 343.810633 406.918706 344.200405 406.923974 
Q 344.573221 406.927153 344.960988 406.810124 
Q 345.348755 406.693094 345.693588 406.471017 
z
M 347.059732 404.558259 
Q 347.611074 405.414366 347.471443 406.241923 
Q 347.331812 407.069481 346.563982 407.563971 
Q 346.041674 407.900343 345.473008 408.041507 
Q 344.905261 408.182079 344.338069 408.115444 
Q 343.640614 408.03643 343.08573 407.671758 
Q 342.532358 407.307414 342.103011 406.640736 
Q 341.553445 405.787387 341.692749 404.961341 
Q 341.832053 404.135295 342.601722 403.639621 
Q 343.127708 403.30088 343.694862 403.159389 
Q 344.262936 403.017305 344.834072 403.084002 
Q 345.525215 403.159276 346.07734 403.525724 
Q 346.630385 403.89158 347.059732 404.558259 
z
M 346.396727 411.445392 
L 347.025647 412.421961 
L 350.145468 411.173815 
L 349.266417 410.263364 
L 350.114286 409.925478 
L 350.989192 410.829492 
L 351.666081 411.880545 
L 347.701352 413.471174 
L 348.326719 414.442226 
L 347.468407 414.788138 
L 345.53427 411.784867 
z
" style="fill:#ffffff;"/>
   </g>
   <g id="text_6">
    <text style="font-family:DejaVu Sans;font-size:12px;font-style:normal;font-weight:normal;text-anchor:middle;" transform="rotate(-0, 298.596488, 65.809874)" x="298.596488" y="65.809874">CirGO Visualisation Plot</text>
   </g>
   <g id="legend_1">
    <g id="text_7">
     <text style="font-family:DejaVu Sans;font-size:7px;font-style:normal;font-weight:normal;text-anchor:start;" transform="rotate(-0, 709.246409, 88.61278)" x="709.246409" y="88.61278">Name and Proportion of the Biological Process (Inner Ring)</text>
    </g>
    <g id="patch_8">
     <path d="M 644.736488 98.887468 
L 658.736488 98.887468 
L 658.736488 93.987468 
L 644.736488 93.987468 
z
" style="fill:#943105;stroke:#ffffff;stroke-linejoin:miter;stroke-width:0.7;"/>
    </g>
    <g id="text_8">
     <text style="font-family:DejaVu Sans;font-size:7px;font-style:normal;font-weight:normal;text-anchor:start;" transform="rotate(-0, 664.336488, 98.887468)" x="664.336488" y="98.887468">GO1 negative regulation of circadian rhythm, 81.8%</text>
    </g>
    <g id="patch_9">
     <path d="M 644.736488 109.162155 
L 658.736488 109.162155 
L 658.736488 104.262155 
L 644.736488 104.262155 
z
" style="fill:#0cc0aa;stroke:#ffffff;stroke-linejoin:miter;stroke-width:0.7;"/>
    </g>
    <g id="text_9">
     <text style="font-family:DejaVu Sans;font-size:7px;font-style:normal;font-weight:normal;text-anchor:start;" transform="rotate(-0, 664.336488, 109.162155)" x="664.336488" y="109.162155">GO2 heterophilic cell-cell adhesion via plasma membrane cell adhesion molecules, 18.2%</text>
    </g>
   </g>
  </g>
 </g>
</svg>
