<?xml version="1.0" encoding="utf-8" standalone="no"?>
<!DOCTYPE svg PUBLIC "-//W3C//DTD SVG 1.1//EN"
  "http://www.w3.org/Graphics/SVG/1.1/DTD/svg11.dtd">
<!-- Created with matplotlib (http://matplotlib.org/) -->
<svg height="614pt" version="1.1" viewBox="0 0 867 614" width="867pt" xmlns="http://www.w3.org/2000/svg" xmlns:xlink="http://www.w3.org/1999/xlink">
 <defs>
  <style type="text/css">
*{stroke-linecap:butt;stroke-linejoin:round;}
  </style>
 </defs>
 <g id="figure_1">
  <g id="patch_1">
   <path d="M 0 614.627812 
L 867.945386 614.627812 
L 867.945386 0 
L 0 0 
z
" style="fill:#ffffff;"/>
  </g>
  <g id="axes_1">
   <g id="patch_2">
    <path d="M 269.085854 190.811711 
C 267.261298 190.811711 265.437004 190.855407 263.614541 190.942761 
C 261.792077 191.030116 259.971967 191.161103 258.155775 191.335612 
L 269.085854 305.090111 
L 269.085854 190.811711 
z
" style="fill:#0cc0aa;stroke:#ffffff;stroke-linejoin:miter;stroke-width:0.7;"/>
   </g>
   <g id="patch_3">
    <path d="M 258.155775 191.335612 
C 258.155775 191.335612 258.155775 191.335612 258.155775 191.335612 
L 269.085854 305.090111 
L 258.155775 191.335612 
z
" style="fill:none;stroke:#ffffff;stroke-linejoin:miter;stroke-width:0.7;"/>
   </g>
   <g id="patch_4">
    <path d="M 258.155775 191.335612 
C 258.155775 191.335612 258.155775 191.335612 258.155775 191.335612 
L 269.085854 305.090111 
L 258.155775 191.335612 
z
" style="fill:none;stroke:#ffffff;stroke-linejoin:miter;stroke-width:0.7;"/>
   </g>
   <g id="patch_5">
    <path d="M 258.155775 191.335612 
C 258.155775 191.335612 258.155775 191.335612 258.155775 191.335612 
L 269.085854 305.090111 
L 258.155775 191.335612 
z
" style="fill:none;stroke:#ffffff;stroke-linejoin:miter;stroke-width:0.7;"/>
   </g>
   <g id="patch_6">
    <path d="M 258.155775 191.335612 
C 258.155775 191.335612 258.155775 191.335612 258.155775 191.335612 
L 269.085854 305.090111 
L 258.155775 191.335612 
z
" style="fill:none;stroke:#ffffff;stroke-linejoin:miter;stroke-width:0.7;"/>
   </g>
   <g id="patch_7">
    <path d="M 258.155775 191.335612 
C 258.155775 191.335612 258.155775 191.335612 258.155775 191.335612 
L 269.085854 305.090111 
L 258.155775 191.335612 
z
" style="fill:none;stroke:#ffffff;stroke-linejoin:miter;stroke-width:0.7;"/>
   </g>
   <g id="patch_8">
    <path d="M 258.155775 191.335612 
C 258.155775 191.335612 258.155775 191.335612 258.155775 191.335612 
L 269.085854 305.090111 
L 258.155775 191.335612 
z
" style="fill:none;stroke:#ffffff;stroke-linejoin:miter;stroke-width:0.7;"/>
   </g>
   <g id="patch_9">
    <path d="M 258.155775 191.335612 
C 258.155775 191.335612 258.155775 191.335612 258.155775 191.335612 
L 269.085854 305.090111 
L 258.155775 191.335612 
z
" style="fill:none;stroke:#ffffff;stroke-linejoin:miter;stroke-width:0.7;"/>
   </g>
   <g id="patch_10">
    <path d="M 258.155775 191.335612 
C 258.155775 191.335612 258.155775 191.335612 258.155775 191.335612 
L 269.085854 305.090111 
L 258.155775 191.335612 
z
" style="fill:none;stroke:#ffffff;stroke-linejoin:miter;stroke-width:0.7;"/>
   </g>
   <g id="patch_11">
    <path d="M 258.155775 191.335612 
C 258.155775 191.335612 258.155775 191.335612 258.155775 191.335612 
L 269.085854 305.090111 
L 258.155775 191.335612 
z
" style="fill:none;stroke:#ffffff;stroke-linejoin:miter;stroke-width:0.7;"/>
   </g>
   <g id="patch_12">
    <path d="M 258.155775 191.335612 
C 258.155775 191.335612 258.155775 191.335612 258.155775 191.335612 
L 269.085854 305.090111 
L 258.155775 191.335612 
z
" style="fill:none;stroke:#ffffff;stroke-linejoin:miter;stroke-width:0.7;"/>
   </g>
   <g id="patch_13">
    <path d="M 258.155775 191.335612 
C 258.155775 191.335612 258.155775 191.335612 258.155775 191.335612 
L 269.085854 305.090111 
L 258.155775 191.335612 
z
" style="fill:none;stroke:#ffffff;stroke-linejoin:miter;stroke-width:0.7;"/>
   </g>
   <g id="patch_14">
    <path d="M 258.155775 191.335612 
C 258.155775 191.335612 258.155775 191.335612 258.155775 191.335612 
L 269.085854 305.090111 
L 258.155775 191.335612 
z
" style="fill:none;stroke:#ffffff;stroke-linejoin:miter;stroke-width:0.7;"/>
   </g>
   <g id="patch_15">
    <path d="M 258.155775 191.335612 
C 258.155775 191.335612 258.155775 191.335612 258.155775 191.335612 
L 269.085854 305.090111 
L 258.155775 191.335612 
z
" style="fill:none;stroke:#ffffff;stroke-linejoin:miter;stroke-width:0.7;"/>
   </g>
   <g id="patch_16">
    <path d="M 258.155775 191.335612 
C 258.155775 191.335612 258.155775 191.335612 258.155775 191.335612 
L 269.085854 305.090111 
L 258.155775 191.335612 
z
" style="fill:none;stroke:#ffffff;stroke-linejoin:miter;stroke-width:0.7;"/>
   </g>
   <g id="patch_17">
    <path d="M 258.155775 191.335612 
C 258.155775 191.335612 258.155775 191.335612 258.155775 191.335612 
L 269.085854 305.090111 
L 258.155775 191.335612 
z
" style="fill:none;stroke:#ffffff;stroke-linejoin:miter;stroke-width:0.7;"/>
   </g>
   <g id="patch_18">
    <path d="M 258.155775 191.335612 
C 258.155775 191.335612 258.155775 191.335612 258.155775 191.335612 
L 269.085854 305.090111 
L 258.155775 191.335612 
z
" style="fill:none;stroke:#ffffff;stroke-linejoin:miter;stroke-width:0.7;"/>
   </g>
   <g id="patch_19">
    <path d="M 258.155775 191.335612 
C 258.155775 191.335612 258.155775 191.335612 258.155775 191.335612 
L 269.085854 305.090111 
L 258.155775 191.335612 
z
" style="fill:none;stroke:#ffffff;stroke-linejoin:miter;stroke-width:0.7;"/>
   </g>
   <g id="patch_20">
    <path d="M 258.155775 191.335612 
C 258.155775 191.335612 258.155775 191.335612 258.155775 191.335612 
L 269.085854 305.090111 
L 258.155775 191.335612 
z
" style="fill:none;stroke:#ffffff;stroke-linejoin:miter;stroke-width:0.7;"/>
   </g>
   <g id="patch_21">
    <path d="M 258.155775 191.335612 
C 258.155775 191.335612 258.155775 191.335612 258.155775 191.335612 
L 269.085854 305.090111 
L 258.155775 191.335612 
z
" style="fill:none;stroke:#ffffff;stroke-linejoin:miter;stroke-width:0.7;"/>
   </g>
   <g id="patch_22">
    <path d="M 258.155775 191.335612 
C 258.155775 191.335612 258.155775 191.335612 258.155775 191.335612 
L 269.085854 305.090111 
L 258.155775 191.335612 
z
" style="fill:none;stroke:#ffffff;stroke-linejoin:miter;stroke-width:0.7;"/>
   </g>
   <g id="patch_23">
    <path d="M 258.155775 191.335612 
C 258.155775 191.335612 258.155775 191.335612 258.155775 191.335612 
L 269.085854 305.090111 
L 258.155775 191.335612 
z
" style="fill:none;stroke:#ffffff;stroke-linejoin:miter;stroke-width:0.7;"/>
   </g>
   <g id="patch_24">
    <path d="M 258.155775 191.335612 
C 258.155775 191.335612 258.155775 191.335612 258.155775 191.335612 
L 269.085854 305.090111 
L 258.155775 191.335612 
z
" style="fill:none;stroke:#ffffff;stroke-linejoin:miter;stroke-width:0.7;"/>
   </g>
   <g id="patch_25">
    <path d="M 258.155775 191.335612 
C 258.155775 191.335612 258.155775 191.335612 258.155775 191.335612 
L 269.085854 305.090111 
L 258.155775 191.335612 
z
" style="fill:none;stroke:#ffffff;stroke-linejoin:miter;stroke-width:0.7;"/>
   </g>
   <g id="patch_26">
    <path d="M 258.155775 191.335612 
C 258.155775 191.335612 258.155775 191.335612 258.155775 191.335612 
L 269.085854 305.090111 
L 258.155775 191.335612 
z
" style="fill:none;stroke:#ffffff;stroke-linejoin:miter;stroke-width:0.7;"/>
   </g>
   <g id="patch_27">
    <path d="M 258.155775 191.335612 
C 258.155775 191.335612 258.155775 191.335612 258.155775 191.335612 
L 269.085854 305.090111 
L 258.155775 191.335612 
z
" style="fill:none;stroke:#ffffff;stroke-linejoin:miter;stroke-width:0.7;"/>
   </g>
   <g id="patch_28">
    <path d="M 258.155775 191.335612 
C 258.155775 191.335612 258.155775 191.335612 258.155775 191.335612 
L 269.085854 305.090111 
L 258.155775 191.335612 
z
" style="fill:none;stroke:#ffffff;stroke-linejoin:miter;stroke-width:0.7;"/>
   </g>
   <g id="patch_29">
    <path d="M 258.155775 191.335612 
C 258.155775 191.335612 258.155775 191.335612 258.155775 191.335612 
L 269.085854 305.090111 
L 258.155775 191.335612 
z
" style="fill:none;stroke:#ffffff;stroke-linejoin:miter;stroke-width:0.7;"/>
   </g>
   <g id="patch_30">
    <path d="M 258.155775 191.335612 
C 258.155775 191.335612 258.155775 191.335612 258.155775 191.335612 
L 269.085854 305.090111 
L 258.155775 191.335612 
z
" style="fill:none;stroke:#ffffff;stroke-linejoin:miter;stroke-width:0.7;"/>
   </g>
   <g id="patch_31">
    <path d="M 258.155775 191.335612 
C 258.155775 191.335612 258.155775 191.335612 258.155775 191.335612 
L 269.085854 305.090111 
L 258.155775 191.335612 
z
" style="fill:none;stroke:#ffffff;stroke-linejoin:miter;stroke-width:0.7;"/>
   </g>
   <g id="patch_32">
    <path d="M 258.155775 191.335612 
C 258.155775 191.335612 258.155775 191.335612 258.155775 191.335612 
L 269.085854 305.090111 
L 258.155775 191.335612 
z
" style="fill:none;stroke:#ffffff;stroke-linejoin:miter;stroke-width:0.7;"/>
   </g>
   <g id="patch_33">
    <path d="M 258.155775 191.335612 
C 258.155775 191.335612 258.155775 191.335612 258.155775 191.335612 
L 269.085854 305.090111 
L 258.155775 191.335612 
z
" style="fill:none;stroke:#ffffff;stroke-linejoin:miter;stroke-width:0.7;"/>
   </g>
   <g id="patch_34">
    <path d="M 258.155775 191.335612 
C 256.073914 191.535647 253.997937 191.792796 251.93019 192.106768 
C 249.862442 192.420739 247.803703 192.791416 245.756299 193.218378 
L 269.085854 305.090111 
L 258.155775 191.335612 
z
" style="fill:#ae603d;stroke:#ffffff;stroke-linejoin:miter;stroke-width:0.7;"/>
   </g>
   <g id="patch_35">
    <path d="M 245.756299 193.218378 
C 243.227182 193.745796 240.716677 194.358828 238.229113 195.056415 
C 235.741548 195.754003 233.278355 196.535745 230.843779 197.400295 
L 269.085854 305.090111 
L 245.756299 193.218378 
z
" style="fill:#943105;stroke:#ffffff;stroke-linejoin:miter;stroke-width:0.7;"/>
   </g>
   <g id="patch_36">
    <path d="M 230.843779 197.400295 
C 230.843779 197.400295 230.843779 197.400295 230.843779 197.400295 
L 269.085854 305.090111 
L 230.843779 197.400295 
z
" style="fill:none;stroke:#ffffff;stroke-linejoin:miter;stroke-width:0.7;"/>
   </g>
   <g id="patch_37">
    <path d="M 230.843779 197.400295 
C 230.843779 197.400295 230.843779 197.400295 230.843779 197.400295 
L 269.085854 305.090111 
L 230.843779 197.400295 
z
" style="fill:none;stroke:#ffffff;stroke-linejoin:miter;stroke-width:0.7;"/>
   </g>
   <g id="patch_38">
    <path d="M 230.843779 197.400295 
C 230.843779 197.400295 230.843779 197.400295 230.843779 197.400295 
L 269.085854 305.090111 
L 230.843779 197.400295 
z
" style="fill:none;stroke:#ffffff;stroke-linejoin:miter;stroke-width:0.7;"/>
   </g>
   <g id="patch_39">
    <path d="M 230.843779 197.400295 
C 230.843779 197.400295 230.843779 197.400295 230.843779 197.400295 
L 269.085854 305.090111 
L 230.843779 197.400295 
z
" style="fill:none;stroke:#ffffff;stroke-linejoin:miter;stroke-width:0.7;"/>
   </g>
   <g id="patch_40">
    <path d="M 230.843779 197.400295 
C 230.843779 197.400295 230.843779 197.400295 230.843779 197.400295 
L 269.085854 305.090111 
L 230.843779 197.400295 
z
" style="fill:none;stroke:#ffffff;stroke-linejoin:miter;stroke-width:0.7;"/>
   </g>
   <g id="patch_41">
    <path d="M 230.843779 197.400295 
C 230.843779 197.400295 230.843779 197.400295 230.843779 197.400295 
L 269.085854 305.090111 
L 230.843779 197.400295 
z
" style="fill:none;stroke:#ffffff;stroke-linejoin:miter;stroke-width:0.7;"/>
   </g>
   <g id="patch_42">
    <path d="M 230.843779 197.400295 
C 230.843779 197.400295 230.843779 197.400295 230.843779 197.400295 
L 269.085854 305.090111 
L 230.843779 197.400295 
z
" style="fill:none;stroke:#ffffff;stroke-linejoin:miter;stroke-width:0.7;"/>
   </g>
   <g id="patch_43">
    <path d="M 230.843779 197.400295 
C 230.843779 197.400295 230.843779 197.400295 230.843779 197.400295 
L 269.085854 305.090111 
L 230.843779 197.400295 
z
" style="fill:none;stroke:#ffffff;stroke-linejoin:miter;stroke-width:0.7;"/>
   </g>
   <g id="patch_44">
    <path d="M 230.843779 197.400295 
C 230.843779 197.400295 230.843779 197.400295 230.843779 197.400295 
L 269.085854 305.090111 
L 230.843779 197.400295 
z
" style="fill:none;stroke:#ffffff;stroke-linejoin:miter;stroke-width:0.7;"/>
   </g>
   <g id="patch_45">
    <path d="M 230.843779 197.400295 
C 230.843779 197.400295 230.843779 197.400295 230.843779 197.400295 
L 269.085854 305.090111 
L 230.843779 197.400295 
z
" style="fill:none;stroke:#ffffff;stroke-linejoin:miter;stroke-width:0.7;"/>
   </g>
   <g id="patch_46">
    <path d="M 230.843779 197.400295 
C 230.843779 197.400295 230.843779 197.400295 230.843779 197.400295 
L 269.085854 305.090111 
L 230.843779 197.400295 
z
" style="fill:none;stroke:#ffffff;stroke-linejoin:miter;stroke-width:0.7;"/>
   </g>
   <g id="patch_47">
    <path d="M 230.843779 197.400295 
C 230.843779 197.400295 230.843779 197.400295 230.843779 197.400295 
L 269.085854 305.090111 
L 230.843779 197.400295 
z
" style="fill:none;stroke:#ffffff;stroke-linejoin:miter;stroke-width:0.7;"/>
   </g>
   <g id="patch_48">
    <path d="M 230.843779 197.400295 
C 230.843779 197.400295 230.843779 197.400295 230.843779 197.400295 
L 269.085854 305.090111 
L 230.843779 197.400295 
z
" style="fill:none;stroke:#ffffff;stroke-linejoin:miter;stroke-width:0.7;"/>
   </g>
   <g id="patch_49">
    <path d="M 230.843779 197.400295 
C 230.843779 197.400295 230.843779 197.400295 230.843779 197.400295 
L 269.085854 305.090111 
L 230.843779 197.400295 
z
" style="fill:none;stroke:#ffffff;stroke-linejoin:miter;stroke-width:0.7;"/>
   </g>
   <g id="patch_50">
    <path d="M 230.843779 197.400295 
C 230.843779 197.400295 230.843779 197.400295 230.843779 197.400295 
L 269.085854 305.090111 
L 230.843779 197.400295 
z
" style="fill:none;stroke:#ffffff;stroke-linejoin:miter;stroke-width:0.7;"/>
   </g>
   <g id="patch_51">
    <path d="M 230.843779 197.400295 
C 230.843779 197.400295 230.843779 197.400295 230.843779 197.400295 
L 269.085854 305.090111 
L 230.843779 197.400295 
z
" style="fill:none;stroke:#ffffff;stroke-linejoin:miter;stroke-width:0.7;"/>
   </g>
   <g id="patch_52">
    <path d="M 230.843779 197.400295 
C 230.843779 197.400295 230.843779 197.400295 230.843779 197.400295 
L 269.085854 305.090111 
L 230.843779 197.400295 
z
" style="fill:none;stroke:#ffffff;stroke-linejoin:miter;stroke-width:0.7;"/>
   </g>
   <g id="patch_53">
    <path d="M 230.843779 197.400295 
C 230.843779 197.400295 230.843779 197.400295 230.843779 197.400295 
L 269.085854 305.090111 
L 230.843779 197.400295 
z
" style="fill:none;stroke:#ffffff;stroke-linejoin:miter;stroke-width:0.7;"/>
   </g>
   <g id="patch_54">
    <path d="M 230.843779 197.400295 
C 230.843779 197.400295 230.843779 197.400295 230.843779 197.400295 
L 269.085854 305.090111 
L 230.843779 197.400295 
z
" style="fill:none;stroke:#ffffff;stroke-linejoin:miter;stroke-width:0.7;"/>
   </g>
   <g id="patch_55">
    <path d="M 230.843779 197.400295 
C 230.843779 197.400295 230.843779 197.400295 230.843779 197.400295 
L 269.085854 305.090111 
L 230.843779 197.400295 
z
" style="fill:none;stroke:#ffffff;stroke-linejoin:miter;stroke-width:0.7;"/>
   </g>
   <g id="patch_56">
    <path d="M 230.843779 197.400295 
C 230.843779 197.400295 230.843779 197.400295 230.843779 197.400295 
L 269.085854 305.090111 
L 230.843779 197.400295 
z
" style="fill:none;stroke:#ffffff;stroke-linejoin:miter;stroke-width:0.7;"/>
   </g>
   <g id="patch_57">
    <path d="M 230.843779 197.400295 
C 230.843779 197.400295 230.843779 197.400295 230.843779 197.400295 
L 269.085854 305.090111 
L 230.843779 197.400295 
z
" style="fill:none;stroke:#ffffff;stroke-linejoin:miter;stroke-width:0.7;"/>
   </g>
   <g id="patch_58">
    <path d="M 230.843779 197.400295 
C 230.843779 197.400295 230.843779 197.400295 230.843779 197.400295 
L 269.085854 305.090111 
L 230.843779 197.400295 
z
" style="fill:none;stroke:#ffffff;stroke-linejoin:miter;stroke-width:0.7;"/>
   </g>
   <g id="patch_59">
    <path d="M 230.843779 197.400295 
C 230.843779 197.400295 230.843779 197.400295 230.843779 197.400295 
L 269.085854 305.090111 
L 230.843779 197.400295 
z
" style="fill:none;stroke:#ffffff;stroke-linejoin:miter;stroke-width:0.7;"/>
   </g>
   <g id="patch_60">
    <path d="M 230.843779 197.400295 
C 230.843779 197.400295 230.843779 197.400295 230.843779 197.400295 
L 269.085854 305.090111 
L 230.843779 197.400295 
z
" style="fill:none;stroke:#ffffff;stroke-linejoin:miter;stroke-width:0.7;"/>
   </g>
   <g id="patch_61">
    <path d="M 230.843779 197.400295 
C 230.843779 197.400295 230.843779 197.400295 230.843779 197.400295 
L 269.085854 305.090111 
L 230.843779 197.400295 
z
" style="fill:none;stroke:#ffffff;stroke-linejoin:miter;stroke-width:0.7;"/>
   </g>
   <g id="patch_62">
    <path d="M 230.843779 197.400295 
C 230.843779 197.400295 230.843779 197.400295 230.843779 197.400295 
L 269.085854 305.090111 
L 230.843779 197.400295 
z
" style="fill:none;stroke:#ffffff;stroke-linejoin:miter;stroke-width:0.7;"/>
   </g>
   <g id="patch_63">
    <path d="M 230.843779 197.400295 
C 230.843779 197.400295 230.843779 197.400295 230.843779 197.400295 
L 269.085854 305.090111 
L 230.843779 197.400295 
z
" style="fill:none;stroke:#ffffff;stroke-linejoin:miter;stroke-width:0.7;"/>
   </g>
   <g id="patch_64">
    <path d="M 230.843779 197.400295 
C 230.843779 197.400295 230.843779 197.400295 230.843779 197.400295 
L 269.085854 305.090111 
L 230.843779 197.400295 
z
" style="fill:none;stroke:#ffffff;stroke-linejoin:miter;stroke-width:0.7;"/>
   </g>
   <g id="patch_65">
    <path d="M 230.843779 197.400295 
C 230.843779 197.400295 230.843779 197.400295 230.843779 197.400295 
L 269.085854 305.090111 
L 230.843779 197.400295 
z
" style="fill:none;stroke:#ffffff;stroke-linejoin:miter;stroke-width:0.7;"/>
   </g>
   <g id="patch_66">
    <path d="M 230.843779 197.400295 
C 229.569118 197.852944 228.302593 198.328189 227.044805 198.825804 
C 225.787016 199.32342 224.538162 199.843327 223.298832 200.385282 
L 269.085854 305.090111 
L 230.843779 197.400295 
z
" style="fill:#e0ecc4;stroke:#ffffff;stroke-linejoin:miter;stroke-width:0.7;"/>
   </g>
   <g id="patch_67">
    <path d="M 223.298832 200.385282 
C 221.684167 201.091368 220.086051 201.834711 218.505767 202.614712 
C 216.925482 203.394713 215.363452 204.211164 213.820929 205.063411 
L 269.085854 305.090111 
L 223.298832 200.385282 
z
" style="fill:#d5e5b0;stroke:#ffffff;stroke-linejoin:miter;stroke-width:0.7;"/>
   </g>
   <g id="patch_68">
    <path d="M 213.820929 205.063411 
C 212.226594 205.944283 210.653548 206.863149 209.103138 207.819219 
C 207.552728 208.775289 206.025398 209.768291 204.522457 210.797373 
L 269.085854 305.090111 
L 213.820929 205.063411 
z
" style="fill:#cbdf9c;stroke:#ffffff;stroke-linejoin:miter;stroke-width:0.7;"/>
   </g>
   <g id="patch_69">
    <path d="M 204.522457 210.797373 
C 202.781024 211.989753 201.072958 213.230147 199.400223 214.517126 
C 197.727489 215.804106 196.090728 217.137177 194.491824 218.514807 
L 269.085854 305.090111 
L 204.522457 210.797373 
z
" style="fill:#c0d888;stroke:#ffffff;stroke-linejoin:miter;stroke-width:0.7;"/>
   </g>
   <g id="patch_70">
    <path d="M 194.491824 218.514807 
C 192.8698 219.912356 191.287372 221.355214 189.746414 222.841671 
C 188.205456 224.328128 186.706576 225.857597 185.25155 227.428267 
L 269.085854 305.090111 
L 194.491824 218.514807 
z
" style="fill:#b6d274;stroke:#ffffff;stroke-linejoin:miter;stroke-width:0.7;"/>
   </g>
   <g id="patch_71">
    <path d="M 185.25155 227.428267 
C 183.430479 229.394073 181.679116 231.423324 180.000708 233.512256 
C 178.322299 235.601187 176.717884 237.748508 175.190438 239.950234 
L 269.085854 305.090111 
L 185.25155 227.428267 
z
" style="fill:#abcb60;stroke:#ffffff;stroke-linejoin:miter;stroke-width:0.7;"/>
   </g>
   <g id="patch_72">
    <path d="M 175.190438 239.950234 
C 173.109759 242.949415 171.173973 246.046564 169.389738 249.231029 
C 167.605503 252.415494 165.974868 255.683618 164.503443 259.024159 
L 269.085854 305.090111 
L 175.190438 239.950234 
z
" style="fill:#a1c54d;stroke:#ffffff;stroke-linejoin:miter;stroke-width:0.7;"/>
   </g>
   <g id="patch_73">
    <path d="M 164.503443 259.024159 
C 164.503443 259.024159 164.503443 259.024159 164.503443 259.024159 
L 269.085854 305.090111 
L 164.503443 259.024159 
z
" style="fill:none;stroke:#ffffff;stroke-linejoin:miter;stroke-width:0.7;"/>
   </g>
   <g id="patch_74">
    <path d="M 164.503443 259.024159 
C 164.503443 259.024159 164.503443 259.024159 164.503443 259.024159 
L 269.085854 305.090111 
L 164.503443 259.024159 
z
" style="fill:none;stroke:#ffffff;stroke-linejoin:miter;stroke-width:0.7;"/>
   </g>
   <g id="patch_75">
    <path d="M 164.503443 259.024159 
C 164.503443 259.024159 164.503443 259.024159 164.503443 259.024159 
L 269.085854 305.090111 
L 164.503443 259.024159 
z
" style="fill:none;stroke:#ffffff;stroke-linejoin:miter;stroke-width:0.7;"/>
   </g>
   <g id="patch_76">
    <path d="M 164.503443 259.024159 
C 164.503443 259.024159 164.503443 259.024159 164.503443 259.024159 
L 269.085854 305.090111 
L 164.503443 259.024159 
z
" style="fill:none;stroke:#ffffff;stroke-linejoin:miter;stroke-width:0.7;"/>
   </g>
   <g id="patch_77">
    <path d="M 164.503443 259.024159 
C 164.503443 259.024159 164.503443 259.024159 164.503443 259.024159 
L 269.085854 305.090111 
L 164.503443 259.024159 
z
" style="fill:none;stroke:#ffffff;stroke-linejoin:miter;stroke-width:0.7;"/>
   </g>
   <g id="patch_78">
    <path d="M 164.503443 259.024159 
C 164.503443 259.024159 164.503443 259.024159 164.503443 259.024159 
L 269.085854 305.090111 
L 164.503443 259.024159 
z
" style="fill:none;stroke:#ffffff;stroke-linejoin:miter;stroke-width:0.7;"/>
   </g>
   <g id="patch_79">
    <path d="M 164.503443 259.024159 
C 164.503443 259.024159 164.503443 259.024159 164.503443 259.024159 
L 269.085854 305.090111 
L 164.503443 259.024159 
z
" style="fill:none;stroke:#ffffff;stroke-linejoin:miter;stroke-width:0.7;"/>
   </g>
   <g id="patch_80">
    <path d="M 164.503443 259.024159 
C 164.503443 259.024159 164.503443 259.024159 164.503443 259.024159 
L 269.085854 305.090111 
L 164.503443 259.024159 
z
" style="fill:none;stroke:#ffffff;stroke-linejoin:miter;stroke-width:0.7;"/>
   </g>
   <g id="patch_81">
    <path d="M 164.503443 259.024159 
C 164.503443 259.024159 164.503443 259.024159 164.503443 259.024159 
L 269.085854 305.090111 
L 164.503443 259.024159 
z
" style="fill:none;stroke:#ffffff;stroke-linejoin:miter;stroke-width:0.7;"/>
   </g>
   <g id="patch_82">
    <path d="M 164.503443 259.024159 
C 164.503443 259.024159 164.503443 259.024159 164.503443 259.024159 
L 269.085854 305.090111 
L 164.503443 259.024159 
z
" style="fill:none;stroke:#ffffff;stroke-linejoin:miter;stroke-width:0.7;"/>
   </g>
   <g id="patch_83">
    <path d="M 164.503443 259.024159 
C 164.503443 259.024159 164.503443 259.024159 164.503443 259.024159 
L 269.085854 305.090111 
L 164.503443 259.024159 
z
" style="fill:none;stroke:#ffffff;stroke-linejoin:miter;stroke-width:0.7;"/>
   </g>
   <g id="patch_84">
    <path d="M 164.503443 259.024159 
C 164.503443 259.024159 164.503443 259.024159 164.503443 259.024159 
L 269.085854 305.090111 
L 164.503443 259.024159 
z
" style="fill:none;stroke:#ffffff;stroke-linejoin:miter;stroke-width:0.7;"/>
   </g>
   <g id="patch_85">
    <path d="M 164.503443 259.024159 
C 164.503443 259.024159 164.503443 259.024159 164.503443 259.024159 
L 269.085854 305.090111 
L 164.503443 259.024159 
z
" style="fill:none;stroke:#ffffff;stroke-linejoin:miter;stroke-width:0.7;"/>
   </g>
   <g id="patch_86">
    <path d="M 164.503443 259.024159 
C 164.503443 259.024159 164.503443 259.024159 164.503443 259.024159 
L 269.085854 305.090111 
L 164.503443 259.024159 
z
" style="fill:none;stroke:#ffffff;stroke-linejoin:miter;stroke-width:0.7;"/>
   </g>
   <g id="patch_87">
    <path d="M 164.503443 259.024159 
C 164.503443 259.024159 164.503443 259.024159 164.503443 259.024159 
L 269.085854 305.090111 
L 164.503443 259.024159 
z
" style="fill:none;stroke:#ffffff;stroke-linejoin:miter;stroke-width:0.7;"/>
   </g>
   <g id="patch_88">
    <path d="M 164.503443 259.024159 
C 164.503443 259.024159 164.503443 259.024159 164.503443 259.024159 
L 269.085854 305.090111 
L 164.503443 259.024159 
z
" style="fill:none;stroke:#ffffff;stroke-linejoin:miter;stroke-width:0.7;"/>
   </g>
   <g id="patch_89">
    <path d="M 164.503443 259.024159 
C 164.503443 259.024159 164.503443 259.024159 164.503443 259.024159 
L 269.085854 305.090111 
L 164.503443 259.024159 
z
" style="fill:none;stroke:#ffffff;stroke-linejoin:miter;stroke-width:0.7;"/>
   </g>
   <g id="patch_90">
    <path d="M 164.503443 259.024159 
C 164.503443 259.024159 164.503443 259.024159 164.503443 259.024159 
L 269.085854 305.090111 
L 164.503443 259.024159 
z
" style="fill:none;stroke:#ffffff;stroke-linejoin:miter;stroke-width:0.7;"/>
   </g>
   <g id="patch_91">
    <path d="M 164.503443 259.024159 
C 164.503443 259.024159 164.503443 259.024159 164.503443 259.024159 
L 269.085854 305.090111 
L 164.503443 259.024159 
z
" style="fill:none;stroke:#ffffff;stroke-linejoin:miter;stroke-width:0.7;"/>
   </g>
   <g id="patch_92">
    <path d="M 164.503443 259.024159 
C 164.503443 259.024159 164.503443 259.024159 164.503443 259.024159 
L 269.085854 305.090111 
L 164.503443 259.024159 
z
" style="fill:none;stroke:#ffffff;stroke-linejoin:miter;stroke-width:0.7;"/>
   </g>
   <g id="patch_93">
    <path d="M 164.503443 259.024159 
C 164.503443 259.024159 164.503443 259.024159 164.503443 259.024159 
L 269.085854 305.090111 
L 164.503443 259.024159 
z
" style="fill:none;stroke:#ffffff;stroke-linejoin:miter;stroke-width:0.7;"/>
   </g>
   <g id="patch_94">
    <path d="M 164.503443 259.024159 
C 164.503443 259.024159 164.503443 259.024159 164.503443 259.024159 
L 269.085854 305.090111 
L 164.503443 259.024159 
z
" style="fill:none;stroke:#ffffff;stroke-linejoin:miter;stroke-width:0.7;"/>
   </g>
   <g id="patch_95">
    <path d="M 164.503443 259.024159 
C 164.503443 259.024159 164.503443 259.024159 164.503443 259.024159 
L 269.085854 305.090111 
L 164.503443 259.024159 
z
" style="fill:none;stroke:#ffffff;stroke-linejoin:miter;stroke-width:0.7;"/>
   </g>
   <g id="patch_96">
    <path d="M 164.503443 259.024159 
C 164.503443 259.024159 164.503443 259.024159 164.503443 259.024159 
L 269.085854 305.090111 
L 164.503443 259.024159 
z
" style="fill:none;stroke:#ffffff;stroke-linejoin:miter;stroke-width:0.7;"/>
   </g>
   <g id="patch_97">
    <path d="M 164.503443 259.024159 
C 164.503443 259.024159 164.503443 259.024159 164.503443 259.024159 
L 269.085854 305.090111 
L 164.503443 259.024159 
z
" style="fill:none;stroke:#ffffff;stroke-linejoin:miter;stroke-width:0.7;"/>
   </g>
   <g id="patch_98">
    <path d="M 164.503443 259.024159 
C 153.170857 284.752253 151.72137 313.778773 160.434419 340.507879 
C 169.147468 367.236984 187.424689 389.83307 211.742532 403.939977 
L 269.085854 305.090111 
L 164.503443 259.024159 
z
" style="fill:#e0eaf0;stroke:#ffffff;stroke-linejoin:miter;stroke-width:0.7;"/>
   </g>
   <g id="patch_99">
    <path d="M 211.742532 403.939977 
C 213.191692 404.780643 214.659164 405.589339 216.143883 406.36548 
C 217.628602 407.141621 219.130209 407.885018 220.647615 408.595133 
L 269.085854 305.090111 
L 211.742532 403.939977 
z
" style="fill:#d9e4eb;stroke:#ffffff;stroke-linejoin:miter;stroke-width:0.7;"/>
   </g>
   <g id="patch_100">
    <path d="M 220.647615 408.595133 
C 222.27576 409.357072 223.921658 410.080489 225.583932 410.764779 
C 227.246207 411.449069 228.924396 412.094042 230.617098 412.69916 
L 269.085854 305.090111 
L 220.647615 408.595133 
z
" style="fill:#d3dfe7;stroke:#ffffff;stroke-linejoin:miter;stroke-width:0.7;"/>
   </g>
   <g id="patch_101">
    <path d="M 230.617098 412.69916 
C 232.32191 413.308607 234.040964 413.877455 235.772804 414.405221 
C 237.504644 414.932988 239.248781 415.419525 241.003739 415.86442 
L 269.085854 305.090111 
L 230.617098 412.69916 
z
" style="fill:#cedae3;stroke:#ffffff;stroke-linejoin:miter;stroke-width:0.7;"/>
   </g>
   <g id="patch_102">
    <path d="M 241.003739 415.86442 
C 242.881668 416.340489 244.7714 416.768727 246.671102 417.148719 
C 248.570804 417.52871 250.479861 417.860333 252.396423 418.143265 
L 269.085854 305.090111 
L 241.003739 415.86442 
z
" style="fill:#c7d5de;stroke:#ffffff;stroke-linejoin:miter;stroke-width:0.7;"/>
   </g>
   <g id="patch_103">
    <path d="M 252.396423 418.143265 
C 254.322779 418.427642 256.256089 418.662738 258.194458 418.84832 
C 260.132828 419.033903 262.075624 419.169912 264.020944 419.256215 
L 269.085854 305.090111 
L 252.396423 418.143265 
z
" style="fill:#c1d0d9;stroke:#ffffff;stroke-linejoin:miter;stroke-width:0.7;"/>
   </g>
   <g id="patch_104">
    <path d="M 264.020944 419.256215 
C 265.99257 419.343685 267.966131 419.380066 269.939642 419.365321 
C 271.913152 419.350577 273.885949 419.284711 275.856048 419.167791 
L 269.085854 305.090111 
L 264.020944 419.256215 
z
" style="fill:#bacad5;stroke:#ffffff;stroke-linejoin:miter;stroke-width:0.7;"/>
   </g>
   <g id="patch_105">
    <path d="M 275.856048 419.167791 
C 277.843162 419.049862 279.826855 418.880032 281.805097 418.658476 
C 283.783339 418.43692 285.755454 418.163714 287.719424 417.839137 
L 269.085854 305.090111 
L 275.856048 419.167791 
z
" style="fill:#b5c6d1;stroke:#ffffff;stroke-linejoin:miter;stroke-width:0.7;"/>
   </g>
   <g id="patch_106">
    <path d="M 287.719424 417.839137 
C 289.695477 417.512562 291.662604 417.134096 293.618765 416.704129 
C 295.574926 416.274162 297.519446 415.792844 299.450309 415.260672 
L 269.085854 305.090111 
L 287.719424 417.839137 
z
" style="fill:#afc0cc;stroke:#ffffff;stroke-linejoin:miter;stroke-width:0.7;"/>
   </g>
   <g id="patch_107">
    <path d="M 299.450309 415.260672 
C 301.382943 414.728013 303.301226 414.144592 305.203167 413.511015 
C 307.105108 412.877438 308.990049 412.193924 310.856031 411.461183 
L 269.085854 305.090111 
L 299.450309 415.260672 
z
" style="fill:#a8bbc7;stroke:#ffffff;stroke-linejoin:miter;stroke-width:0.7;"/>
   </g>
   <g id="patch_108">
    <path d="M 310.856031 411.461183 
C 312.736454 410.722772 314.596966 409.934628 316.435605 409.097581 
C 318.274244 408.260534 320.090364 407.37488 321.88205 406.441551 
L 269.085854 305.090111 
L 310.856031 411.461183 
z
" style="fill:#a2b6c3;stroke:#ffffff;stroke-linejoin:miter;stroke-width:0.7;"/>
   </g>
   <g id="patch_109">
    <path d="M 321.88205 406.441551 
C 323.680344 405.50478 325.453387 404.520314 327.199297 403.489199 
C 328.945207 402.458083 330.663365 401.380683 332.351945 400.258144 
L 269.085854 305.090111 
L 321.88205 406.441551 
z
" style="fill:#9cb1bf;stroke:#ffffff;stroke-linejoin:miter;stroke-width:0.7;"/>
   </g>
   <g id="patch_110">
    <path d="M 332.351945 400.258144 
C 334.048006 399.130631 335.713622 397.957981 337.347008 396.741448 
C 338.980395 395.524915 340.580969 394.264935 342.147014 392.962858 
L 269.085854 305.090111 
L 332.351945 400.258144 
z
" style="fill:#96acba;stroke:#ffffff;stroke-linejoin:miter;stroke-width:0.7;"/>
   </g>
   <g id="patch_111">
    <path d="M 342.147014 392.962858 
C 343.761168 391.620781 345.338037 390.234483 346.875824 388.805541 
C 348.413612 387.3766 349.911734 385.905558 351.368487 384.39409 
L 269.085854 305.090111 
L 342.147014 392.962858 
z
" style="fill:#90a6b6;stroke:#ffffff;stroke-linejoin:miter;stroke-width:0.7;"/>
   </g>
   <g id="patch_112">
    <path d="M 351.368487 384.39409 
C 352.841884 382.865352 354.272392 381.295849 355.658343 379.687409 
C 357.044294 378.07897 358.385151 376.432218 359.679353 374.749071 
L 269.085854 305.090111 
L 351.368487 384.39409 
z
" style="fill:#89a1b1;stroke:#ffffff;stroke-linejoin:miter;stroke-width:0.7;"/>
   </g>
   <g id="patch_113">
    <path d="M 359.679353 374.749071 
C 360.974114 373.065196 362.221676 371.34555 363.420585 369.592137 
C 364.619493 367.838723 365.769283 366.052224 366.868612 364.234722 
L 269.085854 305.090111 
L 359.679353 374.749071 
z
" style="fill:#849cad;stroke:#ffffff;stroke-linejoin:miter;stroke-width:0.7;"/>
   </g>
   <g id="patch_114">
    <path d="M 366.868612 364.234722 
C 367.997418 362.368487 369.072565 360.470319 370.092732 358.542551 
C 371.1129 356.614783 372.077669 354.658204 372.985856 352.675218 
L 269.085854 305.090111 
L 366.868612 364.234722 
z
" style="fill:#7d97a8;stroke:#ffffff;stroke-linejoin:miter;stroke-width:0.7;"/>
   </g>
   <g id="patch_115">
    <path d="M 372.985856 352.675218 
C 373.911339 350.654465 374.777674 348.607142 375.583753 346.535861 
C 376.389833 344.464581 377.135314 342.370226 377.819246 340.255467 
L 269.085854 305.090111 
L 372.985856 352.675218 
z
" style="fill:#7792a4;stroke:#ffffff;stroke-linejoin:miter;stroke-width:0.7;"/>
   </g>
   <g id="patch_116">
    <path d="M 377.819246 340.255467 
C 378.503555 338.139544 379.125955 336.004096 379.685651 333.851852 
C 380.245347 331.699609 380.7421 329.531486 381.175277 327.350255 
L 269.085854 305.090111 
L 377.819246 340.255467 
z
" style="fill:#718d9f;stroke:#ffffff;stroke-linejoin:miter;stroke-width:0.7;"/>
   </g>
   <g id="patch_117">
    <path d="M 381.175277 327.350255 
C 381.610164 325.160414 381.980784 322.958299 382.28666 320.746746 
C 382.592537 318.535192 382.833539 316.31515 383.009356 314.089477 
L 269.085854 305.090111 
L 381.175277 327.350255 
z
" style="fill:#6b889b;stroke:#ffffff;stroke-linejoin:miter;stroke-width:0.7;"/>
   </g>
   <g id="patch_118">
    <path d="M 383.009356 314.089477 
C 383.18772 311.83155 383.298918 309.568819 383.342802 307.304283 
C 383.386686 305.039747 383.363237 302.774407 383.272486 300.511265 
L 269.085854 305.090111 
L 383.009356 314.089477 
z
" style="fill:#658396;stroke:#ffffff;stroke-linejoin:miter;stroke-width:0.7;"/>
   </g>
   <g id="patch_119">
    <path d="M 383.272486 300.511265 
C 383.18052 298.217832 383.01948 295.927691 382.789585 293.643958 
C 382.559689 291.360225 382.261043 289.083936 381.894053 286.818189 
L 269.085854 305.090111 
L 383.272486 300.511265 
z
" style="fill:#5e7d92;stroke:#ffffff;stroke-linejoin:miter;stroke-width:0.7;"/>
   </g>
   <g id="patch_120">
    <path d="M 381.894053 286.818189 
C 381.526752 284.550528 381.091158 282.294458 380.587866 280.053054 
C 380.084573 277.81165 379.51381 275.585931 378.876354 273.378932 
L 269.085854 305.090111 
L 381.894053 286.818189 
z
" style="fill:#58788d;stroke:#ffffff;stroke-linejoin:miter;stroke-width:0.7;"/>
   </g>
   <g id="patch_121">
    <path d="M 378.876354 273.378932 
C 378.221027 271.110056 377.495525 268.862039 376.700896 266.63812 
C 375.906266 264.414201 375.04289 262.215449 374.11201 260.045031 
L 269.085854 305.090111 
L 378.876354 273.378932 
z
" style="fill:#527389;stroke:#ffffff;stroke-linejoin:miter;stroke-width:0.7;"/>
   </g>
   <g id="patch_122">
    <path d="M 374.11201 260.045031 
C 373.174251 257.858572 372.168444 255.701929 371.096058 253.578257 
C 370.023672 251.454585 368.885231 249.364918 367.682399 247.312312 
L 269.085854 305.090111 
L 374.11201 260.045031 
z
" style="fill:#4c6e84;stroke:#ffffff;stroke-linejoin:miter;stroke-width:0.7;"/>
   </g>
   <g id="patch_123">
    <path d="M 367.682399 247.312312 
C 366.460783 245.227651 365.173359 243.182258 363.822069 241.179217 
C 362.470779 239.176176 361.056302 237.216495 359.580771 235.30313 
L 269.085854 305.090111 
L 367.682399 247.312312 
z
" style="fill:#466980;stroke:#ffffff;stroke-linejoin:miter;stroke-width:0.7;"/>
   </g>
   <g id="patch_124">
    <path d="M 359.580771 235.30313 
C 358.061732 233.333346 356.478785 231.413683 354.834458 229.547211 
C 353.190131 227.680739 351.485302 225.868452 349.722696 224.113247 
L 269.085854 305.090111 
L 359.580771 235.30313 
z
" style="fill:#3f637b;stroke:#ffffff;stroke-linejoin:miter;stroke-width:0.7;"/>
   </g>
   <g id="patch_125">
    <path d="M 349.722696 224.113247 
C 347.870329 222.268658 345.955214 220.488172 343.980732 218.774932 
C 342.00625 217.061693 339.973562 215.416707 337.886258 213.84288 
L 269.085854 305.090111 
L 349.722696 224.113247 
z
" style="fill:#3a5f77;stroke:#ffffff;stroke-linejoin:miter;stroke-width:0.7;"/>
   </g>
   <g id="patch_126">
    <path d="M 337.886258 213.84288 
C 335.75486 212.235806 333.567808 210.703905 331.329128 209.249996 
C 329.090447 207.796087 326.801512 206.421062 324.466534 205.127453 
L 269.085854 305.090111 
L 337.886258 213.84288 
z
" style="fill:#335972;stroke:#ffffff;stroke-linejoin:miter;stroke-width:0.7;"/>
   </g>
   <g id="patch_127">
    <path d="M 324.466534 205.127453 
C 321.821442 203.662036 319.119228 202.302182 316.366272 201.051105 
C 313.613316 199.800027 310.811788 198.65871 307.968303 197.629849 
L 269.085854 305.090111 
L 324.466534 205.127453 
z
" style="fill:#2d546e;stroke:#ffffff;stroke-linejoin:miter;stroke-width:0.7;"/>
   </g>
   <g id="patch_128">
    <path d="M 307.968303 197.629849 
C 305.059445 196.577334 302.10905 195.643364 299.124409 194.830245 
C 296.139768 194.017127 293.123342 193.325532 290.082585 192.757168 
L 269.085854 305.090111 
L 307.968303 197.629849 
z
" style="fill:#274f69;stroke:#ffffff;stroke-linejoin:miter;stroke-width:0.7;"/>
   </g>
   <g id="patch_129">
    <path d="M 290.082585 192.757168 
C 286.622442 192.110415 283.134263 191.623879 279.629209 191.299117 
C 276.124154 190.974354 272.605965 190.811712 269.085897 190.811711 
L 269.085854 305.090111 
L 290.082585 192.757168 
z
" style="fill:#214a65;stroke:#ffffff;stroke-linejoin:miter;stroke-width:0.7;"/>
   </g>
   <g id="patch_130">
    <path d="M 269.085854 205.096511 
C 267.489368 205.096511 265.89311 205.134745 264.298454 205.21118 
C 262.703798 205.287615 261.111201 205.402229 259.522033 205.554924 
L 269.085854 305.090111 
L 269.085854 205.096511 
z
" style="fill:#0cc0aa;stroke:#ffffff;stroke-linejoin:miter;stroke-width:0.7;"/>
   </g>
   <g id="patch_131">
    <path d="M 259.522033 205.554924 
C 255.449236 205.946258 251.404295 206.587201 247.410028 207.474136 
C 243.415762 208.361071 239.479696 209.492327 235.624035 210.861524 
L 269.085854 305.090111 
L 259.522033 205.554924 
z
" style="fill:#943105;stroke:#ffffff;stroke-linejoin:miter;stroke-width:0.7;"/>
   </g>
   <g id="patch_132">
    <path d="M 235.624035 210.861524 
C 222.785792 215.420554 211.013675 222.555589 201.031976 231.82764 
C 191.050277 241.099691 183.067992 252.314618 177.57624 264.782413 
L 269.085854 305.090111 
L 235.624035 210.861524 
z
" style="fill:#a1c54d;stroke:#ffffff;stroke-linejoin:miter;stroke-width:0.7;"/>
   </g>
   <g id="patch_133">
    <path d="M 177.57624 264.782413 
C 173.261437 274.578209 170.5474 285.003591 169.537924 295.659862 
C 168.528448 306.316133 169.236565 317.065698 171.635197 327.497463 
C 174.033829 337.929228 178.092002 347.908496 183.654523 357.053633 
C 189.217043 366.198769 196.212085 374.391691 204.372139 381.319076 
C 212.532194 388.246462 221.751896 393.818864 231.678659 397.823178 
C 241.605422 401.827493 252.111069 404.212015 262.793836 404.885554 
C 273.476602 405.559094 284.19855 404.512953 294.549642 401.787141 
C 304.900733 399.061328 314.747314 394.691039 323.712822 388.843406 
C 332.678331 382.995773 340.647003 375.746301 347.314094 367.372231 
C 353.981186 358.998161 359.26061 349.607621 362.950467 339.55973 
C 366.640323 329.511839 368.692969 318.936338 369.029904 308.237663 
C 369.366838 297.538989 367.983712 286.855285 364.93342 276.595125 
C 361.883128 266.334966 357.205055 256.630832 351.078105 247.853838 
C 344.951154 239.076843 337.454438 231.340318 328.874652 224.940128 
C 320.294866 218.539939 310.742794 213.558725 300.583733 210.186983 
C 290.424673 206.815241 279.7898 205.096507 269.085821 205.096511 
L 269.085854 305.090111 
L 177.57624 264.782413 
z
" style="fill:#214a65;stroke:#ffffff;stroke-linejoin:miter;stroke-width:0.7;"/>
   </g>
   <g id="matplotlib.axis_1"/>
   <g id="matplotlib.axis_2"/>
   <g id="text_1">
    <text style="font-family:DejaVu Sans;font-size:7px;font-style:normal;font-weight:roman;text-anchor:end;" transform="rotate(-272.744203, 261.411627, 185.327871)" x="261.411627" y="185.327871">catabolic process</text>
   </g>
   <g id="text_2">
    <text style="font-family:DejaVu Sans;font-size:7px;font-style:normal;font-weight:roman;text-anchor:end;" transform="rotate(-278.633978, 249.162733, 186.74757)" x="249.162733" y="186.74757">protein catabolic process</text>
   </g>
   <g id="text_3">
    <text style="font-family:DejaVu Sans;font-size:7px;font-style:normal;font-weight:roman;text-anchor:end;" transform="rotate(-285.665086, 234.826458, 190.076279)" x="234.826458" y="190.076279">macromolecule catabolic process</text>
   </g>
   <g id="text_4">
    <text style="font-family:DejaVu Sans;font-size:7px;font-style:normal;font-weight:roman;text-anchor:end;" transform="rotate(-291.585099, 223.146646, 194.223177)" x="223.146646" y="194.223177">additional categories</text>
   </g>
   <g id="text_5">
    <text style="font-family:DejaVu Sans;font-size:7px;font-style:normal;font-weight:roman;text-anchor:end;" transform="rotate(-296.270151, 214.244697, 198.345859)" x="214.244697" y="198.345859">protein K63-linked ubiquitination</text>
   </g>
   <g id="text_6">
    <text style="font-family:DejaVu Sans;font-size:7px;font-style:normal;font-weight:roman;text-anchor:end;" transform="rotate(-301.660324, 204.459905, 203.969517)" x="204.459905" y="203.969517">protein monoubiquitination</text>
   </g>
   <g id="text_7">
    <text style="font-family:DejaVu Sans;font-size:7px;font-style:normal;font-weight:roman;text-anchor:end;" transform="rotate(-307.574197, 194.385054, 211.166321)" x="194.385054" y="211.166321">histone ubiquitination</text>
   </g>
   <g id="text_8">
    <text style="font-family:DejaVu Sans;font-size:7px;font-style:normal;font-weight:roman;text-anchor:end;" transform="rotate(-313.968639, 184.389258, 220.070264)" x="184.389258" y="220.070264">proteolysis</text>
   </g>
   <g id="text_9">
    <text style="font-family:DejaVu Sans;font-size:7px;font-style:normal;font-weight:roman;text-anchor:end;" transform="rotate(-321.218928, 174.336623, 231.439103)" x="174.336623" y="231.439103">protein modification by small protein conjugation or removal</text>
   </g>
   <g id="text_10">
    <text style="font-family:DejaVu Sans;font-size:7px;font-style:normal;font-weight:roman;text-anchor:end;" transform="rotate(-330.738375, 163.460788, 248.123164)" x="163.460788" y="248.123164">protein polyubiquitination</text>
   </g>
   <g id="text_11">
    <text style="font-family:DejaVu Sans;font-size:7px;font-style:normal;font-weight:roman;text-anchor:end;" transform="rotate(-18.054729, 155.600487, 344.115221)" x="155.600487" y="344.115221">additional categories</text>
   </g>
   <g id="text_12">
    <text style="font-family:DejaVu Sans;font-size:7px;font-style:normal;font-weight:roman;text-anchor:end;" transform="rotate(-62.40156, 215.208566, 412.324087)" x="215.208566" y="412.324087">I-kappaB kinase/NF-kappaB signaling</text>
   </g>
   <g id="text_13">
    <text style="font-family:DejaVu Sans;font-size:7px;font-style:normal;font-weight:roman;text-anchor:end;" transform="rotate(-67.625046, 225.194976, 416.783793)" x="225.194976" y="416.783793">body morphogenesis</text>
   </g>
   <g id="text_14">
    <text style="font-family:DejaVu Sans;font-size:7px;font-style:normal;font-weight:roman;text-anchor:end;" transform="rotate(-73.05175, 235.954823, 420.434042)" x="235.954823" y="420.434042">regulation of adaptive immune response</text>
   </g>
   <g id="text_15">
    <text style="font-family:DejaVu Sans;font-size:7px;font-style:normal;font-weight:roman;text-anchor:end;" transform="rotate(-78.688577, 247.444407, 423.130509)" x="247.444407" y="423.130509">negative regulation of chemotaxis</text>
   </g>
   <g id="text_16">
    <text style="font-family:DejaVu Sans;font-size:7px;font-style:normal;font-weight:roman;text-anchor:end;" transform="rotate(-84.531078, 259.572659, 424.72032)" x="259.572659" y="424.72032">reproductive behavior</text>
   </g>
   <g id="text_17">
    <text style="font-family:DejaVu Sans;font-size:7px;font-style:normal;font-weight:roman;text-anchor:start;" transform="rotate(-270.428067, 268.050823, 425.093513)" x="268.050823" y="425.093513">protein trimerization</text>
   </g>
   <g id="text_18">
    <text style="font-family:DejaVu Sans;font-size:7px;font-style:normal;font-weight:roman;text-anchor:start;" transform="rotate(-276.390289, 280.521498, 424.551878)" x="280.521498" y="424.551878">regulation of protein homodimerization activity</text>
   </g>
   <g id="text_19">
    <text style="font-family:DejaVu Sans;font-size:7px;font-style:normal;font-weight:roman;text-anchor:start;" transform="rotate(-282.396561, 292.958882, 422.699491)" x="292.958882" y="422.699491">base-excision repair</text>
   </g>
   <g id="text_20">
    <text style="font-family:DejaVu Sans;font-size:7px;font-style:normal;font-weight:roman;text-anchor:start;" transform="rotate(-288.424015, 305.176475, 419.542524)" x="305.176475" y="419.542524">regulation of synaptic growth at neuromuscular junction</text>
   </g>
   <g id="text_21">
    <text style="font-family:DejaVu Sans;font-size:7px;font-style:normal;font-weight:roman;text-anchor:start;" transform="rotate(-294.477561, 317.045132, 415.098272)" x="317.045132" y="415.098272">regulation of interleukin-2 production</text>
   </g>
   <g id="text_22">
    <text style="font-family:DejaVu Sans;font-size:7px;font-style:normal;font-weight:roman;text-anchor:start;" transform="rotate(-300.565642, 328.441803, 409.391401)" x="328.441803" y="409.391401">protein homotrimerization</text>
   </g>
   <g id="text_23">
    <text style="font-family:DejaVu Sans;font-size:7px;font-style:normal;font-weight:roman;text-anchor:start;" transform="rotate(-306.678434, 339.210952, 402.477782)" x="339.210952" y="402.477782">regulation of immunoglobulin production</text>
   </g>
   <g id="text_24">
    <text style="font-family:DejaVu Sans;font-size:7px;font-style:normal;font-weight:roman;text-anchor:start;" transform="rotate(-312.898821, 349.350343, 394.306139)" x="349.350343" y="394.306139">necrotic cell death</text>
   </g>
   <g id="text_25">
    <text style="font-family:DejaVu Sans;font-size:7px;font-style:normal;font-weight:roman;text-anchor:start;" transform="rotate(-319.249366, 358.726105, 384.880544)" x="358.726105" y="384.880544">programmed necrotic cell death</text>
   </g>
   <g id="text_26">
    <text style="font-family:DejaVu Sans;font-size:7px;font-style:normal;font-weight:roman;text-anchor:start;" transform="rotate(-325.637361, 367.047092, 374.411708)" x="367.047092" y="374.411708">regulation of sprouting of injured axon</text>
   </g>
   <g id="text_27">
    <text style="font-family:DejaVu Sans;font-size:7px;font-style:normal;font-weight:roman;text-anchor:start;" transform="rotate(-332.112384, 374.239609, 362.922417)" x="374.239609" y="362.922417">regulation of localization</text>
   </g>
   <g id="text_28">
    <text style="font-family:DejaVu Sans;font-size:7px;font-style:normal;font-weight:roman;text-anchor:start;" transform="rotate(-338.735522, 380.208122, 350.408203)" x="380.208122" y="350.408203">response to nitric oxide</text>
   </g>
   <g id="text_29">
    <text style="font-family:DejaVu Sans;font-size:7px;font-style:normal;font-weight:roman;text-anchor:start;" transform="rotate(-345.422972, 384.729502, 337.159325)" x="384.729502" y="337.159325">cellular response to reactive nitrogen species</text>
   </g>
   <g id="text_30">
    <text style="font-family:DejaVu Sans;font-size:7px;font-style:normal;font-weight:roman;text-anchor:start;" transform="rotate(-352.125464, 387.682068, 323.442926)" x="387.682068" y="323.442926">regulation of cellular response to stress</text>
   </g>
   <g id="text_31">
    <text style="font-family:DejaVu Sans;font-size:7px;font-style:normal;font-weight:roman;text-anchor:start;" transform="rotate(-358.889811, 389.018225, 309.346192)" x="389.018225" y="309.346192">cellular response to nitric oxide</text>
   </g>
   <g id="text_32">
    <text style="font-family:DejaVu Sans;font-size:7px;font-style:normal;font-weight:roman;text-anchor:start;" transform="rotate(-5.748398, 388.668237, 294.9935)" x="388.668237" y="294.9935">regulation of MAPK cascade</text>
   </g>
   <g id="text_33">
    <text style="font-family:DejaVu Sans;font-size:7px;font-style:normal;font-weight:roman;text-anchor:start;" transform="rotate(-12.655488, 386.586149, 280.685837)" x="386.586149" y="280.685837">positive regulation of tumor necrosis factor-mediated signaling pathway</text>
   </g>
   <g id="text_34">
    <text style="font-family:DejaVu Sans;font-size:7px;font-style:normal;font-weight:roman;text-anchor:start;" transform="rotate(-19.662345, 382.731573, 266.534458)" x="382.731573" y="266.534458">negative regulation of glial cell apoptotic process</text>
   </g>
   <g id="text_35">
    <text style="font-family:DejaVu Sans;font-size:7px;font-style:normal;font-weight:roman;text-anchor:start;" transform="rotate(-26.792299, 377.067235, 252.726867)" x="377.067235" y="252.726867">regulation of protein transport</text>
   </g>
   <g id="text_36">
    <text style="font-family:DejaVu Sans;font-size:7px;font-style:normal;font-weight:roman;text-anchor:start;" transform="rotate(-34.004369, 369.639118, 239.584928)" x="369.639118" y="239.584928">death-inducing signaling complex assembly</text>
   </g>
   <g id="text_37">
    <text style="font-family:DejaVu Sans;font-size:7px;font-style:normal;font-weight:roman;text-anchor:start;" transform="rotate(-41.379442, 360.398733, 227.219411)" x="360.398733" y="227.219411">positive regulation of I-kappaB phosphorylation</text>
   </g>
   <g id="text_38">
    <text style="font-family:DejaVu Sans;font-size:7px;font-style:normal;font-weight:roman;text-anchor:start;" transform="rotate(-49.052128, 349.184397, 215.725066)" x="349.184397" y="215.725066">dorsal/ventral axon guidance</text>
   </g>
   <g id="text_39">
    <text style="font-family:DejaVu Sans;font-size:7px;font-style:normal;font-weight:roman;text-anchor:start;" transform="rotate(-56.998329, 336.061205, 205.510042)" x="336.061205" y="205.510042">oviposition</text>
   </g>
   <g id="text_40">
    <text style="font-family:DejaVu Sans;font-size:7px;font-style:normal;font-weight:roman;text-anchor:start;" transform="rotate(-65.560628, 320.488786, 196.6483)" x="320.488786" y="196.6483">positive regulation of presynapse assembly</text>
   </g>
   <g id="text_41">
    <text style="font-family:DejaVu Sans;font-size:7px;font-style:normal;font-weight:roman;text-anchor:start;" transform="rotate(-74.760513, 302.489977, 189.824971)" x="302.489977" y="189.824971">negative regulation of sensory neuron axon guidance</text>
   </g>
   <g id="text_42">
    <text style="font-family:DejaVu Sans;font-size:7px;font-style:normal;font-weight:roman;text-anchor:start;" transform="rotate(-84.706349, 282.079701, 185.787773)" x="282.079701" y="185.787773">negative regulation of apoptotic signaling pathway</text>
   </g>
   <g id="text_43">
    <path d="M 246.004826 222.46334 
Q 245.659672 222.029084 245.427942 221.530428 
Q 245.19645 221.032841 245.063914 220.435972 
Q 244.828242 219.374636 245.232546 218.647357 
Q 245.636849 217.920079 246.567921 217.713332 
Q 247.171196 217.579374 247.741931 217.65207 
Q 248.313972 217.725597 248.834373 218.005539 
Q 249.470432 218.347189 249.873102 218.914324 
Q 250.275772 219.481459 250.454304 220.28547 
Q 250.553647 220.732854 250.560451 221.207509 
Q 250.568322 221.681927 250.482354 222.162618 
L 249.408356 222.194949 
Q 249.553994 221.735741 249.583839 221.320171 
Q 249.614988 220.905433 249.527737 220.512503 
Q 249.336402 219.650835 248.641986 219.238113 
Q 247.948639 218.825155 247.047463 219.025263 
Q 246.450595 219.157799 246.189538 219.546282 
Q 245.929785 219.935596 246.057105 220.508974 
Q 246.098596 220.695829 246.164646 220.877231 
Q 246.231763 221.058396 246.327353 221.2366 
L 247.336931 221.21185 
L 247.162904 220.428127 
L 248.060848 220.400156 
L 248.503978 222.395768 
z
M 249.719486 227.052358 
Q 250.306745 226.921956 250.554151 226.588042 
Q 250.802861 226.254959 250.690953 225.750984 
Q 250.542769 225.083645 249.843237 224.763932 
Q 249.143942 224.445286 248.243834 224.645157 
Q 247.669389 224.772714 247.410831 225.106864 
Q 247.152274 225.441013 247.256596 225.91082 
Q 247.34195 226.295208 247.569328 226.557307 
Q 247.798012 226.820236 248.161839 226.960165 
Q 248.510482 227.092261 248.914782 227.116765 
Q 249.319083 227.141269 249.719486 227.052358 
z
M 251.663516 225.731093 
Q 251.884251 226.725162 251.466661 227.45315 
Q 251.04907 228.181138 250.157505 228.379112 
Q 249.551027 228.513781 248.968663 228.449269 
Q 248.387368 228.384519 247.878352 228.125578 
Q 247.251424 227.80991 246.857171 227.275638 
Q 246.464224 226.742196 246.29233 225.968082 
Q 246.072307 224.977217 246.489067 224.250534 
Q 246.905826 223.52385 247.799527 223.325402 
Q 248.410276 223.189784 248.991335 223.253466 
Q 249.573461 223.316911 250.086154 223.577277 
Q 250.708457 223.887249 251.099506 224.422233 
Q 251.491623 224.956979 251.663516 225.731093 
z
M 251.067471 234.318752 
Q 251.063611 234.715107 250.846586 234.984015 
Q 250.630629 235.252685 250.246241 235.338039 
Q 249.41874 235.521788 248.793748 234.972649 
Q 248.169823 234.423273 247.914946 233.275449 
Q 247.818449 232.840878 247.793364 232.435264 
Q 247.768279 232.029651 247.815082 231.655132 
L 248.84815 231.625166 
Q 248.74002 231.960645 248.722758 232.331966 
Q 248.705733 232.704355 248.7835 233.054575 
Q 248.908686 233.618343 249.192887 233.899196 
Q 249.478393 234.180879 249.835019 234.101689 
Q 250.13292 234.03554 250.225856 233.752732 
Q 250.318792 233.469924 250.206883 232.965949 
L 250.093552 232.455568 
L 250.957329 232.435184 
L 251.077298 232.975462 
Q 251.193712 233.499724 251.451579 233.762896 
Q 251.709446 234.026068 252.032973 233.954228 
Q 252.287095 233.897799 252.373382 233.655682 
Q 252.459905 233.414632 252.370283 233.011025 
Q 252.307216 232.727005 252.159331 232.409161 
Q 252.011683 232.092385 251.791671 231.762547 
L 252.773133 231.737319 
Q 252.967395 232.107606 253.105662 232.478004 
Q 253.243929 232.848401 253.326912 233.222111 
Q 253.514217 234.065628 253.327764 234.552946 
Q 253.142616 235.041094 252.588457 235.164146 
Q 252.091957 235.274395 251.694214 235.052367 
Q 251.296707 234.831406 251.067471 234.318752 
z
" style="fill:#ffffff;stroke:#000000;"/>
    <path d="M 246.004826 222.46334 
Q 245.659672 222.029084 245.427942 221.530428 
Q 245.19645 221.032841 245.063914 220.435972 
Q 244.828242 219.374636 245.232546 218.647357 
Q 245.636849 217.920079 246.567921 217.713332 
Q 247.171196 217.579374 247.741931 217.65207 
Q 248.313972 217.725597 248.834373 218.005539 
Q 249.470432 218.347189 249.873102 218.914324 
Q 250.275772 219.481459 250.454304 220.28547 
Q 250.553647 220.732854 250.560451 221.207509 
Q 250.568322 221.681927 250.482354 222.162618 
L 249.408356 222.194949 
Q 249.553994 221.735741 249.583839 221.320171 
Q 249.614988 220.905433 249.527737 220.512503 
Q 249.336402 219.650835 248.641986 219.238113 
Q 247.948639 218.825155 247.047463 219.025263 
Q 246.450595 219.157799 246.189538 219.546282 
Q 245.929785 219.935596 246.057105 220.508974 
Q 246.098596 220.695829 246.164646 220.877231 
Q 246.231763 221.058396 246.327353 221.2366 
L 247.336931 221.21185 
L 247.162904 220.428127 
L 248.060848 220.400156 
L 248.503978 222.395768 
z
M 249.719486 227.052358 
Q 250.306745 226.921956 250.554151 226.588042 
Q 250.802861 226.254959 250.690953 225.750984 
Q 250.542769 225.083645 249.843237 224.763932 
Q 249.143942 224.445286 248.243834 224.645157 
Q 247.669389 224.772714 247.410831 225.106864 
Q 247.152274 225.441013 247.256596 225.91082 
Q 247.34195 226.295208 247.569328 226.557307 
Q 247.798012 226.820236 248.161839 226.960165 
Q 248.510482 227.092261 248.914782 227.116765 
Q 249.319083 227.141269 249.719486 227.052358 
z
M 251.663516 225.731093 
Q 251.884251 226.725162 251.466661 227.45315 
Q 251.04907 228.181138 250.157505 228.379112 
Q 249.551027 228.513781 248.968663 228.449269 
Q 248.387368 228.384519 247.878352 228.125578 
Q 247.251424 227.80991 246.857171 227.275638 
Q 246.464224 226.742196 246.29233 225.968082 
Q 246.072307 224.977217 246.489067 224.250534 
Q 246.905826 223.52385 247.799527 223.325402 
Q 248.410276 223.189784 248.991335 223.253466 
Q 249.573461 223.316911 250.086154 223.577277 
Q 250.708457 223.887249 251.099506 224.422233 
Q 251.491623 224.956979 251.663516 225.731093 
z
M 251.067471 234.318752 
Q 251.063611 234.715107 250.846586 234.984015 
Q 250.630629 235.252685 250.246241 235.338039 
Q 249.41874 235.521788 248.793748 234.972649 
Q 248.169823 234.423273 247.914946 233.275449 
Q 247.818449 232.840878 247.793364 232.435264 
Q 247.768279 232.029651 247.815082 231.655132 
L 248.84815 231.625166 
Q 248.74002 231.960645 248.722758 232.331966 
Q 248.705733 232.704355 248.7835 233.054575 
Q 248.908686 233.618343 249.192887 233.899196 
Q 249.478393 234.180879 249.835019 234.101689 
Q 250.13292 234.03554 250.225856 233.752732 
Q 250.318792 233.469924 250.206883 232.965949 
L 250.093552 232.455568 
L 250.957329 232.435184 
L 251.077298 232.975462 
Q 251.193712 233.499724 251.451579 233.762896 
Q 251.709446 234.026068 252.032973 233.954228 
Q 252.287095 233.897799 252.373382 233.655682 
Q 252.459905 233.414632 252.370283 233.011025 
Q 252.307216 232.727005 252.159331 232.409161 
Q 252.011683 232.092385 251.791671 231.762547 
L 252.773133 231.737319 
Q 252.967395 232.107606 253.105662 232.478004 
Q 253.243929 232.848401 253.326912 233.222111 
Q 253.514217 234.065628 253.327764 234.552946 
Q 253.142616 235.041094 252.588457 235.164146 
Q 252.091957 235.274395 251.694214 235.052367 
Q 251.296707 234.831406 251.067471 234.318752 
z
" style="fill:#ffffff;"/>
    <path d="M 248.004826 224.46334 
Q 247.659672 224.029084 247.427942 223.530428 
Q 247.19645 223.032841 247.063914 222.435972 
Q 246.828242 221.374636 247.232546 220.647357 
Q 247.636849 219.920079 248.567921 219.713332 
Q 249.171196 219.579374 249.741931 219.65207 
Q 250.313972 219.725597 250.834373 220.005539 
Q 251.470432 220.347189 251.873102 220.914324 
Q 252.275772 221.481459 252.454304 222.28547 
Q 252.553647 222.732854 252.560451 223.207509 
Q 252.568322 223.681927 252.482354 224.162618 
L 251.408356 224.194949 
Q 251.553994 223.735741 251.583839 223.320171 
Q 251.614988 222.905433 251.527737 222.512503 
Q 251.336402 221.650835 250.641986 221.238113 
Q 249.948639 220.825155 249.047463 221.025263 
Q 248.450595 221.157799 248.189538 221.546282 
Q 247.929785 221.935596 248.057105 222.508974 
Q 248.098596 222.695829 248.164646 222.877231 
Q 248.231763 223.058396 248.327353 223.2366 
L 249.336931 223.21185 
L 249.162904 222.428127 
L 250.060848 222.400156 
L 250.503978 224.395768 
z
M 251.719486 229.052358 
Q 252.306745 228.921956 252.554151 228.588042 
Q 252.802861 228.254959 252.690953 227.750984 
Q 252.542769 227.083645 251.843237 226.763932 
Q 251.143942 226.445286 250.243834 226.645157 
Q 249.669389 226.772714 249.410831 227.106864 
Q 249.152274 227.441013 249.256596 227.91082 
Q 249.34195 228.295208 249.569328 228.557307 
Q 249.798012 228.820236 250.161839 228.960165 
Q 250.510482 229.092261 250.914782 229.116765 
Q 251.319083 229.141269 251.719486 229.052358 
z
M 253.663516 227.731093 
Q 253.884251 228.725162 253.466661 229.45315 
Q 253.04907 230.181138 252.157505 230.379112 
Q 251.551027 230.513781 250.968663 230.449269 
Q 250.387368 230.384519 249.878352 230.125578 
Q 249.251424 229.80991 248.857171 229.275638 
Q 248.464224 228.742196 248.29233 227.968082 
Q 248.072307 226.977217 248.489067 226.250534 
Q 248.905826 225.52385 249.799527 225.325402 
Q 250.410276 225.189784 250.991335 225.253466 
Q 251.573461 225.316911 252.086154 225.577277 
Q 252.708457 225.887249 253.099506 226.422233 
Q 253.491623 226.956979 253.663516 227.731093 
z
M 253.067471 236.318752 
Q 253.063611 236.715107 252.846586 236.984015 
Q 252.630629 237.252685 252.246241 237.338039 
Q 251.41874 237.521788 250.793748 236.972649 
Q 250.169823 236.423273 249.914946 235.275449 
Q 249.818449 234.840878 249.793364 234.435264 
Q 249.768279 234.029651 249.815082 233.655132 
L 250.84815 233.625166 
Q 250.74002 233.960645 250.722758 234.331966 
Q 250.705733 234.704355 250.7835 235.054575 
Q 250.908686 235.618343 251.192887 235.899196 
Q 251.478393 236.180879 251.835019 236.101689 
Q 252.13292 236.03554 252.225856 235.752732 
Q 252.318792 235.469924 252.206883 234.965949 
L 252.093552 234.455568 
L 252.957329 234.435184 
L 253.077298 234.975462 
Q 253.193712 235.499724 253.451579 235.762896 
Q 253.709446 236.026068 254.032973 235.954228 
Q 254.287095 235.897799 254.373382 235.655682 
Q 254.459905 235.414632 254.370283 235.011025 
Q 254.307216 234.727005 254.159331 234.409161 
Q 254.011683 234.092385 253.791671 233.762547 
L 254.773133 233.737319 
Q 254.967395 234.107606 255.105662 234.478004 
Q 255.243929 234.848401 255.326912 235.222111 
Q 255.514217 236.065628 255.327764 236.552946 
Q 255.142616 237.041094 254.588457 237.164146 
Q 254.091957 237.274395 253.694214 237.052367 
Q 253.296707 236.831406 253.067471 236.318752 
z
" style="fill:#4c4c4c;opacity:0.3;"/>
    <path d="M 246.004826 222.46334 
Q 245.659672 222.029084 245.427942 221.530428 
Q 245.19645 221.032841 245.063914 220.435972 
Q 244.828242 219.374636 245.232546 218.647357 
Q 245.636849 217.920079 246.567921 217.713332 
Q 247.171196 217.579374 247.741931 217.65207 
Q 248.313972 217.725597 248.834373 218.005539 
Q 249.470432 218.347189 249.873102 218.914324 
Q 250.275772 219.481459 250.454304 220.28547 
Q 250.553647 220.732854 250.560451 221.207509 
Q 250.568322 221.681927 250.482354 222.162618 
L 249.408356 222.194949 
Q 249.553994 221.735741 249.583839 221.320171 
Q 249.614988 220.905433 249.527737 220.512503 
Q 249.336402 219.650835 248.641986 219.238113 
Q 247.948639 218.825155 247.047463 219.025263 
Q 246.450595 219.157799 246.189538 219.546282 
Q 245.929785 219.935596 246.057105 220.508974 
Q 246.098596 220.695829 246.164646 220.877231 
Q 246.231763 221.058396 246.327353 221.2366 
L 247.336931 221.21185 
L 247.162904 220.428127 
L 248.060848 220.400156 
L 248.503978 222.395768 
z
M 249.719486 227.052358 
Q 250.306745 226.921956 250.554151 226.588042 
Q 250.802861 226.254959 250.690953 225.750984 
Q 250.542769 225.083645 249.843237 224.763932 
Q 249.143942 224.445286 248.243834 224.645157 
Q 247.669389 224.772714 247.410831 225.106864 
Q 247.152274 225.441013 247.256596 225.91082 
Q 247.34195 226.295208 247.569328 226.557307 
Q 247.798012 226.820236 248.161839 226.960165 
Q 248.510482 227.092261 248.914782 227.116765 
Q 249.319083 227.141269 249.719486 227.052358 
z
M 251.663516 225.731093 
Q 251.884251 226.725162 251.466661 227.45315 
Q 251.04907 228.181138 250.157505 228.379112 
Q 249.551027 228.513781 248.968663 228.449269 
Q 248.387368 228.384519 247.878352 228.125578 
Q 247.251424 227.80991 246.857171 227.275638 
Q 246.464224 226.742196 246.29233 225.968082 
Q 246.072307 224.977217 246.489067 224.250534 
Q 246.905826 223.52385 247.799527 223.325402 
Q 248.410276 223.189784 248.991335 223.253466 
Q 249.573461 223.316911 250.086154 223.577277 
Q 250.708457 223.887249 251.099506 224.422233 
Q 251.491623 224.956979 251.663516 225.731093 
z
M 251.067471 234.318752 
Q 251.063611 234.715107 250.846586 234.984015 
Q 250.630629 235.252685 250.246241 235.338039 
Q 249.41874 235.521788 248.793748 234.972649 
Q 248.169823 234.423273 247.914946 233.275449 
Q 247.818449 232.840878 247.793364 232.435264 
Q 247.768279 232.029651 247.815082 231.655132 
L 248.84815 231.625166 
Q 248.74002 231.960645 248.722758 232.331966 
Q 248.705733 232.704355 248.7835 233.054575 
Q 248.908686 233.618343 249.192887 233.899196 
Q 249.478393 234.180879 249.835019 234.101689 
Q 250.13292 234.03554 250.225856 233.752732 
Q 250.318792 233.469924 250.206883 232.965949 
L 250.093552 232.455568 
L 250.957329 232.435184 
L 251.077298 232.975462 
Q 251.193712 233.499724 251.451579 233.762896 
Q 251.709446 234.026068 252.032973 233.954228 
Q 252.287095 233.897799 252.373382 233.655682 
Q 252.459905 233.414632 252.370283 233.011025 
Q 252.307216 232.727005 252.159331 232.409161 
Q 252.011683 232.092385 251.791671 231.762547 
L 252.773133 231.737319 
Q 252.967395 232.107606 253.105662 232.478004 
Q 253.243929 232.848401 253.326912 233.222111 
Q 253.514217 234.065628 253.327764 234.552946 
Q 253.142616 235.041094 252.588457 235.164146 
Q 252.091957 235.274395 251.694214 235.052367 
Q 251.296707 234.831406 251.067471 234.318752 
z
" style="fill:#ffffff;"/>
   </g>
   <g id="text_44">
    <path d="M 208.140259 242.126804 
Q 207.622917 241.926638 207.170876 241.613564 
Q 206.71958 241.301292 206.303467 240.853332 
Q 205.563547 240.05678 205.544677 239.224891 
Q 205.525808 238.393002 206.224593 237.743897 
Q 206.677361 237.323318 207.206535 237.097489 
Q 207.737255 236.871716 208.327779 236.850142 
Q 209.04929 236.823334 209.683436 237.109067 
Q 210.317583 237.394801 210.878106 237.998224 
Q 211.190005 238.333994 211.435849 238.740078 
Q 211.682495 239.145417 211.851349 239.603612 
L 210.94107 240.174495 
Q 210.834559 239.704668 210.650206 239.331033 
Q 210.467399 238.957456 210.193464 238.662556 
Q 209.592744 238.015858 208.784953 238.010851 
Q 207.977963 238.005099 207.301615 238.633361 
Q 206.853655 239.049473 206.824828 239.516634 
Q 206.797546 239.983852 207.197282 240.414182 
Q 207.32755 240.55442 207.476249 240.677537 
Q 207.625749 240.79991 207.798318 240.905333 
L 208.656851 240.37356 
L 208.110471 239.785362 
L 208.871059 239.30725 
L 210.262318 240.804991 
z
M 213.665301 244.208078 
Q 214.106049 243.798666 214.150687 243.385488 
Q 214.19687 242.972367 213.84552 242.594126 
Q 213.380278 242.093276 212.615095 242.171101 
Q 211.850657 242.249727 211.17511 242.877245 
Q 210.743979 243.277725 210.689839 243.696744 
Q 210.635699 244.115762 210.963229 244.468361 
Q 211.231208 244.75685 211.559897 244.868027 
Q 211.890132 244.979261 212.27478 244.916046 
Q 212.642368 244.85375 213.00358 244.670487 
Q 213.364791 244.487224 213.665301 244.208078 
z
M 214.674573 242.085258 
Q 215.367597 242.831324 215.375362 243.670543 
Q 215.383126 244.509762 214.713991 245.131325 
Q 214.258819 245.554137 213.72375 245.792906 
Q 213.189483 246.03093 212.619399 246.064867 
Q 211.918902 246.109475 211.308633 245.84784 
Q 210.69991 245.586261 210.160229 245.005276 
Q 209.469438 244.261614 209.461617 243.423941 
Q 209.453795 242.586268 210.124533 241.963216 
Q 210.582911 241.537427 211.116433 241.298601 
Q 211.650757 241.05903 212.224734 241.024463 
Q 212.918361 240.97728 213.526226 241.241148 
Q 214.134892 241.504273 214.674573 242.085258 
z
M 216.121557 249.855959 
L 217.631174 251.481117 
L 216.795482 252.002122 
L 214.273499 249.287116 
L 215.117778 248.764105 
L 217.794277 249.239655 
Q 218.236543 249.314 218.568237 249.259668 
Q 218.900675 249.206138 219.093802 249.026741 
Q 219.29895 248.836177 219.280873 248.591725 
Q 219.263597 248.346529 219.028371 248.093299 
Q 218.808032 247.856097 218.441828 247.649893 
Q 218.075623 247.443688 217.538418 247.257495 
L 218.481442 246.680079 
Q 218.922819 246.904532 219.288176 247.175715 
Q 219.65508 247.446955 219.952835 247.767499 
Q 220.482838 248.338067 220.540474 248.895094 
Q 220.598853 249.452922 220.173331 249.848192 
Q 219.807912 250.187632 219.321305 250.266438 
Q 218.834698 250.345243 217.690702 250.139006 
z
" style="fill:#ffffff;stroke:#000000;"/>
    <path d="M 208.140259 242.126804 
Q 207.622917 241.926638 207.170876 241.613564 
Q 206.71958 241.301292 206.303467 240.853332 
Q 205.563547 240.05678 205.544677 239.224891 
Q 205.525808 238.393002 206.224593 237.743897 
Q 206.677361 237.323318 207.206535 237.097489 
Q 207.737255 236.871716 208.327779 236.850142 
Q 209.04929 236.823334 209.683436 237.109067 
Q 210.317583 237.394801 210.878106 237.998224 
Q 211.190005 238.333994 211.435849 238.740078 
Q 211.682495 239.145417 211.851349 239.603612 
L 210.94107 240.174495 
Q 210.834559 239.704668 210.650206 239.331033 
Q 210.467399 238.957456 210.193464 238.662556 
Q 209.592744 238.015858 208.784953 238.010851 
Q 207.977963 238.005099 207.301615 238.633361 
Q 206.853655 239.049473 206.824828 239.516634 
Q 206.797546 239.983852 207.197282 240.414182 
Q 207.32755 240.55442 207.476249 240.677537 
Q 207.625749 240.79991 207.798318 240.905333 
L 208.656851 240.37356 
L 208.110471 239.785362 
L 208.871059 239.30725 
L 210.262318 240.804991 
z
M 213.665301 244.208078 
Q 214.106049 243.798666 214.150687 243.385488 
Q 214.19687 242.972367 213.84552 242.594126 
Q 213.380278 242.093276 212.615095 242.171101 
Q 211.850657 242.249727 211.17511 242.877245 
Q 210.743979 243.277725 210.689839 243.696744 
Q 210.635699 244.115762 210.963229 244.468361 
Q 211.231208 244.75685 211.559897 244.868027 
Q 211.890132 244.979261 212.27478 244.916046 
Q 212.642368 244.85375 213.00358 244.670487 
Q 213.364791 244.487224 213.665301 244.208078 
z
M 214.674573 242.085258 
Q 215.367597 242.831324 215.375362 243.670543 
Q 215.383126 244.509762 214.713991 245.131325 
Q 214.258819 245.554137 213.72375 245.792906 
Q 213.189483 246.03093 212.619399 246.064867 
Q 211.918902 246.109475 211.308633 245.84784 
Q 210.69991 245.586261 210.160229 245.005276 
Q 209.469438 244.261614 209.461617 243.423941 
Q 209.453795 242.586268 210.124533 241.963216 
Q 210.582911 241.537427 211.116433 241.298601 
Q 211.650757 241.05903 212.224734 241.024463 
Q 212.918361 240.97728 213.526226 241.241148 
Q 214.134892 241.504273 214.674573 242.085258 
z
M 216.121557 249.855959 
L 217.631174 251.481117 
L 216.795482 252.002122 
L 214.273499 249.287116 
L 215.117778 248.764105 
L 217.794277 249.239655 
Q 218.236543 249.314 218.568237 249.259668 
Q 218.900675 249.206138 219.093802 249.026741 
Q 219.29895 248.836177 219.280873 248.591725 
Q 219.263597 248.346529 219.028371 248.093299 
Q 218.808032 247.856097 218.441828 247.649893 
Q 218.075623 247.443688 217.538418 247.257495 
L 218.481442 246.680079 
Q 218.922819 246.904532 219.288176 247.175715 
Q 219.65508 247.446955 219.952835 247.767499 
Q 220.482838 248.338067 220.540474 248.895094 
Q 220.598853 249.452922 220.173331 249.848192 
Q 219.807912 250.187632 219.321305 250.266438 
Q 218.834698 250.345243 217.690702 250.139006 
z
" style="fill:#ffffff;"/>
    <path d="M 210.140259 244.126804 
Q 209.622917 243.926638 209.170876 243.613564 
Q 208.71958 243.301292 208.303467 242.853332 
Q 207.563547 242.05678 207.544677 241.224891 
Q 207.525808 240.393002 208.224593 239.743897 
Q 208.677361 239.323318 209.206535 239.097489 
Q 209.737255 238.871716 210.327779 238.850142 
Q 211.04929 238.823334 211.683436 239.109067 
Q 212.317583 239.394801 212.878106 239.998224 
Q 213.190005 240.333994 213.435849 240.740078 
Q 213.682495 241.145417 213.851349 241.603612 
L 212.94107 242.174495 
Q 212.834559 241.704668 212.650206 241.331033 
Q 212.467399 240.957456 212.193464 240.662556 
Q 211.592744 240.015858 210.784953 240.010851 
Q 209.977963 240.005099 209.301615 240.633361 
Q 208.853655 241.049473 208.824828 241.516634 
Q 208.797546 241.983852 209.197282 242.414182 
Q 209.32755 242.55442 209.476249 242.677537 
Q 209.625749 242.79991 209.798318 242.905333 
L 210.656851 242.37356 
L 210.110471 241.785362 
L 210.871059 241.30725 
L 212.262318 242.804991 
z
M 215.665301 246.208078 
Q 216.106049 245.798666 216.150687 245.385488 
Q 216.19687 244.972367 215.84552 244.594126 
Q 215.380278 244.093276 214.615095 244.171101 
Q 213.850657 244.249727 213.17511 244.877245 
Q 212.743979 245.277725 212.689839 245.696744 
Q 212.635699 246.115762 212.963229 246.468361 
Q 213.231208 246.75685 213.559897 246.868027 
Q 213.890132 246.979261 214.27478 246.916046 
Q 214.642368 246.85375 215.00358 246.670487 
Q 215.364791 246.487224 215.665301 246.208078 
z
M 216.674573 244.085258 
Q 217.367597 244.831324 217.375362 245.670543 
Q 217.383126 246.509762 216.713991 247.131325 
Q 216.258819 247.554137 215.72375 247.792906 
Q 215.189483 248.03093 214.619399 248.064867 
Q 213.918902 248.109475 213.308633 247.84784 
Q 212.69991 247.586261 212.160229 247.005276 
Q 211.469438 246.261614 211.461617 245.423941 
Q 211.453795 244.586268 212.124533 243.963216 
Q 212.582911 243.537427 213.116433 243.298601 
Q 213.650757 243.05903 214.224734 243.024463 
Q 214.918361 242.97728 215.526226 243.241148 
Q 216.134892 243.504273 216.674573 244.085258 
z
M 218.121557 251.855959 
L 219.631174 253.481117 
L 218.795482 254.002122 
L 216.273499 251.287116 
L 217.117778 250.764105 
L 219.794277 251.239655 
Q 220.236543 251.314 220.568237 251.259668 
Q 220.900675 251.206138 221.093802 251.026741 
Q 221.29895 250.836177 221.280873 250.591725 
Q 221.263597 250.346529 221.028371 250.093299 
Q 220.808032 249.856097 220.441828 249.649893 
Q 220.075623 249.443688 219.538418 249.257495 
L 220.481442 248.680079 
Q 220.922819 248.904532 221.288176 249.175715 
Q 221.65508 249.446955 221.952835 249.767499 
Q 222.482838 250.338067 222.540474 250.895094 
Q 222.598853 251.452922 222.173331 251.848192 
Q 221.807912 252.187632 221.321305 252.266438 
Q 220.834698 252.345243 219.690702 252.139006 
z
" style="fill:#4c4c4c;opacity:0.3;"/>
    <path d="M 208.140259 242.126804 
Q 207.622917 241.926638 207.170876 241.613564 
Q 206.71958 241.301292 206.303467 240.853332 
Q 205.563547 240.05678 205.544677 239.224891 
Q 205.525808 238.393002 206.224593 237.743897 
Q 206.677361 237.323318 207.206535 237.097489 
Q 207.737255 236.871716 208.327779 236.850142 
Q 209.04929 236.823334 209.683436 237.109067 
Q 210.317583 237.394801 210.878106 237.998224 
Q 211.190005 238.333994 211.435849 238.740078 
Q 211.682495 239.145417 211.851349 239.603612 
L 210.94107 240.174495 
Q 210.834559 239.704668 210.650206 239.331033 
Q 210.467399 238.957456 210.193464 238.662556 
Q 209.592744 238.015858 208.784953 238.010851 
Q 207.977963 238.005099 207.301615 238.633361 
Q 206.853655 239.049473 206.824828 239.516634 
Q 206.797546 239.983852 207.197282 240.414182 
Q 207.32755 240.55442 207.476249 240.677537 
Q 207.625749 240.79991 207.798318 240.905333 
L 208.656851 240.37356 
L 208.110471 239.785362 
L 208.871059 239.30725 
L 210.262318 240.804991 
z
M 213.665301 244.208078 
Q 214.106049 243.798666 214.150687 243.385488 
Q 214.19687 242.972367 213.84552 242.594126 
Q 213.380278 242.093276 212.615095 242.171101 
Q 211.850657 242.249727 211.17511 242.877245 
Q 210.743979 243.277725 210.689839 243.696744 
Q 210.635699 244.115762 210.963229 244.468361 
Q 211.231208 244.75685 211.559897 244.868027 
Q 211.890132 244.979261 212.27478 244.916046 
Q 212.642368 244.85375 213.00358 244.670487 
Q 213.364791 244.487224 213.665301 244.208078 
z
M 214.674573 242.085258 
Q 215.367597 242.831324 215.375362 243.670543 
Q 215.383126 244.509762 214.713991 245.131325 
Q 214.258819 245.554137 213.72375 245.792906 
Q 213.189483 246.03093 212.619399 246.064867 
Q 211.918902 246.109475 211.308633 245.84784 
Q 210.69991 245.586261 210.160229 245.005276 
Q 209.469438 244.261614 209.461617 243.423941 
Q 209.453795 242.586268 210.124533 241.963216 
Q 210.582911 241.537427 211.116433 241.298601 
Q 211.650757 241.05903 212.224734 241.024463 
Q 212.918361 240.97728 213.526226 241.241148 
Q 214.134892 241.504273 214.674573 242.085258 
z
M 216.121557 249.855959 
L 217.631174 251.481117 
L 216.795482 252.002122 
L 214.273499 249.287116 
L 215.117778 248.764105 
L 217.794277 249.239655 
Q 218.236543 249.314 218.568237 249.259668 
Q 218.900675 249.206138 219.093802 249.026741 
Q 219.29895 248.836177 219.280873 248.591725 
Q 219.263597 248.346529 219.028371 248.093299 
Q 218.808032 247.856097 218.441828 247.649893 
Q 218.075623 247.443688 217.538418 247.257495 
L 218.481442 246.680079 
Q 218.922819 246.904532 219.288176 247.175715 
Q 219.65508 247.446955 219.952835 247.767499 
Q 220.482838 248.338067 220.540474 248.895094 
Q 220.598853 249.452922 220.173331 249.848192 
Q 219.807912 250.187632 219.321305 250.266438 
Q 218.834698 250.345243 217.690702 250.139006 
z
" style="fill:#ffffff;"/>
   </g>
   <g id="text_45">
    <path d="M 311.466558 370.409146 
Q 310.990712 370.124049 310.598389 369.738771 
Q 310.206664 369.354409 309.87265 368.842304 
Q 309.278715 367.93169 309.401361 367.108675 
Q 309.524007 366.28566 310.322856 365.764622 
Q 310.840458 365.427023 311.400291 365.294318 
Q 311.961638 365.161932 312.547252 365.240933 
Q 313.262839 365.337016 313.839265 365.726269 
Q 314.415691 366.115522 314.865624 366.805353 
Q 315.115986 367.189203 315.289314 367.631132 
Q 315.463559 368.072463 315.552166 368.552674 
L 314.558176 368.960717 
Q 314.532981 368.479627 314.414742 368.080117 
Q 314.298017 367.680926 314.078129 367.343797 
Q 313.59593 366.604496 312.800717 366.46241 
Q 312.00642 366.319727 311.233223 366.824035 
Q 310.721118 367.158049 310.613392 367.613533 
Q 310.50718 368.069335 310.828049 368.561286 
Q 310.932615 368.721606 311.058252 368.868182 
Q 311.184804 369.014161 311.336968 369.147352 
L 312.273323 368.769066 
L 311.834743 368.096641 
L 312.665465 367.754607 
L 313.782231 369.466817 
z
M 316.558014 373.39827 
Q 317.061875 373.069634 317.176016 372.670034 
Q 317.29167 372.270753 317.00964 371.838349 
Q 316.63619 371.26578 315.868903 371.212558 
Q 315.102214 371.160252 314.329933 371.663962 
Q 313.837066 371.985429 313.712569 372.389171 
Q 313.588072 372.792914 313.850981 373.196003 
Q 314.066088 373.525803 314.371129 373.691172 
Q 314.677684 373.856859 315.06748 373.85987 
Q 315.440308 373.860889 315.82739 373.741615 
Q 316.214472 373.622341 316.558014 373.39827 
z
M 317.913055 371.47763 
Q 318.469346 372.330529 318.334512 373.158881 
Q 318.199677 373.987234 317.434725 374.486164 
Q 316.914374 374.825556 316.346535 374.970011 
Q 315.779612 375.11387 315.212043 375.050522 
Q 314.514143 374.975549 313.957156 374.614098 
Q 313.401682 374.252965 312.96848 373.588785 
Q 312.41398 372.738635 312.548497 371.911796 
Q 312.683013 371.084957 313.449797 370.584832 
Q 313.973812 370.24305 314.540138 370.098276 
Q 315.107379 369.952904 315.678892 370.016291 
Q 316.370458 370.08756 316.924697 370.450804 
Q 317.479852 370.81345 317.913055 371.47763 
z
M 317.289957 378.368488 
L 317.924524 379.341397 
L 321.037062 378.075199 
L 320.152751 377.169856 
L 320.998649 376.827065 
L 321.878777 377.725995 
L 322.561743 378.773109 
L 318.606295 380.386679 
L 319.237277 381.354092 
L 318.380983 381.70497 
L 316.429481 378.712954 
z
" style="fill:#ffffff;stroke:#000000;"/>
    <path d="M 311.466558 370.409146 
Q 310.990712 370.124049 310.598389 369.738771 
Q 310.206664 369.354409 309.87265 368.842304 
Q 309.278715 367.93169 309.401361 367.108675 
Q 309.524007 366.28566 310.322856 365.764622 
Q 310.840458 365.427023 311.400291 365.294318 
Q 311.961638 365.161932 312.547252 365.240933 
Q 313.262839 365.337016 313.839265 365.726269 
Q 314.415691 366.115522 314.865624 366.805353 
Q 315.115986 367.189203 315.289314 367.631132 
Q 315.463559 368.072463 315.552166 368.552674 
L 314.558176 368.960717 
Q 314.532981 368.479627 314.414742 368.080117 
Q 314.298017 367.680926 314.078129 367.343797 
Q 313.59593 366.604496 312.800717 366.46241 
Q 312.00642 366.319727 311.233223 366.824035 
Q 310.721118 367.158049 310.613392 367.613533 
Q 310.50718 368.069335 310.828049 368.561286 
Q 310.932615 368.721606 311.058252 368.868182 
Q 311.184804 369.014161 311.336968 369.147352 
L 312.273323 368.769066 
L 311.834743 368.096641 
L 312.665465 367.754607 
L 313.782231 369.466817 
z
M 316.558014 373.39827 
Q 317.061875 373.069634 317.176016 372.670034 
Q 317.29167 372.270753 317.00964 371.838349 
Q 316.63619 371.26578 315.868903 371.212558 
Q 315.102214 371.160252 314.329933 371.663962 
Q 313.837066 371.985429 313.712569 372.389171 
Q 313.588072 372.792914 313.850981 373.196003 
Q 314.066088 373.525803 314.371129 373.691172 
Q 314.677684 373.856859 315.06748 373.85987 
Q 315.440308 373.860889 315.82739 373.741615 
Q 316.214472 373.622341 316.558014 373.39827 
z
M 317.913055 371.47763 
Q 318.469346 372.330529 318.334512 373.158881 
Q 318.199677 373.987234 317.434725 374.486164 
Q 316.914374 374.825556 316.346535 374.970011 
Q 315.779612 375.11387 315.212043 375.050522 
Q 314.514143 374.975549 313.957156 374.614098 
Q 313.401682 374.252965 312.96848 373.588785 
Q 312.41398 372.738635 312.548497 371.911796 
Q 312.683013 371.084957 313.449797 370.584832 
Q 313.973812 370.24305 314.540138 370.098276 
Q 315.107379 369.952904 315.678892 370.016291 
Q 316.370458 370.08756 316.924697 370.450804 
Q 317.479852 370.81345 317.913055 371.47763 
z
M 317.289957 378.368488 
L 317.924524 379.341397 
L 321.037062 378.075199 
L 320.152751 377.169856 
L 320.998649 376.827065 
L 321.878777 377.725995 
L 322.561743 378.773109 
L 318.606295 380.386679 
L 319.237277 381.354092 
L 318.380983 381.70497 
L 316.429481 378.712954 
z
" style="fill:#ffffff;"/>
    <path d="M 313.466558 372.409146 
Q 312.990712 372.124049 312.598389 371.738771 
Q 312.206664 371.354409 311.87265 370.842304 
Q 311.278715 369.93169 311.401361 369.108675 
Q 311.524007 368.28566 312.322856 367.764622 
Q 312.840458 367.427023 313.400291 367.294318 
Q 313.961638 367.161932 314.547252 367.240933 
Q 315.262839 367.337016 315.839265 367.726269 
Q 316.415691 368.115522 316.865624 368.805353 
Q 317.115986 369.189203 317.289314 369.631132 
Q 317.463559 370.072463 317.552166 370.552674 
L 316.558176 370.960717 
Q 316.532981 370.479627 316.414742 370.080117 
Q 316.298017 369.680926 316.078129 369.343797 
Q 315.59593 368.604496 314.800717 368.46241 
Q 314.00642 368.319727 313.233223 368.824035 
Q 312.721118 369.158049 312.613392 369.613533 
Q 312.50718 370.069335 312.828049 370.561286 
Q 312.932615 370.721606 313.058252 370.868182 
Q 313.184804 371.014161 313.336968 371.147352 
L 314.273323 370.769066 
L 313.834743 370.096641 
L 314.665465 369.754607 
L 315.782231 371.466817 
z
M 318.558014 375.39827 
Q 319.061875 375.069634 319.176016 374.670034 
Q 319.29167 374.270753 319.00964 373.838349 
Q 318.63619 373.26578 317.868903 373.212558 
Q 317.102214 373.160252 316.329933 373.663962 
Q 315.837066 373.985429 315.712569 374.389171 
Q 315.588072 374.792914 315.850981 375.196003 
Q 316.066088 375.525803 316.371129 375.691172 
Q 316.677684 375.856859 317.06748 375.85987 
Q 317.440308 375.860889 317.82739 375.741615 
Q 318.214472 375.622341 318.558014 375.39827 
z
M 319.913055 373.47763 
Q 320.469346 374.330529 320.334512 375.158881 
Q 320.199677 375.987234 319.434725 376.486164 
Q 318.914374 376.825556 318.346535 376.970011 
Q 317.779612 377.11387 317.212043 377.050522 
Q 316.514143 376.975549 315.957156 376.614098 
Q 315.401682 376.252965 314.96848 375.588785 
Q 314.41398 374.738635 314.548497 373.911796 
Q 314.683013 373.084957 315.449797 372.584832 
Q 315.973812 372.24305 316.540138 372.098276 
Q 317.107379 371.952904 317.678892 372.016291 
Q 318.370458 372.08756 318.924697 372.450804 
Q 319.479852 372.81345 319.913055 373.47763 
z
M 319.289957 380.368488 
L 319.924524 381.341397 
L 323.037062 380.075199 
L 322.152751 379.169856 
L 322.998649 378.827065 
L 323.878777 379.725995 
L 324.561743 380.773109 
L 320.606295 382.386679 
L 321.237277 383.354092 
L 320.380983 383.70497 
L 318.429481 380.712954 
z
" style="fill:#4c4c4c;opacity:0.3;"/>
    <path d="M 311.466558 370.409146 
Q 310.990712 370.124049 310.598389 369.738771 
Q 310.206664 369.354409 309.87265 368.842304 
Q 309.278715 367.93169 309.401361 367.108675 
Q 309.524007 366.28566 310.322856 365.764622 
Q 310.840458 365.427023 311.400291 365.294318 
Q 311.961638 365.161932 312.547252 365.240933 
Q 313.262839 365.337016 313.839265 365.726269 
Q 314.415691 366.115522 314.865624 366.805353 
Q 315.115986 367.189203 315.289314 367.631132 
Q 315.463559 368.072463 315.552166 368.552674 
L 314.558176 368.960717 
Q 314.532981 368.479627 314.414742 368.080117 
Q 314.298017 367.680926 314.078129 367.343797 
Q 313.59593 366.604496 312.800717 366.46241 
Q 312.00642 366.319727 311.233223 366.824035 
Q 310.721118 367.158049 310.613392 367.613533 
Q 310.50718 368.069335 310.828049 368.561286 
Q 310.932615 368.721606 311.058252 368.868182 
Q 311.184804 369.014161 311.336968 369.147352 
L 312.273323 368.769066 
L 311.834743 368.096641 
L 312.665465 367.754607 
L 313.782231 369.466817 
z
M 316.558014 373.39827 
Q 317.061875 373.069634 317.176016 372.670034 
Q 317.29167 372.270753 317.00964 371.838349 
Q 316.63619 371.26578 315.868903 371.212558 
Q 315.102214 371.160252 314.329933 371.663962 
Q 313.837066 371.985429 313.712569 372.389171 
Q 313.588072 372.792914 313.850981 373.196003 
Q 314.066088 373.525803 314.371129 373.691172 
Q 314.677684 373.856859 315.06748 373.85987 
Q 315.440308 373.860889 315.82739 373.741615 
Q 316.214472 373.622341 316.558014 373.39827 
z
M 317.913055 371.47763 
Q 318.469346 372.330529 318.334512 373.158881 
Q 318.199677 373.987234 317.434725 374.486164 
Q 316.914374 374.825556 316.346535 374.970011 
Q 315.779612 375.11387 315.212043 375.050522 
Q 314.514143 374.975549 313.957156 374.614098 
Q 313.401682 374.252965 312.96848 373.588785 
Q 312.41398 372.738635 312.548497 371.911796 
Q 312.683013 371.084957 313.449797 370.584832 
Q 313.973812 370.24305 314.540138 370.098276 
Q 315.107379 369.952904 315.678892 370.016291 
Q 316.370458 370.08756 316.924697 370.450804 
Q 317.479852 370.81345 317.913055 371.47763 
z
M 317.289957 378.368488 
L 317.924524 379.341397 
L 321.037062 378.075199 
L 320.152751 377.169856 
L 320.998649 376.827065 
L 321.878777 377.725995 
L 322.561743 378.773109 
L 318.606295 380.386679 
L 319.237277 381.354092 
L 318.380983 381.70497 
L 316.429481 378.712954 
z
" style="fill:#ffffff;"/>
   </g>
   <g id="text_46">
    <text style="font-family:DejaVu Sans;font-size:12px;font-style:normal;font-weight:normal;text-anchor:middle;" transform="rotate(-0, 269.085854, 32.978111)" x="269.085854" y="32.978111">CirGO Visualisation Plot</text>
   </g>
   <g id="legend_1">
    <g id="text_47">
     <text style="font-family:DejaVu Sans;font-size:7px;font-style:normal;font-weight:normal;text-anchor:start;" transform="rotate(-0, 633.547261, 55.781017)" x="633.547261" y="55.781017">Name and Proportion of the Biological Process (Inner Ring)</text>
    </g>
    <g id="patch_134">
     <path d="M 615.225854 66.055705 
L 629.225854 66.055705 
L 629.225854 61.155705 
L 615.225854 61.155705 
z
" style="fill:#214a65;stroke:#ffffff;stroke-linejoin:miter;stroke-width:0.7;"/>
    </g>
    <g id="text_48">
     <text style="font-family:DejaVu Sans;font-size:7px;font-style:normal;font-weight:normal;text-anchor:start;" transform="rotate(-0, 634.825854, 66.055705)" x="634.825854" y="66.055705">GO1 negative regulation of apoptotic signaling pathway, 81.6%</text>
    </g>
    <g id="patch_135">
     <path d="M 615.225854 76.330392 
L 629.225854 76.330392 
L 629.225854 71.430392 
L 615.225854 71.430392 
z
" style="fill:#a1c54d;stroke:#ffffff;stroke-linejoin:miter;stroke-width:0.7;"/>
    </g>
    <g id="text_49">
     <text style="font-family:DejaVu Sans;font-size:7px;font-style:normal;font-weight:normal;text-anchor:start;" transform="rotate(-0, 634.825854, 76.330392)" x="634.825854" y="76.330392">GO2 protein polyubiquitination, 13.0%</text>
    </g>
    <g id="patch_136">
     <path d="M 615.225854 86.60508 
L 629.225854 86.60508 
L 629.225854 81.70508 
L 615.225854 81.70508 
z
" style="fill:#943105;stroke:#ffffff;stroke-linejoin:miter;stroke-width:0.7;"/>
    </g>
    <g id="text_50">
     <text style="font-family:DejaVu Sans;font-size:7px;font-style:normal;font-weight:normal;text-anchor:start;" transform="rotate(-0, 634.825854, 86.60508)" x="634.825854" y="86.60508">GO3 macromolecule catabolism, 3.9%</text>
    </g>
    <g id="patch_137">
     <path d="M 615.225854 96.879767 
L 629.225854 96.879767 
L 629.225854 91.979767 
L 615.225854 91.979767 
z
" style="fill:#0cc0aa;stroke:#ffffff;stroke-linejoin:miter;stroke-width:0.7;"/>
    </g>
    <g id="text_51">
     <text style="font-family:DejaVu Sans;font-size:7px;font-style:normal;font-weight:normal;text-anchor:start;" transform="rotate(-0, 634.825854, 96.879767)" x="634.825854" y="96.879767">catabolism, 1.5%</text>
    </g>
   </g>
  </g>
 </g>
</svg>
