<?xml version="1.0" encoding="utf-8" standalone="no"?>
<!DOCTYPE svg PUBLIC "-//W3C//DTD SVG 1.1//EN"
  "http://www.w3.org/Graphics/SVG/1.1/DTD/svg11.dtd">
<!-- Created with matplotlib (http://matplotlib.org/) -->
<svg height="573pt" version="1.1" viewBox="0 0 968 573" width="968pt" xmlns="http://www.w3.org/2000/svg" xmlns:xlink="http://www.w3.org/1999/xlink">
 <defs>
  <style type="text/css">
*{stroke-linecap:butt;stroke-linejoin:round;}
  </style>
 </defs>
 <g id="figure_1">
  <g id="patch_1">
   <path d="M 0 573.105484 
L 968.514283 573.105484 
L 968.514283 0 
L 0 0 
z
" style="fill:#ffffff;"/>
  </g>
  <g id="axes_1">
   <g id="patch_2">
    <path d="M 321.609596 181.777065 
C 314.858152 181.777065 308.11997 182.375367 301.474153 183.564947 
C 294.828336 184.754527 288.300991 186.530711 281.968747 188.87265 
L 321.609596 296.055465 
L 321.609596 181.777065 
z
" style="fill:#0cc0aa;stroke:#ffffff;stroke-linejoin:miter;stroke-width:0.7;"/>
   </g>
   <g id="patch_3">
    <path d="M 281.968747 188.87265 
C 281.968747 188.87265 281.968747 188.87265 281.968747 188.87265 
L 321.609596 296.055465 
L 281.968747 188.87265 
z
" style="fill:none;stroke:#ffffff;stroke-linejoin:miter;stroke-width:0.7;"/>
   </g>
   <g id="patch_4">
    <path d="M 281.968747 188.87265 
C 281.968747 188.87265 281.968747 188.87265 281.968747 188.87265 
L 321.609596 296.055465 
L 281.968747 188.87265 
z
" style="fill:none;stroke:#ffffff;stroke-linejoin:miter;stroke-width:0.7;"/>
   </g>
   <g id="patch_5">
    <path d="M 281.968747 188.87265 
C 281.968747 188.87265 281.968747 188.87265 281.968747 188.87265 
L 321.609596 296.055465 
L 281.968747 188.87265 
z
" style="fill:none;stroke:#ffffff;stroke-linejoin:miter;stroke-width:0.7;"/>
   </g>
   <g id="patch_6">
    <path d="M 281.968747 188.87265 
C 281.968747 188.87265 281.968747 188.87265 281.968747 188.87265 
L 321.609596 296.055465 
L 281.968747 188.87265 
z
" style="fill:none;stroke:#ffffff;stroke-linejoin:miter;stroke-width:0.7;"/>
   </g>
   <g id="patch_7">
    <path d="M 281.968747 188.87265 
C 281.968747 188.87265 281.968747 188.87265 281.968747 188.87265 
L 321.609596 296.055465 
L 281.968747 188.87265 
z
" style="fill:none;stroke:#ffffff;stroke-linejoin:miter;stroke-width:0.7;"/>
   </g>
   <g id="patch_8">
    <path d="M 281.968747 188.87265 
C 270.891671 192.969432 260.516334 198.758747 251.212848 206.034075 
C 241.909362 213.309403 233.789686 221.983193 227.143467 231.746032 
L 321.609596 296.055465 
L 281.968747 188.87265 
z
" style="fill:#943105;stroke:#ffffff;stroke-linejoin:miter;stroke-width:0.7;"/>
   </g>
   <g id="patch_9">
    <path d="M 227.143467 231.746032 
C 227.143467 231.746032 227.143467 231.746032 227.143467 231.746032 
L 321.609596 296.055465 
L 227.143467 231.746032 
z
" style="fill:none;stroke:#ffffff;stroke-linejoin:miter;stroke-width:0.7;"/>
   </g>
   <g id="patch_10">
    <path d="M 227.143467 231.746032 
C 227.143467 231.746032 227.143467 231.746032 227.143467 231.746032 
L 321.609596 296.055465 
L 227.143467 231.746032 
z
" style="fill:none;stroke:#ffffff;stroke-linejoin:miter;stroke-width:0.7;"/>
   </g>
   <g id="patch_11">
    <path d="M 227.143467 231.746032 
C 227.143467 231.746032 227.143467 231.746032 227.143467 231.746032 
L 321.609596 296.055465 
L 227.143467 231.746032 
z
" style="fill:none;stroke:#ffffff;stroke-linejoin:miter;stroke-width:0.7;"/>
   </g>
   <g id="patch_12">
    <path d="M 227.143467 231.746032 
C 227.143467 231.746032 227.143467 231.746032 227.143467 231.746032 
L 321.609596 296.055465 
L 227.143467 231.746032 
z
" style="fill:none;stroke:#ffffff;stroke-linejoin:miter;stroke-width:0.7;"/>
   </g>
   <g id="patch_13">
    <path d="M 227.143467 231.746032 
C 227.143467 231.746032 227.143467 231.746032 227.143467 231.746032 
L 321.609596 296.055465 
L 227.143467 231.746032 
z
" style="fill:none;stroke:#ffffff;stroke-linejoin:miter;stroke-width:0.7;"/>
   </g>
   <g id="patch_14">
    <path d="M 227.143467 231.746032 
C 223.371101 237.287376 220.093621 243.149919 217.348958 249.265805 
C 214.604296 255.381692 212.403082 261.727236 210.770792 268.228996 
L 321.609596 296.055465 
L 227.143467 231.746032 
z
" style="fill:#b9d47a;stroke:#ffffff;stroke-linejoin:miter;stroke-width:0.7;"/>
   </g>
   <g id="patch_15">
    <path d="M 210.770792 268.228996 
C 208.836247 275.934703 207.710537 283.821186 207.411937 291.760407 
C 207.113337 299.699628 207.643472 307.648388 208.993736 315.47764 
L 321.609596 296.055465 
L 210.770792 268.228996 
z
" style="fill:#adcc63;stroke:#ffffff;stroke-linejoin:miter;stroke-width:0.7;"/>
   </g>
   <g id="patch_16">
    <path d="M 208.993736 315.47764 
C 210.777411 325.819945 213.977323 335.867415 218.503138 345.336405 
C 223.028953 354.805395 228.837676 363.605953 235.765326 371.489635 
L 321.609596 296.055465 
L 208.993736 315.47764 
z
" style="fill:#a1c54d;stroke:#ffffff;stroke-linejoin:miter;stroke-width:0.7;"/>
   </g>
   <g id="patch_17">
    <path d="M 235.765326 371.489635 
C 235.765326 371.489635 235.765326 371.489635 235.765326 371.489635 
L 321.609596 296.055465 
L 235.765326 371.489635 
z
" style="fill:none;stroke:#ffffff;stroke-linejoin:miter;stroke-width:0.7;"/>
   </g>
   <g id="patch_18">
    <path d="M 235.765326 371.489635 
C 235.765326 371.489635 235.765326 371.489635 235.765326 371.489635 
L 321.609596 296.055465 
L 235.765326 371.489635 
z
" style="fill:none;stroke:#ffffff;stroke-linejoin:miter;stroke-width:0.7;"/>
   </g>
   <g id="patch_19">
    <path d="M 235.765326 371.489635 
C 235.765326 371.489635 235.765326 371.489635 235.765326 371.489635 
L 321.609596 296.055465 
L 235.765326 371.489635 
z
" style="fill:none;stroke:#ffffff;stroke-linejoin:miter;stroke-width:0.7;"/>
   </g>
   <g id="patch_20">
    <path d="M 235.765326 371.489635 
C 240.111689 376.435807 244.877415 380.997095 250.009279 385.12256 
C 255.141144 389.248024 260.619972 392.92225 266.384576 396.104203 
L 321.609596 296.055465 
L 235.765326 371.489635 
z
" style="fill:#9bb0be;stroke:#ffffff;stroke-linejoin:miter;stroke-width:0.7;"/>
   </g>
   <g id="patch_21">
    <path d="M 266.384576 396.104203 
C 272.167727 399.296393 278.216782 401.981152 284.463752 404.128306 
C 290.710722 406.275459 297.132115 407.876932 303.655756 408.914724 
L 321.609596 296.055465 
L 266.384576 396.104203 
z
" style="fill:#728ea0;stroke:#ffffff;stroke-linejoin:miter;stroke-width:0.7;"/>
   </g>
   <g id="patch_22">
    <path d="M 303.655756 408.914724 
C 310.581423 410.01647 317.593826 410.478386 324.604172 410.294623 
C 331.614517 410.110859 338.59309 409.282194 345.451525 407.819122 
L 321.609596 296.055465 
L 303.655756 408.914724 
z
" style="fill:#4a6c83;stroke:#ffffff;stroke-linejoin:miter;stroke-width:0.7;"/>
   </g>
   <g id="patch_23">
    <path d="M 345.451525 407.819122 
C 353.017156 406.205187 360.399395 403.827203 367.484586 400.721782 
C 374.569776 397.616361 381.321368 393.799521 387.635414 389.330027 
L 321.609596 296.055465 
L 345.451525 407.819122 
z
" style="fill:#214a65;stroke:#ffffff;stroke-linejoin:miter;stroke-width:0.7;"/>
   </g>
   <g id="patch_24">
    <path d="M 387.635414 389.330027 
C 387.635414 389.330027 387.635414 389.330027 387.635414 389.330027 
L 321.609596 296.055465 
L 387.635414 389.330027 
z
" style="fill:none;stroke:#ffffff;stroke-linejoin:miter;stroke-width:0.7;"/>
   </g>
   <g id="patch_25">
    <path d="M 387.635414 389.330027 
C 387.635414 389.330027 387.635414 389.330027 387.635414 389.330027 
L 321.609596 296.055465 
L 387.635414 389.330027 
z
" style="fill:none;stroke:#ffffff;stroke-linejoin:miter;stroke-width:0.7;"/>
   </g>
   <g id="patch_26">
    <path d="M 387.635414 389.330027 
C 393.272787 385.339527 398.536801 380.846159 403.362792 375.90512 
C 408.188784 370.964082 412.556911 365.595687 416.413516 359.865883 
L 321.609596 296.055465 
L 387.635414 389.330027 
z
" style="fill:#e9d2f6;stroke:#ffffff;stroke-linejoin:miter;stroke-width:0.7;"/>
   </g>
   <g id="patch_27">
    <path d="M 416.413516 359.865883 
C 420.41069 353.927231 423.841029 347.626112 426.659278 341.045652 
C 429.477527 334.465192 431.671237 327.634455 433.21147 320.643557 
L 321.609596 296.055465 
L 416.413516 359.865883 
z
" style="fill:#e3c6f4;stroke:#ffffff;stroke-linejoin:miter;stroke-width:0.7;"/>
   </g>
   <g id="patch_28">
    <path d="M 433.21147 320.643557 
C 434.773632 313.553124 435.656528 306.329925 435.848176 299.071974 
C 436.039825 291.814022 435.539356 284.554296 434.353561 277.391302 
L 321.609596 296.055465 
L 433.21147 320.643557 
z
" style="fill:#ddbaf2;stroke:#ffffff;stroke-linejoin:miter;stroke-width:0.7;"/>
   </g>
   <g id="patch_29">
    <path d="M 434.353561 277.391302 
C 433.126558 269.97939 431.17164 262.706504 428.517199 255.67828 
C 425.862758 248.650057 422.52171 241.900688 418.542582 235.528207 
L 321.609596 296.055465 
L 434.353561 277.391302 
z
" style="fill:#d8aef0;stroke:#ffffff;stroke-linejoin:miter;stroke-width:0.7;"/>
   </g>
   <g id="patch_30">
    <path d="M 418.542582 235.528207 
C 414.523625 229.091943 409.873599 223.071933 404.661395 217.557368 
C 399.449192 212.042802 393.700679 207.061049 387.501024 202.685917 
L 321.609596 296.055465 
L 418.542582 235.528207 
z
" style="fill:#d2a2ed;stroke:#ffffff;stroke-linejoin:miter;stroke-width:0.7;"/>
   </g>
   <g id="patch_31">
    <path d="M 387.501024 202.685917 
C 377.918957 195.923798 367.352796 190.67684 356.174263 187.129635 
C 344.995731 183.582429 333.337471 181.777068 321.60963 181.777065 
L 321.609596 296.055465 
L 387.501024 202.685917 
z
" style="fill:#cc96eb;stroke:#ffffff;stroke-linejoin:miter;stroke-width:0.7;"/>
   </g>
   <g id="patch_32">
    <path d="M 321.609596 196.061865 
C 315.702082 196.061865 309.806173 196.585379 303.991082 197.626262 
C 298.175992 198.667144 292.464565 200.221306 286.923851 202.270502 
L 321.609596 296.055465 
L 321.609596 196.061865 
z
" style="fill:#0cc0aa;stroke:#ffffff;stroke-linejoin:miter;stroke-width:0.7;"/>
   </g>
   <g id="patch_33">
    <path d="M 286.923851 202.270502 
C 277.231409 205.855188 268.152988 210.920839 260.012438 217.286751 
C 251.871887 223.652664 244.76717 231.242232 238.951729 239.784717 
L 321.609596 296.055465 
L 286.923851 202.270502 
z
" style="fill:#943105;stroke:#ffffff;stroke-linejoin:miter;stroke-width:0.7;"/>
   </g>
   <g id="patch_34">
    <path d="M 238.951729 239.784717 
C 226.474032 258.113596 220.440344 280.082255 221.805773 302.213147 
C 223.171202 324.344038 231.859686 345.40437 246.495875 362.060381 
L 321.609596 296.055465 
L 238.951729 239.784717 
z
" style="fill:#a1c54d;stroke:#ffffff;stroke-linejoin:miter;stroke-width:0.7;"/>
   </g>
   <g id="patch_35">
    <path d="M 246.495875 362.060381 
C 262.799526 380.613967 285.413048 392.484581 309.943455 395.366195 
C 334.473862 398.247809 359.222717 391.940905 379.382216 377.670686 
L 321.609596 296.055465 
L 246.495875 362.060381 
z
" style="fill:#214a65;stroke:#ffffff;stroke-linejoin:miter;stroke-width:0.7;"/>
   </g>
   <g id="patch_36">
    <path d="M 379.382216 377.670686 
C 396.700911 365.411375 409.676009 347.952042 416.419285 327.83349 
C 423.16256 307.714937 423.330228 285.962849 416.897887 265.742737 
C 410.465547 245.522625 397.761132 227.865352 380.633475 215.340524 
C 363.505819 202.815696 342.828124 196.061855 321.609549 196.061865 
L 321.609596 296.055465 
L 379.382216 377.670686 
z
" style="fill:#cc96eb;stroke:#ffffff;stroke-linejoin:miter;stroke-width:0.7;"/>
   </g>
   <g id="matplotlib.axis_1"/>
   <g id="matplotlib.axis_2"/>
   <g id="text_1">
    <text style="font-family:DejaVu Sans;font-size:7px;font-style:normal;font-weight:roman;text-anchor:end;" transform="rotate(-280.148289, 298.566037, 178.280755)" x="298.566037" y="178.280755">cellular response to exogenous dsRNA</text>
   </g>
   <g id="text_2">
    <text style="font-family:DejaVu Sans;font-size:7px;font-style:normal;font-weight:roman;text-anchor:end;" transform="rotate(-308.025416, 246.171446, 202.722869)" x="246.171446" y="202.722869">eye pigmentation</text>
   </g>
   <g id="text_3">
    <text style="font-family:DejaVu Sans;font-size:7px;font-style:normal;font-weight:roman;text-anchor:end;" transform="rotate(-335.830607, 211.345076, 248.688562)" x="211.345076" y="248.688562">synaptic vesicle targeting</text>
   </g>
   <g id="text_4">
    <text style="font-family:DejaVu Sans;font-size:7px;font-style:normal;font-weight:roman;text-anchor:end;" transform="rotate(-357.846079, 201.629458, 293.475852)" x="201.629458" y="293.475852">protein localization to cytoskeleton</text>
   </g>
   <g id="text_5">
    <text style="font-family:DejaVu Sans;font-size:7px;font-style:normal;font-weight:roman;text-anchor:end;" transform="rotate(-25.546014, 214.180774, 349.543184)" x="214.180774" y="349.543184">chromosome passenger complex localization to spindle midzone</text>
   </g>
   <g id="text_6">
    <text style="font-family:DejaVu Sans;font-size:7px;font-style:normal;font-weight:roman;text-anchor:end;" transform="rotate(-51.204481, 247.934698, 390.786121)" x="247.934698" y="390.786121">regulation of ATPase activity</text>
   </g>
   <g id="text_7">
    <text style="font-family:DejaVu Sans;font-size:7px;font-style:normal;font-weight:roman;text-anchor:end;" transform="rotate(-71.031581, 284.433134, 410.159796)" x="284.433134" y="410.159796">regulation of vacuole fusion, non-autophagic</text>
   </g>
   <g id="text_8">
    <text style="font-family:DejaVu Sans;font-size:7px;font-style:normal;font-weight:roman;text-anchor:start;" transform="rotate(-271.501563, 322.823001, 416.057196)" x="322.823001" y="416.057196">positive regulation of ATPase activity</text>
   </g>
   <g id="text_9">
    <text style="font-family:DejaVu Sans;font-size:7px;font-style:normal;font-weight:roman;text-anchor:start;" transform="rotate(-293.667721, 368.009238, 406.730489)" x="368.009238" y="406.730489">positive regulation of interferon-alpha production</text>
   </g>
   <g id="text_10">
    <text style="font-family:DejaVu Sans;font-size:7px;font-style:normal;font-weight:roman;text-anchor:start;" transform="rotate(-315.674863, 406.100813, 381.279416)" x="406.100813" y="381.279416">tryptophan metabolic process</text>
   </g>
   <g id="text_11">
    <text style="font-family:DejaVu Sans;font-size:7px;font-style:normal;font-weight:roman;text-anchor:start;" transform="rotate(-336.815744, 431.151326, 345.070738)" x="431.151326" y="345.070738">pyrimidine nucleotide biosynthetic process</text>
   </g>
   <g id="text_12">
    <text style="font-family:DejaVu Sans;font-size:7px;font-style:normal;font-weight:roman;text-anchor:start;" transform="rotate(-358.487437, 441.50912, 301.153689)" x="441.50912" y="301.153689">nucleobase catabolic process</text>
   </g>
   <g id="text_13">
    <text style="font-family:DejaVu Sans;font-size:7px;font-style:normal;font-weight:roman;text-anchor:start;" transform="rotate(-20.690698, 434.545045, 255.4664)" x="434.545045" y="255.4664">purine nucleobase catabolic process</text>
   </g>
   <g id="text_14">
    <text style="font-family:DejaVu Sans;font-size:7px;font-style:normal;font-weight:roman;text-anchor:start;" transform="rotate(-43.385397, 410.14078, 215.036225)" x="410.14078" y="215.036225">arginine metabolic process</text>
   </g>
   <g id="text_15">
    <text style="font-family:DejaVu Sans;font-size:7px;font-style:normal;font-weight:roman;text-anchor:start;" transform="rotate(-72.394571, 359.743589, 182.267564)" x="359.743589" y="182.267564">pyrimidine-containing compound metabolic process</text>
   </g>
   <g id="text_16">
    <path d="M 301.906161 212.818123 
Q 301.57927 212.369958 301.36837 211.862142 
Q 301.157663 211.355403 301.049935 210.753562 
Q 300.858376 209.683383 301.292424 208.973455 
Q 301.726472 208.263527 302.6653 208.09548 
Q 303.273601 207.986596 303.84084 208.082843 
Q 304.409349 208.179975 304.917722 208.481208 
Q 305.539101 208.848882 305.917962 209.432191 
Q 306.296822 210.015501 306.441937 210.826209 
Q 306.522684 211.277321 306.509844 211.751851 
Q 306.49808 212.226189 306.392297 212.70291 
L 305.317881 212.690779 
Q 305.482394 212.23799 305.529407 211.824011 
Q 305.577689 211.410916 305.50677 211.014713 
Q 305.351249 210.145866 304.674504 209.704767 
Q 303.998835 209.263476 303.090152 209.426128 
Q 302.488312 209.533855 302.211405 209.911205 
Q 301.935767 210.289439 302.039255 210.867594 
Q 302.07298 211.056005 302.131468 211.239985 
Q 302.191032 211.423771 302.279167 211.605777 
L 303.288905 211.622819 
L 303.147452 210.832566 
L 304.045785 210.841771 
L 304.405969 212.854008 
z
M 305.427775 217.556902 
Q 306.019926 217.450909 306.280936 217.127516 
Q 306.543214 216.805008 306.452253 216.296835 
Q 306.331806 215.623936 305.646101 215.275554 
Q 304.960588 214.928249 304.052982 215.090708 
Q 303.473751 215.194389 303.20159 215.517555 
Q 302.929429 215.840721 303.014223 216.314441 
Q 303.083601 216.702031 303.29994 216.973313 
Q 303.51755 217.245479 303.875276 217.400341 
Q 304.218156 217.546749 304.621096 217.587959 
Q 305.024036 217.62917 305.427775 217.556902 
z
M 307.424806 216.317199 
Q 307.604224 217.31955 307.156871 218.029637 
Q 306.709518 218.739725 305.810525 218.900642 
Q 305.198995 219.010104 304.6198 218.921552 
Q 304.041681 218.832807 303.543814 218.553027 
Q 302.930483 218.211691 302.558673 217.661565 
Q 302.188133 217.112322 302.048415 216.331759 
Q 301.869575 215.332639 302.316044 214.623821 
Q 302.762513 213.915003 303.663659 213.7537 
Q 304.279496 213.643468 304.857422 213.731136 
Q 305.436425 213.818611 305.937907 214.099966 
Q 306.546852 214.43542 306.915432 214.986125 
Q 307.285088 215.536637 307.424806 216.317199 
z
M 308.424316 222.422585 
L 309.000726 225.64281 
L 308.014754 225.628181 
L 307.62335 223.441528 
L 306.818844 223.428862 
Q 306.886351 223.570115 306.936406 223.725603 
Q 306.98773 223.881976 307.016637 224.043471 
Q 307.154428 224.813268 306.880031 225.310171 
Q 306.605635 225.807074 305.983338 225.918463 
Q 304.994984 226.095375 304.293731 225.529772 
Q 303.593747 224.965053 303.388313 223.817356 
Q 303.312961 223.396391 303.32475 222.984272 
Q 303.336733 222.57323 303.434733 222.152347 
L 304.489961 222.169024 
Q 304.31459 222.585979 304.262215 222.957583 
Q 304.211109 223.330072 304.276053 223.692899 
Q 304.371255 224.224758 304.706264 224.494799 
Q 305.041273 224.76484 305.492384 224.684093 
Q 305.815376 224.626278 305.961503 224.350117 
Q 306.108707 224.073763 306.033934 223.656027 
Q 305.983443 223.373948 305.851453 223.058678 
Q 305.72054 222.743215 305.500048 222.380452 
z
" style="fill:#ffffff;stroke:#000000;"/>
    <path d="M 301.906161 212.818123 
Q 301.57927 212.369958 301.36837 211.862142 
Q 301.157663 211.355403 301.049935 210.753562 
Q 300.858376 209.683383 301.292424 208.973455 
Q 301.726472 208.263527 302.6653 208.09548 
Q 303.273601 207.986596 303.84084 208.082843 
Q 304.409349 208.179975 304.917722 208.481208 
Q 305.539101 208.848882 305.917962 209.432191 
Q 306.296822 210.015501 306.441937 210.826209 
Q 306.522684 211.277321 306.509844 211.751851 
Q 306.49808 212.226189 306.392297 212.70291 
L 305.317881 212.690779 
Q 305.482394 212.23799 305.529407 211.824011 
Q 305.577689 211.410916 305.50677 211.014713 
Q 305.351249 210.145866 304.674504 209.704767 
Q 303.998835 209.263476 303.090152 209.426128 
Q 302.488312 209.533855 302.211405 209.911205 
Q 301.935767 210.289439 302.039255 210.867594 
Q 302.07298 211.056005 302.131468 211.239985 
Q 302.191032 211.423771 302.279167 211.605777 
L 303.288905 211.622819 
L 303.147452 210.832566 
L 304.045785 210.841771 
L 304.405969 212.854008 
z
M 305.427775 217.556902 
Q 306.019926 217.450909 306.280936 217.127516 
Q 306.543214 216.805008 306.452253 216.296835 
Q 306.331806 215.623936 305.646101 215.275554 
Q 304.960588 214.928249 304.052982 215.090708 
Q 303.473751 215.194389 303.20159 215.517555 
Q 302.929429 215.840721 303.014223 216.314441 
Q 303.083601 216.702031 303.29994 216.973313 
Q 303.51755 217.245479 303.875276 217.400341 
Q 304.218156 217.546749 304.621096 217.587959 
Q 305.024036 217.62917 305.427775 217.556902 
z
M 307.424806 216.317199 
Q 307.604224 217.31955 307.156871 218.029637 
Q 306.709518 218.739725 305.810525 218.900642 
Q 305.198995 219.010104 304.6198 218.921552 
Q 304.041681 218.832807 303.543814 218.553027 
Q 302.930483 218.211691 302.558673 217.661565 
Q 302.188133 217.112322 302.048415 216.331759 
Q 301.869575 215.332639 302.316044 214.623821 
Q 302.762513 213.915003 303.663659 213.7537 
Q 304.279496 213.643468 304.857422 213.731136 
Q 305.436425 213.818611 305.937907 214.099966 
Q 306.546852 214.43542 306.915432 214.986125 
Q 307.285088 215.536637 307.424806 216.317199 
z
M 308.424316 222.422585 
L 309.000726 225.64281 
L 308.014754 225.628181 
L 307.62335 223.441528 
L 306.818844 223.428862 
Q 306.886351 223.570115 306.936406 223.725603 
Q 306.98773 223.881976 307.016637 224.043471 
Q 307.154428 224.813268 306.880031 225.310171 
Q 306.605635 225.807074 305.983338 225.918463 
Q 304.994984 226.095375 304.293731 225.529772 
Q 303.593747 224.965053 303.388313 223.817356 
Q 303.312961 223.396391 303.32475 222.984272 
Q 303.336733 222.57323 303.434733 222.152347 
L 304.489961 222.169024 
Q 304.31459 222.585979 304.262215 222.957583 
Q 304.211109 223.330072 304.276053 223.692899 
Q 304.371255 224.224758 304.706264 224.494799 
Q 305.041273 224.76484 305.492384 224.684093 
Q 305.815376 224.626278 305.961503 224.350117 
Q 306.108707 224.073763 306.033934 223.656027 
Q 305.983443 223.373948 305.851453 223.058678 
Q 305.72054 222.743215 305.500048 222.380452 
z
" style="fill:#ffffff;"/>
    <path d="M 303.906161 214.818123 
Q 303.57927 214.369958 303.36837 213.862142 
Q 303.157663 213.355403 303.049935 212.753562 
Q 302.858376 211.683383 303.292424 210.973455 
Q 303.726472 210.263527 304.6653 210.09548 
Q 305.273601 209.986596 305.84084 210.082843 
Q 306.409349 210.179975 306.917722 210.481208 
Q 307.539101 210.848882 307.917962 211.432191 
Q 308.296822 212.015501 308.441937 212.826209 
Q 308.522684 213.277321 308.509844 213.751851 
Q 308.49808 214.226189 308.392297 214.70291 
L 307.317881 214.690779 
Q 307.482394 214.23799 307.529407 213.824011 
Q 307.577689 213.410916 307.50677 213.014713 
Q 307.351249 212.145866 306.674504 211.704767 
Q 305.998835 211.263476 305.090152 211.426128 
Q 304.488312 211.533855 304.211405 211.911205 
Q 303.935767 212.289439 304.039255 212.867594 
Q 304.07298 213.056005 304.131468 213.239985 
Q 304.191032 213.423771 304.279167 213.605777 
L 305.288905 213.622819 
L 305.147452 212.832566 
L 306.045785 212.841771 
L 306.405969 214.854008 
z
M 307.427775 219.556902 
Q 308.019926 219.450909 308.280936 219.127516 
Q 308.543214 218.805008 308.452253 218.296835 
Q 308.331806 217.623936 307.646101 217.275554 
Q 306.960588 216.928249 306.052982 217.090708 
Q 305.473751 217.194389 305.20159 217.517555 
Q 304.929429 217.840721 305.014223 218.314441 
Q 305.083601 218.702031 305.29994 218.973313 
Q 305.51755 219.245479 305.875276 219.400341 
Q 306.218156 219.546749 306.621096 219.587959 
Q 307.024036 219.62917 307.427775 219.556902 
z
M 309.424806 218.317199 
Q 309.604224 219.31955 309.156871 220.029637 
Q 308.709518 220.739725 307.810525 220.900642 
Q 307.198995 221.010104 306.6198 220.921552 
Q 306.041681 220.832807 305.543814 220.553027 
Q 304.930483 220.211691 304.558673 219.661565 
Q 304.188133 219.112322 304.048415 218.331759 
Q 303.869575 217.332639 304.316044 216.623821 
Q 304.762513 215.915003 305.663659 215.7537 
Q 306.279496 215.643468 306.857422 215.731136 
Q 307.436425 215.818611 307.937907 216.099966 
Q 308.546852 216.43542 308.915432 216.986125 
Q 309.285088 217.536637 309.424806 218.317199 
z
M 310.424316 224.422585 
L 311.000726 227.64281 
L 310.014754 227.628181 
L 309.62335 225.441528 
L 308.818844 225.428862 
Q 308.886351 225.570115 308.936406 225.725603 
Q 308.98773 225.881976 309.016637 226.043471 
Q 309.154428 226.813268 308.880031 227.310171 
Q 308.605635 227.807074 307.983338 227.918463 
Q 306.994984 228.095375 306.293731 227.529772 
Q 305.593747 226.965053 305.388313 225.817356 
Q 305.312961 225.396391 305.32475 224.984272 
Q 305.336733 224.57323 305.434733 224.152347 
L 306.489961 224.169024 
Q 306.31459 224.585979 306.262215 224.957583 
Q 306.211109 225.330072 306.276053 225.692899 
Q 306.371255 226.224758 306.706264 226.494799 
Q 307.041273 226.76484 307.492384 226.684093 
Q 307.815376 226.626278 307.961503 226.350117 
Q 308.108707 226.073763 308.033934 225.656027 
Q 307.983443 225.373948 307.851453 225.058678 
Q 307.72054 224.743215 307.500048 224.380452 
z
" style="fill:#4c4c4c;opacity:0.3;"/>
    <path d="M 301.906161 212.818123 
Q 301.57927 212.369958 301.36837 211.862142 
Q 301.157663 211.355403 301.049935 210.753562 
Q 300.858376 209.683383 301.292424 208.973455 
Q 301.726472 208.263527 302.6653 208.09548 
Q 303.273601 207.986596 303.84084 208.082843 
Q 304.409349 208.179975 304.917722 208.481208 
Q 305.539101 208.848882 305.917962 209.432191 
Q 306.296822 210.015501 306.441937 210.826209 
Q 306.522684 211.277321 306.509844 211.751851 
Q 306.49808 212.226189 306.392297 212.70291 
L 305.317881 212.690779 
Q 305.482394 212.23799 305.529407 211.824011 
Q 305.577689 211.410916 305.50677 211.014713 
Q 305.351249 210.145866 304.674504 209.704767 
Q 303.998835 209.263476 303.090152 209.426128 
Q 302.488312 209.533855 302.211405 209.911205 
Q 301.935767 210.289439 302.039255 210.867594 
Q 302.07298 211.056005 302.131468 211.239985 
Q 302.191032 211.423771 302.279167 211.605777 
L 303.288905 211.622819 
L 303.147452 210.832566 
L 304.045785 210.841771 
L 304.405969 212.854008 
z
M 305.427775 217.556902 
Q 306.019926 217.450909 306.280936 217.127516 
Q 306.543214 216.805008 306.452253 216.296835 
Q 306.331806 215.623936 305.646101 215.275554 
Q 304.960588 214.928249 304.052982 215.090708 
Q 303.473751 215.194389 303.20159 215.517555 
Q 302.929429 215.840721 303.014223 216.314441 
Q 303.083601 216.702031 303.29994 216.973313 
Q 303.51755 217.245479 303.875276 217.400341 
Q 304.218156 217.546749 304.621096 217.587959 
Q 305.024036 217.62917 305.427775 217.556902 
z
M 307.424806 216.317199 
Q 307.604224 217.31955 307.156871 218.029637 
Q 306.709518 218.739725 305.810525 218.900642 
Q 305.198995 219.010104 304.6198 218.921552 
Q 304.041681 218.832807 303.543814 218.553027 
Q 302.930483 218.211691 302.558673 217.661565 
Q 302.188133 217.112322 302.048415 216.331759 
Q 301.869575 215.332639 302.316044 214.623821 
Q 302.762513 213.915003 303.663659 213.7537 
Q 304.279496 213.643468 304.857422 213.731136 
Q 305.436425 213.818611 305.937907 214.099966 
Q 306.546852 214.43542 306.915432 214.986125 
Q 307.285088 215.536637 307.424806 216.317199 
z
M 308.424316 222.422585 
L 309.000726 225.64281 
L 308.014754 225.628181 
L 307.62335 223.441528 
L 306.818844 223.428862 
Q 306.886351 223.570115 306.936406 223.725603 
Q 306.98773 223.881976 307.016637 224.043471 
Q 307.154428 224.813268 306.880031 225.310171 
Q 306.605635 225.807074 305.983338 225.918463 
Q 304.994984 226.095375 304.293731 225.529772 
Q 303.593747 224.965053 303.388313 223.817356 
Q 303.312961 223.396391 303.32475 222.984272 
Q 303.336733 222.57323 303.434733 222.152347 
L 304.489961 222.169024 
Q 304.31459 222.585979 304.262215 222.957583 
Q 304.211109 223.330072 304.276053 223.692899 
Q 304.371255 224.224758 304.706264 224.494799 
Q 305.041273 224.76484 305.492384 224.684093 
Q 305.815376 224.626278 305.961503 224.350117 
Q 306.108707 224.073763 306.033934 223.656027 
Q 305.983443 223.373948 305.851453 223.058678 
Q 305.72054 222.743215 305.500048 222.380452 
z
" style="fill:#ffffff;"/>
   </g>
   <g id="text_17">
    <path d="M 265.830967 228.572364 
Q 265.332459 228.329055 264.908591 227.978782 
Q 264.485396 227.62937 264.108763 227.147742 
Q 263.439043 226.291324 263.490775 225.46083 
Q 263.542506 224.630337 264.293811 224.042817 
Q 264.780608 223.662141 265.327023 223.481992 
Q 265.874974 223.30203 266.465202 223.330602 
Q 267.186387 223.365065 267.794024 223.703536 
Q 268.401661 224.042008 268.909004 224.690783 
Q 269.19131 225.051789 269.401839 225.477255 
Q 269.61323 225.902047 269.742627 226.372908 
L 268.787222 226.864556 
Q 268.72093 226.38739 268.56892 225.99947 
Q 268.418445 225.611738 268.1705 225.294674 
Q 267.626774 224.599373 266.822317 224.525893 
Q 266.01872 224.45174 265.29154 225.020395 
Q 264.809912 225.397028 264.74158 225.860063 
Q 264.674783 226.323285 265.036593 226.785958 
Q 265.154501 226.936736 265.292226 227.072017 
Q 265.430813 227.206625 265.593822 227.326299 
L 266.49435 226.869233 
L 265.999809 226.236828 
L 266.798196 225.824925 
L 268.057457 227.435233 
z
M 271.15965 231.114593 
Q 271.633524 230.744024 271.713033 230.336119 
Q 271.794077 229.928402 271.476061 229.521732 
Q 271.05496 228.98324 270.285934 228.995907 
Q 269.517582 229.009436 268.791263 229.577417 
Q 268.327729 229.939901 268.238256 230.352821 
Q 268.148784 230.76574 268.445239 231.144839 
Q 268.687794 231.455011 269.005873 231.593656 
Q 269.325488 231.732488 269.714111 231.702114 
Q 270.085657 231.671209 270.461106 231.519231 
Q 270.836555 231.367254 271.15965 231.114593 
z
M 272.345274 229.08499 
Q 272.972547 229.887128 272.909129 230.723983 
Q 272.845711 231.560839 272.126285 232.12343 
Q 271.636903 232.506127 271.083517 232.698669 
Q 270.530993 232.890538 269.960084 232.876017 
Q 269.258327 232.861072 268.672439 232.548636 
Q 268.088085 232.236388 267.599608 231.611737 
Q 266.974357 230.812183 267.037587 229.976863 
Q 267.100817 229.141543 267.821966 228.577605 
Q 268.314794 228.192213 268.866645 227.999482 
Q 269.419357 227.806078 269.994198 227.820301 
Q 270.689328 227.832098 271.272631 228.146555 
Q 271.856797 228.460338 272.345274 229.08499 
z
M 276.215762 236.003531 
L 273.44393 235.866244 
L 274.307019 236.969938 
z
M 277.077329 235.285354 
L 277.99971 236.464868 
L 275.07376 237.950425 
L 275.522486 238.524243 
L 274.659337 238.96874 
L 274.210611 238.394922 
L 273.367091 238.825458 
L 272.598328 237.842386 
L 273.444544 237.415297 
L 272.029643 235.605962 
L 273.054714 235.086216 
z
" style="fill:#ffffff;stroke:#000000;"/>
    <path d="M 265.830967 228.572364 
Q 265.332459 228.329055 264.908591 227.978782 
Q 264.485396 227.62937 264.108763 227.147742 
Q 263.439043 226.291324 263.490775 225.46083 
Q 263.542506 224.630337 264.293811 224.042817 
Q 264.780608 223.662141 265.327023 223.481992 
Q 265.874974 223.30203 266.465202 223.330602 
Q 267.186387 223.365065 267.794024 223.703536 
Q 268.401661 224.042008 268.909004 224.690783 
Q 269.19131 225.051789 269.401839 225.477255 
Q 269.61323 225.902047 269.742627 226.372908 
L 268.787222 226.864556 
Q 268.72093 226.38739 268.56892 225.99947 
Q 268.418445 225.611738 268.1705 225.294674 
Q 267.626774 224.599373 266.822317 224.525893 
Q 266.01872 224.45174 265.29154 225.020395 
Q 264.809912 225.397028 264.74158 225.860063 
Q 264.674783 226.323285 265.036593 226.785958 
Q 265.154501 226.936736 265.292226 227.072017 
Q 265.430813 227.206625 265.593822 227.326299 
L 266.49435 226.869233 
L 265.999809 226.236828 
L 266.798196 225.824925 
L 268.057457 227.435233 
z
M 271.15965 231.114593 
Q 271.633524 230.744024 271.713033 230.336119 
Q 271.794077 229.928402 271.476061 229.521732 
Q 271.05496 228.98324 270.285934 228.995907 
Q 269.517582 229.009436 268.791263 229.577417 
Q 268.327729 229.939901 268.238256 230.352821 
Q 268.148784 230.76574 268.445239 231.144839 
Q 268.687794 231.455011 269.005873 231.593656 
Q 269.325488 231.732488 269.714111 231.702114 
Q 270.085657 231.671209 270.461106 231.519231 
Q 270.836555 231.367254 271.15965 231.114593 
z
M 272.345274 229.08499 
Q 272.972547 229.887128 272.909129 230.723983 
Q 272.845711 231.560839 272.126285 232.12343 
Q 271.636903 232.506127 271.083517 232.698669 
Q 270.530993 232.890538 269.960084 232.876017 
Q 269.258327 232.861072 268.672439 232.548636 
Q 268.088085 232.236388 267.599608 231.611737 
Q 266.974357 230.812183 267.037587 229.976863 
Q 267.100817 229.141543 267.821966 228.577605 
Q 268.314794 228.192213 268.866645 227.999482 
Q 269.419357 227.806078 269.994198 227.820301 
Q 270.689328 227.832098 271.272631 228.146555 
Q 271.856797 228.460338 272.345274 229.08499 
z
M 276.215762 236.003531 
L 273.44393 235.866244 
L 274.307019 236.969938 
z
M 277.077329 235.285354 
L 277.99971 236.464868 
L 275.07376 237.950425 
L 275.522486 238.524243 
L 274.659337 238.96874 
L 274.210611 238.394922 
L 273.367091 238.825458 
L 272.598328 237.842386 
L 273.444544 237.415297 
L 272.029643 235.605962 
L 273.054714 235.086216 
z
" style="fill:#ffffff;"/>
    <path d="M 267.830967 230.572364 
Q 267.332459 230.329055 266.908591 229.978782 
Q 266.485396 229.62937 266.108763 229.147742 
Q 265.439043 228.291324 265.490775 227.46083 
Q 265.542506 226.630337 266.293811 226.042817 
Q 266.780608 225.662141 267.327023 225.481992 
Q 267.874974 225.30203 268.465202 225.330602 
Q 269.186387 225.365065 269.794024 225.703536 
Q 270.401661 226.042008 270.909004 226.690783 
Q 271.19131 227.051789 271.401839 227.477255 
Q 271.61323 227.902047 271.742627 228.372908 
L 270.787222 228.864556 
Q 270.72093 228.38739 270.56892 227.99947 
Q 270.418445 227.611738 270.1705 227.294674 
Q 269.626774 226.599373 268.822317 226.525893 
Q 268.01872 226.45174 267.29154 227.020395 
Q 266.809912 227.397028 266.74158 227.860063 
Q 266.674783 228.323285 267.036593 228.785958 
Q 267.154501 228.936736 267.292226 229.072017 
Q 267.430813 229.206625 267.593822 229.326299 
L 268.49435 228.869233 
L 267.999809 228.236828 
L 268.798196 227.824925 
L 270.057457 229.435233 
z
M 273.15965 233.114593 
Q 273.633524 232.744024 273.713033 232.336119 
Q 273.794077 231.928402 273.476061 231.521732 
Q 273.05496 230.98324 272.285934 230.995907 
Q 271.517582 231.009436 270.791263 231.577417 
Q 270.327729 231.939901 270.238256 232.352821 
Q 270.148784 232.76574 270.445239 233.144839 
Q 270.687794 233.455011 271.005873 233.593656 
Q 271.325488 233.732488 271.714111 233.702114 
Q 272.085657 233.671209 272.461106 233.519231 
Q 272.836555 233.367254 273.15965 233.114593 
z
M 274.345274 231.08499 
Q 274.972547 231.887128 274.909129 232.723983 
Q 274.845711 233.560839 274.126285 234.12343 
Q 273.636903 234.506127 273.083517 234.698669 
Q 272.530993 234.890538 271.960084 234.876017 
Q 271.258327 234.861072 270.672439 234.548636 
Q 270.088085 234.236388 269.599608 233.611737 
Q 268.974357 232.812183 269.037587 231.976863 
Q 269.100817 231.141543 269.821966 230.577605 
Q 270.314794 230.192213 270.866645 229.999482 
Q 271.419357 229.806078 271.994198 229.820301 
Q 272.689328 229.832098 273.272631 230.146555 
Q 273.856797 230.460338 274.345274 231.08499 
z
M 278.215762 238.003531 
L 275.44393 237.866244 
L 276.307019 238.969938 
z
M 279.077329 237.285354 
L 279.99971 238.464868 
L 277.07376 239.950425 
L 277.522486 240.524243 
L 276.659337 240.96874 
L 276.210611 240.394922 
L 275.367091 240.825458 
L 274.598328 239.842386 
L 275.444544 239.415297 
L 274.029643 237.605962 
L 275.054714 237.086216 
z
" style="fill:#4c4c4c;opacity:0.3;"/>
    <path d="M 265.830967 228.572364 
Q 265.332459 228.329055 264.908591 227.978782 
Q 264.485396 227.62937 264.108763 227.147742 
Q 263.439043 226.291324 263.490775 225.46083 
Q 263.542506 224.630337 264.293811 224.042817 
Q 264.780608 223.662141 265.327023 223.481992 
Q 265.874974 223.30203 266.465202 223.330602 
Q 267.186387 223.365065 267.794024 223.703536 
Q 268.401661 224.042008 268.909004 224.690783 
Q 269.19131 225.051789 269.401839 225.477255 
Q 269.61323 225.902047 269.742627 226.372908 
L 268.787222 226.864556 
Q 268.72093 226.38739 268.56892 225.99947 
Q 268.418445 225.611738 268.1705 225.294674 
Q 267.626774 224.599373 266.822317 224.525893 
Q 266.01872 224.45174 265.29154 225.020395 
Q 264.809912 225.397028 264.74158 225.860063 
Q 264.674783 226.323285 265.036593 226.785958 
Q 265.154501 226.936736 265.292226 227.072017 
Q 265.430813 227.206625 265.593822 227.326299 
L 266.49435 226.869233 
L 265.999809 226.236828 
L 266.798196 225.824925 
L 268.057457 227.435233 
z
M 271.15965 231.114593 
Q 271.633524 230.744024 271.713033 230.336119 
Q 271.794077 229.928402 271.476061 229.521732 
Q 271.05496 228.98324 270.285934 228.995907 
Q 269.517582 229.009436 268.791263 229.577417 
Q 268.327729 229.939901 268.238256 230.352821 
Q 268.148784 230.76574 268.445239 231.144839 
Q 268.687794 231.455011 269.005873 231.593656 
Q 269.325488 231.732488 269.714111 231.702114 
Q 270.085657 231.671209 270.461106 231.519231 
Q 270.836555 231.367254 271.15965 231.114593 
z
M 272.345274 229.08499 
Q 272.972547 229.887128 272.909129 230.723983 
Q 272.845711 231.560839 272.126285 232.12343 
Q 271.636903 232.506127 271.083517 232.698669 
Q 270.530993 232.890538 269.960084 232.876017 
Q 269.258327 232.861072 268.672439 232.548636 
Q 268.088085 232.236388 267.599608 231.611737 
Q 266.974357 230.812183 267.037587 229.976863 
Q 267.100817 229.141543 267.821966 228.577605 
Q 268.314794 228.192213 268.866645 227.999482 
Q 269.419357 227.806078 269.994198 227.820301 
Q 270.689328 227.832098 271.272631 228.146555 
Q 271.856797 228.460338 272.345274 229.08499 
z
M 276.215762 236.003531 
L 273.44393 235.866244 
L 274.307019 236.969938 
z
M 277.077329 235.285354 
L 277.99971 236.464868 
L 275.07376 237.950425 
L 275.522486 238.524243 
L 274.659337 238.96874 
L 274.210611 238.394922 
L 273.367091 238.825458 
L 272.598328 237.842386 
L 273.444544 237.415297 
L 272.029643 235.605962 
L 273.054714 235.086216 
z
" style="fill:#ffffff;"/>
   </g>
   <g id="text_18">
    <path d="M 237.424669 306.172522 
Q 236.941818 306.445587 236.41308 306.596558 
Q 235.885434 306.747463 235.275188 306.785113 
Q 234.190064 306.852063 233.534888 306.339092 
Q 232.879711 305.826121 232.820979 304.874181 
Q 232.782924 304.257385 232.943901 303.705018 
Q 233.105904 303.151491 233.463717 302.68122 
Q 233.900551 302.106354 234.523636 301.797241 
Q 235.146721 301.488128 235.968751 301.43741 
Q 236.426163 301.409189 236.896051 301.476631 
Q 237.365873 301.542981 237.827227 301.702999 
L 237.691356 302.768858 
Q 237.260543 302.55326 236.85474 302.458851 
Q 236.449962 302.363284 236.048226 302.38807 
Q 235.167245 302.442425 234.651094 303.063827 
Q 234.134876 303.684137 234.191723 304.60551 
Q 234.229374 305.215756 234.572297 305.534305 
Q 234.916245 305.851696 235.502474 305.815527 
Q 235.693517 305.80374 235.883011 305.766844 
Q 236.072437 305.728857 236.263388 305.662285 
L 236.396683 304.661239 
L 235.595394 304.710677 
L 235.708066 303.81939 
L 237.748405 303.693506 
z
M 242.537721 303.220491 
Q 242.500677 302.62007 242.209519 302.323531 
Q 241.919386 302.025832 241.404116 302.057623 
Q 240.721819 302.09972 240.296735 302.740707 
Q 239.872742 303.381627 239.929522 304.301908 
Q 239.965758 304.889229 240.255406 305.19682 
Q 240.545054 305.50441 241.02539 305.474775 
Q 241.418393 305.450527 241.7128 305.266893 
Q 242.008231 305.082099 242.203286 304.744603 
Q 242.388233 304.420881 242.475606 304.025375 
Q 242.562979 303.629869 242.537721 303.220491 
z
M 241.536426 301.093897 
Q 242.552775 301.03119 243.206576 301.557396 
Q 243.860377 302.083602 243.916618 302.99515 
Q 243.954875 303.615221 243.800164 304.180352 
Q 243.645385 304.744391 243.310093 305.206697 
Q 242.900348 305.776605 242.311038 306.082538 
Q 241.722752 306.387313 240.931288 306.436144 
Q 239.918215 306.498649 239.265573 305.973467 
Q 238.61293 305.448286 238.556555 304.534554 
Q 238.518029 303.910117 238.671716 303.346145 
Q 238.825335 302.781081 239.162608 302.315365 
Q 239.566005 301.749136 240.155517 301.446478 
Q 240.744962 301.142728 241.536426 301.093897 
z
M 249.925487 303.024393 
Q 250.316371 303.090135 250.548067 303.346509 
Q 250.779696 303.601792 250.803943 303.994795 
Q 250.856143 304.840843 250.216097 305.37236 
Q 249.575983 305.902785 248.402434 305.975191 
Q 247.958122 306.002604 247.553571 305.964005 
Q 247.14902 305.925407 246.786413 305.820663 
L 246.918227 304.7956 
Q 247.232691 304.954819 247.596754 305.029886 
Q 247.96191 305.104885 248.319979 305.082793 
Q 248.896383 305.04723 249.218191 304.810401 
Q 249.541023 304.572413 249.518527 304.207794 
Q 249.499735 303.903217 249.234921 303.767235 
Q 248.970107 303.631253 248.454837 303.663044 
L 247.933017 303.695239 
L 248.047843 302.838887 
L 248.600231 302.804805 
Q 249.136243 302.771735 249.436472 302.558153 
Q 249.736702 302.344572 249.716294 302.013795 
Q 249.700264 301.753976 249.474601 301.630921 
Q 249.250031 301.507797 248.837378 301.533257 
Q 248.546992 301.551173 248.209946 301.647581 
Q 247.873991 301.743921 247.513828 301.909696 
L 247.642257 300.936346 
Q 248.03835 300.802325 248.425802 300.723628 
Q 248.813253 300.644932 249.195339 300.621358 
Q 250.057762 300.568148 250.509962 300.828452 
Q 250.963187 301.087596 250.998144 301.654175 
Q 251.029463 302.161804 250.748017 302.519971 
Q 250.467662 302.878072 249.925487 303.024393 
z
" style="fill:#ffffff;stroke:#000000;"/>
    <path d="M 237.424669 306.172522 
Q 236.941818 306.445587 236.41308 306.596558 
Q 235.885434 306.747463 235.275188 306.785113 
Q 234.190064 306.852063 233.534888 306.339092 
Q 232.879711 305.826121 232.820979 304.874181 
Q 232.782924 304.257385 232.943901 303.705018 
Q 233.105904 303.151491 233.463717 302.68122 
Q 233.900551 302.106354 234.523636 301.797241 
Q 235.146721 301.488128 235.968751 301.43741 
Q 236.426163 301.409189 236.896051 301.476631 
Q 237.365873 301.542981 237.827227 301.702999 
L 237.691356 302.768858 
Q 237.260543 302.55326 236.85474 302.458851 
Q 236.449962 302.363284 236.048226 302.38807 
Q 235.167245 302.442425 234.651094 303.063827 
Q 234.134876 303.684137 234.191723 304.60551 
Q 234.229374 305.215756 234.572297 305.534305 
Q 234.916245 305.851696 235.502474 305.815527 
Q 235.693517 305.80374 235.883011 305.766844 
Q 236.072437 305.728857 236.263388 305.662285 
L 236.396683 304.661239 
L 235.595394 304.710677 
L 235.708066 303.81939 
L 237.748405 303.693506 
z
M 242.537721 303.220491 
Q 242.500677 302.62007 242.209519 302.323531 
Q 241.919386 302.025832 241.404116 302.057623 
Q 240.721819 302.09972 240.296735 302.740707 
Q 239.872742 303.381627 239.929522 304.301908 
Q 239.965758 304.889229 240.255406 305.19682 
Q 240.545054 305.50441 241.02539 305.474775 
Q 241.418393 305.450527 241.7128 305.266893 
Q 242.008231 305.082099 242.203286 304.744603 
Q 242.388233 304.420881 242.475606 304.025375 
Q 242.562979 303.629869 242.537721 303.220491 
z
M 241.536426 301.093897 
Q 242.552775 301.03119 243.206576 301.557396 
Q 243.860377 302.083602 243.916618 302.99515 
Q 243.954875 303.615221 243.800164 304.180352 
Q 243.645385 304.744391 243.310093 305.206697 
Q 242.900348 305.776605 242.311038 306.082538 
Q 241.722752 306.387313 240.931288 306.436144 
Q 239.918215 306.498649 239.265573 305.973467 
Q 238.61293 305.448286 238.556555 304.534554 
Q 238.518029 303.910117 238.671716 303.346145 
Q 238.825335 302.781081 239.162608 302.315365 
Q 239.566005 301.749136 240.155517 301.446478 
Q 240.744962 301.142728 241.536426 301.093897 
z
M 249.925487 303.024393 
Q 250.316371 303.090135 250.548067 303.346509 
Q 250.779696 303.601792 250.803943 303.994795 
Q 250.856143 304.840843 250.216097 305.37236 
Q 249.575983 305.902785 248.402434 305.975191 
Q 247.958122 306.002604 247.553571 305.964005 
Q 247.14902 305.925407 246.786413 305.820663 
L 246.918227 304.7956 
Q 247.232691 304.954819 247.596754 305.029886 
Q 247.96191 305.104885 248.319979 305.082793 
Q 248.896383 305.04723 249.218191 304.810401 
Q 249.541023 304.572413 249.518527 304.207794 
Q 249.499735 303.903217 249.234921 303.767235 
Q 248.970107 303.631253 248.454837 303.663044 
L 247.933017 303.695239 
L 248.047843 302.838887 
L 248.600231 302.804805 
Q 249.136243 302.771735 249.436472 302.558153 
Q 249.736702 302.344572 249.716294 302.013795 
Q 249.700264 301.753976 249.474601 301.630921 
Q 249.250031 301.507797 248.837378 301.533257 
Q 248.546992 301.551173 248.209946 301.647581 
Q 247.873991 301.743921 247.513828 301.909696 
L 247.642257 300.936346 
Q 248.03835 300.802325 248.425802 300.723628 
Q 248.813253 300.644932 249.195339 300.621358 
Q 250.057762 300.568148 250.509962 300.828452 
Q 250.963187 301.087596 250.998144 301.654175 
Q 251.029463 302.161804 250.748017 302.519971 
Q 250.467662 302.878072 249.925487 303.024393 
z
" style="fill:#ffffff;"/>
    <path d="M 239.424669 308.172522 
Q 238.941818 308.445587 238.41308 308.596558 
Q 237.885434 308.747463 237.275188 308.785113 
Q 236.190064 308.852063 235.534888 308.339092 
Q 234.879711 307.826121 234.820979 306.874181 
Q 234.782924 306.257385 234.943901 305.705018 
Q 235.105904 305.151491 235.463717 304.68122 
Q 235.900551 304.106354 236.523636 303.797241 
Q 237.146721 303.488128 237.968751 303.43741 
Q 238.426163 303.409189 238.896051 303.476631 
Q 239.365873 303.542981 239.827227 303.702999 
L 239.691356 304.768858 
Q 239.260543 304.55326 238.85474 304.458851 
Q 238.449962 304.363284 238.048226 304.38807 
Q 237.167245 304.442425 236.651094 305.063827 
Q 236.134876 305.684137 236.191723 306.60551 
Q 236.229374 307.215756 236.572297 307.534305 
Q 236.916245 307.851696 237.502474 307.815527 
Q 237.693517 307.80374 237.883011 307.766844 
Q 238.072437 307.728857 238.263388 307.662285 
L 238.396683 306.661239 
L 237.595394 306.710677 
L 237.708066 305.81939 
L 239.748405 305.693506 
z
M 244.537721 305.220491 
Q 244.500677 304.62007 244.209519 304.323531 
Q 243.919386 304.025832 243.404116 304.057623 
Q 242.721819 304.09972 242.296735 304.740707 
Q 241.872742 305.381627 241.929522 306.301908 
Q 241.965758 306.889229 242.255406 307.19682 
Q 242.545054 307.50441 243.02539 307.474775 
Q 243.418393 307.450527 243.7128 307.266893 
Q 244.008231 307.082099 244.203286 306.744603 
Q 244.388233 306.420881 244.475606 306.025375 
Q 244.562979 305.629869 244.537721 305.220491 
z
M 243.536426 303.093897 
Q 244.552775 303.03119 245.206576 303.557396 
Q 245.860377 304.083602 245.916618 304.99515 
Q 245.954875 305.615221 245.800164 306.180352 
Q 245.645385 306.744391 245.310093 307.206697 
Q 244.900348 307.776605 244.311038 308.082538 
Q 243.722752 308.387313 242.931288 308.436144 
Q 241.918215 308.498649 241.265573 307.973467 
Q 240.61293 307.448286 240.556555 306.534554 
Q 240.518029 305.910117 240.671716 305.346145 
Q 240.825335 304.781081 241.162608 304.315365 
Q 241.566005 303.749136 242.155517 303.446478 
Q 242.744962 303.142728 243.536426 303.093897 
z
M 251.925487 305.024393 
Q 252.316371 305.090135 252.548067 305.346509 
Q 252.779696 305.601792 252.803943 305.994795 
Q 252.856143 306.840843 252.216097 307.37236 
Q 251.575983 307.902785 250.402434 307.975191 
Q 249.958122 308.002604 249.553571 307.964005 
Q 249.14902 307.925407 248.786413 307.820663 
L 248.918227 306.7956 
Q 249.232691 306.954819 249.596754 307.029886 
Q 249.96191 307.104885 250.319979 307.082793 
Q 250.896383 307.04723 251.218191 306.810401 
Q 251.541023 306.572413 251.518527 306.207794 
Q 251.499735 305.903217 251.234921 305.767235 
Q 250.970107 305.631253 250.454837 305.663044 
L 249.933017 305.695239 
L 250.047843 304.838887 
L 250.600231 304.804805 
Q 251.136243 304.771735 251.436472 304.558153 
Q 251.736702 304.344572 251.716294 304.013795 
Q 251.700264 303.753976 251.474601 303.630921 
Q 251.250031 303.507797 250.837378 303.533257 
Q 250.546992 303.551173 250.209946 303.647581 
Q 249.873991 303.743921 249.513828 303.909696 
L 249.642257 302.936346 
Q 250.03835 302.802325 250.425802 302.723628 
Q 250.813253 302.644932 251.195339 302.621358 
Q 252.057762 302.568148 252.509962 302.828452 
Q 252.963187 303.087596 252.998144 303.654175 
Q 253.029463 304.161804 252.748017 304.519971 
Q 252.467662 304.878072 251.925487 305.024393 
z
" style="fill:#4c4c4c;opacity:0.3;"/>
    <path d="M 237.424669 306.172522 
Q 236.941818 306.445587 236.41308 306.596558 
Q 235.885434 306.747463 235.275188 306.785113 
Q 234.190064 306.852063 233.534888 306.339092 
Q 232.879711 305.826121 232.820979 304.874181 
Q 232.782924 304.257385 232.943901 303.705018 
Q 233.105904 303.151491 233.463717 302.68122 
Q 233.900551 302.106354 234.523636 301.797241 
Q 235.146721 301.488128 235.968751 301.43741 
Q 236.426163 301.409189 236.896051 301.476631 
Q 237.365873 301.542981 237.827227 301.702999 
L 237.691356 302.768858 
Q 237.260543 302.55326 236.85474 302.458851 
Q 236.449962 302.363284 236.048226 302.38807 
Q 235.167245 302.442425 234.651094 303.063827 
Q 234.134876 303.684137 234.191723 304.60551 
Q 234.229374 305.215756 234.572297 305.534305 
Q 234.916245 305.851696 235.502474 305.815527 
Q 235.693517 305.80374 235.883011 305.766844 
Q 236.072437 305.728857 236.263388 305.662285 
L 236.396683 304.661239 
L 235.595394 304.710677 
L 235.708066 303.81939 
L 237.748405 303.693506 
z
M 242.537721 303.220491 
Q 242.500677 302.62007 242.209519 302.323531 
Q 241.919386 302.025832 241.404116 302.057623 
Q 240.721819 302.09972 240.296735 302.740707 
Q 239.872742 303.381627 239.929522 304.301908 
Q 239.965758 304.889229 240.255406 305.19682 
Q 240.545054 305.50441 241.02539 305.474775 
Q 241.418393 305.450527 241.7128 305.266893 
Q 242.008231 305.082099 242.203286 304.744603 
Q 242.388233 304.420881 242.475606 304.025375 
Q 242.562979 303.629869 242.537721 303.220491 
z
M 241.536426 301.093897 
Q 242.552775 301.03119 243.206576 301.557396 
Q 243.860377 302.083602 243.916618 302.99515 
Q 243.954875 303.615221 243.800164 304.180352 
Q 243.645385 304.744391 243.310093 305.206697 
Q 242.900348 305.776605 242.311038 306.082538 
Q 241.722752 306.387313 240.931288 306.436144 
Q 239.918215 306.498649 239.265573 305.973467 
Q 238.61293 305.448286 238.556555 304.534554 
Q 238.518029 303.910117 238.671716 303.346145 
Q 238.825335 302.781081 239.162608 302.315365 
Q 239.566005 301.749136 240.155517 301.446478 
Q 240.744962 301.142728 241.536426 301.093897 
z
M 249.925487 303.024393 
Q 250.316371 303.090135 250.548067 303.346509 
Q 250.779696 303.601792 250.803943 303.994795 
Q 250.856143 304.840843 250.216097 305.37236 
Q 249.575983 305.902785 248.402434 305.975191 
Q 247.958122 306.002604 247.553571 305.964005 
Q 247.14902 305.925407 246.786413 305.820663 
L 246.918227 304.7956 
Q 247.232691 304.954819 247.596754 305.029886 
Q 247.96191 305.104885 248.319979 305.082793 
Q 248.896383 305.04723 249.218191 304.810401 
Q 249.541023 304.572413 249.518527 304.207794 
Q 249.499735 303.903217 249.234921 303.767235 
Q 248.970107 303.631253 248.454837 303.663044 
L 247.933017 303.695239 
L 248.047843 302.838887 
L 248.600231 302.804805 
Q 249.136243 302.771735 249.436472 302.558153 
Q 249.736702 302.344572 249.716294 302.013795 
Q 249.700264 301.753976 249.474601 301.630921 
Q 249.250031 301.507797 248.837378 301.533257 
Q 248.546992 301.551173 248.209946 301.647581 
Q 247.873991 301.743921 247.513828 301.909696 
L 247.642257 300.936346 
Q 248.03835 300.802325 248.425802 300.723628 
Q 248.813253 300.644932 249.195339 300.621358 
Q 250.057762 300.568148 250.509962 300.828452 
Q 250.963187 301.087596 250.998144 301.654175 
Q 251.029463 302.161804 250.748017 302.519971 
Q 250.467662 302.878072 249.925487 303.024393 
z
" style="fill:#ffffff;"/>
   </g>
   <g id="text_19">
    <path d="M 309.959591 380.288276 
Q 310.142556 380.811949 310.19722 381.359094 
Q 310.252011 381.905153 310.180679 382.512384 
Q 310.053838 383.592147 309.432658 384.145799 
Q 308.811478 384.699452 307.864242 384.588179 
Q 307.250493 384.516081 306.735498 384.259558 
Q 306.219544 384.001821 305.820301 383.566172 
Q 305.332159 383.034182 305.138625 382.366103 
Q 304.945091 381.698024 305.041179 380.880054 
Q 305.094646 380.424903 305.244472 379.974463 
Q 305.393211 379.523895 305.632625 379.098296 
L 306.657406 379.421312 
Q 306.36872 379.806984 306.203739 380.189567 
Q 306.037799 380.570937 305.99084 380.970688 
Q 305.887862 381.847316 306.407712 382.465627 
Q 306.926475 383.08381 307.843296 383.191509 
Q 308.450527 383.262842 308.824918 382.981947 
Q 309.19835 382.699838 309.266875 382.116505 
Q 309.289206 381.926406 309.286553 381.733372 
Q 309.282813 381.540211 309.251213 381.340472 
L 308.289757 381.031503 
L 308.196094 381.828833 
L 307.338989 381.559653 
L 307.577486 379.529395 
z
M 307.962611 374.732211 
Q 307.365156 374.662027 307.02162 374.895888 
Q 306.677124 375.128535 306.616894 375.641259 
Q 306.53714 376.320185 307.092438 376.852355 
Q 307.647864 377.383439 308.563599 377.491011 
Q 309.148018 377.559664 309.502162 377.329252 
Q 309.856306 377.098839 309.912453 376.620876 
Q 309.958391 376.229815 309.829965 375.907474 
Q 309.70058 375.583919 309.403093 375.332023 
Q 309.117366 375.09252 308.743666 374.936292 
Q 308.369966 374.780063 307.962611 374.732211 
z
M 305.691988 375.339887 
Q 305.81079 374.32856 306.44475 373.778612 
Q 307.07871 373.228663 307.985755 373.335215 
Q 308.602762 373.407695 309.13143 373.660318 
Q 309.659012 373.912814 310.054418 374.324884 
Q 310.542491 374.829335 310.738895 375.463612 
Q 310.934339 376.096675 310.841825 376.884228 
Q 310.723406 377.892297 310.09066 378.441286 
Q 309.457913 378.990276 308.548697 378.88347 
Q 307.927344 378.810479 307.399634 378.559069 
Q 306.870838 378.307533 306.472429 377.892907 
Q 305.986849 377.395357 305.793704 376.761463 
Q 305.599474 376.127441 305.691988 375.339887 
z
M 310.670683 369.200656 
L 310.929469 366.997679 
L 311.867921 367.296237 
L 311.43559 370.976556 
L 310.490045 370.67276 
L 309.117054 368.326552 
Q 308.886956 367.941609 308.630561 367.724274 
Q 308.374294 367.505853 308.112501 367.4751 
Q 307.834413 367.442432 307.660002 367.614666 
Q 307.484506 367.786773 307.444182 368.130038 
Q 307.40641 368.451577 307.486801 368.864085 
Q 307.567192 369.276594 307.773673 369.806333 
L 306.72269 369.462619 
Q 306.607463 368.981043 306.577097 368.527056 
Q 306.545772 368.071855 306.596815 367.637343 
Q 306.687671 366.863911 307.074436 366.458925 
Q 307.461329 366.052853 308.038144 366.120612 
Q 308.533488 366.178801 308.908942 366.498223 
Q 309.284396 366.817646 309.868977 367.822397 
z
" style="fill:#ffffff;stroke:#000000;"/>
    <path d="M 309.959591 380.288276 
Q 310.142556 380.811949 310.19722 381.359094 
Q 310.252011 381.905153 310.180679 382.512384 
Q 310.053838 383.592147 309.432658 384.145799 
Q 308.811478 384.699452 307.864242 384.588179 
Q 307.250493 384.516081 306.735498 384.259558 
Q 306.219544 384.001821 305.820301 383.566172 
Q 305.332159 383.034182 305.138625 382.366103 
Q 304.945091 381.698024 305.041179 380.880054 
Q 305.094646 380.424903 305.244472 379.974463 
Q 305.393211 379.523895 305.632625 379.098296 
L 306.657406 379.421312 
Q 306.36872 379.806984 306.203739 380.189567 
Q 306.037799 380.570937 305.99084 380.970688 
Q 305.887862 381.847316 306.407712 382.465627 
Q 306.926475 383.08381 307.843296 383.191509 
Q 308.450527 383.262842 308.824918 382.981947 
Q 309.19835 382.699838 309.266875 382.116505 
Q 309.289206 381.926406 309.286553 381.733372 
Q 309.282813 381.540211 309.251213 381.340472 
L 308.289757 381.031503 
L 308.196094 381.828833 
L 307.338989 381.559653 
L 307.577486 379.529395 
z
M 307.962611 374.732211 
Q 307.365156 374.662027 307.02162 374.895888 
Q 306.677124 375.128535 306.616894 375.641259 
Q 306.53714 376.320185 307.092438 376.852355 
Q 307.647864 377.383439 308.563599 377.491011 
Q 309.148018 377.559664 309.502162 377.329252 
Q 309.856306 377.098839 309.912453 376.620876 
Q 309.958391 376.229815 309.829965 375.907474 
Q 309.70058 375.583919 309.403093 375.332023 
Q 309.117366 375.09252 308.743666 374.936292 
Q 308.369966 374.780063 307.962611 374.732211 
z
M 305.691988 375.339887 
Q 305.81079 374.32856 306.44475 373.778612 
Q 307.07871 373.228663 307.985755 373.335215 
Q 308.602762 373.407695 309.13143 373.660318 
Q 309.659012 373.912814 310.054418 374.324884 
Q 310.542491 374.829335 310.738895 375.463612 
Q 310.934339 376.096675 310.841825 376.884228 
Q 310.723406 377.892297 310.09066 378.441286 
Q 309.457913 378.990276 308.548697 378.88347 
Q 307.927344 378.810479 307.399634 378.559069 
Q 306.870838 378.307533 306.472429 377.892907 
Q 305.986849 377.395357 305.793704 376.761463 
Q 305.599474 376.127441 305.691988 375.339887 
z
M 310.670683 369.200656 
L 310.929469 366.997679 
L 311.867921 367.296237 
L 311.43559 370.976556 
L 310.490045 370.67276 
L 309.117054 368.326552 
Q 308.886956 367.941609 308.630561 367.724274 
Q 308.374294 367.505853 308.112501 367.4751 
Q 307.834413 367.442432 307.660002 367.614666 
Q 307.484506 367.786773 307.444182 368.130038 
Q 307.40641 368.451577 307.486801 368.864085 
Q 307.567192 369.276594 307.773673 369.806333 
L 306.72269 369.462619 
Q 306.607463 368.981043 306.577097 368.527056 
Q 306.545772 368.071855 306.596815 367.637343 
Q 306.687671 366.863911 307.074436 366.458925 
Q 307.461329 366.052853 308.038144 366.120612 
Q 308.533488 366.178801 308.908942 366.498223 
Q 309.284396 366.817646 309.868977 367.822397 
z
" style="fill:#ffffff;"/>
    <path d="M 311.959591 382.288276 
Q 312.142556 382.811949 312.19722 383.359094 
Q 312.252011 383.905153 312.180679 384.512384 
Q 312.053838 385.592147 311.432658 386.145799 
Q 310.811478 386.699452 309.864242 386.588179 
Q 309.250493 386.516081 308.735498 386.259558 
Q 308.219544 386.001821 307.820301 385.566172 
Q 307.332159 385.034182 307.138625 384.366103 
Q 306.945091 383.698024 307.041179 382.880054 
Q 307.094646 382.424903 307.244472 381.974463 
Q 307.393211 381.523895 307.632625 381.098296 
L 308.657406 381.421312 
Q 308.36872 381.806984 308.203739 382.189567 
Q 308.037799 382.570937 307.99084 382.970688 
Q 307.887862 383.847316 308.407712 384.465627 
Q 308.926475 385.08381 309.843296 385.191509 
Q 310.450527 385.262842 310.824918 384.981947 
Q 311.19835 384.699838 311.266875 384.116505 
Q 311.289206 383.926406 311.286553 383.733372 
Q 311.282813 383.540211 311.251213 383.340472 
L 310.289757 383.031503 
L 310.196094 383.828833 
L 309.338989 383.559653 
L 309.577486 381.529395 
z
M 309.962611 376.732211 
Q 309.365156 376.662027 309.02162 376.895888 
Q 308.677124 377.128535 308.616894 377.641259 
Q 308.53714 378.320185 309.092438 378.852355 
Q 309.647864 379.383439 310.563599 379.491011 
Q 311.148018 379.559664 311.502162 379.329252 
Q 311.856306 379.098839 311.912453 378.620876 
Q 311.958391 378.229815 311.829965 377.907474 
Q 311.70058 377.583919 311.403093 377.332023 
Q 311.117366 377.09252 310.743666 376.936292 
Q 310.369966 376.780063 309.962611 376.732211 
z
M 307.691988 377.339887 
Q 307.81079 376.32856 308.44475 375.778612 
Q 309.07871 375.228663 309.985755 375.335215 
Q 310.602762 375.407695 311.13143 375.660318 
Q 311.659012 375.912814 312.054418 376.324884 
Q 312.542491 376.829335 312.738895 377.463612 
Q 312.934339 378.096675 312.841825 378.884228 
Q 312.723406 379.892297 312.09066 380.441286 
Q 311.457913 380.990276 310.548697 380.88347 
Q 309.927344 380.810479 309.399634 380.559069 
Q 308.870838 380.307533 308.472429 379.892907 
Q 307.986849 379.395357 307.793704 378.761463 
Q 307.599474 378.127441 307.691988 377.339887 
z
M 312.670683 371.200656 
L 312.929469 368.997679 
L 313.867921 369.296237 
L 313.43559 372.976556 
L 312.490045 372.67276 
L 311.117054 370.326552 
Q 310.886956 369.941609 310.630561 369.724274 
Q 310.374294 369.505853 310.112501 369.4751 
Q 309.834413 369.442432 309.660002 369.614666 
Q 309.484506 369.786773 309.444182 370.130038 
Q 309.40641 370.451577 309.486801 370.864085 
Q 309.567192 371.276594 309.773673 371.806333 
L 308.72269 371.462619 
Q 308.607463 370.981043 308.577097 370.527056 
Q 308.545772 370.071855 308.596815 369.637343 
Q 308.687671 368.863911 309.074436 368.458925 
Q 309.461329 368.052853 310.038144 368.120612 
Q 310.533488 368.178801 310.908942 368.498223 
Q 311.284396 368.817646 311.868977 369.822397 
z
" style="fill:#4c4c4c;opacity:0.3;"/>
    <path d="M 309.959591 380.288276 
Q 310.142556 380.811949 310.19722 381.359094 
Q 310.252011 381.905153 310.180679 382.512384 
Q 310.053838 383.592147 309.432658 384.145799 
Q 308.811478 384.699452 307.864242 384.588179 
Q 307.250493 384.516081 306.735498 384.259558 
Q 306.219544 384.001821 305.820301 383.566172 
Q 305.332159 383.034182 305.138625 382.366103 
Q 304.945091 381.698024 305.041179 380.880054 
Q 305.094646 380.424903 305.244472 379.974463 
Q 305.393211 379.523895 305.632625 379.098296 
L 306.657406 379.421312 
Q 306.36872 379.806984 306.203739 380.189567 
Q 306.037799 380.570937 305.99084 380.970688 
Q 305.887862 381.847316 306.407712 382.465627 
Q 306.926475 383.08381 307.843296 383.191509 
Q 308.450527 383.262842 308.824918 382.981947 
Q 309.19835 382.699838 309.266875 382.116505 
Q 309.289206 381.926406 309.286553 381.733372 
Q 309.282813 381.540211 309.251213 381.340472 
L 308.289757 381.031503 
L 308.196094 381.828833 
L 307.338989 381.559653 
L 307.577486 379.529395 
z
M 307.962611 374.732211 
Q 307.365156 374.662027 307.02162 374.895888 
Q 306.677124 375.128535 306.616894 375.641259 
Q 306.53714 376.320185 307.092438 376.852355 
Q 307.647864 377.383439 308.563599 377.491011 
Q 309.148018 377.559664 309.502162 377.329252 
Q 309.856306 377.098839 309.912453 376.620876 
Q 309.958391 376.229815 309.829965 375.907474 
Q 309.70058 375.583919 309.403093 375.332023 
Q 309.117366 375.09252 308.743666 374.936292 
Q 308.369966 374.780063 307.962611 374.732211 
z
M 305.691988 375.339887 
Q 305.81079 374.32856 306.44475 373.778612 
Q 307.07871 373.228663 307.985755 373.335215 
Q 308.602762 373.407695 309.13143 373.660318 
Q 309.659012 373.912814 310.054418 374.324884 
Q 310.542491 374.829335 310.738895 375.463612 
Q 310.934339 376.096675 310.841825 376.884228 
Q 310.723406 377.892297 310.09066 378.441286 
Q 309.457913 378.990276 308.548697 378.88347 
Q 307.927344 378.810479 307.399634 378.559069 
Q 306.870838 378.307533 306.472429 377.892907 
Q 305.986849 377.395357 305.793704 376.761463 
Q 305.599474 376.127441 305.691988 375.339887 
z
M 310.670683 369.200656 
L 310.929469 366.997679 
L 311.867921 367.296237 
L 311.43559 370.976556 
L 310.490045 370.67276 
L 309.117054 368.326552 
Q 308.886956 367.941609 308.630561 367.724274 
Q 308.374294 367.505853 308.112501 367.4751 
Q 307.834413 367.442432 307.660002 367.614666 
Q 307.484506 367.786773 307.444182 368.130038 
Q 307.40641 368.451577 307.486801 368.864085 
Q 307.567192 369.276594 307.773673 369.806333 
L 306.72269 369.462619 
Q 306.607463 368.981043 306.577097 368.527056 
Q 306.545772 368.071855 306.596815 367.637343 
Q 306.687671 366.863911 307.074436 366.458925 
Q 307.461329 366.052853 308.038144 366.120612 
Q 308.533488 366.178801 308.908942 366.498223 
Q 309.284396 366.817646 309.868977 367.822397 
z
" style="fill:#ffffff;"/>
   </g>
   <g id="text_20">
    <path d="M 394.352064 271.642306 
Q 393.950391 272.024887 393.47444 272.300253 
Q 392.99953 272.575287 392.416895 272.760633 
Q 391.380866 273.09021 390.620366 272.752519 
Q 389.859866 272.414828 389.57074 271.505958 
Q 389.383405 270.917068 389.404806 270.342119 
Q 389.426917 269.765797 389.659232 269.22246 
Q 389.942672 268.558414 390.471553 268.106672 
Q 391.000433 267.65493 391.785272 267.405261 
Q 392.221988 267.266334 392.694136 267.217139 
Q 393.165953 267.166902 393.652402 267.209569 
L 393.780584 268.27638 
Q 393.310198 268.172362 392.893625 268.179775 
Q 392.477761 268.185815 392.094201 268.307831 
Q 391.25308 268.575405 390.904068 269.303926 
Q 390.554724 270.031404 390.834566 270.911091 
Q 391.019912 271.493727 391.430171 271.719022 
Q 391.841141 271.942944 392.400846 271.764892 
Q 392.583246 271.706868 392.758019 271.624871 
Q 392.932461 271.541832 393.101409 271.430699 
L 392.986536 270.427373 
L 392.2215 270.670743 
L 392.113395 269.778891 
L 394.061421 269.159193 
z
M 398.590753 267.532403 
Q 398.408392 266.959148 398.053704 266.742573 
Q 397.699727 266.524624 397.207769 266.681124 
Q 396.556343 266.888353 396.300424 267.613657 
Q 396.045547 268.338631 396.325058 269.217275 
Q 396.503441 269.778023 396.85936 270.005683 
Q 397.215279 270.233344 397.673883 270.087455 
Q 398.049105 269.968091 398.289835 269.718199 
Q 398.531276 269.466934 398.63813 269.092057 
Q 398.738541 268.733004 398.726816 268.328131 
Q 398.715091 267.923259 398.590753 267.532403 
z
M 397.101042 265.714229 
Q 398.071407 265.405541 398.833801 265.756402 
Q 399.596196 266.107264 399.873054 266.97757 
Q 400.061384 267.569586 400.049173 268.155384 
Q 400.036631 268.74014 399.824215 269.27026 
Q 399.565837 269.922891 399.068935 270.363312 
Q 398.572745 270.802359 397.81709 271.042745 
Q 396.849852 271.350438 396.088832 271.000287 
Q 395.327811 270.650136 395.05029 269.777746 
Q 394.860634 269.181561 394.872134 268.597136 
Q 394.883302 268.01167 395.096808 267.47776 
Q 395.349927 266.830245 395.847823 266.392951 
Q 396.345388 265.954615 397.101042 265.714229 
z
M 403.576166 268.152457 
L 404.68307 267.800333 
L 404.2928 264.462843 
L 403.184412 265.073684 
L 403.079624 264.167004 
L 404.180716 263.558484 
L 405.372045 263.179503 
L 405.872314 267.422015 
L 406.972964 267.071881 
L 407.082773 267.990737 
L 403.678679 269.073633 
z
" style="fill:#ffffff;stroke:#000000;"/>
    <path d="M 394.352064 271.642306 
Q 393.950391 272.024887 393.47444 272.300253 
Q 392.99953 272.575287 392.416895 272.760633 
Q 391.380866 273.09021 390.620366 272.752519 
Q 389.859866 272.414828 389.57074 271.505958 
Q 389.383405 270.917068 389.404806 270.342119 
Q 389.426917 269.765797 389.659232 269.22246 
Q 389.942672 268.558414 390.471553 268.106672 
Q 391.000433 267.65493 391.785272 267.405261 
Q 392.221988 267.266334 392.694136 267.217139 
Q 393.165953 267.166902 393.652402 267.209569 
L 393.780584 268.27638 
Q 393.310198 268.172362 392.893625 268.179775 
Q 392.477761 268.185815 392.094201 268.307831 
Q 391.25308 268.575405 390.904068 269.303926 
Q 390.554724 270.031404 390.834566 270.911091 
Q 391.019912 271.493727 391.430171 271.719022 
Q 391.841141 271.942944 392.400846 271.764892 
Q 392.583246 271.706868 392.758019 271.624871 
Q 392.932461 271.541832 393.101409 271.430699 
L 392.986536 270.427373 
L 392.2215 270.670743 
L 392.113395 269.778891 
L 394.061421 269.159193 
z
M 398.590753 267.532403 
Q 398.408392 266.959148 398.053704 266.742573 
Q 397.699727 266.524624 397.207769 266.681124 
Q 396.556343 266.888353 396.300424 267.613657 
Q 396.045547 268.338631 396.325058 269.217275 
Q 396.503441 269.778023 396.85936 270.005683 
Q 397.215279 270.233344 397.673883 270.087455 
Q 398.049105 269.968091 398.289835 269.718199 
Q 398.531276 269.466934 398.63813 269.092057 
Q 398.738541 268.733004 398.726816 268.328131 
Q 398.715091 267.923259 398.590753 267.532403 
z
M 397.101042 265.714229 
Q 398.071407 265.405541 398.833801 265.756402 
Q 399.596196 266.107264 399.873054 266.97757 
Q 400.061384 267.569586 400.049173 268.155384 
Q 400.036631 268.74014 399.824215 269.27026 
Q 399.565837 269.922891 399.068935 270.363312 
Q 398.572745 270.802359 397.81709 271.042745 
Q 396.849852 271.350438 396.088832 271.000287 
Q 395.327811 270.650136 395.05029 269.777746 
Q 394.860634 269.181561 394.872134 268.597136 
Q 394.883302 268.01167 395.096808 267.47776 
Q 395.349927 266.830245 395.847823 266.392951 
Q 396.345388 265.954615 397.101042 265.714229 
z
M 403.576166 268.152457 
L 404.68307 267.800333 
L 404.2928 264.462843 
L 403.184412 265.073684 
L 403.079624 264.167004 
L 404.180716 263.558484 
L 405.372045 263.179503 
L 405.872314 267.422015 
L 406.972964 267.071881 
L 407.082773 267.990737 
L 403.678679 269.073633 
z
" style="fill:#ffffff;"/>
    <path d="M 396.352064 273.642306 
Q 395.950391 274.024887 395.47444 274.300253 
Q 394.99953 274.575287 394.416895 274.760633 
Q 393.380866 275.09021 392.620366 274.752519 
Q 391.859866 274.414828 391.57074 273.505958 
Q 391.383405 272.917068 391.404806 272.342119 
Q 391.426917 271.765797 391.659232 271.22246 
Q 391.942672 270.558414 392.471553 270.106672 
Q 393.000433 269.65493 393.785272 269.405261 
Q 394.221988 269.266334 394.694136 269.217139 
Q 395.165953 269.166902 395.652402 269.209569 
L 395.780584 270.27638 
Q 395.310198 270.172362 394.893625 270.179775 
Q 394.477761 270.185815 394.094201 270.307831 
Q 393.25308 270.575405 392.904068 271.303926 
Q 392.554724 272.031404 392.834566 272.911091 
Q 393.019912 273.493727 393.430171 273.719022 
Q 393.841141 273.942944 394.400846 273.764892 
Q 394.583246 273.706868 394.758019 273.624871 
Q 394.932461 273.541832 395.101409 273.430699 
L 394.986536 272.427373 
L 394.2215 272.670743 
L 394.113395 271.778891 
L 396.061421 271.159193 
z
M 400.590753 269.532403 
Q 400.408392 268.959148 400.053704 268.742573 
Q 399.699727 268.524624 399.207769 268.681124 
Q 398.556343 268.888353 398.300424 269.613657 
Q 398.045547 270.338631 398.325058 271.217275 
Q 398.503441 271.778023 398.85936 272.005683 
Q 399.215279 272.233344 399.673883 272.087455 
Q 400.049105 271.968091 400.289835 271.718199 
Q 400.531276 271.466934 400.63813 271.092057 
Q 400.738541 270.733004 400.726816 270.328131 
Q 400.715091 269.923259 400.590753 269.532403 
z
M 399.101042 267.714229 
Q 400.071407 267.405541 400.833801 267.756402 
Q 401.596196 268.107264 401.873054 268.97757 
Q 402.061384 269.569586 402.049173 270.155384 
Q 402.036631 270.74014 401.824215 271.27026 
Q 401.565837 271.922891 401.068935 272.363312 
Q 400.572745 272.802359 399.81709 273.042745 
Q 398.849852 273.350438 398.088832 273.000287 
Q 397.327811 272.650136 397.05029 271.777746 
Q 396.860634 271.181561 396.872134 270.597136 
Q 396.883302 270.01167 397.096808 269.47776 
Q 397.349927 268.830245 397.847823 268.392951 
Q 398.345388 267.954615 399.101042 267.714229 
z
M 405.576166 270.152457 
L 406.68307 269.800333 
L 406.2928 266.462843 
L 405.184412 267.073684 
L 405.079624 266.167004 
L 406.180716 265.558484 
L 407.372045 265.179503 
L 407.872314 269.422015 
L 408.972964 269.071881 
L 409.082773 269.990737 
L 405.678679 271.073633 
z
" style="fill:#4c4c4c;opacity:0.3;"/>
    <path d="M 394.352064 271.642306 
Q 393.950391 272.024887 393.47444 272.300253 
Q 392.99953 272.575287 392.416895 272.760633 
Q 391.380866 273.09021 390.620366 272.752519 
Q 389.859866 272.414828 389.57074 271.505958 
Q 389.383405 270.917068 389.404806 270.342119 
Q 389.426917 269.765797 389.659232 269.22246 
Q 389.942672 268.558414 390.471553 268.106672 
Q 391.000433 267.65493 391.785272 267.405261 
Q 392.221988 267.266334 392.694136 267.217139 
Q 393.165953 267.166902 393.652402 267.209569 
L 393.780584 268.27638 
Q 393.310198 268.172362 392.893625 268.179775 
Q 392.477761 268.185815 392.094201 268.307831 
Q 391.25308 268.575405 390.904068 269.303926 
Q 390.554724 270.031404 390.834566 270.911091 
Q 391.019912 271.493727 391.430171 271.719022 
Q 391.841141 271.942944 392.400846 271.764892 
Q 392.583246 271.706868 392.758019 271.624871 
Q 392.932461 271.541832 393.101409 271.430699 
L 392.986536 270.427373 
L 392.2215 270.670743 
L 392.113395 269.778891 
L 394.061421 269.159193 
z
M 398.590753 267.532403 
Q 398.408392 266.959148 398.053704 266.742573 
Q 397.699727 266.524624 397.207769 266.681124 
Q 396.556343 266.888353 396.300424 267.613657 
Q 396.045547 268.338631 396.325058 269.217275 
Q 396.503441 269.778023 396.85936 270.005683 
Q 397.215279 270.233344 397.673883 270.087455 
Q 398.049105 269.968091 398.289835 269.718199 
Q 398.531276 269.466934 398.63813 269.092057 
Q 398.738541 268.733004 398.726816 268.328131 
Q 398.715091 267.923259 398.590753 267.532403 
z
M 397.101042 265.714229 
Q 398.071407 265.405541 398.833801 265.756402 
Q 399.596196 266.107264 399.873054 266.97757 
Q 400.061384 267.569586 400.049173 268.155384 
Q 400.036631 268.74014 399.824215 269.27026 
Q 399.565837 269.922891 399.068935 270.363312 
Q 398.572745 270.802359 397.81709 271.042745 
Q 396.849852 271.350438 396.088832 271.000287 
Q 395.327811 270.650136 395.05029 269.777746 
Q 394.860634 269.181561 394.872134 268.597136 
Q 394.883302 268.01167 395.096808 267.47776 
Q 395.349927 266.830245 395.847823 266.392951 
Q 396.345388 265.954615 397.101042 265.714229 
z
M 403.576166 268.152457 
L 404.68307 267.800333 
L 404.2928 264.462843 
L 403.184412 265.073684 
L 403.079624 264.167004 
L 404.180716 263.558484 
L 405.372045 263.179503 
L 405.872314 267.422015 
L 406.972964 267.071881 
L 407.082773 267.990737 
L 403.678679 269.073633 
z
" style="fill:#ffffff;"/>
   </g>
   <g id="text_21">
    <text style="font-family:DejaVu Sans;font-size:12px;font-style:normal;font-weight:normal;text-anchor:middle;" transform="rotate(-0, 321.609596, 23.943465)" x="321.609596" y="23.943465">CirGO Visualisation Plot</text>
   </g>
   <g id="legend_1">
    <g id="text_22">
     <text style="font-family:DejaVu Sans;font-size:7px;font-style:normal;font-weight:normal;text-anchor:start;" transform="rotate(-0, 710.09358, 46.746371)" x="710.09358" y="46.746371">Name and Proportion of the Biological Process (Inner Ring)</text>
    </g>
    <g id="patch_37">
     <path d="M 667.749596 57.021058 
L 681.749596 57.021058 
L 681.749596 52.121058 
L 667.749596 52.121058 
z
" style="fill:#cc96eb;stroke:#ffffff;stroke-linejoin:miter;stroke-width:0.7;"/>
    </g>
    <g id="text_23">
     <text style="font-family:DejaVu Sans;font-size:7px;font-style:normal;font-weight:normal;text-anchor:start;" transform="rotate(-0, 687.349596, 57.021058)" x="687.349596" y="57.021058">GO1 pyrimidine-containing compound metabolism, 40.2%</text>
    </g>
    <g id="patch_38">
     <path d="M 667.749596 67.295746 
L 681.749596 67.295746 
L 681.749596 62.395746 
L 667.749596 62.395746 
z
" style="fill:#214a65;stroke:#ffffff;stroke-linejoin:miter;stroke-width:0.7;"/>
    </g>
    <g id="text_24">
     <text style="font-family:DejaVu Sans;font-size:7px;font-style:normal;font-weight:normal;text-anchor:start;" transform="rotate(-0, 687.349596, 67.295746)" x="687.349596" y="67.295746">GO2 positive regulation of interferon-alpha production, 23.3%</text>
    </g>
    <g id="patch_39">
     <path d="M 667.749596 77.570433 
L 681.749596 77.570433 
L 681.749596 72.670433 
L 667.749596 72.670433 
z
" style="fill:#a1c54d;stroke:#ffffff;stroke-linejoin:miter;stroke-width:0.7;"/>
    </g>
    <g id="text_25">
     <text style="font-family:DejaVu Sans;font-size:7px;font-style:normal;font-weight:normal;text-anchor:start;" transform="rotate(-0, 687.349596, 77.570433)" x="687.349596" y="77.570433">GO3 chromosome passenger complex localization to spindle midzone, 21.0%</text>
    </g>
    <g id="patch_40">
     <path d="M 667.749596 87.845121 
L 681.749596 87.845121 
L 681.749596 82.945121 
L 667.749596 82.945121 
z
" style="fill:#943105;stroke:#ffffff;stroke-linejoin:miter;stroke-width:0.7;"/>
    </g>
    <g id="text_26">
     <text style="font-family:DejaVu Sans;font-size:7px;font-style:normal;font-weight:normal;text-anchor:start;" transform="rotate(-0, 687.349596, 87.845121)" x="687.349596" y="87.845121">GO4 eye pigmentation, 9.8%</text>
    </g>
    <g id="patch_41">
     <path d="M 667.749596 98.119808 
L 681.749596 98.119808 
L 681.749596 93.219808 
L 667.749596 93.219808 
z
" style="fill:#0cc0aa;stroke:#ffffff;stroke-linejoin:miter;stroke-width:0.7;"/>
    </g>
    <g id="text_27">
     <text style="font-family:DejaVu Sans;font-size:7px;font-style:normal;font-weight:normal;text-anchor:start;" transform="rotate(-0, 687.349596, 98.119808)" x="687.349596" y="98.119808">GO5 cellular response to exogenous dsRNA, 5.6%</text>
    </g>
   </g>
  </g>
 </g>
</svg>
